%FSDAX24Y24*%
%MOIN*%
%SFA1B1*%

%IPPOS*%
%ADD84C,0.003900*%
%ADD86C,0.002000*%
%LNde-020224-1*%
%LPD*%
G54D84*
X061135Y022050D02*
X061528D01*
X061332Y021853D02*
Y022247D01*
X051530Y019450D02*
X051924D01*
X051727Y019253D02*
Y019647D01*
X046248Y040200D02*
X046642D01*
X046445Y040003D02*
Y040397D01*
X040721Y040200D02*
X041114D01*
X040917Y040003D02*
Y040397D01*
X035193Y040200D02*
X035586D01*
X035390Y040003D02*
Y040397D01*
X056153Y033600D02*
X056547D01*
X056350Y033403D02*
Y033797D01*
X029665Y040200D02*
X030059D01*
X029862Y040003D02*
Y040397D01*
X024137Y040200D02*
X024531D01*
X024334Y040003D02*
Y040397D01*
X018609Y040200D02*
X019003D01*
X018806Y040003D02*
Y040397D01*
X013082Y040200D02*
X013475D01*
X013278Y040003D02*
Y040397D01*
X057503Y026050D02*
X057897D01*
X057700Y025853D02*
Y026247D01*
X055161Y037168D02*
X056539D01*
X055161Y035632D02*
X056539D01*
Y037168*
X055161Y035632D02*
Y037168D01*
X055850Y036203D02*
Y036597D01*
X055653Y036400D02*
X056047D01*
X057511Y022482D02*
X058889D01*
X057511Y024018D02*
X058889D01*
X057511Y022482D02*
Y024018D01*
X058889Y022482D02*
Y024018D01*
X058200Y023053D02*
Y023447D01*
X058003Y023250D02*
X058397D01*
X063585Y019422D02*
X063978D01*
X063781Y019226D02*
Y019619D01*
X071435Y022000D02*
X071828D01*
X071631Y021803D02*
Y022197D01*
X066285Y022000D02*
X066678D01*
X066481Y021803D02*
Y022197D01*
X068735Y019400D02*
X069128D01*
X068931Y019203D02*
Y019597D01*
X073835Y019400D02*
X074228D01*
X074032Y019203D02*
Y019597D01*
X076569Y022050D02*
X076963D01*
X076766Y021853D02*
Y022247D01*
X079069Y019450D02*
X079463D01*
X079266Y019253D02*
Y019647D01*
X070150Y029203D02*
Y029597D01*
X069953Y029400D02*
X070347D01*
X083111Y016989D02*
X085158D01*
X083111Y014311D02*
X085158D01*
Y016989*
X083111Y014311D02*
Y016989D01*
X084134Y015453D02*
Y015847D01*
X083937Y015650D02*
X084331D01*
X065713Y026776D02*
Y027524D01*
X067287Y026776D02*
Y027524D01*
X065713D02*
X067287D01*
X065713Y026776D02*
X067287D01*
X066303Y027150D02*
X066697D01*
X066500Y026953D02*
Y027347D01*
X078522Y037400D02*
X078915D01*
X078719Y037203D02*
Y037597D01*
X076072Y040000D02*
X076465D01*
X076269Y039803D02*
Y040197D01*
X073287Y037400D02*
X073681D01*
X073484Y037203D02*
Y037597D01*
X068287Y037400D02*
X068681D01*
X068484Y037203D02*
Y037597D01*
X070803Y040000D02*
X071197D01*
X071000Y039803D02*
Y040197D01*
X065637Y040000D02*
X066031D01*
X065834Y039803D02*
Y040197D01*
X063187Y037400D02*
X063581D01*
X063384Y037203D02*
Y037597D01*
X060787Y040000D02*
X061181D01*
X060984Y039803D02*
Y040197D01*
X012835Y019450D02*
X013229D01*
X013032Y019253D02*
Y019647D01*
X018363Y019450D02*
X018757D01*
X018560Y019253D02*
Y019647D01*
X023891Y019450D02*
X024285D01*
X024088Y019253D02*
Y019647D01*
X029419Y019450D02*
X029813D01*
X029616Y019253D02*
Y019647D01*
X034947Y019450D02*
X035340D01*
X035144Y019253D02*
Y019647D01*
X040474Y019450D02*
X040868D01*
X040671Y019253D02*
Y019647D01*
X046002Y019450D02*
X046396D01*
X046199Y019253D02*
Y019647D01*
X051776Y040200D02*
X052170D01*
X051973Y040003D02*
Y040397D01*
G54D86*
X049601Y018312D02*
Y020419D01*
X053853Y018312D02*
Y020419D01*
X049601Y018312D02*
X053853D01*
X049601Y020419D02*
X053853D01*
X048571Y039232D02*
Y041338D01*
X044319Y039232D02*
Y041338D01*
X048571*
X044319Y039232D02*
X048571D01*
X043043D02*
Y041338D01*
X038791Y039232D02*
Y041338D01*
X043043*
X038791Y039232D02*
X043043D01*
X037516D02*
Y041338D01*
X033264Y039232D02*
Y041338D01*
X037516*
X033264Y039232D02*
X037516D01*
X031988D02*
Y041338D01*
X027736Y039232D02*
Y041338D01*
X031988*
X027736Y039232D02*
X031988D01*
X026460D02*
Y041338D01*
X022208Y039232D02*
Y041338D01*
X026460*
X022208Y039232D02*
X026460D01*
X020932D02*
Y041338D01*
X016680Y039232D02*
Y041338D01*
X020932*
X016680Y039232D02*
X020932D01*
X015404D02*
Y041338D01*
X011152Y039232D02*
Y041338D01*
X015404*
X011152Y039232D02*
X015404D01*
X064136Y018560D02*
Y020285D01*
X063427Y018560D02*
X064136D01*
X063427Y020285D02*
X064136D01*
X063427Y018560D02*
Y020285D01*
X069286Y018538D02*
Y020262D01*
X068577Y018538D02*
X069286D01*
X068577Y020262D02*
X069286D01*
X068577Y018538D02*
Y020262D01*
X074386Y018538D02*
Y020262D01*
X073677Y018538D02*
X074386D01*
X073677Y020262D02*
X074386D01*
X073677Y018538D02*
Y020262D01*
X079620Y018588D02*
Y020312D01*
X078911Y018588D02*
X079620D01*
X078911Y020312D02*
X079620D01*
X078911Y018588D02*
Y020312D01*
X068103Y027353D02*
X072197D01*
X068103Y031447D02*
X072197D01*
Y027353D02*
Y031447D01*
X068103Y027353D02*
Y031447D01*
X075914Y039138D02*
Y040862D01*
X076623*
X075914Y039138D02*
X076623D01*
Y040862*
X070646Y039138D02*
Y040862D01*
X071354*
X070646Y039138D02*
X071354D01*
Y040862*
X065480Y039138D02*
Y040862D01*
X066189*
X065480Y039138D02*
X066189D01*
Y040862*
X060630Y039138D02*
Y040862D01*
X061339*
X060630Y039138D02*
X061339D01*
Y040862*
X010906Y018312D02*
Y020419D01*
X015158Y018312D02*
Y020419D01*
X010906Y018312D02*
X015158D01*
X010906Y020419D02*
X015158D01*
X016434Y018312D02*
Y020419D01*
X020686Y018312D02*
Y020419D01*
X016434Y018312D02*
X020686D01*
X016434Y020419D02*
X020686D01*
X021962Y018312D02*
Y020419D01*
X026214Y018312D02*
Y020419D01*
X021962Y018312D02*
X026214D01*
X021962Y020419D02*
X026214D01*
X027490Y018312D02*
Y020419D01*
X031742Y018312D02*
Y020419D01*
X027490Y018312D02*
X031742D01*
X027490Y020419D02*
X031742D01*
X033018Y018312D02*
Y020419D01*
X037270Y018312D02*
Y020419D01*
X033018Y018312D02*
X037270D01*
X033018Y020419D02*
X037270D01*
X038545Y018312D02*
Y020419D01*
X042797Y018312D02*
Y020419D01*
X038545Y018312D02*
X042797D01*
X038545Y020419D02*
X042797D01*
X044073Y018312D02*
Y020419D01*
X048325Y018312D02*
Y020419D01*
X044073Y018312D02*
X048325D01*
X044073Y020419D02*
X048325D01*
X054099Y039232D02*
Y041338D01*
X049847Y039232D02*
Y041338D01*
X054099*
X049847Y039232D02*
X054099D01*
M02*