%FSDAX24Y24*%
%MOIN*%
%SFA1B1*%

%IPPOS*%
%ADD11C,0.059100*%
%ADD12R,0.043300X0.039400*%
%ADD13R,0.039400X0.043300*%
%ADD14R,0.051200X0.059100*%
%ADD15R,0.031500X0.031500*%
%ADD16R,0.021700X0.057100*%
%ADD17R,0.059100X0.051200*%
%ADD18R,0.023600X0.051200*%
%ADD19R,0.048000X0.035800*%
%ADD20R,0.057100X0.021700*%
%ADD21O,0.011800X0.070900*%
%ADD22O,0.070900X0.011800*%
%ADD23O,0.023600X0.074800*%
%ADD24R,0.045300X0.039400*%
%ADD25R,0.043300X0.061000*%
%ADD26R,0.043300X0.061000*%
%ADD27R,0.135800X0.061000*%
%LNde-020224-1*%
%LPD*%
G54D11*
X087400Y011450D03*
X073950Y027200D03*
X518300Y024150D03*
X011550Y048000D03*
G54D12*
X078131Y023550D03*
X078800D03*
X072997Y023500D03*
X073666D03*
X067847D03*
X068516D03*
X062697Y023550D03*
X063366D03*
X086615Y030800D03*
X087285D03*
X086615Y030113D03*
X087285D03*
X086615Y029425D03*
X087285D03*
X086615Y028737D03*
X087285D03*
X086615Y028050D03*
X087285D03*
X071315Y034100D03*
X071985D03*
X059215Y027550D03*
X059885D03*
X055865Y031150D03*
X056535D03*
X066315Y029300D03*
X066985D03*
X066315Y030650D03*
X066985D03*
X071265Y026950D03*
X071935D03*
X066315Y028450D03*
X066985D03*
X066315Y027850D03*
X066985D03*
X082057Y038200D03*
X082727D03*
X085400Y043200D03*
X086069D03*
X083119Y042300D03*
X082450D03*
X018335Y031150D03*
X017665D03*
X015735Y027550D03*
X015065D03*
X021235D03*
X020565D03*
X026785D03*
X026115D03*
X032335D03*
X031665D03*
X037835D03*
X037165D03*
X043385D03*
X042715D03*
X048885D03*
X048215D03*
X054435D03*
X053765D03*
X051535Y031150D03*
X050865D03*
X045985D03*
X045315D03*
X040435D03*
X039765D03*
X034935D03*
X034265D03*
X029385D03*
X028715D03*
X023885D03*
X023215D03*
X012835D03*
X012165D03*
X062019Y035900D03*
X061350D03*
X067119D03*
X066450D03*
X071969D03*
X071300D03*
X077353D03*
X076684D03*
G54D13*
X072700Y030515D03*
Y031185D03*
X068300Y032535D03*
Y031865D03*
X069850Y032415D03*
Y033085D03*
X085784Y014681D03*
Y015350D03*
X084900Y017515D03*
Y018185D03*
X086500Y037659D03*
Y036990D03*
G54D14*
X057976Y035100D03*
X058724D03*
X042274Y037450D03*
X041526D03*
Y036450D03*
X042274D03*
X040547Y037450D03*
X039799D03*
X039849Y036450D03*
X040597D03*
X031224Y037450D03*
X030476D03*
Y036450D03*
X031224D03*
X029574Y037450D03*
X028826D03*
Y036450D03*
X029574D03*
X025674Y037450D03*
X024926D03*
Y036450D03*
X025674D03*
X023276D03*
X024024D03*
Y037450D03*
X023276D03*
X018574Y037400D03*
X017826D03*
X020124D03*
X019376D03*
Y036450D03*
X020124D03*
X017826D03*
X018574D03*
X014674Y037450D03*
X013926D03*
X013124D03*
X012376D03*
X058724Y036900D03*
X057976D03*
Y036000D03*
X058724D03*
X056124Y024500D03*
X055376D03*
X056124Y023650D03*
X055376D03*
Y022750D03*
X056124D03*
X061007Y014600D03*
X061756D03*
Y015450D03*
X061007D03*
Y016300D03*
X061756D03*
X063606D03*
X062857D03*
Y015450D03*
X063606D03*
Y014600D03*
X062857D03*
X066157Y016250D03*
X066906D03*
X068656D03*
X067907D03*
Y015400D03*
X068656D03*
X066906D03*
X066157D03*
Y014550D03*
X066906D03*
X068656D03*
X067907D03*
X071307D03*
X072056D03*
Y015400D03*
X071307D03*
Y016250D03*
X072056D03*
X073856D03*
X073107D03*
Y015400D03*
X073856D03*
Y014550D03*
X073107D03*
X076292Y014600D03*
X077040D03*
Y015450D03*
X076292D03*
Y016300D03*
X077040D03*
X079090D03*
X078342D03*
Y015450D03*
X079090D03*
Y014600D03*
X078342D03*
X066226Y031350D03*
X066974D03*
X081939Y037400D03*
X082687D03*
X085310Y042250D03*
X086058D03*
X083208Y043050D03*
X082460D03*
X079193Y043150D03*
X078444D03*
X076444D03*
X077193D03*
X078444Y044000D03*
X079193D03*
Y044850D03*
X078444D03*
X077193Y044000D03*
X076444D03*
Y044850D03*
X077193D03*
X073808Y043150D03*
X073060D03*
X071160D03*
X071908D03*
X073060Y044000D03*
X073808D03*
Y044850D03*
X073060D03*
X071908Y044000D03*
X071160D03*
Y044850D03*
X071908D03*
X068793Y043150D03*
X068044D03*
Y044000D03*
X068793D03*
Y044850D03*
X068044D03*
X066044Y043150D03*
X066793D03*
Y044000D03*
X066044D03*
Y044850D03*
X066793D03*
X061060Y043150D03*
X061808D03*
Y044000D03*
X061060D03*
X063708Y043150D03*
X062960D03*
Y044000D03*
X063708D03*
Y044850D03*
X062960D03*
X061060D03*
X061808D03*
X011776Y022250D03*
X012524D03*
Y023200D03*
X011776D03*
X013426Y022250D03*
X014174D03*
Y023200D03*
X013426D03*
X018068D03*
X017320D03*
Y022250D03*
X018068D03*
X018970D03*
X019718D03*
Y023200D03*
X018970D03*
X023618D03*
X022870D03*
Y022250D03*
X023618D03*
X024470D03*
X025218D03*
Y023200D03*
X024470D03*
X030020Y022250D03*
X030768D03*
X028420D03*
X029168D03*
Y023200D03*
X028420D03*
X030768D03*
X030020D03*
X034618D03*
X033870D03*
X036268D03*
X035520D03*
X033870Y022250D03*
X034618D03*
X035520D03*
X036268D03*
X039426Y022300D03*
X040174D03*
Y023250D03*
X039426D03*
X041824D03*
X041076D03*
Y022300D03*
X041824D03*
X046576Y022250D03*
X047324D03*
Y023200D03*
X046576D03*
X045674D03*
X044926D03*
Y022250D03*
X045674D03*
X050576D03*
X051324D03*
Y023250D03*
X050576D03*
X052874D03*
X052126D03*
X052176Y022250D03*
X052924D03*
X052599Y036400D03*
X053347D03*
X050949D03*
X051697D03*
X053347Y037400D03*
X052599D03*
X051697D03*
X050949D03*
X046074D03*
X045326D03*
Y036450D03*
X046074D03*
X047076D03*
X047824D03*
Y037400D03*
X047076D03*
X034326Y036450D03*
X035074D03*
X035124Y037450D03*
X034376D03*
X036774D03*
X036026D03*
Y036450D03*
X036774D03*
X013926Y036500D03*
X014674D03*
X012376D03*
X013124D03*
G54D15*
X071300Y033245D03*
Y032655D03*
X060831Y019495D03*
Y018905D03*
X065981Y019445D03*
Y018855D03*
X071132Y019473D03*
Y018882D03*
X076266Y019523D03*
Y018932D03*
X079219Y039927D03*
Y040518D03*
X073984Y039955D03*
Y040545D03*
X068984Y039905D03*
Y040495D03*
X063884Y039905D03*
Y040495D03*
G54D16*
X057050Y035987D03*
Y036913D03*
X058700Y038713D03*
Y037787D03*
X057917D03*
Y038713D03*
X057133Y037787D03*
Y038713D03*
X056350D03*
Y037787D03*
X057000Y023763D03*
Y022837D03*
X055350Y020950D03*
Y021875D03*
X057750Y020937D03*
Y021863D03*
X056150Y021875D03*
Y020950D03*
X056950Y021863D03*
Y020937D03*
G54D17*
X056350Y040298D03*
Y039550D03*
X058700Y040298D03*
Y039550D03*
Y041748D03*
Y041000D03*
X056350Y041748D03*
Y041000D03*
Y043298D03*
Y042550D03*
X058685Y043298D03*
Y042550D03*
X057750Y019352D03*
Y020100D03*
Y017902D03*
Y018650D03*
Y016352D03*
Y017100D03*
X055350Y019326D03*
Y020074D03*
Y017850D03*
Y018598D03*
Y016350D03*
Y017098D03*
X062281Y019594D03*
Y018846D03*
X067382Y019572D03*
Y018824D03*
X072632Y019572D03*
Y018824D03*
X077766Y019622D03*
Y018874D03*
X087250Y037620D03*
Y036872D03*
X077868Y039828D03*
Y040576D03*
X072434Y039828D03*
Y040576D03*
X067434Y039828D03*
Y040576D03*
X062335Y039828D03*
Y040576D03*
G54D18*
X056224Y036813D03*
X055476D03*
X055850Y035987D03*
X057826Y022837D03*
X058574D03*
X058200Y023663D03*
G54D19*
X063781Y020066D03*
Y018779D03*
X068931Y020044D03*
Y018756D03*
X074032Y020044D03*
Y018756D03*
X079266Y020094D03*
Y018806D03*
X076269Y039356D03*
Y040644D03*
X071000Y039356D03*
Y040644D03*
X065834Y039356D03*
Y040644D03*
X060984Y039356D03*
Y040644D03*
G54D20*
X063794Y017150D03*
X062869D03*
Y018000D03*
X063794D03*
X060819Y017150D03*
X061744D03*
Y018000D03*
X060819D03*
X067969Y017950D03*
X068894D03*
Y017100D03*
X067969D03*
X066894Y017950D03*
X065969D03*
Y017100D03*
X066894D03*
X073119Y017950D03*
X074044D03*
Y017100D03*
X073119D03*
X071119D03*
X072044D03*
Y017950D03*
X071119D03*
X076153Y017150D03*
X077078D03*
X079278D03*
X078353D03*
Y018000D03*
X079278D03*
X077078D03*
X076153D03*
X078456Y041450D03*
X079381D03*
X077181D03*
X076256D03*
Y042300D03*
X077181D03*
X079381D03*
X078456D03*
X073072Y041450D03*
X073997D03*
X071913D03*
X070987D03*
Y042300D03*
X071913D03*
X073997D03*
X073072D03*
X068981D03*
X068056D03*
Y041450D03*
X068981D03*
X066781D03*
X065856D03*
Y042300D03*
X066781D03*
X062972Y041450D03*
X063897D03*
Y042300D03*
X062972D03*
X061797Y041450D03*
X060872D03*
Y042300D03*
X061797D03*
G54D21*
X069067Y030994D03*
X069264D03*
X069461D03*
X069658D03*
X069855D03*
X070052D03*
X070248D03*
X070445D03*
X070642D03*
X070839D03*
X071036D03*
X071233D03*
Y027806D03*
X071036D03*
X070839D03*
X070642D03*
X070445D03*
X070248D03*
X070052D03*
X069855D03*
X069658D03*
X069461D03*
X069264D03*
X069067D03*
G54D22*
X071744Y030483D03*
Y030286D03*
Y030089D03*
Y029892D03*
Y029695D03*
Y029498D03*
Y029302D03*
Y029105D03*
Y028908D03*
Y028711D03*
Y028514D03*
Y028317D03*
X068556D03*
Y028514D03*
Y028711D03*
Y028908D03*
Y029105D03*
Y029302D03*
Y029498D03*
Y029695D03*
Y029892D03*
Y030089D03*
Y030286D03*
Y030483D03*
G54D23*
X084884Y016575D03*
X084384D03*
X083884D03*
X083384D03*
X084884Y014725D03*
X084384D03*
X083884D03*
X083384D03*
G54D24*
X066037Y027150D03*
X066963D03*
G54D25*
X085456Y037413D03*
G54D26*
X084550Y037413D03*
X083644D03*
G54D27*
X084550Y034756D03*
M02*