%FSDAX24Y24*%
%MOIN*%
%SFA1B1*%

%IPPOS*%
%ADD29C,0.010000*%
%ADD84C,0.003900*%
%ADD85C,0.006000*%
%LNde-020224-1*%
%LPD*%
G54D29*
X086072Y012350D02*
D01*
X086070Y012404*
X086064Y012459*
X086054Y012513*
X086041Y012566*
X086024Y012619*
X086003Y012670*
X085979Y012719*
X085952Y012767*
X085921Y012812*
X085887Y012855*
X085851Y012896*
X085811Y012934*
X085769Y012970*
X085725Y013002*
X085678Y013031*
X085629Y013057*
X085579Y013079*
X085528Y013098*
X085475Y013113*
X085421Y013125*
X085367Y013132*
X085312Y013136*
X085257*
X085202Y013132*
X085148Y013125*
X085094Y013113*
X085041Y013098*
X084990Y013079*
X084940Y013057*
X084891Y013031*
X084844Y013002*
X084800Y012970*
X084758Y012934*
X084718Y012896*
X084682Y012855*
X084648Y012812*
X084617Y012767*
X084590Y012719*
X084566Y012670*
X084545Y012619*
X084528Y012566*
X084515Y012513*
X084505Y012459*
X084499Y012404*
X084498Y012350*
X084499Y012295*
X084505Y012240*
X084515Y012186*
X084528Y012133*
X084545Y012080*
X084566Y012029*
X084590Y011980*
X084617Y011932*
X084648Y011887*
X084682Y011844*
X084718Y011803*
X084758Y011765*
X084800Y011729*
X084844Y011697*
X084891Y011668*
X084940Y011642*
X084990Y011620*
X085041Y011601*
X085094Y011586*
X085148Y011574*
X085202Y011567*
X085257Y011563*
X085312*
X085367Y011567*
X085421Y011574*
X085475Y011586*
X085528Y011601*
X085579Y011620*
X085629Y011642*
X085678Y011668*
X085725Y011697*
X085769Y011729*
X085811Y011765*
X085851Y011803*
X085887Y011844*
X085921Y011887*
X085952Y011932*
X085979Y011980*
X086003Y012029*
X086024Y012080*
X086041Y012133*
X086054Y012186*
X086064Y012240*
X086070Y012295*
X086072Y012350*
X084087D02*
D01*
X084085Y012404*
X084079Y012459*
X084069Y012513*
X084056Y012566*
X084039Y012619*
X084018Y012670*
X083994Y012719*
X083967Y012767*
X083936Y012812*
X083902Y012855*
X083866Y012896*
X083826Y012934*
X083784Y012970*
X083740Y013002*
X083693Y013031*
X083644Y013057*
X083594Y013079*
X083543Y013098*
X083490Y013113*
X083436Y013125*
X083382Y013132*
X083327Y013136*
X083272*
X083217Y013132*
X083163Y013125*
X083109Y013113*
X083056Y013098*
X083005Y013079*
X082955Y013057*
X082906Y013031*
X082859Y013002*
X082815Y012970*
X082773Y012934*
X082733Y012896*
X082697Y012855*
X082663Y012812*
X082632Y012767*
X082605Y012719*
X082581Y012670*
X082560Y012619*
X082543Y012566*
X082530Y012513*
X082520Y012459*
X082514Y012404*
X082513Y012350*
X082514Y012295*
X082520Y012240*
X082530Y012186*
X082543Y012133*
X082560Y012080*
X082581Y012029*
X082605Y011980*
X082632Y011932*
X082663Y011887*
X082697Y011844*
X082733Y011803*
X082773Y011765*
X082815Y011729*
X082859Y011697*
X082906Y011668*
X082955Y011642*
X083005Y011620*
X083056Y011601*
X083109Y011586*
X083163Y011574*
X083217Y011567*
X083272Y011563*
X083327*
X083382Y011567*
X083436Y011574*
X083490Y011586*
X083543Y011601*
X083594Y011620*
X083644Y011642*
X083693Y011668*
X083740Y011697*
X083784Y011729*
X083826Y011765*
X083866Y011803*
X083902Y011844*
X083936Y011887*
X083967Y011932*
X083994Y011980*
X084018Y012029*
X084039Y012080*
X084056Y012133*
X084069Y012186*
X084079Y012240*
X084085Y012295*
X084087Y012350*
X072319Y012400D02*
D01*
X072317Y012454*
X072311Y012509*
X072301Y012563*
X072288Y012616*
X072271Y012669*
X072250Y012720*
X072226Y012769*
X072199Y012817*
X072168Y012862*
X072134Y012905*
X072098Y012946*
X072058Y012984*
X072016Y013020*
X071972Y013052*
X071925Y013081*
X071876Y013107*
X071826Y013129*
X071775Y013148*
X071722Y013163*
X071668Y013175*
X071614Y013182*
X071559Y013186*
X071504*
X071449Y013182*
X071395Y013175*
X071341Y013163*
X071288Y013148*
X071237Y013129*
X071187Y013107*
X071138Y013081*
X071091Y013052*
X071047Y013020*
X071005Y012984*
X070965Y012946*
X070929Y012905*
X070895Y012862*
X070864Y012817*
X070837Y012769*
X070813Y012720*
X070792Y012669*
X070775Y012616*
X070762Y012563*
X070752Y012509*
X070746Y012454*
X070745Y012400*
X070746Y012345*
X070752Y012290*
X070762Y012236*
X070775Y012183*
X070792Y012130*
X070813Y012079*
X070837Y012030*
X070864Y011982*
X070895Y011937*
X070929Y011894*
X070965Y011853*
X071005Y011815*
X071047Y011779*
X071091Y011747*
X071138Y011718*
X071187Y011692*
X071237Y011670*
X071288Y011651*
X071341Y011636*
X071395Y011624*
X071449Y011617*
X071504Y011613*
X071559*
X071614Y011617*
X071668Y011624*
X071722Y011636*
X071775Y011651*
X071826Y011670*
X071876Y011692*
X071925Y011718*
X071972Y011747*
X072016Y011779*
X072058Y011815*
X072098Y011853*
X072134Y011894*
X072168Y011937*
X072199Y011982*
X072226Y012030*
X072250Y012079*
X072271Y012130*
X072288Y012183*
X072301Y012236*
X072311Y012290*
X072317Y012345*
X072319Y012400*
X074303D02*
D01*
X074301Y012454*
X074295Y012509*
X074285Y012563*
X074272Y012616*
X074255Y012669*
X074234Y012720*
X074210Y012769*
X074183Y012817*
X074152Y012862*
X074118Y012905*
X074082Y012946*
X074042Y012984*
X074000Y013020*
X073956Y013052*
X073909Y013081*
X073860Y013107*
X073810Y013129*
X073759Y013148*
X073706Y013163*
X073652Y013175*
X073598Y013182*
X073543Y013186*
X073488*
X073433Y013182*
X073379Y013175*
X073325Y013163*
X073272Y013148*
X073221Y013129*
X073171Y013107*
X073122Y013081*
X073075Y013052*
X073031Y013020*
X072989Y012984*
X072949Y012946*
X072913Y012905*
X072879Y012862*
X072848Y012817*
X072821Y012769*
X072797Y012720*
X072776Y012669*
X072759Y012616*
X072746Y012563*
X072736Y012509*
X072730Y012454*
X072729Y012400*
X072730Y012345*
X072736Y012290*
X072746Y012236*
X072759Y012183*
X072776Y012130*
X072797Y012079*
X072821Y012030*
X072848Y011982*
X072879Y011937*
X072913Y011894*
X072949Y011853*
X072989Y011815*
X073031Y011779*
X073075Y011747*
X073122Y011718*
X073171Y011692*
X073221Y011670*
X073272Y011651*
X073325Y011636*
X073379Y011624*
X073433Y011617*
X073488Y011613*
X073543*
X073598Y011617*
X073652Y011624*
X073706Y011636*
X073759Y011651*
X073810Y011670*
X073860Y011692*
X073909Y011718*
X073956Y011747*
X074000Y011779*
X074042Y011815*
X074082Y011853*
X074118Y011894*
X074152Y011937*
X074183Y011982*
X074210Y012030*
X074234Y012079*
X074255Y012130*
X074272Y012183*
X074285Y012236*
X074295Y012290*
X074301Y012345*
X074303Y012400*
X067169D02*
D01*
X067167Y012454*
X067161Y012509*
X067151Y012563*
X067138Y012616*
X067121Y012669*
X067100Y012720*
X067076Y012769*
X067049Y012817*
X067018Y012862*
X066984Y012905*
X066948Y012946*
X066908Y012984*
X066866Y013020*
X066822Y013052*
X066775Y013081*
X066726Y013107*
X066676Y013129*
X066625Y013148*
X066572Y013163*
X066518Y013175*
X066464Y013182*
X066409Y013186*
X066354*
X066299Y013182*
X066245Y013175*
X066191Y013163*
X066138Y013148*
X066087Y013129*
X066037Y013107*
X065988Y013081*
X065941Y013052*
X065897Y013020*
X065855Y012984*
X065815Y012946*
X065779Y012905*
X065745Y012862*
X065714Y012817*
X065687Y012769*
X065663Y012720*
X065642Y012669*
X065625Y012616*
X065612Y012563*
X065602Y012509*
X065596Y012454*
X065595Y012400*
X065596Y012345*
X065602Y012290*
X065612Y012236*
X065625Y012183*
X065642Y012130*
X065663Y012079*
X065687Y012030*
X065714Y011982*
X065745Y011937*
X065779Y011894*
X065815Y011853*
X065855Y011815*
X065897Y011779*
X065941Y011747*
X065988Y011718*
X066037Y011692*
X066087Y011670*
X066138Y011651*
X066191Y011636*
X066245Y011624*
X066299Y011617*
X066354Y011613*
X066409*
X066464Y011617*
X066518Y011624*
X066572Y011636*
X066625Y011651*
X066676Y011670*
X066726Y011692*
X066775Y011718*
X066822Y011747*
X066866Y011779*
X066908Y011815*
X066948Y011853*
X066984Y011894*
X067018Y011937*
X067049Y011982*
X067076Y012030*
X067100Y012079*
X067121Y012130*
X067138Y012183*
X067151Y012236*
X067161Y012290*
X067167Y012345*
X067169Y012400*
X069153D02*
D01*
X069151Y012454*
X069145Y012509*
X069135Y012563*
X069122Y012616*
X069105Y012669*
X069084Y012720*
X069060Y012769*
X069033Y012817*
X069002Y012862*
X068968Y012905*
X068932Y012946*
X068892Y012984*
X068850Y013020*
X068806Y013052*
X068759Y013081*
X068710Y013107*
X068660Y013129*
X068609Y013148*
X068556Y013163*
X068502Y013175*
X068448Y013182*
X068393Y013186*
X068338*
X068283Y013182*
X068229Y013175*
X068175Y013163*
X068122Y013148*
X068071Y013129*
X068021Y013107*
X067972Y013081*
X067925Y013052*
X067881Y013020*
X067839Y012984*
X067799Y012946*
X067763Y012905*
X067729Y012862*
X067698Y012817*
X067671Y012769*
X067647Y012720*
X067626Y012669*
X067609Y012616*
X067596Y012563*
X067586Y012509*
X067580Y012454*
X067579Y012400*
X067580Y012345*
X067586Y012290*
X067596Y012236*
X067609Y012183*
X067626Y012130*
X067647Y012079*
X067671Y012030*
X067698Y011982*
X067729Y011937*
X067763Y011894*
X067799Y011853*
X067839Y011815*
X067881Y011779*
X067925Y011747*
X067972Y011718*
X068021Y011692*
X068071Y011670*
X068122Y011651*
X068175Y011636*
X068229Y011624*
X068283Y011617*
X068338Y011613*
X068393*
X068448Y011617*
X068502Y011624*
X068556Y011636*
X068609Y011651*
X068660Y011670*
X068710Y011692*
X068759Y011718*
X068806Y011747*
X068850Y011779*
X068892Y011815*
X068932Y011853*
X068968Y011894*
X069002Y011937*
X069033Y011982*
X069060Y012030*
X069084Y012079*
X069105Y012130*
X069122Y012183*
X069135Y012236*
X069145Y012290*
X069151Y012345*
X069153Y012400*
X026498Y012350D02*
D01*
X026496Y012404*
X026490Y012459*
X026480Y012513*
X026467Y012566*
X026450Y012619*
X026429Y012670*
X026405Y012719*
X026378Y012767*
X026347Y012812*
X026313Y012855*
X026277Y012896*
X026237Y012934*
X026195Y012970*
X026151Y013002*
X026104Y013031*
X026055Y013057*
X026005Y013079*
X025954Y013098*
X025901Y013113*
X025847Y013125*
X025793Y013132*
X025738Y013136*
X025683*
X025628Y013132*
X025574Y013125*
X025520Y013113*
X025467Y013098*
X025416Y013079*
X025366Y013057*
X025317Y013031*
X025270Y013002*
X025226Y012970*
X025184Y012934*
X025144Y012896*
X025108Y012855*
X025074Y012812*
X025043Y012767*
X025016Y012719*
X024992Y012670*
X024971Y012619*
X024954Y012566*
X024941Y012513*
X024931Y012459*
X024925Y012404*
X024924Y012350*
X024925Y012295*
X024931Y012240*
X024941Y012186*
X024954Y012133*
X024971Y012080*
X024992Y012029*
X025016Y011980*
X025043Y011932*
X025074Y011887*
X025108Y011844*
X025144Y011803*
X025184Y011765*
X025226Y011729*
X025270Y011697*
X025317Y011668*
X025366Y011642*
X025416Y011620*
X025467Y011601*
X025520Y011586*
X025574Y011574*
X025628Y011567*
X025683Y011563*
X025738*
X025793Y011567*
X025847Y011574*
X025901Y011586*
X025954Y011601*
X026005Y011620*
X026055Y011642*
X026104Y011668*
X026151Y011697*
X026195Y011729*
X026237Y011765*
X026277Y011803*
X026313Y011844*
X026347Y011887*
X026378Y011932*
X026405Y011980*
X026429Y012029*
X026450Y012080*
X026467Y012133*
X026480Y012186*
X026490Y012240*
X026496Y012295*
X026498Y012350*
X028466D02*
D01*
X028464Y012404*
X028458Y012459*
X028448Y012513*
X028435Y012566*
X028418Y012619*
X028397Y012670*
X028373Y012719*
X028346Y012767*
X028315Y012812*
X028281Y012855*
X028245Y012896*
X028205Y012934*
X028163Y012970*
X028119Y013002*
X028072Y013031*
X028023Y013057*
X027973Y013079*
X027922Y013098*
X027869Y013113*
X027815Y013125*
X027761Y013132*
X027706Y013136*
X027651*
X027596Y013132*
X027542Y013125*
X027488Y013113*
X027435Y013098*
X027384Y013079*
X027334Y013057*
X027285Y013031*
X027238Y013002*
X027194Y012970*
X027152Y012934*
X027112Y012896*
X027076Y012855*
X027042Y012812*
X027011Y012767*
X026984Y012719*
X026960Y012670*
X026939Y012619*
X026922Y012566*
X026909Y012513*
X026899Y012459*
X026893Y012404*
X026892Y012350*
X026893Y012295*
X026899Y012240*
X026909Y012186*
X026922Y012133*
X026939Y012080*
X026960Y012029*
X026984Y011980*
X027011Y011932*
X027042Y011887*
X027076Y011844*
X027112Y011803*
X027152Y011765*
X027194Y011729*
X027238Y011697*
X027285Y011668*
X027334Y011642*
X027384Y011620*
X027435Y011601*
X027488Y011586*
X027542Y011574*
X027596Y011567*
X027651Y011563*
X027706*
X027761Y011567*
X027815Y011574*
X027869Y011586*
X027922Y011601*
X027973Y011620*
X028023Y011642*
X028072Y011668*
X028119Y011697*
X028163Y011729*
X028205Y011765*
X028245Y011803*
X028281Y011844*
X028315Y011887*
X028346Y011932*
X028373Y011980*
X028397Y012029*
X028418Y012080*
X028435Y012133*
X028448Y012186*
X028458Y012240*
X028464Y012295*
X028466Y012350*
X030435D02*
D01*
X030433Y012404*
X030427Y012459*
X030417Y012513*
X030404Y012566*
X030387Y012619*
X030366Y012670*
X030342Y012719*
X030315Y012767*
X030284Y012812*
X030250Y012855*
X030214Y012896*
X030174Y012934*
X030132Y012970*
X030088Y013002*
X030041Y013031*
X029992Y013057*
X029942Y013079*
X029891Y013098*
X029838Y013113*
X029784Y013125*
X029730Y013132*
X029675Y013136*
X029620*
X029565Y013132*
X029511Y013125*
X029457Y013113*
X029404Y013098*
X029353Y013079*
X029303Y013057*
X029254Y013031*
X029207Y013002*
X029163Y012970*
X029121Y012934*
X029081Y012896*
X029045Y012855*
X029011Y012812*
X028980Y012767*
X028953Y012719*
X028929Y012670*
X028908Y012619*
X028891Y012566*
X028878Y012513*
X028868Y012459*
X028862Y012404*
X028861Y012350*
X028862Y012295*
X028868Y012240*
X028878Y012186*
X028891Y012133*
X028908Y012080*
X028929Y012029*
X028953Y011980*
X028980Y011932*
X029011Y011887*
X029045Y011844*
X029081Y011803*
X029121Y011765*
X029163Y011729*
X029207Y011697*
X029254Y011668*
X029303Y011642*
X029353Y011620*
X029404Y011601*
X029457Y011586*
X029511Y011574*
X029565Y011567*
X029620Y011563*
X029675*
X029730Y011567*
X029784Y011574*
X029838Y011586*
X029891Y011601*
X029942Y011620*
X029992Y011642*
X030041Y011668*
X030088Y011697*
X030132Y011729*
X030174Y011765*
X030214Y011803*
X030250Y011844*
X030284Y011887*
X030315Y011932*
X030342Y011980*
X030366Y012029*
X030387Y012080*
X030404Y012133*
X030417Y012186*
X030427Y012240*
X030433Y012295*
X030435Y012350*
X032403D02*
D01*
X032401Y012404*
X032395Y012459*
X032385Y012513*
X032372Y012566*
X032355Y012619*
X032334Y012670*
X032310Y012719*
X032283Y012767*
X032252Y012812*
X032218Y012855*
X032182Y012896*
X032142Y012934*
X032100Y012970*
X032056Y013002*
X032009Y013031*
X031960Y013057*
X031910Y013079*
X031859Y013098*
X031806Y013113*
X031752Y013125*
X031698Y013132*
X031643Y013136*
X031588*
X031533Y013132*
X031479Y013125*
X031425Y013113*
X031372Y013098*
X031321Y013079*
X031271Y013057*
X031222Y013031*
X031175Y013002*
X031131Y012970*
X031089Y012934*
X031049Y012896*
X031013Y012855*
X030979Y012812*
X030948Y012767*
X030921Y012719*
X030897Y012670*
X030876Y012619*
X030859Y012566*
X030846Y012513*
X030836Y012459*
X030830Y012404*
X030829Y012350*
X030830Y012295*
X030836Y012240*
X030846Y012186*
X030859Y012133*
X030876Y012080*
X030897Y012029*
X030921Y011980*
X030948Y011932*
X030979Y011887*
X031013Y011844*
X031049Y011803*
X031089Y011765*
X031131Y011729*
X031175Y011697*
X031222Y011668*
X031271Y011642*
X031321Y011620*
X031372Y011601*
X031425Y011586*
X031479Y011574*
X031533Y011567*
X031588Y011563*
X031643*
X031698Y011567*
X031752Y011574*
X031806Y011586*
X031859Y011601*
X031910Y011620*
X031960Y011642*
X032009Y011668*
X032056Y011697*
X032100Y011729*
X032142Y011765*
X032182Y011803*
X032218Y011844*
X032252Y011887*
X032283Y011932*
X032310Y011980*
X032334Y012029*
X032355Y012080*
X032372Y012133*
X032385Y012186*
X032395Y012240*
X032401Y012295*
X032403Y012350*
X034372D02*
D01*
X034370Y012404*
X034364Y012459*
X034354Y012513*
X034341Y012566*
X034324Y012619*
X034303Y012670*
X034279Y012719*
X034252Y012767*
X034221Y012812*
X034187Y012855*
X034151Y012896*
X034111Y012934*
X034069Y012970*
X034025Y013002*
X033978Y013031*
X033929Y013057*
X033879Y013079*
X033828Y013098*
X033775Y013113*
X033721Y013125*
X033667Y013132*
X033612Y013136*
X033557*
X033502Y013132*
X033448Y013125*
X033394Y013113*
X033341Y013098*
X033290Y013079*
X033240Y013057*
X033191Y013031*
X033144Y013002*
X033100Y012970*
X033058Y012934*
X033018Y012896*
X032982Y012855*
X032948Y012812*
X032917Y012767*
X032890Y012719*
X032866Y012670*
X032845Y012619*
X032828Y012566*
X032815Y012513*
X032805Y012459*
X032799Y012404*
X032798Y012350*
X032799Y012295*
X032805Y012240*
X032815Y012186*
X032828Y012133*
X032845Y012080*
X032866Y012029*
X032890Y011980*
X032917Y011932*
X032948Y011887*
X032982Y011844*
X033018Y011803*
X033058Y011765*
X033100Y011729*
X033144Y011697*
X033191Y011668*
X033240Y011642*
X033290Y011620*
X033341Y011601*
X033394Y011586*
X033448Y011574*
X033502Y011567*
X033557Y011563*
X033612*
X033667Y011567*
X033721Y011574*
X033775Y011586*
X033828Y011601*
X033879Y011620*
X033929Y011642*
X033978Y011668*
X034025Y011697*
X034069Y011729*
X034111Y011765*
X034151Y011803*
X034187Y011844*
X034221Y011887*
X034252Y011932*
X034279Y011980*
X034303Y012029*
X034324Y012080*
X034341Y012133*
X034354Y012186*
X034364Y012240*
X034370Y012295*
X034372Y012350*
X036340D02*
D01*
X036338Y012404*
X036332Y012459*
X036322Y012513*
X036309Y012566*
X036292Y012619*
X036271Y012670*
X036247Y012719*
X036220Y012767*
X036189Y012812*
X036155Y012855*
X036119Y012896*
X036079Y012934*
X036037Y012970*
X035993Y013002*
X035946Y013031*
X035897Y013057*
X035847Y013079*
X035796Y013098*
X035743Y013113*
X035689Y013125*
X035635Y013132*
X035580Y013136*
X035525*
X035470Y013132*
X035416Y013125*
X035362Y013113*
X035309Y013098*
X035258Y013079*
X035208Y013057*
X035159Y013031*
X035112Y013002*
X035068Y012970*
X035026Y012934*
X034986Y012896*
X034950Y012855*
X034916Y012812*
X034885Y012767*
X034858Y012719*
X034834Y012670*
X034813Y012619*
X034796Y012566*
X034783Y012513*
X034773Y012459*
X034767Y012404*
X034766Y012350*
X034767Y012295*
X034773Y012240*
X034783Y012186*
X034796Y012133*
X034813Y012080*
X034834Y012029*
X034858Y011980*
X034885Y011932*
X034916Y011887*
X034950Y011844*
X034986Y011803*
X035026Y011765*
X035068Y011729*
X035112Y011697*
X035159Y011668*
X035208Y011642*
X035258Y011620*
X035309Y011601*
X035362Y011586*
X035416Y011574*
X035470Y011567*
X035525Y011563*
X035580*
X035635Y011567*
X035689Y011574*
X035743Y011586*
X035796Y011601*
X035847Y011620*
X035897Y011642*
X035946Y011668*
X035993Y011697*
X036037Y011729*
X036079Y011765*
X036119Y011803*
X036155Y011844*
X036189Y011887*
X036220Y011932*
X036247Y011980*
X036271Y012029*
X036292Y012080*
X036309Y012133*
X036322Y012186*
X036332Y012240*
X036338Y012295*
X036340Y012350*
X040293D02*
D01*
X040291Y012404*
X040285Y012459*
X040275Y012513*
X040262Y012566*
X040245Y012619*
X040224Y012670*
X040200Y012719*
X040173Y012767*
X040142Y012812*
X040108Y012855*
X040072Y012896*
X040032Y012934*
X039990Y012970*
X039946Y013002*
X039899Y013031*
X039850Y013057*
X039800Y013079*
X039749Y013098*
X039696Y013113*
X039642Y013125*
X039588Y013132*
X039533Y013136*
X039478*
X039423Y013132*
X039369Y013125*
X039315Y013113*
X039262Y013098*
X039211Y013079*
X039161Y013057*
X039112Y013031*
X039065Y013002*
X039021Y012970*
X038979Y012934*
X038939Y012896*
X038903Y012855*
X038869Y012812*
X038838Y012767*
X038811Y012719*
X038787Y012670*
X038766Y012619*
X038749Y012566*
X038736Y012513*
X038726Y012459*
X038720Y012404*
X038719Y012350*
X038720Y012295*
X038726Y012240*
X038736Y012186*
X038749Y012133*
X038766Y012080*
X038787Y012029*
X038811Y011980*
X038838Y011932*
X038869Y011887*
X038903Y011844*
X038939Y011803*
X038979Y011765*
X039021Y011729*
X039065Y011697*
X039112Y011668*
X039161Y011642*
X039211Y011620*
X039262Y011601*
X039315Y011586*
X039369Y011574*
X039423Y011567*
X039478Y011563*
X039533*
X039588Y011567*
X039642Y011574*
X039696Y011586*
X039749Y011601*
X039800Y011620*
X039850Y011642*
X039899Y011668*
X039946Y011697*
X039990Y011729*
X040032Y011765*
X040072Y011803*
X040108Y011844*
X040142Y011887*
X040173Y011932*
X040200Y011980*
X040224Y012029*
X040245Y012080*
X040262Y012133*
X040275Y012186*
X040285Y012240*
X040291Y012295*
X040293Y012350*
X038309D02*
D01*
X038307Y012404*
X038301Y012459*
X038291Y012513*
X038278Y012566*
X038261Y012619*
X038240Y012670*
X038216Y012719*
X038189Y012767*
X038158Y012812*
X038124Y012855*
X038088Y012896*
X038048Y012934*
X038006Y012970*
X037962Y013002*
X037915Y013031*
X037866Y013057*
X037816Y013079*
X037765Y013098*
X037712Y013113*
X037658Y013125*
X037604Y013132*
X037549Y013136*
X037494*
X037439Y013132*
X037385Y013125*
X037331Y013113*
X037278Y013098*
X037227Y013079*
X037177Y013057*
X037128Y013031*
X037081Y013002*
X037037Y012970*
X036995Y012934*
X036955Y012896*
X036919Y012855*
X036885Y012812*
X036854Y012767*
X036827Y012719*
X036803Y012670*
X036782Y012619*
X036765Y012566*
X036752Y012513*
X036742Y012459*
X036736Y012404*
X036735Y012350*
X036736Y012295*
X036742Y012240*
X036752Y012186*
X036765Y012133*
X036782Y012080*
X036803Y012029*
X036827Y011980*
X036854Y011932*
X036885Y011887*
X036919Y011844*
X036955Y011803*
X036995Y011765*
X037037Y011729*
X037081Y011697*
X037128Y011668*
X037177Y011642*
X037227Y011620*
X037278Y011601*
X037331Y011586*
X037385Y011574*
X037439Y011567*
X037494Y011563*
X037549*
X037604Y011567*
X037658Y011574*
X037712Y011586*
X037765Y011601*
X037816Y011620*
X037866Y011642*
X037915Y011668*
X037962Y011697*
X038006Y011729*
X038048Y011765*
X038088Y011803*
X038124Y011844*
X038158Y011887*
X038189Y011932*
X038216Y011980*
X038240Y012029*
X038261Y012080*
X038278Y012133*
X038291Y012186*
X038301Y012240*
X038307Y012295*
X038309Y012350*
X051637Y012400D02*
D01*
X051635Y012454*
X051629Y012509*
X051619Y012563*
X051606Y012616*
X051589Y012669*
X051568Y012720*
X051544Y012769*
X051517Y012817*
X051486Y012862*
X051452Y012905*
X051416Y012946*
X051376Y012984*
X051334Y013020*
X051290Y013052*
X051243Y013081*
X051194Y013107*
X051144Y013129*
X051093Y013148*
X051040Y013163*
X050986Y013175*
X050932Y013182*
X050877Y013186*
X050822*
X050767Y013182*
X050713Y013175*
X050659Y013163*
X050606Y013148*
X050555Y013129*
X050505Y013107*
X050456Y013081*
X050409Y013052*
X050365Y013020*
X050323Y012984*
X050283Y012946*
X050247Y012905*
X050213Y012862*
X050182Y012817*
X050155Y012769*
X050131Y012720*
X050110Y012669*
X050093Y012616*
X050080Y012563*
X050070Y012509*
X050064Y012454*
X050063Y012400*
X050064Y012345*
X050070Y012290*
X050080Y012236*
X050093Y012183*
X050110Y012130*
X050131Y012079*
X050155Y012030*
X050182Y011982*
X050213Y011937*
X050247Y011894*
X050283Y011853*
X050323Y011815*
X050365Y011779*
X050409Y011747*
X050456Y011718*
X050505Y011692*
X050555Y011670*
X050606Y011651*
X050659Y011636*
X050713Y011624*
X050767Y011617*
X050822Y011613*
X050877*
X050932Y011617*
X050986Y011624*
X051040Y011636*
X051093Y011651*
X051144Y011670*
X051194Y011692*
X051243Y011718*
X051290Y011747*
X051334Y011779*
X051376Y011815*
X051416Y011853*
X051452Y011894*
X051486Y011937*
X051517Y011982*
X051544Y012030*
X051568Y012079*
X051589Y012130*
X051606Y012183*
X051619Y012236*
X051629Y012290*
X051635Y012345*
X051637Y012400*
X053622D02*
D01*
X053620Y012454*
X053614Y012509*
X053604Y012563*
X053591Y012616*
X053574Y012669*
X053553Y012720*
X053529Y012769*
X053502Y012817*
X053471Y012862*
X053437Y012905*
X053401Y012946*
X053361Y012984*
X053319Y013020*
X053275Y013052*
X053228Y013081*
X053179Y013107*
X053129Y013129*
X053078Y013148*
X053025Y013163*
X052971Y013175*
X052917Y013182*
X052862Y013186*
X052807*
X052752Y013182*
X052698Y013175*
X052644Y013163*
X052591Y013148*
X052540Y013129*
X052490Y013107*
X052441Y013081*
X052394Y013052*
X052350Y013020*
X052308Y012984*
X052268Y012946*
X052232Y012905*
X052198Y012862*
X052167Y012817*
X052140Y012769*
X052116Y012720*
X052095Y012669*
X052078Y012616*
X052065Y012563*
X052055Y012509*
X052049Y012454*
X052048Y012400*
X052049Y012345*
X052055Y012290*
X052065Y012236*
X052078Y012183*
X052095Y012130*
X052116Y012079*
X052140Y012030*
X052167Y011982*
X052198Y011937*
X052232Y011894*
X052268Y011853*
X052308Y011815*
X052350Y011779*
X052394Y011747*
X052441Y011718*
X052490Y011692*
X052540Y011670*
X052591Y011651*
X052644Y011636*
X052698Y011624*
X052752Y011617*
X052807Y011613*
X052862*
X052917Y011617*
X052971Y011624*
X053025Y011636*
X053078Y011651*
X053129Y011670*
X053179Y011692*
X053228Y011718*
X053275Y011747*
X053319Y011779*
X053361Y011815*
X053401Y011853*
X053437Y011894*
X053471Y011937*
X053502Y011982*
X053529Y012030*
X053553Y012079*
X053574Y012130*
X053591Y012183*
X053604Y012236*
X053614Y012290*
X053620Y012345*
X053622Y012400*
X062119D02*
D01*
X062117Y012454*
X062111Y012509*
X062101Y012563*
X062088Y012616*
X062071Y012669*
X062050Y012720*
X062026Y012769*
X061999Y012817*
X061968Y012862*
X061934Y012905*
X061898Y012946*
X061858Y012984*
X061816Y013020*
X061772Y013052*
X061725Y013081*
X061676Y013107*
X061626Y013129*
X061575Y013148*
X061522Y013163*
X061468Y013175*
X061414Y013182*
X061359Y013186*
X061304*
X061249Y013182*
X061195Y013175*
X061141Y013163*
X061088Y013148*
X061037Y013129*
X060987Y013107*
X060938Y013081*
X060891Y013052*
X060847Y013020*
X060805Y012984*
X060765Y012946*
X060729Y012905*
X060695Y012862*
X060664Y012817*
X060637Y012769*
X060613Y012720*
X060592Y012669*
X060575Y012616*
X060562Y012563*
X060552Y012509*
X060546Y012454*
X060545Y012400*
X060546Y012345*
X060552Y012290*
X060562Y012236*
X060575Y012183*
X060592Y012130*
X060613Y012079*
X060637Y012030*
X060664Y011982*
X060695Y011937*
X060729Y011894*
X060765Y011853*
X060805Y011815*
X060847Y011779*
X060891Y011747*
X060938Y011718*
X060987Y011692*
X061037Y011670*
X061088Y011651*
X061141Y011636*
X061195Y011624*
X061249Y011617*
X061304Y011613*
X061359*
X061414Y011617*
X061468Y011624*
X061522Y011636*
X061575Y011651*
X061626Y011670*
X061676Y011692*
X061725Y011718*
X061772Y011747*
X061816Y011779*
X061858Y011815*
X061898Y011853*
X061934Y011894*
X061968Y011937*
X061999Y011982*
X062026Y012030*
X062050Y012079*
X062071Y012130*
X062088Y012183*
X062101Y012236*
X062111Y012290*
X062117Y012345*
X062119Y012400*
X064103D02*
D01*
X064101Y012454*
X064095Y012509*
X064085Y012563*
X064072Y012616*
X064055Y012669*
X064034Y012720*
X064010Y012769*
X063983Y012817*
X063952Y012862*
X063918Y012905*
X063882Y012946*
X063842Y012984*
X063800Y013020*
X063756Y013052*
X063709Y013081*
X063660Y013107*
X063610Y013129*
X063559Y013148*
X063506Y013163*
X063452Y013175*
X063398Y013182*
X063343Y013186*
X063288*
X063233Y013182*
X063179Y013175*
X063125Y013163*
X063072Y013148*
X063021Y013129*
X062971Y013107*
X062922Y013081*
X062875Y013052*
X062831Y013020*
X062789Y012984*
X062749Y012946*
X062713Y012905*
X062679Y012862*
X062648Y012817*
X062621Y012769*
X062597Y012720*
X062576Y012669*
X062559Y012616*
X062546Y012563*
X062536Y012509*
X062530Y012454*
X062529Y012400*
X062530Y012345*
X062536Y012290*
X062546Y012236*
X062559Y012183*
X062576Y012130*
X062597Y012079*
X062621Y012030*
X062648Y011982*
X062679Y011937*
X062713Y011894*
X062749Y011853*
X062789Y011815*
X062831Y011779*
X062875Y011747*
X062922Y011718*
X062971Y011692*
X063021Y011670*
X063072Y011651*
X063125Y011636*
X063179Y011624*
X063233Y011617*
X063288Y011613*
X063343*
X063398Y011617*
X063452Y011624*
X063506Y011636*
X063559Y011651*
X063610Y011670*
X063660Y011692*
X063709Y011718*
X063756Y011747*
X063800Y011779*
X063842Y011815*
X063882Y011853*
X063918Y011894*
X063952Y011937*
X063983Y011982*
X064010Y012030*
X064034Y012079*
X064055Y012130*
X064072Y012183*
X064085Y012236*
X064095Y012290*
X064101Y012345*
X064103Y012400*
X051637Y047050D02*
D01*
X051635Y047104*
X051629Y047159*
X051619Y047213*
X051606Y047266*
X051589Y047319*
X051568Y047370*
X051544Y047419*
X051517Y047467*
X051486Y047512*
X051452Y047555*
X051416Y047596*
X051376Y047634*
X051334Y047670*
X051290Y047702*
X051243Y047731*
X051194Y047757*
X051144Y047779*
X051093Y047798*
X051040Y047813*
X050986Y047825*
X050932Y047832*
X050877Y047836*
X050822*
X050767Y047832*
X050713Y047825*
X050659Y047813*
X050606Y047798*
X050555Y047779*
X050505Y047757*
X050456Y047731*
X050409Y047702*
X050365Y047670*
X050323Y047634*
X050283Y047596*
X050247Y047555*
X050213Y047512*
X050182Y047467*
X050155Y047419*
X050131Y047370*
X050110Y047319*
X050093Y047266*
X050080Y047213*
X050070Y047159*
X050064Y047104*
X050063Y047050*
X050064Y046995*
X050070Y046940*
X050080Y046886*
X050093Y046833*
X050110Y046780*
X050131Y046729*
X050155Y046680*
X050182Y046632*
X050213Y046587*
X050247Y046544*
X050283Y046503*
X050323Y046465*
X050365Y046429*
X050409Y046397*
X050456Y046368*
X050505Y046342*
X050555Y046320*
X050606Y046301*
X050659Y046286*
X050713Y046274*
X050767Y046267*
X050822Y046263*
X050877*
X050932Y046267*
X050986Y046274*
X051040Y046286*
X051093Y046301*
X051144Y046320*
X051194Y046342*
X051243Y046368*
X051290Y046397*
X051334Y046429*
X051376Y046465*
X051416Y046503*
X051452Y046544*
X051486Y046587*
X051517Y046632*
X051544Y046680*
X051568Y046729*
X051589Y046780*
X051606Y046833*
X051619Y046886*
X051629Y046940*
X051635Y046995*
X051637Y047050*
X053622D02*
D01*
X053620Y047104*
X053614Y047159*
X053604Y047213*
X053591Y047266*
X053574Y047319*
X053553Y047370*
X053529Y047419*
X053502Y047467*
X053471Y047512*
X053437Y047555*
X053401Y047596*
X053361Y047634*
X053319Y047670*
X053275Y047702*
X053228Y047731*
X053179Y047757*
X053129Y047779*
X053078Y047798*
X053025Y047813*
X052971Y047825*
X052917Y047832*
X052862Y047836*
X052807*
X052752Y047832*
X052698Y047825*
X052644Y047813*
X052591Y047798*
X052540Y047779*
X052490Y047757*
X052441Y047731*
X052394Y047702*
X052350Y047670*
X052308Y047634*
X052268Y047596*
X052232Y047555*
X052198Y047512*
X052167Y047467*
X052140Y047419*
X052116Y047370*
X052095Y047319*
X052078Y047266*
X052065Y047213*
X052055Y047159*
X052049Y047104*
X052048Y047050*
X052049Y046995*
X052055Y046940*
X052065Y046886*
X052078Y046833*
X052095Y046780*
X052116Y046729*
X052140Y046680*
X052167Y046632*
X052198Y046587*
X052232Y046544*
X052268Y046503*
X052308Y046465*
X052350Y046429*
X052394Y046397*
X052441Y046368*
X052490Y046342*
X052540Y046320*
X052591Y046301*
X052644Y046286*
X052698Y046274*
X052752Y046267*
X052807Y046263*
X052862*
X052917Y046267*
X052971Y046274*
X053025Y046286*
X053078Y046301*
X053129Y046320*
X053179Y046342*
X053228Y046368*
X053275Y046397*
X053319Y046429*
X053361Y046465*
X053401Y046503*
X053437Y046544*
X053471Y046587*
X053502Y046632*
X053529Y046680*
X053553Y046729*
X053574Y046780*
X053591Y046833*
X053604Y046886*
X053614Y046940*
X053620Y046995*
X053622Y047050*
X064122Y047000D02*
D01*
X064120Y047054*
X064114Y047109*
X064104Y047163*
X064091Y047216*
X064074Y047269*
X064053Y047320*
X064029Y047369*
X064002Y047417*
X063971Y047462*
X063937Y047505*
X063901Y047546*
X063861Y047584*
X063819Y047620*
X063775Y047652*
X063728Y047681*
X063679Y047707*
X063629Y047729*
X063578Y047748*
X063525Y047763*
X063471Y047775*
X063417Y047782*
X063362Y047786*
X063307*
X063252Y047782*
X063198Y047775*
X063144Y047763*
X063091Y047748*
X063040Y047729*
X062990Y047707*
X062941Y047681*
X062894Y047652*
X062850Y047620*
X062808Y047584*
X062768Y047546*
X062732Y047505*
X062698Y047462*
X062667Y047417*
X062640Y047369*
X062616Y047320*
X062595Y047269*
X062578Y047216*
X062565Y047163*
X062555Y047109*
X062549Y047054*
X062548Y047000*
X062549Y046945*
X062555Y046890*
X062565Y046836*
X062578Y046783*
X062595Y046730*
X062616Y046679*
X062640Y046630*
X062667Y046582*
X062698Y046537*
X062732Y046494*
X062768Y046453*
X062808Y046415*
X062850Y046379*
X062894Y046347*
X062941Y046318*
X062990Y046292*
X063040Y046270*
X063091Y046251*
X063144Y046236*
X063198Y046224*
X063252Y046217*
X063307Y046213*
X063362*
X063417Y046217*
X063471Y046224*
X063525Y046236*
X063578Y046251*
X063629Y046270*
X063679Y046292*
X063728Y046318*
X063775Y046347*
X063819Y046379*
X063861Y046415*
X063901Y046453*
X063937Y046494*
X063971Y046537*
X064002Y046582*
X064029Y046630*
X064053Y046679*
X064074Y046730*
X064091Y046783*
X064104Y046836*
X064114Y046890*
X064120Y046945*
X064122Y047000*
X062137D02*
D01*
X062135Y047054*
X062129Y047109*
X062119Y047163*
X062106Y047216*
X062089Y047269*
X062068Y047320*
X062044Y047369*
X062017Y047417*
X061986Y047462*
X061952Y047505*
X061916Y047546*
X061876Y047584*
X061834Y047620*
X061790Y047652*
X061743Y047681*
X061694Y047707*
X061644Y047729*
X061593Y047748*
X061540Y047763*
X061486Y047775*
X061432Y047782*
X061377Y047786*
X061322*
X061267Y047782*
X061213Y047775*
X061159Y047763*
X061106Y047748*
X061055Y047729*
X061005Y047707*
X060956Y047681*
X060909Y047652*
X060865Y047620*
X060823Y047584*
X060783Y047546*
X060747Y047505*
X060713Y047462*
X060682Y047417*
X060655Y047369*
X060631Y047320*
X060610Y047269*
X060593Y047216*
X060580Y047163*
X060570Y047109*
X060564Y047054*
X060563Y047000*
X060564Y046945*
X060570Y046890*
X060580Y046836*
X060593Y046783*
X060610Y046730*
X060631Y046679*
X060655Y046630*
X060682Y046582*
X060713Y046537*
X060747Y046494*
X060783Y046453*
X060823Y046415*
X060865Y046379*
X060909Y046347*
X060956Y046318*
X061005Y046292*
X061055Y046270*
X061106Y046251*
X061159Y046236*
X061213Y046224*
X061267Y046217*
X061322Y046213*
X061377*
X061432Y046217*
X061486Y046224*
X061540Y046236*
X061593Y046251*
X061644Y046270*
X061694Y046292*
X061743Y046318*
X061790Y046347*
X061834Y046379*
X061876Y046415*
X061916Y046453*
X061952Y046494*
X061986Y046537*
X062017Y046582*
X062044Y046630*
X062068Y046679*
X062089Y046730*
X062106Y046783*
X062119Y046836*
X062129Y046890*
X062135Y046945*
X062137Y047000*
X069156D02*
D01*
X069154Y047054*
X069148Y047109*
X069138Y047163*
X069125Y047216*
X069108Y047269*
X069087Y047320*
X069063Y047369*
X069036Y047417*
X069005Y047462*
X068971Y047505*
X068935Y047546*
X068895Y047584*
X068853Y047620*
X068809Y047652*
X068762Y047681*
X068713Y047707*
X068663Y047729*
X068612Y047748*
X068559Y047763*
X068505Y047775*
X068451Y047782*
X068396Y047786*
X068341*
X068286Y047782*
X068232Y047775*
X068178Y047763*
X068125Y047748*
X068074Y047729*
X068024Y047707*
X067975Y047681*
X067928Y047652*
X067884Y047620*
X067842Y047584*
X067802Y047546*
X067766Y047505*
X067732Y047462*
X067701Y047417*
X067674Y047369*
X067650Y047320*
X067629Y047269*
X067612Y047216*
X067599Y047163*
X067589Y047109*
X067583Y047054*
X067582Y047000*
X067583Y046945*
X067589Y046890*
X067599Y046836*
X067612Y046783*
X067629Y046730*
X067650Y046679*
X067674Y046630*
X067701Y046582*
X067732Y046537*
X067766Y046494*
X067802Y046453*
X067842Y046415*
X067884Y046379*
X067928Y046347*
X067975Y046318*
X068024Y046292*
X068074Y046270*
X068125Y046251*
X068178Y046236*
X068232Y046224*
X068286Y046217*
X068341Y046213*
X068396*
X068451Y046217*
X068505Y046224*
X068559Y046236*
X068612Y046251*
X068663Y046270*
X068713Y046292*
X068762Y046318*
X068809Y046347*
X068853Y046379*
X068895Y046415*
X068935Y046453*
X068971Y046494*
X069005Y046537*
X069036Y046582*
X069063Y046630*
X069087Y046679*
X069108Y046730*
X069125Y046783*
X069138Y046836*
X069148Y046890*
X069154Y046945*
X069156Y047000*
X067172D02*
D01*
X067170Y047054*
X067164Y047109*
X067154Y047163*
X067141Y047216*
X067124Y047269*
X067103Y047320*
X067079Y047369*
X067052Y047417*
X067021Y047462*
X066987Y047505*
X066951Y047546*
X066911Y047584*
X066869Y047620*
X066825Y047652*
X066778Y047681*
X066729Y047707*
X066679Y047729*
X066628Y047748*
X066575Y047763*
X066521Y047775*
X066467Y047782*
X066412Y047786*
X066357*
X066302Y047782*
X066248Y047775*
X066194Y047763*
X066141Y047748*
X066090Y047729*
X066040Y047707*
X065991Y047681*
X065944Y047652*
X065900Y047620*
X065858Y047584*
X065818Y047546*
X065782Y047505*
X065748Y047462*
X065717Y047417*
X065690Y047369*
X065666Y047320*
X065645Y047269*
X065628Y047216*
X065615Y047163*
X065605Y047109*
X065599Y047054*
X065598Y047000*
X065599Y046945*
X065605Y046890*
X065615Y046836*
X065628Y046783*
X065645Y046730*
X065666Y046679*
X065690Y046630*
X065717Y046582*
X065748Y046537*
X065782Y046494*
X065818Y046453*
X065858Y046415*
X065900Y046379*
X065944Y046347*
X065991Y046318*
X066040Y046292*
X066090Y046270*
X066141Y046251*
X066194Y046236*
X066248Y046224*
X066302Y046217*
X066357Y046213*
X066412*
X066467Y046217*
X066521Y046224*
X066575Y046236*
X066628Y046251*
X066679Y046270*
X066729Y046292*
X066778Y046318*
X066825Y046347*
X066869Y046379*
X066911Y046415*
X066951Y046453*
X066987Y046494*
X067021Y046537*
X067052Y046582*
X067079Y046630*
X067103Y046679*
X067124Y046730*
X067141Y046783*
X067154Y046836*
X067164Y046890*
X067170Y046945*
X067172Y047000*
X074272D02*
D01*
X074270Y047054*
X074264Y047109*
X074254Y047163*
X074241Y047216*
X074224Y047269*
X074203Y047320*
X074179Y047369*
X074152Y047417*
X074121Y047462*
X074087Y047505*
X074051Y047546*
X074011Y047584*
X073969Y047620*
X073925Y047652*
X073878Y047681*
X073829Y047707*
X073779Y047729*
X073728Y047748*
X073675Y047763*
X073621Y047775*
X073567Y047782*
X073512Y047786*
X073457*
X073402Y047782*
X073348Y047775*
X073294Y047763*
X073241Y047748*
X073190Y047729*
X073140Y047707*
X073091Y047681*
X073044Y047652*
X073000Y047620*
X072958Y047584*
X072918Y047546*
X072882Y047505*
X072848Y047462*
X072817Y047417*
X072790Y047369*
X072766Y047320*
X072745Y047269*
X072728Y047216*
X072715Y047163*
X072705Y047109*
X072699Y047054*
X072698Y047000*
X072699Y046945*
X072705Y046890*
X072715Y046836*
X072728Y046783*
X072745Y046730*
X072766Y046679*
X072790Y046630*
X072817Y046582*
X072848Y046537*
X072882Y046494*
X072918Y046453*
X072958Y046415*
X073000Y046379*
X073044Y046347*
X073091Y046318*
X073140Y046292*
X073190Y046270*
X073241Y046251*
X073294Y046236*
X073348Y046224*
X073402Y046217*
X073457Y046213*
X073512*
X073567Y046217*
X073621Y046224*
X073675Y046236*
X073728Y046251*
X073779Y046270*
X073829Y046292*
X073878Y046318*
X073925Y046347*
X073969Y046379*
X074011Y046415*
X074051Y046453*
X074087Y046494*
X074121Y046537*
X074152Y046582*
X074179Y046630*
X074203Y046679*
X074224Y046730*
X074241Y046783*
X074254Y046836*
X074264Y046890*
X074270Y046945*
X074272Y047000*
X072287D02*
D01*
X072285Y047054*
X072279Y047109*
X072269Y047163*
X072256Y047216*
X072239Y047269*
X072218Y047320*
X072194Y047369*
X072167Y047417*
X072136Y047462*
X072102Y047505*
X072066Y047546*
X072026Y047584*
X071984Y047620*
X071940Y047652*
X071893Y047681*
X071844Y047707*
X071794Y047729*
X071743Y047748*
X071690Y047763*
X071636Y047775*
X071582Y047782*
X071527Y047786*
X071472*
X071417Y047782*
X071363Y047775*
X071309Y047763*
X071256Y047748*
X071205Y047729*
X071155Y047707*
X071106Y047681*
X071059Y047652*
X071015Y047620*
X070973Y047584*
X070933Y047546*
X070897Y047505*
X070863Y047462*
X070832Y047417*
X070805Y047369*
X070781Y047320*
X070760Y047269*
X070743Y047216*
X070730Y047163*
X070720Y047109*
X070714Y047054*
X070713Y047000*
X070714Y046945*
X070720Y046890*
X070730Y046836*
X070743Y046783*
X070760Y046730*
X070781Y046679*
X070805Y046630*
X070832Y046582*
X070863Y046537*
X070897Y046494*
X070933Y046453*
X070973Y046415*
X071015Y046379*
X071059Y046347*
X071106Y046318*
X071155Y046292*
X071205Y046270*
X071256Y046251*
X071309Y046236*
X071363Y046224*
X071417Y046217*
X071472Y046213*
X071527*
X071582Y046217*
X071636Y046224*
X071690Y046236*
X071743Y046251*
X071794Y046270*
X071844Y046292*
X071893Y046318*
X071940Y046347*
X071984Y046379*
X072026Y046415*
X072066Y046453*
X072102Y046494*
X072136Y046537*
X072167Y046582*
X072194Y046630*
X072218Y046679*
X072239Y046730*
X072256Y046783*
X072269Y046836*
X072279Y046890*
X072285Y046945*
X072287Y047000*
X079556D02*
D01*
X079554Y047054*
X079548Y047109*
X079538Y047163*
X079525Y047216*
X079508Y047269*
X079487Y047320*
X079463Y047369*
X079436Y047417*
X079405Y047462*
X079371Y047505*
X079335Y047546*
X079295Y047584*
X079253Y047620*
X079209Y047652*
X079162Y047681*
X079113Y047707*
X079063Y047729*
X079012Y047748*
X078959Y047763*
X078905Y047775*
X078851Y047782*
X078796Y047786*
X078741*
X078686Y047782*
X078632Y047775*
X078578Y047763*
X078525Y047748*
X078474Y047729*
X078424Y047707*
X078375Y047681*
X078328Y047652*
X078284Y047620*
X078242Y047584*
X078202Y047546*
X078166Y047505*
X078132Y047462*
X078101Y047417*
X078074Y047369*
X078050Y047320*
X078029Y047269*
X078012Y047216*
X077999Y047163*
X077989Y047109*
X077983Y047054*
X077982Y047000*
X077983Y046945*
X077989Y046890*
X077999Y046836*
X078012Y046783*
X078029Y046730*
X078050Y046679*
X078074Y046630*
X078101Y046582*
X078132Y046537*
X078166Y046494*
X078202Y046453*
X078242Y046415*
X078284Y046379*
X078328Y046347*
X078375Y046318*
X078424Y046292*
X078474Y046270*
X078525Y046251*
X078578Y046236*
X078632Y046224*
X078686Y046217*
X078741Y046213*
X078796*
X078851Y046217*
X078905Y046224*
X078959Y046236*
X079012Y046251*
X079063Y046270*
X079113Y046292*
X079162Y046318*
X079209Y046347*
X079253Y046379*
X079295Y046415*
X079335Y046453*
X079371Y046494*
X079405Y046537*
X079436Y046582*
X079463Y046630*
X079487Y046679*
X079508Y046730*
X079525Y046783*
X079538Y046836*
X079548Y046890*
X079554Y046945*
X079556Y047000*
X077572D02*
D01*
X077570Y047054*
X077564Y047109*
X077554Y047163*
X077541Y047216*
X077524Y047269*
X077503Y047320*
X077479Y047369*
X077452Y047417*
X077421Y047462*
X077387Y047505*
X077351Y047546*
X077311Y047584*
X077269Y047620*
X077225Y047652*
X077178Y047681*
X077129Y047707*
X077079Y047729*
X077028Y047748*
X076975Y047763*
X076921Y047775*
X076867Y047782*
X076812Y047786*
X076757*
X076702Y047782*
X076648Y047775*
X076594Y047763*
X076541Y047748*
X076490Y047729*
X076440Y047707*
X076391Y047681*
X076344Y047652*
X076300Y047620*
X076258Y047584*
X076218Y047546*
X076182Y047505*
X076148Y047462*
X076117Y047417*
X076090Y047369*
X076066Y047320*
X076045Y047269*
X076028Y047216*
X076015Y047163*
X076005Y047109*
X075999Y047054*
X075998Y047000*
X075999Y046945*
X076005Y046890*
X076015Y046836*
X076028Y046783*
X076045Y046730*
X076066Y046679*
X076090Y046630*
X076117Y046582*
X076148Y046537*
X076182Y046494*
X076218Y046453*
X076258Y046415*
X076300Y046379*
X076344Y046347*
X076391Y046318*
X076440Y046292*
X076490Y046270*
X076541Y046251*
X076594Y046236*
X076648Y046224*
X076702Y046217*
X076757Y046213*
X076812*
X076867Y046217*
X076921Y046224*
X076975Y046236*
X077028Y046251*
X077079Y046270*
X077129Y046292*
X077178Y046318*
X077225Y046347*
X077269Y046379*
X077311Y046415*
X077351Y046453*
X077387Y046494*
X077421Y046537*
X077452Y046582*
X077479Y046630*
X077503Y046679*
X077524Y046730*
X077541Y046783*
X077554Y046836*
X077564Y046890*
X077570Y046945*
X077572Y047000*
X086072D02*
D01*
X086070Y047054*
X086064Y047109*
X086054Y047163*
X086041Y047216*
X086024Y047269*
X086003Y047320*
X085979Y047369*
X085952Y047417*
X085921Y047462*
X085887Y047505*
X085851Y047546*
X085811Y047584*
X085769Y047620*
X085725Y047652*
X085678Y047681*
X085629Y047707*
X085579Y047729*
X085528Y047748*
X085475Y047763*
X085421Y047775*
X085367Y047782*
X085312Y047786*
X085257*
X085202Y047782*
X085148Y047775*
X085094Y047763*
X085041Y047748*
X084990Y047729*
X084940Y047707*
X084891Y047681*
X084844Y047652*
X084800Y047620*
X084758Y047584*
X084718Y047546*
X084682Y047505*
X084648Y047462*
X084617Y047417*
X084590Y047369*
X084566Y047320*
X084545Y047269*
X084528Y047216*
X084515Y047163*
X084505Y047109*
X084499Y047054*
X084498Y047000*
X084499Y046945*
X084505Y046890*
X084515Y046836*
X084528Y046783*
X084545Y046730*
X084566Y046679*
X084590Y046630*
X084617Y046582*
X084648Y046537*
X084682Y046494*
X084718Y046453*
X084758Y046415*
X084800Y046379*
X084844Y046347*
X084891Y046318*
X084940Y046292*
X084990Y046270*
X085041Y046251*
X085094Y046236*
X085148Y046224*
X085202Y046217*
X085257Y046213*
X085312*
X085367Y046217*
X085421Y046224*
X085475Y046236*
X085528Y046251*
X085579Y046270*
X085629Y046292*
X085678Y046318*
X085725Y046347*
X085769Y046379*
X085811Y046415*
X085851Y046453*
X085887Y046494*
X085921Y046537*
X085952Y046582*
X085979Y046630*
X086003Y046679*
X086024Y046730*
X086041Y046783*
X086054Y046836*
X086064Y046890*
X086070Y046945*
X086072Y047000*
X084087D02*
D01*
X084085Y047054*
X084079Y047109*
X084069Y047163*
X084056Y047216*
X084039Y047269*
X084018Y047320*
X083994Y047369*
X083967Y047417*
X083936Y047462*
X083902Y047505*
X083866Y047546*
X083826Y047584*
X083784Y047620*
X083740Y047652*
X083693Y047681*
X083644Y047707*
X083594Y047729*
X083543Y047748*
X083490Y047763*
X083436Y047775*
X083382Y047782*
X083327Y047786*
X083272*
X083217Y047782*
X083163Y047775*
X083109Y047763*
X083056Y047748*
X083005Y047729*
X082955Y047707*
X082906Y047681*
X082859Y047652*
X082815Y047620*
X082773Y047584*
X082733Y047546*
X082697Y047505*
X082663Y047462*
X082632Y047417*
X082605Y047369*
X082581Y047320*
X082560Y047269*
X082543Y047216*
X082530Y047163*
X082520Y047109*
X082514Y047054*
X082513Y047000*
X082514Y046945*
X082520Y046890*
X082530Y046836*
X082543Y046783*
X082560Y046730*
X082581Y046679*
X082605Y046630*
X082632Y046582*
X082663Y046537*
X082697Y046494*
X082733Y046453*
X082773Y046415*
X082815Y046379*
X082859Y046347*
X082906Y046318*
X082955Y046292*
X083005Y046270*
X083056Y046251*
X083109Y046236*
X083163Y046224*
X083217Y046217*
X083272Y046213*
X083327*
X083382Y046217*
X083436Y046224*
X083490Y046236*
X083543Y046251*
X083594Y046270*
X083644Y046292*
X083693Y046318*
X083740Y046347*
X083784Y046379*
X083826Y046415*
X083866Y046453*
X083902Y046494*
X083936Y046537*
X083967Y046582*
X083994Y046630*
X084018Y046679*
X084039Y046730*
X084056Y046783*
X084069Y046836*
X084079Y046890*
X084085Y046945*
X084087Y047000*
X040277Y047050D02*
D01*
X040275Y047104*
X040269Y047159*
X040259Y047213*
X040246Y047266*
X040229Y047319*
X040208Y047370*
X040184Y047419*
X040157Y047467*
X040126Y047512*
X040092Y047555*
X040056Y047596*
X040016Y047634*
X039974Y047670*
X039930Y047702*
X039883Y047731*
X039834Y047757*
X039784Y047779*
X039733Y047798*
X039680Y047813*
X039626Y047825*
X039572Y047832*
X039517Y047836*
X039462*
X039407Y047832*
X039353Y047825*
X039299Y047813*
X039246Y047798*
X039195Y047779*
X039145Y047757*
X039096Y047731*
X039049Y047702*
X039005Y047670*
X038963Y047634*
X038923Y047596*
X038887Y047555*
X038853Y047512*
X038822Y047467*
X038795Y047419*
X038771Y047370*
X038750Y047319*
X038733Y047266*
X038720Y047213*
X038710Y047159*
X038704Y047104*
X038703Y047050*
X038704Y046995*
X038710Y046940*
X038720Y046886*
X038733Y046833*
X038750Y046780*
X038771Y046729*
X038795Y046680*
X038822Y046632*
X038853Y046587*
X038887Y046544*
X038923Y046503*
X038963Y046465*
X039005Y046429*
X039049Y046397*
X039096Y046368*
X039145Y046342*
X039195Y046320*
X039246Y046301*
X039299Y046286*
X039353Y046274*
X039407Y046267*
X039462Y046263*
X039517*
X039572Y046267*
X039626Y046274*
X039680Y046286*
X039733Y046301*
X039784Y046320*
X039834Y046342*
X039883Y046368*
X039930Y046397*
X039974Y046429*
X040016Y046465*
X040056Y046503*
X040092Y046544*
X040126Y046587*
X040157Y046632*
X040184Y046680*
X040208Y046729*
X040229Y046780*
X040246Y046833*
X040259Y046886*
X040269Y046940*
X040275Y046995*
X040277Y047050*
X038309D02*
D01*
X038307Y047104*
X038301Y047159*
X038291Y047213*
X038278Y047266*
X038261Y047319*
X038240Y047370*
X038216Y047419*
X038189Y047467*
X038158Y047512*
X038124Y047555*
X038088Y047596*
X038048Y047634*
X038006Y047670*
X037962Y047702*
X037915Y047731*
X037866Y047757*
X037816Y047779*
X037765Y047798*
X037712Y047813*
X037658Y047825*
X037604Y047832*
X037549Y047836*
X037494*
X037439Y047832*
X037385Y047825*
X037331Y047813*
X037278Y047798*
X037227Y047779*
X037177Y047757*
X037128Y047731*
X037081Y047702*
X037037Y047670*
X036995Y047634*
X036955Y047596*
X036919Y047555*
X036885Y047512*
X036854Y047467*
X036827Y047419*
X036803Y047370*
X036782Y047319*
X036765Y047266*
X036752Y047213*
X036742Y047159*
X036736Y047104*
X036735Y047050*
X036736Y046995*
X036742Y046940*
X036752Y046886*
X036765Y046833*
X036782Y046780*
X036803Y046729*
X036827Y046680*
X036854Y046632*
X036885Y046587*
X036919Y046544*
X036955Y046503*
X036995Y046465*
X037037Y046429*
X037081Y046397*
X037128Y046368*
X037177Y046342*
X037227Y046320*
X037278Y046301*
X037331Y046286*
X037385Y046274*
X037439Y046267*
X037494Y046263*
X037549*
X037604Y046267*
X037658Y046274*
X037712Y046286*
X037765Y046301*
X037816Y046320*
X037866Y046342*
X037915Y046368*
X037962Y046397*
X038006Y046429*
X038048Y046465*
X038088Y046503*
X038124Y046544*
X038158Y046587*
X038189Y046632*
X038216Y046680*
X038240Y046729*
X038261Y046780*
X038278Y046833*
X038291Y046886*
X038301Y046940*
X038307Y046995*
X038309Y047050*
X036340D02*
D01*
X036338Y047104*
X036332Y047159*
X036322Y047213*
X036309Y047266*
X036292Y047319*
X036271Y047370*
X036247Y047419*
X036220Y047467*
X036189Y047512*
X036155Y047555*
X036119Y047596*
X036079Y047634*
X036037Y047670*
X035993Y047702*
X035946Y047731*
X035897Y047757*
X035847Y047779*
X035796Y047798*
X035743Y047813*
X035689Y047825*
X035635Y047832*
X035580Y047836*
X035525*
X035470Y047832*
X035416Y047825*
X035362Y047813*
X035309Y047798*
X035258Y047779*
X035208Y047757*
X035159Y047731*
X035112Y047702*
X035068Y047670*
X035026Y047634*
X034986Y047596*
X034950Y047555*
X034916Y047512*
X034885Y047467*
X034858Y047419*
X034834Y047370*
X034813Y047319*
X034796Y047266*
X034783Y047213*
X034773Y047159*
X034767Y047104*
X034766Y047050*
X034767Y046995*
X034773Y046940*
X034783Y046886*
X034796Y046833*
X034813Y046780*
X034834Y046729*
X034858Y046680*
X034885Y046632*
X034916Y046587*
X034950Y046544*
X034986Y046503*
X035026Y046465*
X035068Y046429*
X035112Y046397*
X035159Y046368*
X035208Y046342*
X035258Y046320*
X035309Y046301*
X035362Y046286*
X035416Y046274*
X035470Y046267*
X035525Y046263*
X035580*
X035635Y046267*
X035689Y046274*
X035743Y046286*
X035796Y046301*
X035847Y046320*
X035897Y046342*
X035946Y046368*
X035993Y046397*
X036037Y046429*
X036079Y046465*
X036119Y046503*
X036155Y046544*
X036189Y046587*
X036220Y046632*
X036247Y046680*
X036271Y046729*
X036292Y046780*
X036309Y046833*
X036322Y046886*
X036332Y046940*
X036338Y046995*
X036340Y047050*
X034372D02*
D01*
X034370Y047104*
X034364Y047159*
X034354Y047213*
X034341Y047266*
X034324Y047319*
X034303Y047370*
X034279Y047419*
X034252Y047467*
X034221Y047512*
X034187Y047555*
X034151Y047596*
X034111Y047634*
X034069Y047670*
X034025Y047702*
X033978Y047731*
X033929Y047757*
X033879Y047779*
X033828Y047798*
X033775Y047813*
X033721Y047825*
X033667Y047832*
X033612Y047836*
X033557*
X033502Y047832*
X033448Y047825*
X033394Y047813*
X033341Y047798*
X033290Y047779*
X033240Y047757*
X033191Y047731*
X033144Y047702*
X033100Y047670*
X033058Y047634*
X033018Y047596*
X032982Y047555*
X032948Y047512*
X032917Y047467*
X032890Y047419*
X032866Y047370*
X032845Y047319*
X032828Y047266*
X032815Y047213*
X032805Y047159*
X032799Y047104*
X032798Y047050*
X032799Y046995*
X032805Y046940*
X032815Y046886*
X032828Y046833*
X032845Y046780*
X032866Y046729*
X032890Y046680*
X032917Y046632*
X032948Y046587*
X032982Y046544*
X033018Y046503*
X033058Y046465*
X033100Y046429*
X033144Y046397*
X033191Y046368*
X033240Y046342*
X033290Y046320*
X033341Y046301*
X033394Y046286*
X033448Y046274*
X033502Y046267*
X033557Y046263*
X033612*
X033667Y046267*
X033721Y046274*
X033775Y046286*
X033828Y046301*
X033879Y046320*
X033929Y046342*
X033978Y046368*
X034025Y046397*
X034069Y046429*
X034111Y046465*
X034151Y046503*
X034187Y046544*
X034221Y046587*
X034252Y046632*
X034279Y046680*
X034303Y046729*
X034324Y046780*
X034341Y046833*
X034354Y046886*
X034364Y046940*
X034370Y046995*
X034372Y047050*
X032403D02*
D01*
X032401Y047104*
X032395Y047159*
X032385Y047213*
X032372Y047266*
X032355Y047319*
X032334Y047370*
X032310Y047419*
X032283Y047467*
X032252Y047512*
X032218Y047555*
X032182Y047596*
X032142Y047634*
X032100Y047670*
X032056Y047702*
X032009Y047731*
X031960Y047757*
X031910Y047779*
X031859Y047798*
X031806Y047813*
X031752Y047825*
X031698Y047832*
X031643Y047836*
X031588*
X031533Y047832*
X031479Y047825*
X031425Y047813*
X031372Y047798*
X031321Y047779*
X031271Y047757*
X031222Y047731*
X031175Y047702*
X031131Y047670*
X031089Y047634*
X031049Y047596*
X031013Y047555*
X030979Y047512*
X030948Y047467*
X030921Y047419*
X030897Y047370*
X030876Y047319*
X030859Y047266*
X030846Y047213*
X030836Y047159*
X030830Y047104*
X030829Y047050*
X030830Y046995*
X030836Y046940*
X030846Y046886*
X030859Y046833*
X030876Y046780*
X030897Y046729*
X030921Y046680*
X030948Y046632*
X030979Y046587*
X031013Y046544*
X031049Y046503*
X031089Y046465*
X031131Y046429*
X031175Y046397*
X031222Y046368*
X031271Y046342*
X031321Y046320*
X031372Y046301*
X031425Y046286*
X031479Y046274*
X031533Y046267*
X031588Y046263*
X031643*
X031698Y046267*
X031752Y046274*
X031806Y046286*
X031859Y046301*
X031910Y046320*
X031960Y046342*
X032009Y046368*
X032056Y046397*
X032100Y046429*
X032142Y046465*
X032182Y046503*
X032218Y046544*
X032252Y046587*
X032283Y046632*
X032310Y046680*
X032334Y046729*
X032355Y046780*
X032372Y046833*
X032385Y046886*
X032395Y046940*
X032401Y046995*
X032403Y047050*
X030435D02*
D01*
X030433Y047104*
X030427Y047159*
X030417Y047213*
X030404Y047266*
X030387Y047319*
X030366Y047370*
X030342Y047419*
X030315Y047467*
X030284Y047512*
X030250Y047555*
X030214Y047596*
X030174Y047634*
X030132Y047670*
X030088Y047702*
X030041Y047731*
X029992Y047757*
X029942Y047779*
X029891Y047798*
X029838Y047813*
X029784Y047825*
X029730Y047832*
X029675Y047836*
X029620*
X029565Y047832*
X029511Y047825*
X029457Y047813*
X029404Y047798*
X029353Y047779*
X029303Y047757*
X029254Y047731*
X029207Y047702*
X029163Y047670*
X029121Y047634*
X029081Y047596*
X029045Y047555*
X029011Y047512*
X028980Y047467*
X028953Y047419*
X028929Y047370*
X028908Y047319*
X028891Y047266*
X028878Y047213*
X028868Y047159*
X028862Y047104*
X028861Y047050*
X028862Y046995*
X028868Y046940*
X028878Y046886*
X028891Y046833*
X028908Y046780*
X028929Y046729*
X028953Y046680*
X028980Y046632*
X029011Y046587*
X029045Y046544*
X029081Y046503*
X029121Y046465*
X029163Y046429*
X029207Y046397*
X029254Y046368*
X029303Y046342*
X029353Y046320*
X029404Y046301*
X029457Y046286*
X029511Y046274*
X029565Y046267*
X029620Y046263*
X029675*
X029730Y046267*
X029784Y046274*
X029838Y046286*
X029891Y046301*
X029942Y046320*
X029992Y046342*
X030041Y046368*
X030088Y046397*
X030132Y046429*
X030174Y046465*
X030214Y046503*
X030250Y046544*
X030284Y046587*
X030315Y046632*
X030342Y046680*
X030366Y046729*
X030387Y046780*
X030404Y046833*
X030417Y046886*
X030427Y046940*
X030433Y046995*
X030435Y047050*
X026482D02*
D01*
X026480Y047104*
X026474Y047159*
X026464Y047213*
X026451Y047266*
X026434Y047319*
X026413Y047370*
X026389Y047419*
X026362Y047467*
X026331Y047512*
X026297Y047555*
X026261Y047596*
X026221Y047634*
X026179Y047670*
X026135Y047702*
X026088Y047731*
X026039Y047757*
X025989Y047779*
X025938Y047798*
X025885Y047813*
X025831Y047825*
X025777Y047832*
X025722Y047836*
X025667*
X025612Y047832*
X025558Y047825*
X025504Y047813*
X025451Y047798*
X025400Y047779*
X025350Y047757*
X025301Y047731*
X025254Y047702*
X025210Y047670*
X025168Y047634*
X025128Y047596*
X025092Y047555*
X025058Y047512*
X025027Y047467*
X025000Y047419*
X024976Y047370*
X024955Y047319*
X024938Y047266*
X024925Y047213*
X024915Y047159*
X024909Y047104*
X024908Y047050*
X024909Y046995*
X024915Y046940*
X024925Y046886*
X024938Y046833*
X024955Y046780*
X024976Y046729*
X025000Y046680*
X025027Y046632*
X025058Y046587*
X025092Y046544*
X025128Y046503*
X025168Y046465*
X025210Y046429*
X025254Y046397*
X025301Y046368*
X025350Y046342*
X025400Y046320*
X025451Y046301*
X025504Y046286*
X025558Y046274*
X025612Y046267*
X025667Y046263*
X025722*
X025777Y046267*
X025831Y046274*
X025885Y046286*
X025938Y046301*
X025989Y046320*
X026039Y046342*
X026088Y046368*
X026135Y046397*
X026179Y046429*
X026221Y046465*
X026261Y046503*
X026297Y046544*
X026331Y046587*
X026362Y046632*
X026389Y046680*
X026413Y046729*
X026434Y046780*
X026451Y046833*
X026464Y046886*
X026474Y046940*
X026480Y046995*
X026482Y047050*
X028466D02*
D01*
X028464Y047104*
X028458Y047159*
X028448Y047213*
X028435Y047266*
X028418Y047319*
X028397Y047370*
X028373Y047419*
X028346Y047467*
X028315Y047512*
X028281Y047555*
X028245Y047596*
X028205Y047634*
X028163Y047670*
X028119Y047702*
X028072Y047731*
X028023Y047757*
X027973Y047779*
X027922Y047798*
X027869Y047813*
X027815Y047825*
X027761Y047832*
X027706Y047836*
X027651*
X027596Y047832*
X027542Y047825*
X027488Y047813*
X027435Y047798*
X027384Y047779*
X027334Y047757*
X027285Y047731*
X027238Y047702*
X027194Y047670*
X027152Y047634*
X027112Y047596*
X027076Y047555*
X027042Y047512*
X027011Y047467*
X026984Y047419*
X026960Y047370*
X026939Y047319*
X026922Y047266*
X026909Y047213*
X026899Y047159*
X026893Y047104*
X026892Y047050*
X026893Y046995*
X026899Y046940*
X026909Y046886*
X026922Y046833*
X026939Y046780*
X026960Y046729*
X026984Y046680*
X027011Y046632*
X027042Y046587*
X027076Y046544*
X027112Y046503*
X027152Y046465*
X027194Y046429*
X027238Y046397*
X027285Y046368*
X027334Y046342*
X027384Y046320*
X027435Y046301*
X027488Y046286*
X027542Y046274*
X027596Y046267*
X027651Y046263*
X027706*
X027761Y046267*
X027815Y046274*
X027869Y046286*
X027922Y046301*
X027973Y046320*
X028023Y046342*
X028072Y046368*
X028119Y046397*
X028163Y046429*
X028205Y046465*
X028245Y046503*
X028281Y046544*
X028315Y046587*
X028346Y046632*
X028373Y046680*
X028397Y046729*
X028418Y046780*
X028435Y046833*
X028448Y046886*
X028458Y046940*
X028464Y046995*
X028466Y047050*
X077503Y012400D02*
D01*
X077501Y012454*
X077495Y012509*
X077485Y012563*
X077472Y012616*
X077455Y012669*
X077434Y012720*
X077410Y012769*
X077383Y012817*
X077352Y012862*
X077318Y012905*
X077282Y012946*
X077242Y012984*
X077200Y013020*
X077156Y013052*
X077109Y013081*
X077060Y013107*
X077010Y013129*
X076959Y013148*
X076906Y013163*
X076852Y013175*
X076798Y013182*
X076743Y013186*
X076688*
X076633Y013182*
X076579Y013175*
X076525Y013163*
X076472Y013148*
X076421Y013129*
X076371Y013107*
X076322Y013081*
X076275Y013052*
X076231Y013020*
X076189Y012984*
X076149Y012946*
X076113Y012905*
X076079Y012862*
X076048Y012817*
X076021Y012769*
X075997Y012720*
X075976Y012669*
X075959Y012616*
X075946Y012563*
X075936Y012509*
X075930Y012454*
X075929Y012400*
X075930Y012345*
X075936Y012290*
X075946Y012236*
X075959Y012183*
X075976Y012130*
X075997Y012079*
X076021Y012030*
X076048Y011982*
X076079Y011937*
X076113Y011894*
X076149Y011853*
X076189Y011815*
X076231Y011779*
X076275Y011747*
X076322Y011718*
X076371Y011692*
X076421Y011670*
X076472Y011651*
X076525Y011636*
X076579Y011624*
X076633Y011617*
X076688Y011613*
X076743*
X076798Y011617*
X076852Y011624*
X076906Y011636*
X076959Y011651*
X077010Y011670*
X077060Y011692*
X077109Y011718*
X077156Y011747*
X077200Y011779*
X077242Y011815*
X077282Y011853*
X077318Y011894*
X077352Y011937*
X077383Y011982*
X077410Y012030*
X077434Y012079*
X077455Y012130*
X077472Y012183*
X077485Y012236*
X077495Y012290*
X077501Y012345*
X077503Y012400*
X079487D02*
D01*
X079485Y012454*
X079479Y012509*
X079469Y012563*
X079456Y012616*
X079439Y012669*
X079418Y012720*
X079394Y012769*
X079367Y012817*
X079336Y012862*
X079302Y012905*
X079266Y012946*
X079226Y012984*
X079184Y013020*
X079140Y013052*
X079093Y013081*
X079044Y013107*
X078994Y013129*
X078943Y013148*
X078890Y013163*
X078836Y013175*
X078782Y013182*
X078727Y013186*
X078672*
X078617Y013182*
X078563Y013175*
X078509Y013163*
X078456Y013148*
X078405Y013129*
X078355Y013107*
X078306Y013081*
X078259Y013052*
X078215Y013020*
X078173Y012984*
X078133Y012946*
X078097Y012905*
X078063Y012862*
X078032Y012817*
X078005Y012769*
X077981Y012720*
X077960Y012669*
X077943Y012616*
X077930Y012563*
X077920Y012509*
X077914Y012454*
X077913Y012400*
X077914Y012345*
X077920Y012290*
X077930Y012236*
X077943Y012183*
X077960Y012130*
X077981Y012079*
X078005Y012030*
X078032Y011982*
X078063Y011937*
X078097Y011894*
X078133Y011853*
X078173Y011815*
X078215Y011779*
X078259Y011747*
X078306Y011718*
X078355Y011692*
X078405Y011670*
X078456Y011651*
X078509Y011636*
X078563Y011624*
X078617Y011617*
X078672Y011613*
X078727*
X078782Y011617*
X078836Y011624*
X078890Y011636*
X078943Y011651*
X078994Y011670*
X079044Y011692*
X079093Y011718*
X079140Y011747*
X079184Y011779*
X079226Y011815*
X079266Y011853*
X079302Y011894*
X079336Y011937*
X079367Y011982*
X079394Y012030*
X079418Y012079*
X079439Y012130*
X079456Y012183*
X079469Y012236*
X079479Y012290*
X079485Y012345*
X079487Y012400*
X088800Y010000D02*
X090150D01*
X088840Y049370D02*
X090150D01*
X090050Y010000D02*
Y027716D01*
Y031335D02*
Y049370D01*
Y010000D02*
X090250Y010600D01*
X089850D02*
X090050Y010000D01*
X089850Y048770D02*
X090050Y049370D01*
X090250Y048770*
X088740Y049450D02*
Y051400D01*
X010000Y049470D02*
Y051400D01*
X051070Y051300D02*
X088740D01*
X010000D02*
X047351D01*
X088140Y051500D02*
X088740Y051300D01*
X088140Y051100D02*
X088740Y051300D01*
X010000D02*
X010600Y051100D01*
X010000Y051300D02*
X010600Y051500D01*
X082834Y011750D02*
X083884Y012800D01*
X082659Y011925D02*
X083734Y013000D01*
X084834Y012950D02*
X085884Y011900D01*
X084834Y012950D02*
Y013000D01*
X084634Y012750D02*
X085684Y011700D01*
X072931Y011950D02*
X073981Y013000D01*
X073081Y011750D02*
X074156Y012825D01*
X070932Y012850D02*
X071982Y011800D01*
Y011750D02*
Y011800D01*
X071132Y013050D02*
X072182Y012000D01*
X067782Y011950D02*
X068832Y013000D01*
X067931Y011750D02*
X069007Y012825D01*
X065781Y012850D02*
X066831Y011800D01*
Y011750D02*
Y011800D01*
X065981Y013050D02*
X067031Y012000D01*
X025069Y011925D02*
X026144Y013000D01*
X025244Y011750D02*
X026294Y012800D01*
X027038Y011925D02*
X028113Y013000D01*
X027213Y011750D02*
X028263Y012800D01*
X029006Y011925D02*
X030081Y013000D01*
X029181Y011750D02*
X030231Y012800D01*
X030975Y011925D02*
X032050Y013000D01*
X031150Y011750D02*
X032200Y012800D01*
X032943Y011925D02*
X034018Y013000D01*
X033119Y011750D02*
X034169Y012800D01*
X034912Y011925D02*
X035987Y013000D01*
X035087Y011750D02*
X036137Y012800D01*
X037056Y011750D02*
X038106Y012800D01*
X036881Y011925D02*
X037956Y013000D01*
X039056Y012950D02*
X040106Y011900D01*
X039056Y012950D02*
Y013000D01*
X038856Y012750D02*
X039906Y011700D01*
X052250Y011950D02*
X053300Y013000D01*
X052400Y011750D02*
X053475Y012825D01*
X050250Y012850D02*
X051300Y011800D01*
Y011750D02*
Y011800D01*
X050450Y013050D02*
X051500Y012000D01*
X062731Y011950D02*
X063781Y013000D01*
X062881Y011750D02*
X063956Y012825D01*
X060732Y012850D02*
X061782Y011800D01*
Y011750D02*
Y011800D01*
X060932Y013050D02*
X061982Y012000D01*
X052250Y046600D02*
X053300Y047650D01*
X052400Y046400D02*
X053475Y047475D01*
X050250Y047500D02*
X051300Y046450D01*
Y046400D02*
Y046450D01*
X050450Y047700D02*
X051500Y046650D01*
X060884Y046400D02*
X061934Y047450D01*
X060709Y046575D02*
X061784Y047650D01*
X062884Y047600D02*
X063934Y046550D01*
X062884Y047600D02*
Y047650D01*
X062684Y047400D02*
X063734Y046350D01*
X065918Y046400D02*
X066968Y047450D01*
X065743Y046575D02*
X066818Y047650D01*
X067919Y047600D02*
X068969Y046550D01*
X067919Y047600D02*
Y047650D01*
X067719Y047400D02*
X068769Y046350D01*
X071034Y046400D02*
X072084Y047450D01*
X070859Y046575D02*
X071934Y047650D01*
X073034Y047600D02*
X074084Y046550D01*
X073034Y047600D02*
Y047650D01*
X072834Y047400D02*
X073884Y046350D01*
X076318Y046400D02*
X077368Y047450D01*
X076143Y046575D02*
X077218Y047650D01*
X078319Y047600D02*
X079369Y046550D01*
X078319Y047600D02*
Y047650D01*
X078119Y047400D02*
X079169Y046350D01*
X082834Y046400D02*
X083884Y047450D01*
X082659Y046575D02*
X083734Y047650D01*
X084834Y047600D02*
X085884Y046550D01*
X084834Y047600D02*
Y047650D01*
X084634Y047400D02*
X085684Y046350D01*
X039056Y046400D02*
X040131Y047475D01*
X038906Y046600D02*
X039956Y047650D01*
X037087Y046400D02*
X038162Y047475D01*
X036937Y046600D02*
X037987Y047650D01*
X035119Y046400D02*
X036193Y047475D01*
X034969Y046600D02*
X036019Y047650D01*
X033150Y046400D02*
X034225Y047475D01*
X033000Y046600D02*
X034050Y047650D01*
X031181Y046400D02*
X032256Y047475D01*
X031031Y046600D02*
X032081Y047650D01*
X029213Y046400D02*
X030288Y047475D01*
X029063Y046600D02*
X030113Y047650D01*
X027094Y046600D02*
X028144Y047650D01*
X027244Y046400D02*
X028319Y047475D01*
X025094Y047500D02*
X026144Y046450D01*
Y046400D02*
Y046450D01*
X025294Y047700D02*
X026344Y046650D01*
X078116Y011950D02*
X079166Y013000D01*
X078266Y011750D02*
X079341Y012825D01*
X076116Y012850D02*
X077166Y011800D01*
Y011750D02*
Y011800D01*
X076316Y013050D02*
X077366Y012000D01*
G54D84*
X071221Y032950D02*
X071379D01*
X071300Y032871D02*
Y033029D01*
X060753Y019200D02*
X060910D01*
X060831Y019121D02*
Y019279D01*
X065903Y019150D02*
X066060D01*
X065981Y019071D02*
Y019229D01*
X071053Y019178D02*
X071210D01*
X071132Y019099D02*
Y019256D01*
X076187Y019228D02*
X076344D01*
X076266Y019149D02*
Y019306D01*
X079140Y040222D02*
X079297D01*
X079219Y040144D02*
Y040301D01*
X073906Y040250D02*
X074063D01*
X073984Y040171D02*
Y040329D01*
X068906Y040200D02*
X069063D01*
X068984Y040121D02*
Y040279D01*
X063806Y040200D02*
X063963D01*
X063884Y040121D02*
Y040279D01*
G54D85*
X090510Y027876D02*
Y028076D01*
Y027976*
X089910*
X090010Y027876*
Y028375D02*
X089910Y028475D01*
Y028675*
X090010Y028775*
X090410*
X090510Y028675*
Y028475*
X090410Y028375*
X090010*
Y028975D02*
X089910Y029075D01*
Y029275*
X090010Y029375*
X090410*
X090510Y029275*
Y029075*
X090410Y028975*
X090010*
X090610Y029675D02*
X090510Y029775D01*
X090410*
Y029675*
X090510*
Y029775*
X090610Y029675*
X090710Y029575*
X090010Y030175D02*
X089910Y030275D01*
Y030475*
X090010Y030575*
X090410*
X090510Y030475*
Y030275*
X090410Y030175*
X090010*
Y030775D02*
X089910Y030875D01*
Y031075*
X090010Y031175*
X090410*
X090510Y031075*
Y030875*
X090410Y030775*
X090010*
X047910Y050840D02*
X047511D01*
X047910Y051240*
Y051340*
X047811Y051440*
X047611*
X047511Y051340*
X048110D02*
X048210Y051440D01*
X048410*
X048510Y051340*
Y050940*
X048410Y050840*
X048210*
X048110Y050940*
Y051340*
X048710D02*
X048810Y051440D01*
X049010*
X049110Y051340*
Y050940*
X049010Y050840*
X048810*
X048710Y050940*
Y051340*
X049410Y050740D02*
X049510Y050840D01*
Y050940*
X049410*
Y050840*
X049510*
X049410Y050740*
X049310Y050640*
X049910Y051340D02*
X050010Y051440D01*
X050210*
X050310Y051340*
Y050940*
X050210Y050840*
X050010*
X049910Y050940*
Y051340*
X050510D02*
X050610Y051440D01*
X050810*
X050910Y051340*
Y050940*
X050810Y050840*
X050610*
X050510Y050940*
Y051340*
M02*