G04*
G04 #@! TF.GenerationSoftware,Altium Limited,Altium Designer,24.5.2 (23)*
G04*
G04 Layer_Color=2752767*
%FSLAX25Y25*%
%MOIN*%
G70*
G04*
G04 #@! TF.SameCoordinates,62667526-275E-49D5-B9E8-2F90AF9612E4*
G04*
G04*
G04 #@! TF.FilePolarity,Positive*
G04*
G01*
G75*
%ADD14C,0.00500*%
%ADD99C,0.00667*%
D14*
X102500Y59500D02*
Y63500D01*
X106500D01*
Y59500D01*
X102500D01*
Y49500D02*
Y53500D01*
X106500D01*
Y49500D01*
X102500D01*
X132500Y59500D02*
Y63500D01*
X136500D01*
Y59500D01*
X132500D01*
Y49500D02*
Y53500D01*
X136500D01*
Y49500D01*
X132500D01*
X5500Y10000D02*
Y14000D01*
X9500D01*
Y10000D01*
X5500D01*
Y20000D02*
Y24000D01*
X9500D01*
Y20000D01*
X5500D01*
X15500Y10000D02*
Y14000D01*
X19500D01*
Y10000D01*
X15500D01*
Y20000D02*
Y24000D01*
X19500D01*
Y20000D01*
X15500D01*
X25500Y10000D02*
Y14000D01*
X29500D01*
Y10000D01*
X25500D01*
Y20000D02*
Y24000D01*
X29500D01*
Y20000D01*
X25500D01*
X35500Y10000D02*
Y14000D01*
X39500D01*
Y10000D01*
X35500D01*
Y20000D02*
Y24000D01*
X39500D01*
Y20000D01*
X35500D01*
X187000Y10000D02*
Y14000D01*
X191000D01*
Y10000D01*
X187000D01*
Y20000D02*
Y24000D01*
X191000D01*
Y20000D01*
X187000D01*
X197000Y10000D02*
Y14000D01*
X201000D01*
Y10000D01*
X197000D01*
Y20000D02*
Y24000D01*
X201000D01*
Y20000D01*
X197000D01*
X207000Y10000D02*
Y14000D01*
X211000D01*
Y10000D01*
X207000D01*
Y20000D02*
Y24000D01*
X211000D01*
Y20000D01*
X207000D01*
X15000Y64000D02*
Y68000D01*
X19000D01*
Y64000D01*
X15000D01*
Y54000D02*
Y58000D01*
X19000D01*
Y54000D01*
X15000D01*
X45000Y64000D02*
Y68000D01*
X49000D01*
Y64000D01*
X45000D01*
Y54000D02*
Y58000D01*
X49000D01*
Y54000D01*
X45000D01*
Y32500D02*
Y36500D01*
X49000D01*
Y32500D01*
X45000D01*
Y42500D02*
Y46500D01*
X49000D01*
Y42500D01*
X45000D01*
X15000Y32500D02*
Y36500D01*
X19000D01*
Y32500D01*
X15000D01*
Y42500D02*
Y46500D01*
X19000D01*
Y42500D01*
X15000D01*
X90500Y42000D02*
Y46000D01*
X94500D01*
Y42000D01*
X90500D01*
X80500D02*
Y46000D01*
X84500D01*
Y42000D01*
X80500D01*
X70500D02*
Y46000D01*
X74500D01*
Y42000D01*
X70500D01*
X132500Y82000D02*
Y86000D01*
X136500D01*
Y82000D01*
X132500D01*
Y72000D02*
Y76000D01*
X136500D01*
Y72000D01*
X132500D01*
X61500Y9500D02*
X62500Y11500D01*
X61500Y13500D01*
X63500Y12500D01*
X65500Y13500D01*
X64500Y11500D01*
X65500Y9500D01*
X63500Y10500D01*
X61500Y9500D01*
X97032Y81532D02*
X98032Y83532D01*
X97032Y85532D01*
X99032Y84532D01*
X101032Y85532D01*
X100032Y83532D01*
X101032Y81532D01*
X99032Y82532D01*
X97032Y81532D01*
X110000Y48500D02*
X111000Y50500D01*
X110000Y52500D01*
X112000Y51500D01*
X114000Y52500D01*
X113000Y50500D01*
X114000Y48500D01*
X112000Y49500D01*
X110000Y48500D01*
X110611Y55111D02*
X111611Y57112D01*
X110611Y59111D01*
X112611Y58112D01*
X114611Y59111D01*
X113611Y57112D01*
X114611Y55111D01*
X112611Y56112D01*
X110611Y55111D01*
X180000Y21500D02*
X178000Y25500D01*
X182000D01*
X180000Y21500D01*
Y15500D02*
X178000Y19500D01*
X182000D01*
X180000Y15500D01*
X135798Y115492D02*
X136798Y117492D01*
X135798Y119492D01*
X137798Y118492D01*
X139798Y119492D01*
X138798Y117492D01*
X139798Y115492D01*
X137798Y116492D01*
X135798Y115492D01*
X135832Y119492D02*
X136832Y121492D01*
X135832Y123492D01*
X137832Y122492D01*
X139832Y123492D01*
X138832Y121492D01*
X139832Y119492D01*
X137832Y120492D01*
X135832Y119492D01*
X126500Y33500D02*
X127500Y35500D01*
X126500Y37500D01*
X128500Y36500D01*
X130500Y37500D01*
X129500Y35500D01*
X130500Y33500D01*
X128500Y34500D01*
X126500Y33500D01*
X130834Y33667D02*
X131834Y35667D01*
X130834Y37667D01*
X132834Y36667D01*
X134834Y37667D01*
X133834Y35667D01*
X134834Y33667D01*
X132834Y34667D01*
X130834Y33667D01*
X80500Y97354D02*
X81500Y99354D01*
X80500Y101354D01*
X82500Y100354D01*
X84500Y101354D01*
X83500Y99354D01*
X84500Y97354D01*
X82500Y98354D01*
X80500Y97354D01*
X58500Y59500D02*
X59500Y61500D01*
X58500Y63500D01*
X60500Y62500D01*
X62500Y63500D01*
X61500Y61500D01*
X62500Y59500D01*
X60500Y60500D01*
X58500Y59500D01*
X70500Y70000D02*
X71500Y72000D01*
X70500Y74000D01*
X72500Y73000D01*
X74500Y74000D01*
X73500Y72000D01*
X74500Y70000D01*
X72500Y71000D01*
X70500Y70000D01*
X95000Y94000D02*
X96000Y96000D01*
X95000Y98000D01*
X97000Y97000D01*
X99000Y98000D01*
X98000Y96000D01*
X99000Y94000D01*
X97000Y95000D01*
X95000Y94000D01*
X106000D02*
X107000Y96000D01*
X106000Y98000D01*
X108000Y97000D01*
X110000Y98000D01*
X109000Y96000D01*
X110000Y94000D01*
X108000Y95000D01*
X106000Y94000D01*
X62520Y37591D02*
X63520Y39591D01*
X62520Y41591D01*
X64520Y40591D01*
X66520Y41591D01*
X65520Y39591D01*
X66520Y37591D01*
X64520Y38591D01*
X62520Y37591D01*
X81335Y12165D02*
X82335Y14165D01*
X81335Y16165D01*
X83335Y15165D01*
X85335Y16165D01*
X84335Y14165D01*
X85335Y12165D01*
X83335Y13165D01*
X81335Y12165D01*
X49500Y14500D02*
X50500Y16500D01*
X49500Y18500D01*
X51500Y17500D01*
X53500Y18500D01*
X52500Y16500D01*
X53500Y14500D01*
X51500Y15500D01*
X49500Y14500D01*
Y23500D02*
X50500Y25500D01*
X49500Y27500D01*
X51500Y26500D01*
X53500Y27500D01*
X52500Y25500D01*
X53500Y23500D01*
X51500Y24500D01*
X49500Y23500D01*
X45422Y6922D02*
X46422Y8922D01*
X45422Y10922D01*
X47422Y9922D01*
X49422Y10922D01*
X48422Y8922D01*
X49422Y6922D01*
X47422Y7922D01*
X45422Y6922D01*
X85899Y23263D02*
X86899Y25263D01*
X85899Y27263D01*
X87899Y26263D01*
X89899Y27263D01*
X88899Y25263D01*
X89899Y23263D01*
X87899Y24263D01*
X85899Y23263D01*
X84021Y49237D02*
X85021Y51237D01*
X84021Y53237D01*
X86021Y52237D01*
X88021Y53237D01*
X87021Y51237D01*
X88021Y49237D01*
X86021Y50237D01*
X84021Y49237D01*
X75993Y25830D02*
X76993Y27830D01*
X75993Y29830D01*
X77993Y28830D01*
X79993Y29830D01*
X78993Y27830D01*
X79993Y25830D01*
X77993Y26830D01*
X75993Y25830D01*
X76000Y19000D02*
X77000Y21000D01*
X76000Y23000D01*
X78000Y22000D01*
X80000Y23000D01*
X79000Y21000D01*
X80000Y19000D01*
X78000Y20000D01*
X76000Y19000D01*
X71250Y56000D02*
X72250Y58000D01*
X71250Y60000D01*
X73250Y59000D01*
X75250Y60000D01*
X74250Y58000D01*
X75250Y56000D01*
X73250Y57000D01*
X71250Y56000D01*
X76000D02*
X77000Y58000D01*
X76000Y60000D01*
X78000Y59000D01*
X80000Y60000D01*
X79000Y58000D01*
X80000Y56000D01*
X78000Y57000D01*
X76000Y56000D01*
X66500D02*
X67500Y58000D01*
X66500Y60000D01*
X68500Y59000D01*
X70500Y60000D01*
X69500Y58000D01*
X70500Y56000D01*
X68500Y57000D01*
X66500Y56000D01*
X118379Y46379D02*
X119379Y48379D01*
X118379Y50379D01*
X120379Y49379D01*
X122379Y50379D01*
X121379Y48379D01*
X122379Y46379D01*
X120379Y47379D01*
X118379Y46379D01*
X94000Y54500D02*
X95000Y56500D01*
X94000Y58500D01*
X96000Y57500D01*
X98000Y58500D01*
X97000Y56500D01*
X98000Y54500D01*
X96000Y55500D01*
X94000Y54500D01*
X101000Y81500D02*
X102000Y83500D01*
X101000Y85500D01*
X103000Y84500D01*
X105000Y85500D01*
X104000Y83500D01*
X105000Y81500D01*
X103000Y82500D01*
X101000Y81500D01*
X80500Y101500D02*
X81500Y103500D01*
X80500Y105500D01*
X82500Y104500D01*
X84500Y105500D01*
X83500Y103500D01*
X84500Y101500D01*
X82500Y102500D01*
X80500Y101500D01*
X75500Y48000D02*
X76500Y50000D01*
X75500Y52000D01*
X77500Y51000D01*
X79500Y52000D01*
X78500Y50000D01*
X79500Y48000D01*
X77500Y49000D01*
X75500Y48000D01*
X95500Y76000D02*
X96500Y78000D01*
X95500Y80000D01*
X97500Y79000D01*
X99500Y80000D01*
X98500Y78000D01*
X99500Y76000D01*
X97500Y77000D01*
X95500Y76000D01*
X158500Y48000D02*
X156500Y52000D01*
X160500D01*
X158500Y48000D01*
X150500D02*
X148500Y52000D01*
X152500D01*
X150500Y48000D01*
Y85500D02*
X148500Y89500D01*
X152500D01*
X150500Y85500D01*
X158500D02*
X156500Y89500D01*
X160500D01*
X158500Y85500D01*
X206000Y66500D02*
X204000Y70500D01*
X208000D01*
X206000Y66500D01*
Y57500D02*
X204000Y61500D01*
X208000D01*
X206000Y57500D01*
Y48500D02*
X204000Y52500D01*
X208000D01*
X206000Y48500D01*
Y39500D02*
X204000Y43500D01*
X208000D01*
X206000Y39500D01*
X197500D02*
X195500Y43500D01*
X199500D01*
X197500Y39500D01*
Y48500D02*
X195500Y52500D01*
X199500D01*
X197500Y48500D01*
Y57500D02*
X195500Y61500D01*
X199500D01*
X197500Y57500D01*
Y66500D02*
X195500Y70500D01*
X199500D01*
X197500Y66500D01*
X187500Y115000D02*
X185500Y119000D01*
X189500D01*
X187500Y115000D01*
Y106000D02*
X185500Y110000D01*
X189500D01*
X187500Y106000D01*
Y97000D02*
X185500Y101000D01*
X189500D01*
X187500Y97000D01*
Y88000D02*
X185500Y92000D01*
X189500D01*
X187500Y88000D01*
X196000Y115000D02*
X194000Y119000D01*
X198000D01*
X196000Y115000D01*
Y106000D02*
X194000Y110000D01*
X198000D01*
X196000Y106000D01*
Y97000D02*
X194000Y101000D01*
X198000D01*
X196000Y97000D01*
Y88000D02*
X194000Y92000D01*
X198000D01*
X196000Y88000D01*
X204500D02*
X202500Y92000D01*
X206500D01*
X204500Y88000D01*
Y97000D02*
X202500Y101000D01*
X206500D01*
X204500Y97000D01*
Y106000D02*
X202500Y110000D01*
X206500D01*
X204500Y106000D01*
Y115000D02*
X202500Y119000D01*
X206500D01*
X204500Y115000D01*
D99*
X17500Y119500D02*
G03*
X17500Y119500I-2000J0D01*
G01*
X27500D02*
G03*
X27500Y119500I-2000J0D01*
G01*
X47500D02*
G03*
X47500Y119500I-2000J0D01*
G01*
X67500D02*
G03*
X67500Y119500I-2000J0D01*
G01*
M02*
