G04*
G04 #@! TF.GenerationSoftware,Altium Limited,Altium Designer,24.5.2 (23)*
G04*
G04 Layer_Color=128*
%FSLAX25Y25*%
%MOIN*%
G70*
G04*
G04 #@! TF.SameCoordinates,62667526-275E-49D5-B9E8-2F90AF9612E4*
G04*
G04*
G04 #@! TF.FilePolarity,Positive*
G04*
G01*
G75*
%ADD14C,0.00500*%
D14*
X102728Y61500D02*
X106272D01*
X104500Y59728D02*
Y63272D01*
X102728Y51500D02*
X106272D01*
X104500Y49728D02*
Y53272D01*
X132728Y61500D02*
X136272D01*
X134500Y59728D02*
Y63272D01*
X132728Y51500D02*
X136272D01*
X134500Y49728D02*
Y53272D01*
X5728Y12000D02*
X9272D01*
X7500Y10228D02*
Y13772D01*
X5728Y22000D02*
X9272D01*
X7500Y20228D02*
Y23772D01*
X15728Y12000D02*
X19272D01*
X17500Y10228D02*
Y13772D01*
X15728Y22000D02*
X19272D01*
X17500Y20228D02*
Y23772D01*
X25728Y12000D02*
X29272D01*
X27500Y10228D02*
Y13772D01*
X25728Y22000D02*
X29272D01*
X27500Y20228D02*
Y23772D01*
X35728Y12000D02*
X39272D01*
X37500Y10228D02*
Y13772D01*
X35728Y22000D02*
X39272D01*
X37500Y20228D02*
Y23772D01*
X187228Y12000D02*
X190772D01*
X189000Y10228D02*
Y13772D01*
X187228Y22000D02*
X190772D01*
X189000Y20228D02*
Y23772D01*
X197228Y12000D02*
X200772D01*
X199000Y10228D02*
Y13772D01*
X197228Y22000D02*
X200772D01*
X199000Y20228D02*
Y23772D01*
X207228Y12000D02*
X210772D01*
X209000Y10228D02*
Y13772D01*
X207228Y22000D02*
X210772D01*
X209000Y20228D02*
Y23772D01*
X15228Y66000D02*
X18772D01*
X17000Y64228D02*
Y67772D01*
X15228Y56000D02*
X18772D01*
X17000Y54228D02*
Y57772D01*
X45228Y66000D02*
X48772D01*
X47000Y64228D02*
Y67772D01*
X45228Y56000D02*
X48772D01*
X47000Y54228D02*
Y57772D01*
X45228Y34500D02*
X48772D01*
X47000Y32728D02*
Y36272D01*
X45228Y44500D02*
X48772D01*
X47000Y42728D02*
Y46272D01*
X15228Y34500D02*
X18772D01*
X17000Y32728D02*
Y36272D01*
X15228Y44500D02*
X18772D01*
X17000Y42728D02*
Y46272D01*
X13532Y119500D02*
X17469D01*
X15500Y117532D02*
Y121468D01*
X23531Y119500D02*
X27468D01*
X25500Y117532D02*
Y121468D01*
X43532Y119500D02*
X47469D01*
X45500Y117532D02*
Y121468D01*
X63532Y119500D02*
X67469D01*
X65500Y117532D02*
Y121468D01*
X90728Y44000D02*
X94272D01*
X92500Y42228D02*
Y45772D01*
X80728Y44000D02*
X84272D01*
X82500Y42228D02*
Y45772D01*
X70728Y44000D02*
X74272D01*
X72500Y42228D02*
Y45772D01*
X132728Y84000D02*
X136272D01*
X134500Y82228D02*
Y85772D01*
X132728Y74000D02*
X136272D01*
X134500Y72228D02*
Y75772D01*
X63000Y11500D02*
X64000D01*
X63500Y11000D02*
Y12000D01*
X98532Y83532D02*
X99532D01*
X99032Y83032D02*
Y84032D01*
X111500Y50500D02*
X112500D01*
X112000Y50000D02*
Y51000D01*
X112111Y57112D02*
X113111D01*
X112611Y56612D02*
Y57612D01*
X178600Y23500D02*
X181400D01*
X180000Y22100D02*
Y24900D01*
X178600Y17500D02*
X181400D01*
X180000Y16100D02*
Y18900D01*
X137298Y117492D02*
X138298D01*
X137798Y116992D02*
Y117992D01*
X137332Y121492D02*
X138332D01*
X137832Y120992D02*
Y121992D01*
X128000Y35500D02*
X129000D01*
X128500Y35000D02*
Y36000D01*
X132334Y35667D02*
X133334D01*
X132834Y35167D02*
Y36167D01*
X82000Y99354D02*
X83000D01*
X82500Y98854D02*
Y99854D01*
X60000Y61500D02*
X61000D01*
X60500Y61000D02*
Y62000D01*
X72000Y72000D02*
X73000D01*
X72500Y71500D02*
Y72500D01*
X96500Y96000D02*
X97500D01*
X97000Y95500D02*
Y96500D01*
X107500Y96000D02*
X108500D01*
X108000Y95500D02*
Y96500D01*
X64020Y39591D02*
X65020D01*
X64520Y39091D02*
Y40091D01*
X82835Y14165D02*
X83835D01*
X83335Y13665D02*
Y14665D01*
X51000Y16500D02*
X52000D01*
X51500Y16000D02*
Y17000D01*
X51000Y25500D02*
X52000D01*
X51500Y25000D02*
Y26000D01*
X46922Y8922D02*
X47922D01*
X47422Y8422D02*
Y9422D01*
X87399Y25263D02*
X88399D01*
X87899Y24763D02*
Y25763D01*
X85521Y51237D02*
X86521D01*
X86021Y50737D02*
Y51737D01*
X77493Y27830D02*
X78493D01*
X77993Y27330D02*
Y28330D01*
X77500Y21000D02*
X78500D01*
X78000Y20500D02*
Y21500D01*
X72750Y58000D02*
X73750D01*
X73250Y57500D02*
Y58500D01*
X77500Y58000D02*
X78500D01*
X78000Y57500D02*
Y58500D01*
X68000Y58000D02*
X69000D01*
X68500Y57500D02*
Y58500D01*
X119879Y48379D02*
X120879D01*
X120379Y47879D02*
Y48879D01*
X95500Y56500D02*
X96500D01*
X96000Y56000D02*
Y57000D01*
X102500Y83500D02*
X103500D01*
X103000Y83000D02*
Y84000D01*
X82000Y103500D02*
X83000D01*
X82500Y103000D02*
Y104000D01*
X77000Y50000D02*
X78000D01*
X77500Y49500D02*
Y50500D01*
X97000Y78000D02*
X98000D01*
X97500Y77500D02*
Y78500D01*
X157100Y50000D02*
X159900D01*
X158500Y48600D02*
Y51400D01*
X149100Y50000D02*
X151900D01*
X150500Y48600D02*
Y51400D01*
X149100Y87500D02*
X151900D01*
X150500Y86100D02*
Y88900D01*
X157100Y87500D02*
X159900D01*
X158500Y86100D02*
Y88900D01*
X204600Y68500D02*
X207400D01*
X206000Y67100D02*
Y69900D01*
X204600Y59500D02*
X207400D01*
X206000Y58100D02*
Y60900D01*
X204600Y50500D02*
X207400D01*
X206000Y49100D02*
Y51900D01*
X204600Y41500D02*
X207400D01*
X206000Y40100D02*
Y42900D01*
X196100Y41500D02*
X198900D01*
X197500Y40100D02*
Y42900D01*
X196100Y50500D02*
X198900D01*
X197500Y49100D02*
Y51900D01*
X196100Y59500D02*
X198900D01*
X197500Y58100D02*
Y60900D01*
X196100Y68500D02*
X198900D01*
X197500Y67100D02*
Y69900D01*
X186100Y117000D02*
X188900D01*
X187500Y115600D02*
Y118400D01*
X186100Y108000D02*
X188900D01*
X187500Y106600D02*
Y109400D01*
X186100Y99000D02*
X188900D01*
X187500Y97600D02*
Y100400D01*
X186100Y90000D02*
X188900D01*
X187500Y88600D02*
Y91400D01*
X194600Y117000D02*
X197400D01*
X196000Y115600D02*
Y118400D01*
X194600Y108000D02*
X197400D01*
X196000Y106600D02*
Y109400D01*
X194600Y99000D02*
X197400D01*
X196000Y97600D02*
Y100400D01*
X194600Y90000D02*
X197400D01*
X196000Y88600D02*
Y91400D01*
X203100Y90000D02*
X205900D01*
X204500Y88600D02*
Y91400D01*
X203100Y99000D02*
X205900D01*
X204500Y97600D02*
Y100400D01*
X203100Y108000D02*
X205900D01*
X204500Y106600D02*
Y109400D01*
X203100Y117000D02*
X205900D01*
X204500Y115600D02*
Y118400D01*
M02*
