M48
;Layer_Color=9474304
;FILE_FORMAT=2:4
INCH
;TYPE=PLATED
T01F00S00C0.0100
T02F00S00C0.0280
T03F00S00C0.0354
T04F00S00C0.0394
%
T01
X014742Y010892
X015150Y011650
Y012550
X016350Y011150
X018334Y011416
X017800Y012100
X017799Y012783
X018790Y012526
X018602Y015124
X017750Y015000
X016452Y013959
X021200Y015050
X022038Y014838
X022850Y013550
X023283Y013567
X021261Y015711
X019600Y015650
X017800Y015800
X017325
X016850
X016050Y016150
X017250Y017200
X019750Y017800
X019903Y018353
X020300Y018350
X020800Y019600
X019700
X018250Y019935
Y020350
X023780Y021749
X023783Y022149
T02
X028000Y011750
Y012350
X029750Y014150
X030600
Y015050
X029750
X025850Y015000
X025050
Y018750
X025850
X028750Y019000
X029600
X030450
Y019900
X029600
X028750
Y020800
X029600
X030450
Y021700
X029600
X028750
X029750Y016850
X030600
Y015950
X029750
T03
X010750Y011200
Y012200
X011750
Y011200
X012750
Y012200
X013750
Y011200
X014700Y013450
Y014450
Y015600
X011700
Y014450
Y013450
X017250Y014400
X018250
X019250
X020450Y015150
X023450
X028900Y012200
Y011200
X029900
Y012200
X030900
Y011200
X023450Y016150
Y017400
Y018400
X020450Y016150
X014700Y016600
X011700
T04
X016550Y021950
X014550
X012550
X011550
M30
