G04*
G04 #@! TF.GenerationSoftware,Altium Limited,Altium Designer,24.5.2 (23)*
G04*
G04 Layer_Color=32768*
%FSLAX25Y25*%
%MOIN*%
G70*
G04*
G04 #@! TF.SameCoordinates,CB4C24F7-EE71-4198-96C3-8168C5EFC23F*
G04*
G04*
G04 #@! TF.FilePolarity,Positive*
G04*
G01*
G75*
%ADD95C,0.00394*%
%ADD96C,0.00197*%
%ADD97C,0.00200*%
G36*
X123917Y108945D02*
X124056Y108807D01*
X124056Y108709D01*
X124055Y108611D01*
X123917Y108472D01*
X123721Y108473D01*
X123583Y108611D01*
X123583Y108709D01*
X123583Y108807D01*
X123722Y108945D01*
X123917Y108945D01*
D02*
G37*
G36*
X134843Y107527D02*
X134843Y105952D01*
X132441D01*
X132441Y107527D01*
X133071D01*
Y107527D01*
X134843Y107527D01*
D02*
G37*
G36*
X126221Y105952D02*
X125551D01*
Y105952D01*
X123819D01*
Y107527D01*
X125551D01*
X126221Y107527D01*
X126221Y105952D01*
D02*
G37*
G36*
Y102212D02*
X123819D01*
X123819Y103787D01*
X126221D01*
X126221Y102212D01*
D02*
G37*
G36*
X134843Y98472D02*
X133071D01*
Y98472D01*
X132441Y98472D01*
Y100047D01*
X134843D01*
Y98472D01*
D02*
G37*
G36*
X125591Y100047D02*
X126221D01*
X126221Y98472D01*
X125551D01*
Y98472D01*
X123819D01*
X123819Y100047D01*
X125591Y100047D01*
D02*
G37*
D95*
X178516Y53031D02*
Y56968D01*
X176547Y55000D02*
X180484D01*
X160449Y11032D02*
Y14968D01*
X158480Y13000D02*
X162417D01*
X145685Y23827D02*
X175213D01*
X145685Y2173D02*
X175213D01*
X145685D02*
Y23827D01*
X175213Y2173D02*
Y23827D01*
X117532Y56500D02*
X121468D01*
X119500Y54532D02*
Y58469D01*
X98032Y76000D02*
X101969D01*
X100000Y74032D02*
Y77969D01*
X124000Y34032D02*
Y37969D01*
X122031Y36000D02*
X125969D01*
X64531Y33500D02*
X68468D01*
X66500Y31532D02*
Y35469D01*
X113031Y17500D02*
X116969D01*
X115000Y15531D02*
Y19468D01*
X176874Y103000D02*
X180811D01*
X178842Y101031D02*
Y104969D01*
X32000Y59031D02*
Y62968D01*
X30031Y61000D02*
X33968D01*
X32000Y37532D02*
Y41469D01*
X30031Y39500D02*
X33968D01*
X83000Y22031D02*
Y25969D01*
X81032Y24000D02*
X84969D01*
D96*
X146035Y33937D02*
X210996D01*
X146035Y76063D02*
X210996D01*
Y33937D02*
Y76063D01*
X146035Y33937D02*
Y76063D01*
X114764Y65173D02*
Y86827D01*
X85236Y65173D02*
Y86827D01*
X114764D01*
X85236Y65173D02*
X114764D01*
X120949Y29976D02*
Y42024D01*
X127051D01*
Y29976D02*
Y42024D01*
X120949Y29976D02*
X127051D01*
X74177Y26610D02*
Y40390D01*
X58823Y26610D02*
Y40390D01*
X74177D01*
X58823Y26610D02*
X74177D01*
X126221Y7461D02*
Y27539D01*
X104567Y7461D02*
Y27539D01*
Y7461D02*
X126221D01*
X104567Y27539D02*
X126221D01*
X146362Y81937D02*
Y124063D01*
X211323Y81937D02*
Y124063D01*
X146362D02*
X211323D01*
X146362Y81937D02*
X211323D01*
X67350Y10024D02*
X98650D01*
X67350Y37976D02*
X98650D01*
Y10024D02*
Y37976D01*
X67350Y10024D02*
Y37976D01*
D97*
X126181Y97291D02*
Y108708D01*
Y97291D02*
X132481Y97291D01*
Y108708D01*
X126181D02*
X132481D01*
M02*
