G04*
G04 #@! TF.GenerationSoftware,Altium Limited,Altium Designer,24.5.2 (23)*
G04*
G04 Layer_Color=65535*
%FSLAX25Y25*%
%MOIN*%
G70*
G04*
G04 #@! TF.SameCoordinates,2268A734-3591-48FF-B187-AB4D2D4595D2*
G04*
G04*
G04 #@! TF.FilePolarity,Positive*
G04*
G01*
G75*
%ADD10C,0.00984*%
%ADD11C,0.01000*%
%ADD12C,0.00787*%
%ADD13C,0.00598*%
%ADD14C,0.00600*%
%ADD15C,0.00800*%
%ADD16C,0.00500*%
G36*
X251576Y166996D02*
X250797D01*
Y170114D01*
X251576D01*
Y166996D01*
D02*
G37*
G36*
X222576D02*
X221797D01*
Y170114D01*
X222576D01*
Y166996D01*
D02*
G37*
G36*
X251576Y147638D02*
X253785D01*
Y146858D01*
X251576D01*
Y145689D01*
X250797D01*
Y146858D01*
X248588D01*
Y147638D01*
X250797D01*
Y148807D01*
X251576D01*
Y147638D01*
D02*
G37*
G36*
X222576D02*
X224785D01*
Y146858D01*
X222576D01*
Y145689D01*
X221797D01*
Y146858D01*
X219588D01*
Y147638D01*
X221797D01*
Y148807D01*
X222576D01*
Y147638D01*
D02*
G37*
G36*
X245133Y67641D02*
X240267D01*
Y68857D01*
X245133D01*
Y67641D01*
D02*
G37*
G36*
X210057Y68857D02*
X211881D01*
Y67641D01*
X210057D01*
Y64194D01*
X208840D01*
Y67641D01*
X207015D01*
Y68857D01*
X208840D01*
Y72304D01*
X210057D01*
Y68857D01*
D02*
G37*
D10*
X215646Y251102D02*
G03*
X215646Y251102I-492J0D01*
G01*
X220899Y283509D02*
G03*
X220899Y283509I-492J0D01*
G01*
X206937Y100496D02*
G03*
X206937Y100496I-492J0D01*
G01*
D11*
X247683Y112610D02*
G03*
X249553Y112610I935J0D01*
G01*
X73500Y39000D02*
X133500D01*
X73500Y9000D02*
X133500D01*
Y39000D01*
X73500Y9000D02*
Y39000D01*
X14000D02*
X74000D01*
X14000Y9000D02*
X74000D01*
Y39000D01*
X14000Y9000D02*
Y39000D01*
X247683Y112610D02*
X251000D01*
X246200D02*
X249553D01*
X246200Y101390D02*
Y112610D01*
Y101390D02*
X251000D01*
Y112610D01*
X213850Y325650D02*
X253850D01*
X213850Y295650D02*
Y325650D01*
X253850Y295650D02*
Y325650D01*
X213850Y295650D02*
X253850D01*
X74086D02*
X134086D01*
X74086Y325650D02*
X134086D01*
X74086Y295650D02*
Y325650D01*
X134086Y295650D02*
Y325650D01*
X14000Y295650D02*
X74000D01*
X14000Y325650D02*
X74000D01*
X14000Y295650D02*
Y325650D01*
X74000Y295650D02*
Y325650D01*
X213850Y39000D02*
X253850D01*
X213850Y9000D02*
Y39000D01*
X253850Y9000D02*
Y39000D01*
X213850Y9000D02*
X253850D01*
X14524Y142000D02*
Y145999D01*
X15523D01*
X16523Y144999D01*
Y142000D01*
Y144999D01*
X17523Y145999D01*
X18522Y144999D01*
Y142000D01*
X23521D02*
X21521D01*
X20522Y143000D01*
Y144999D01*
X21521Y145999D01*
X23521D01*
X24520Y144999D01*
Y143999D01*
X20522D01*
X26520Y142000D02*
Y145999D01*
X27519D01*
X28519Y144999D01*
Y142000D01*
Y144999D01*
X29519Y145999D01*
X30518Y144999D01*
Y142000D01*
X32518Y147998D02*
Y142000D01*
X35517D01*
X36516Y143000D01*
Y143999D01*
Y144999D01*
X35517Y145999D01*
X32518D01*
X41515Y142000D02*
X39516D01*
X38516Y143000D01*
Y144999D01*
X39516Y145999D01*
X41515D01*
X42515Y144999D01*
Y143999D01*
X38516D01*
X44514Y145999D02*
Y142000D01*
Y143999D01*
X45514Y144999D01*
X46513Y145999D01*
X47513D01*
X57510Y142000D02*
X59509D01*
X60509Y143000D01*
Y144999D01*
X59509Y145999D01*
X57510D01*
X56510Y144999D01*
Y143000D01*
X57510Y142000D01*
X63508D02*
Y146998D01*
Y144999D01*
X62508D01*
X64507D01*
X63508D01*
Y146998D01*
X64507Y147998D01*
X73505Y142000D02*
X75504D01*
X74504D01*
Y145999D01*
X73505D01*
X78503Y142000D02*
Y147998D01*
X80502Y145999D01*
X82502Y147998D01*
Y142000D01*
X87500D02*
X85501D01*
X84501Y143000D01*
Y144999D01*
X85501Y145999D01*
X87500D01*
X88500Y144999D01*
Y143999D01*
X84501D01*
X94498Y147998D02*
Y142000D01*
X91499D01*
X90499Y143000D01*
Y144999D01*
X91499Y145999D01*
X94498D01*
X96497Y142000D02*
X98496D01*
X97497D01*
Y145999D01*
X96497D01*
X102495D02*
X104495D01*
X105494Y144999D01*
Y142000D01*
X102495D01*
X101496Y143000D01*
X102495Y143999D01*
X105494D01*
X117490Y146998D02*
X116491Y147998D01*
X114491D01*
X113492Y146998D01*
Y143000D01*
X114491Y142000D01*
X116491D01*
X117490Y143000D01*
Y144999D01*
X115491D01*
X119490Y145999D02*
Y142000D01*
Y143999D01*
X120489Y144999D01*
X121489Y145999D01*
X122489D01*
X126487Y142000D02*
X128487D01*
X129486Y143000D01*
Y144999D01*
X128487Y145999D01*
X126487D01*
X125488Y144999D01*
Y143000D01*
X126487Y142000D01*
X131486Y145999D02*
Y143000D01*
X132485Y142000D01*
X135485D01*
Y145999D01*
X137484Y140001D02*
Y145999D01*
X140483D01*
X141482Y144999D01*
Y143000D01*
X140483Y142000D01*
X137484D01*
X14500Y121998D02*
Y116000D01*
X17499D01*
X18499Y117000D01*
Y120998D01*
X17499Y121998D01*
X14500D01*
X24497D02*
X20498D01*
Y116000D01*
X24497D01*
X20498Y118999D02*
X22497D01*
X26496D02*
X30495D01*
X32494Y116000D02*
X34493D01*
X33494D01*
Y121998D01*
X32494Y120998D01*
X37493D02*
X38492Y121998D01*
X40492D01*
X41491Y120998D01*
Y119999D01*
X40492Y118999D01*
X41491Y117999D01*
Y117000D01*
X40492Y116000D01*
X38492D01*
X37493Y117000D01*
Y117999D01*
X38492Y118999D01*
X37493Y119999D01*
Y120998D01*
X38492Y118999D02*
X40492D01*
X43491Y120998D02*
X44490Y121998D01*
X46490D01*
X47489Y120998D01*
Y117000D01*
X46490Y116000D01*
X44490D01*
X43491Y117000D01*
Y120998D01*
X49489D02*
X50488Y121998D01*
X52488D01*
X53487Y120998D01*
Y119999D01*
X52488Y118999D01*
X53487Y117999D01*
Y117000D01*
X52488Y116000D01*
X50488D01*
X49489Y117000D01*
Y117999D01*
X50488Y118999D01*
X49489Y119999D01*
Y120998D01*
X50488Y118999D02*
X52488D01*
X59486Y116000D02*
X55487D01*
X59486Y119999D01*
Y120998D01*
X58486Y121998D01*
X56486D01*
X55487Y120998D01*
X64484Y116000D02*
Y121998D01*
X61485Y118999D01*
X65483D01*
X14500Y207000D02*
Y212998D01*
X17499D01*
X18499Y211998D01*
Y209999D01*
X17499Y208999D01*
X14500D01*
X20498Y207000D02*
Y212998D01*
X23497D01*
X24497Y211998D01*
Y209999D01*
X23497Y208999D01*
X20498D01*
X22497D02*
X24497Y207000D01*
X29495Y212998D02*
X27496D01*
X26496Y211998D01*
Y208000D01*
X27496Y207000D01*
X29495D01*
X30495Y208000D01*
Y211998D01*
X29495Y212998D01*
X32494D02*
Y207000D01*
X35493D01*
X36493Y208000D01*
Y211998D01*
X35493Y212998D01*
X32494D01*
X38492D02*
Y208000D01*
X39492Y207000D01*
X41491D01*
X42491Y208000D01*
Y212998D01*
X48489Y211998D02*
X47489Y212998D01*
X45490D01*
X44490Y211998D01*
Y208000D01*
X45490Y207000D01*
X47489D01*
X48489Y208000D01*
X54487Y212998D02*
X50488D01*
Y207000D01*
X54487D01*
X50488Y209999D02*
X52488D01*
X56486Y212998D02*
Y207000D01*
X59486D01*
X60485Y208000D01*
Y211998D01*
X59486Y212998D01*
X56486D01*
X62485Y210999D02*
X63484D01*
Y209999D01*
X62485D01*
Y210999D01*
Y208000D02*
X63484D01*
Y207000D01*
X62485D01*
Y208000D01*
X14500Y186998D02*
Y181000D01*
X17499D01*
X18499Y182000D01*
Y182999D01*
X17499Y183999D01*
X14500D01*
X17499D01*
X18499Y184999D01*
Y185998D01*
X17499Y186998D01*
X14500D01*
X21498Y181000D02*
X23497D01*
X24497Y182000D01*
Y183999D01*
X23497Y184999D01*
X21498D01*
X20498Y183999D01*
Y182000D01*
X21498Y181000D01*
X26496D02*
X29495D01*
X30495Y182000D01*
X29495Y182999D01*
X27496D01*
X26496Y183999D01*
X27496Y184999D01*
X30495D01*
X32494Y181000D02*
Y184999D01*
X35493D01*
X36493Y183999D01*
Y181000D01*
X39492Y184999D02*
X41491D01*
X42491Y183999D01*
Y181000D01*
X39492D01*
X38492Y182000D01*
X39492Y182999D01*
X42491D01*
X50488Y181000D02*
X52488D01*
X51488D01*
Y184999D01*
X50488D01*
X61485Y186998D02*
Y181000D01*
Y183999D01*
X65483D01*
Y186998D01*
Y181000D01*
X70482D02*
X68483D01*
X67483Y182000D01*
Y183999D01*
X68483Y184999D01*
X70482D01*
X71482Y183999D01*
Y182999D01*
X67483D01*
X73481Y184999D02*
Y181000D01*
Y182999D01*
X74481Y183999D01*
X75480Y184999D01*
X76480D01*
X83478D02*
X80479D01*
X79479Y183999D01*
Y182000D01*
X80479Y181000D01*
X83478D01*
X88476D02*
X86477D01*
X85477Y182000D01*
Y183999D01*
X86477Y184999D01*
X88476D01*
X89476Y183999D01*
Y182999D01*
X85477D01*
X93475Y179001D02*
X94474D01*
X95474Y180000D01*
Y184999D01*
X92475D01*
X91475Y183999D01*
Y182000D01*
X92475Y181000D01*
X95474D01*
X98473D02*
X100472D01*
X101472Y182000D01*
Y183999D01*
X100472Y184999D01*
X98473D01*
X97473Y183999D01*
Y182000D01*
X98473Y181000D01*
X103471Y184999D02*
X105471Y181000D01*
X107470Y184999D01*
X109469Y181000D02*
X111469D01*
X110469D01*
Y184999D01*
X109469D01*
X114468Y181000D02*
Y184999D01*
X117467D01*
X118466Y183999D01*
Y181000D01*
X121465Y184999D02*
X123465D01*
X124464Y183999D01*
Y181000D01*
X121465D01*
X120466Y182000D01*
X121465Y182999D01*
X124464D01*
X18499Y199998D02*
X16499D01*
X17499D01*
Y195000D01*
X16499Y194000D01*
X15500D01*
X14500Y195000D01*
X20498Y199998D02*
Y195000D01*
X21498Y194000D01*
X23497D01*
X24497Y195000D01*
Y199998D01*
X26496D02*
Y194000D01*
X29495D01*
X30495Y195000D01*
Y195999D01*
X29495Y196999D01*
X26496D01*
X29495D01*
X30495Y197999D01*
Y198998D01*
X29495Y199998D01*
X26496D01*
X36493D02*
X32494D01*
Y194000D01*
X36493D01*
X32494Y196999D02*
X34493D01*
X38492Y194000D02*
Y199998D01*
X41491D01*
X42491Y198998D01*
Y196999D01*
X41491Y195999D01*
X38492D01*
X40492D02*
X42491Y194000D01*
X44490D02*
Y197999D01*
X46490Y199998D01*
X48489Y197999D01*
Y194000D01*
Y196999D01*
X44490D01*
X60485Y199998D02*
Y194000D01*
X57486D01*
X56486Y195000D01*
Y196999D01*
X57486Y197999D01*
X60485D01*
X62485Y194000D02*
Y195000D01*
X63484D01*
Y194000D01*
X62485D01*
X68483D02*
X70482D01*
X71482Y195000D01*
Y196999D01*
X70482Y197999D01*
X68483D01*
X67483Y196999D01*
Y195000D01*
X68483Y194000D01*
X73481D02*
Y195000D01*
X74481D01*
Y194000D01*
X73481D01*
X79479D02*
X81478D01*
X82478Y195000D01*
Y196999D01*
X81478Y197999D01*
X79479D01*
X78479Y196999D01*
Y195000D01*
X79479Y194000D01*
X84477D02*
Y195000D01*
X85477D01*
Y194000D01*
X84477D01*
X99472Y198998D02*
X98473Y199998D01*
X96473D01*
X95474Y198998D01*
Y197999D01*
X96473Y196999D01*
X98473D01*
X99472Y195999D01*
Y195000D01*
X98473Y194000D01*
X96473D01*
X95474Y195000D01*
X102471Y197999D02*
X104471D01*
X105471Y196999D01*
Y194000D01*
X102471D01*
X101472Y195000D01*
X102471Y195999D01*
X105471D01*
X107470Y197999D02*
Y194000D01*
Y195999D01*
X108470Y196999D01*
X109469Y197999D01*
X110469D01*
X114468D02*
X116467D01*
X117467Y196999D01*
Y194000D01*
X114468D01*
X113468Y195000D01*
X114468Y195999D01*
X117467D01*
X119466Y192001D02*
X120466D01*
X121465Y193000D01*
Y197999D01*
X128463Y194000D02*
X126464D01*
X125464Y195000D01*
Y196999D01*
X126464Y197999D01*
X128463D01*
X129463Y196999D01*
Y195999D01*
X125464D01*
X131462Y197999D02*
X133461Y194000D01*
X135461Y197999D01*
X138460Y194000D02*
X140459D01*
X141459Y195000D01*
Y196999D01*
X140459Y197999D01*
X138460D01*
X137460Y196999D01*
Y195000D01*
X138460Y194000D01*
X90499Y121998D02*
X88500D01*
X87500Y120998D01*
Y117000D01*
X88500Y116000D01*
X90499D01*
X91499Y117000D01*
Y120998D01*
X90499Y121998D01*
X97497Y120998D02*
X96497Y121998D01*
X94498D01*
X93498Y120998D01*
Y117000D01*
X94498Y116000D01*
X96497D01*
X97497Y117000D01*
X99496Y121998D02*
X103495D01*
X101496D01*
Y116000D01*
X105494D02*
Y117000D01*
X106494D01*
Y116000D01*
X105494D01*
X120489D02*
X116491D01*
X120489Y119999D01*
Y120998D01*
X119490Y121998D01*
X117490D01*
X116491Y120998D01*
X122489D02*
X123488Y121998D01*
X125488D01*
X126487Y120998D01*
Y117000D01*
X125488Y116000D01*
X123488D01*
X122489Y117000D01*
Y120998D01*
X132485Y116000D02*
X128487D01*
X132485Y119999D01*
Y120998D01*
X131486Y121998D01*
X129486D01*
X128487Y120998D01*
X137484Y116000D02*
Y121998D01*
X134485Y118999D01*
X138484D01*
X140483Y116000D02*
Y117000D01*
X141482D01*
Y116000D01*
X140483D01*
X40500Y159999D02*
Y157000D01*
X41500Y156000D01*
X42499Y157000D01*
X43499Y156000D01*
X44499Y157000D01*
Y159999D01*
X46498D02*
Y157000D01*
X47498Y156000D01*
X48497Y157000D01*
X49497Y156000D01*
X50497Y157000D01*
Y159999D01*
X52496D02*
Y157000D01*
X53496Y156000D01*
X54496Y157000D01*
X55495Y156000D01*
X56495Y157000D01*
Y159999D01*
X58494Y156000D02*
Y157000D01*
X59494D01*
Y156000D01*
X58494D01*
X63493D02*
X65492D01*
X64492D01*
Y159999D01*
X63493D01*
X68491Y156000D02*
Y159999D01*
X69491D01*
X70490Y158999D01*
Y156000D01*
Y158999D01*
X71490Y159999D01*
X72490Y158999D01*
Y156000D01*
X77488D02*
X75489D01*
X74489Y157000D01*
Y158999D01*
X75489Y159999D01*
X77488D01*
X78488Y158999D01*
Y157999D01*
X74489D01*
X84486Y161998D02*
Y156000D01*
X81487D01*
X80487Y157000D01*
Y158999D01*
X81487Y159999D01*
X84486D01*
X86485Y156000D02*
X88485D01*
X87485D01*
Y159999D01*
X86485D01*
X92483D02*
X94482D01*
X95482Y158999D01*
Y156000D01*
X92483D01*
X91483Y157000D01*
X92483Y157999D01*
X95482D01*
X97482Y156000D02*
Y157000D01*
X98481D01*
Y156000D01*
X97482D01*
X102480Y161998D02*
Y156000D01*
X105479D01*
X106479Y157000D01*
Y157999D01*
Y158999D01*
X105479Y159999D01*
X102480D01*
X109478D02*
X111477D01*
X112477Y158999D01*
Y156000D01*
X109478D01*
X108478Y157000D01*
X109478Y157999D01*
X112477D01*
D12*
X235842Y257008D02*
Y264094D01*
X216158Y257008D02*
Y264094D01*
X235842D01*
X216158Y257008D02*
X235842D01*
X228280Y289808D02*
X230249D01*
Y287446D02*
Y289808D01*
X221587D02*
X223556D01*
X221587Y287446D02*
Y289808D01*
X203500Y210000D02*
X233500D01*
Y220000D01*
X203500D02*
X233500D01*
X203500Y210000D02*
Y220000D01*
X259925Y100307D02*
X263075D01*
X233925D02*
X237075D01*
X255193Y134425D02*
Y137575D01*
X230925Y142693D02*
X234075D01*
X202311Y126284D02*
X228689D01*
Y111716D02*
Y126284D01*
X202311Y111716D02*
X228689D01*
X202311D02*
Y126284D01*
X240193Y45425D02*
Y48575D01*
X193500Y253833D02*
Y273000D01*
Y243000D02*
Y273000D01*
X173500Y243000D02*
Y273000D01*
Y243000D02*
X193500D01*
X173500Y273000D02*
X193500D01*
X145500Y253833D02*
Y273000D01*
Y243000D02*
Y273000D01*
X125500Y243000D02*
Y273000D01*
Y243000D02*
X145500D01*
X125500Y273000D02*
X145500D01*
X97500Y253833D02*
Y273000D01*
Y243000D02*
Y273000D01*
X77500Y243000D02*
Y273000D01*
Y243000D02*
X97500D01*
X77500Y273000D02*
X97500D01*
X49500Y253833D02*
Y273000D01*
Y243000D02*
Y273000D01*
X29500Y243000D02*
Y273000D01*
Y243000D02*
X49500D01*
X29500Y273000D02*
X49500D01*
X214193Y269425D02*
Y272575D01*
X242500Y187000D02*
Y267000D01*
X262500Y187000D02*
Y267000D01*
X242500Y187000D02*
X262500D01*
X242500Y267000D02*
X262500D01*
X145500Y61500D02*
Y101500D01*
X125500Y61500D02*
Y101500D01*
Y61500D02*
X145500D01*
X125500Y101500D02*
X145500D01*
X193500Y61500D02*
Y101500D01*
X173500Y61500D02*
Y101500D01*
Y61500D02*
X193500D01*
X173500Y101500D02*
X193500D01*
X97500Y61500D02*
Y101500D01*
X77500Y61500D02*
Y101500D01*
Y61500D02*
X97500D01*
X77500Y101500D02*
X97500D01*
X49500Y61500D02*
Y101500D01*
X29500Y61500D02*
Y101500D01*
Y61500D02*
X49500D01*
X29500Y101500D02*
X49500D01*
D13*
X246650Y81533D02*
Y98151D01*
Y57000D02*
Y73619D01*
X205499Y65410D02*
Y73619D01*
Y81533D02*
Y89741D01*
D14*
X213909Y98151D02*
X246650D01*
X205499Y89741D02*
X213909Y98151D01*
Y57000D02*
X246650D01*
X205499Y65410D02*
X213909Y57000D01*
X208415Y144610D02*
X213510D01*
X202918Y150106D02*
X208415Y144610D01*
X202918Y150106D02*
Y171194D01*
X213424Y171168D01*
X218910Y144664D02*
X224010Y144612D01*
X229500Y150102D01*
Y171192D01*
X219121Y171113D02*
X229500Y171192D01*
X237415Y144610D02*
X242510D01*
X231918Y150106D02*
X237415Y144610D01*
X231918Y150106D02*
Y171194D01*
X242424Y171168D01*
X247910Y144664D02*
X253010Y144612D01*
X258500Y150102D01*
Y171192D01*
X248120Y171113D02*
X258500Y171192D01*
D15*
X240953Y132035D02*
X256701Y132035D01*
X240953Y115500D02*
X256701Y115500D01*
X251000Y332000D02*
Y329334D01*
X249667Y328001D01*
X248334Y329334D01*
Y332000D01*
Y330001D01*
X251000D01*
X243003Y332000D02*
Y328001D01*
X241003D01*
X240337Y328668D01*
Y330001D01*
X241003Y330667D01*
X243003D01*
X241670D02*
X240337Y332000D01*
X236338Y328668D02*
X237004Y328001D01*
X238337D01*
X239004Y328668D01*
Y329334D01*
X238337Y330001D01*
X237004D01*
X236338Y330667D01*
Y331334D01*
X237004Y332000D01*
X238337D01*
X239004Y331334D01*
X233006Y332000D02*
Y328001D01*
X235005Y330001D01*
X232339D01*
X231006Y328668D02*
X230340Y328001D01*
X229007D01*
X228341Y328668D01*
Y329334D01*
X229007Y330001D01*
X228341Y330667D01*
Y331334D01*
X229007Y332000D01*
X230340D01*
X231006Y331334D01*
Y330667D01*
X230340Y330001D01*
X231006Y329334D01*
Y328668D01*
X230340Y330001D02*
X229007D01*
X224342Y328001D02*
X227008D01*
Y330001D01*
X225675Y329334D01*
X225008D01*
X224342Y330001D01*
Y331334D01*
X225008Y332000D01*
X226341D01*
X227008Y331334D01*
X219010Y328001D02*
Y332000D01*
X217011D01*
X216344Y331334D01*
Y330667D01*
X217011Y330001D01*
X219010D01*
X217011D01*
X216344Y329334D01*
Y328668D01*
X217011Y328001D01*
X219010D01*
X214500Y4249D02*
X217499D01*
X216000Y5749D02*
Y2750D01*
X218999Y2000D02*
X220498D01*
X219748D01*
Y6499D01*
X218999Y5749D01*
X225746Y2000D02*
X222747D01*
X225746Y4999D01*
Y5749D01*
X224997Y6499D01*
X223497D01*
X222747Y5749D01*
X227246Y6499D02*
Y3500D01*
X228745Y2000D01*
X230245Y3500D01*
Y6499D01*
X243741Y5749D02*
X242991Y6499D01*
X241491D01*
X240741Y5749D01*
Y2750D01*
X241491Y2000D01*
X242991D01*
X243741Y2750D01*
Y4249D01*
X242241D01*
X245240Y2000D02*
Y6499D01*
X248239Y2000D01*
Y6499D01*
X249739D02*
Y2000D01*
X251988D01*
X252738Y2750D01*
Y5749D01*
X251988Y6499D01*
X249739D01*
X15500Y2000D02*
Y6998D01*
X18832Y2000D01*
Y6998D01*
X20498Y6165D02*
X21331Y6998D01*
X22998D01*
X23831Y6165D01*
Y5332D01*
X22998Y4499D01*
X22164D01*
X22998D01*
X23831Y3666D01*
Y2833D01*
X22998Y2000D01*
X21331D01*
X20498Y2833D01*
X38826Y6165D02*
X37993Y6998D01*
X36327D01*
X35493Y6165D01*
Y2833D01*
X36327Y2000D01*
X37993D01*
X38826Y2833D01*
X40492Y6998D02*
Y2000D01*
Y4499D01*
X43824D01*
Y6998D01*
Y2000D01*
X45490Y6165D02*
X46323Y6998D01*
X47989D01*
X48823Y6165D01*
Y5332D01*
X47989Y4499D01*
X47156D01*
X47989D01*
X48823Y3666D01*
Y2833D01*
X47989Y2000D01*
X46323D01*
X45490Y2833D01*
X60485Y6998D02*
Y2000D01*
X63818D01*
X65484Y6165D02*
X66317Y6998D01*
X67983D01*
X68816Y6165D01*
Y5332D01*
X67983Y4499D01*
X67150D01*
X67983D01*
X68816Y3666D01*
Y2833D01*
X67983Y2000D01*
X66317D01*
X65484Y2833D01*
X68500Y333000D02*
Y328002D01*
X65168Y333000D01*
Y328002D01*
X63502Y333000D02*
X61835D01*
X62669D01*
Y328002D01*
X63502Y328835D01*
X46007D02*
X46840Y328002D01*
X48507D01*
X49340Y328835D01*
Y332167D01*
X48507Y333000D01*
X46840D01*
X46007Y332167D01*
X44341Y328002D02*
Y333000D01*
Y330501D01*
X41009D01*
Y328002D01*
Y333000D01*
X39343D02*
X37677D01*
X38510D01*
Y328002D01*
X39343Y328835D01*
X25181Y328002D02*
Y333000D01*
X21848D01*
X20182D02*
X18516D01*
X19349D01*
Y328002D01*
X20182Y328835D01*
X129500Y333000D02*
Y328002D01*
X126168Y333000D01*
Y328002D01*
X121169Y333000D02*
X124502D01*
X121169Y329668D01*
Y328835D01*
X122002Y328002D01*
X123669D01*
X124502Y328835D01*
X106174D02*
X107007Y328002D01*
X108673D01*
X109506Y328835D01*
Y332167D01*
X108673Y333000D01*
X107007D01*
X106174Y332167D01*
X104508Y328002D02*
Y333000D01*
Y330501D01*
X101176D01*
Y328002D01*
Y333000D01*
X96178D02*
X99510D01*
X96178Y329668D01*
Y328835D01*
X97010Y328002D01*
X98677D01*
X99510Y328835D01*
X84515Y328002D02*
Y333000D01*
X81182D01*
X76184D02*
X79516D01*
X76184Y329668D01*
Y328835D01*
X77017Y328002D01*
X78683D01*
X79516Y328835D01*
X78500Y2000D02*
Y6998D01*
X81832Y2000D01*
Y6998D01*
X85998Y2000D02*
Y6998D01*
X83498Y4499D01*
X86831D01*
X101826Y6165D02*
X100993Y6998D01*
X99327D01*
X98493Y6165D01*
Y2833D01*
X99327Y2000D01*
X100993D01*
X101826Y2833D01*
X103492Y6998D02*
Y2000D01*
Y4499D01*
X106824D01*
Y6998D01*
Y2000D01*
X110989D02*
Y6998D01*
X108490Y4499D01*
X111822D01*
X123485Y6998D02*
Y2000D01*
X126818D01*
X130983D02*
Y6998D01*
X128484Y4499D01*
X131816D01*
D16*
X258500Y182000D02*
X259166D01*
X258833D01*
Y183999D01*
X258500Y183666D01*
X142500Y58500D02*
Y59166D01*
Y58833D01*
X140501D01*
X140834Y58500D01*
X142500Y240000D02*
Y240666D01*
Y240333D01*
X140501D01*
X140834Y240000D01*
X190500D02*
Y240666D01*
Y240333D01*
X188501D01*
X188834Y240000D01*
X94500D02*
Y240666D01*
Y240333D01*
X92501D01*
X92834Y240000D01*
X46500D02*
Y240666D01*
Y240333D01*
X44501D01*
X44834Y240000D01*
X190500Y58500D02*
Y59166D01*
Y58833D01*
X188501D01*
X188834Y58500D01*
X94500D02*
Y59166D01*
Y58833D01*
X92501D01*
X92834Y58500D01*
X46500D02*
Y59166D01*
Y58833D01*
X44501D01*
X44834Y58500D01*
X195001Y126000D02*
Y124334D01*
X195334Y124000D01*
X196001D01*
X196334Y124334D01*
Y126000D01*
X197000Y124000D02*
X197667D01*
X197333D01*
Y126000D01*
X197000Y125666D01*
X198666D02*
X199000Y126000D01*
X199666D01*
X199999Y125666D01*
Y125333D01*
X199666Y125000D01*
X199999Y124667D01*
Y124334D01*
X199666Y124000D01*
X199000D01*
X198666Y124334D01*
Y124667D01*
X199000Y125000D01*
X198666Y125333D01*
Y125666D01*
X199000Y125000D02*
X199666D01*
X250001Y98000D02*
Y96334D01*
X250334Y96000D01*
X251000D01*
X251334Y96334D01*
Y98000D01*
X252000Y96000D02*
X252667D01*
X252333D01*
Y98000D01*
X252000Y97667D01*
X253666Y98000D02*
X254999D01*
Y97667D01*
X253666Y96334D01*
Y96000D01*
X214001Y284000D02*
Y282334D01*
X214334Y282000D01*
X215001D01*
X215334Y282334D01*
Y284000D01*
X216000Y282000D02*
X216667D01*
X216333D01*
Y284000D01*
X216000Y283666D01*
X218666Y282000D02*
Y284000D01*
X217666Y283000D01*
X218999D01*
X218001Y244000D02*
Y242334D01*
X218334Y242000D01*
X219001D01*
X219334Y242334D01*
Y244000D01*
X220000Y242000D02*
X220667D01*
X220333D01*
Y244000D01*
X220000Y243667D01*
X221666D02*
X222000Y244000D01*
X222666D01*
X222999Y243667D01*
Y243333D01*
X222666Y243000D01*
X222333D01*
X222666D01*
X222999Y242667D01*
Y242334D01*
X222666Y242000D01*
X222000D01*
X221666Y242334D01*
X195834Y263000D02*
Y265000D01*
X196834D01*
X197167Y264667D01*
Y264000D01*
X196834Y263667D01*
X195834D01*
X196501D02*
X197167Y263000D01*
X197834Y264667D02*
X198167Y265000D01*
X198833D01*
X199167Y264667D01*
Y264333D01*
X198833Y264000D01*
X198500D01*
X198833D01*
X199167Y263667D01*
Y263334D01*
X198833Y263000D01*
X198167D01*
X197834Y263334D01*
X199833Y264667D02*
X200166Y265000D01*
X200833D01*
X201166Y264667D01*
Y263334D01*
X200833Y263000D01*
X200166D01*
X199833Y263334D01*
Y264667D01*
X201834Y244000D02*
Y246000D01*
X202834D01*
X203167Y245667D01*
Y245000D01*
X202834Y244667D01*
X201834D01*
X202501D02*
X203167Y244000D01*
X205166D02*
X203834D01*
X205166Y245333D01*
Y245667D01*
X204833Y246000D01*
X204167D01*
X203834Y245667D01*
X205833Y244334D02*
X206166Y244000D01*
X206833D01*
X207166Y244334D01*
Y245667D01*
X206833Y246000D01*
X206166D01*
X205833Y245667D01*
Y245333D01*
X206166Y245000D01*
X207166D01*
X206834Y282000D02*
Y284000D01*
X207834D01*
X208167Y283666D01*
Y283000D01*
X207834Y282667D01*
X206834D01*
X207501D02*
X208167Y282000D01*
X210166D02*
X208834D01*
X210166Y283333D01*
Y283666D01*
X209833Y284000D01*
X209167D01*
X208834Y283666D01*
X210833D02*
X211166Y284000D01*
X211833D01*
X212166Y283666D01*
Y283333D01*
X211833Y283000D01*
X212166Y282667D01*
Y282334D01*
X211833Y282000D01*
X211166D01*
X210833Y282334D01*
Y282667D01*
X211166Y283000D01*
X210833Y283333D01*
Y283666D01*
X211166Y283000D02*
X211833D01*
X234834Y282000D02*
Y284000D01*
X235834D01*
X236167Y283666D01*
Y283000D01*
X235834Y282667D01*
X234834D01*
X235501D02*
X236167Y282000D01*
X238166D02*
X236834D01*
X238166Y283333D01*
Y283666D01*
X237833Y284000D01*
X237167D01*
X236834Y283666D01*
X238833Y284000D02*
X240166D01*
Y283666D01*
X238833Y282334D01*
Y282000D01*
X195834Y259000D02*
Y261000D01*
X196834D01*
X197167Y260666D01*
Y260000D01*
X196834Y259667D01*
X195834D01*
X196501D02*
X197167Y259000D01*
X199167D02*
X197834D01*
X199167Y260333D01*
Y260666D01*
X198833Y261000D01*
X198167D01*
X197834Y260666D01*
X201166Y261000D02*
X199833D01*
Y260000D01*
X200499Y260333D01*
X200833D01*
X201166Y260000D01*
Y259334D01*
X200833Y259000D01*
X200166D01*
X199833Y259334D01*
X213900Y42000D02*
Y43999D01*
X214900D01*
X215233Y43666D01*
Y43000D01*
X214900Y42666D01*
X213900D01*
X217232Y42000D02*
X215899D01*
X217232Y43333D01*
Y43666D01*
X216899Y43999D01*
X216233D01*
X215899Y43666D01*
X217899Y42000D02*
X218565D01*
X218232D01*
Y43999D01*
X217899Y43666D01*
X250834Y270000D02*
Y272000D01*
X251834D01*
X252167Y271667D01*
Y271000D01*
X251834Y270667D01*
X250834D01*
X254166Y270000D02*
X252834D01*
X254166Y271333D01*
Y271667D01*
X253833Y272000D01*
X253167D01*
X252834Y271667D01*
X254833D02*
X255166Y272000D01*
X255833D01*
X256166Y271667D01*
Y270334D01*
X255833Y270000D01*
X255166D01*
X254833Y270334D01*
Y271667D01*
X206001Y322000D02*
Y324000D01*
X207000D01*
X207334Y323667D01*
Y323000D01*
X207000Y322667D01*
X206001D01*
X208000Y322000D02*
X208667D01*
X208333D01*
Y324000D01*
X208000Y323667D01*
X209666Y322334D02*
X209999Y322000D01*
X210666D01*
X210999Y322334D01*
Y323667D01*
X210666Y324000D01*
X209999D01*
X209666Y323667D01*
Y323333D01*
X209999Y323000D01*
X210999D01*
X196001Y217000D02*
Y219000D01*
X197001D01*
X197334Y218667D01*
Y218000D01*
X197001Y217667D01*
X196001D01*
X198000Y217000D02*
X198667D01*
X198333D01*
Y219000D01*
X198000Y218667D01*
X199666D02*
X199999Y219000D01*
X200666D01*
X200999Y218667D01*
Y218333D01*
X200666Y218000D01*
X200999Y217667D01*
Y217334D01*
X200666Y217000D01*
X199999D01*
X199666Y217334D01*
Y217667D01*
X199999Y218000D01*
X199666Y218333D01*
Y218667D01*
X199999Y218000D02*
X200666D01*
X173600Y107500D02*
Y109499D01*
X174600D01*
X174933Y109166D01*
Y108500D01*
X174600Y108167D01*
X173600D01*
X175599Y107500D02*
X176266D01*
X175933D01*
Y109499D01*
X175599Y109166D01*
X178598Y109499D02*
X177932Y109166D01*
X177266Y108500D01*
Y107833D01*
X177599Y107500D01*
X178265D01*
X178598Y107833D01*
Y108167D01*
X178265Y108500D01*
X177266D01*
X125600Y106800D02*
Y108799D01*
X126600D01*
X126933Y108466D01*
Y107800D01*
X126600Y107466D01*
X125600D01*
X127599Y106800D02*
X128266D01*
X127933D01*
Y108799D01*
X127599Y108466D01*
X130598Y108799D02*
X129265D01*
Y107800D01*
X129932Y108133D01*
X130265D01*
X130598Y107800D01*
Y107133D01*
X130265Y106800D01*
X129599D01*
X129265Y107133D01*
X77600Y107500D02*
Y109499D01*
X78600D01*
X78933Y109166D01*
Y108500D01*
X78600Y108167D01*
X77600D01*
X79599Y107500D02*
X80266D01*
X79933D01*
Y109499D01*
X79599Y109166D01*
X82265Y107500D02*
Y109499D01*
X81265Y108500D01*
X82598D01*
X29600Y107500D02*
Y109499D01*
X30600D01*
X30933Y109166D01*
Y108500D01*
X30600Y108167D01*
X29600D01*
X31599Y107500D02*
X32266D01*
X31933D01*
Y109499D01*
X31599Y109166D01*
X33266D02*
X33599Y109499D01*
X34265D01*
X34598Y109166D01*
Y108833D01*
X34265Y108500D01*
X33932D01*
X34265D01*
X34598Y108167D01*
Y107833D01*
X34265Y107500D01*
X33599D01*
X33266Y107833D01*
X165001Y268000D02*
Y270000D01*
X166000D01*
X166334Y269667D01*
Y269000D01*
X166000Y268667D01*
X165001D01*
X167000Y268000D02*
X167667D01*
X167333D01*
Y270000D01*
X167000Y269667D01*
X169999Y268000D02*
X168666D01*
X169999Y269333D01*
Y269667D01*
X169666Y270000D01*
X169000D01*
X168666Y269667D01*
X118334Y268000D02*
Y270000D01*
X119334D01*
X119667Y269667D01*
Y269000D01*
X119334Y268667D01*
X118334D01*
X120333Y268000D02*
X121000D01*
X120667D01*
Y270000D01*
X120333Y269667D01*
X122000Y268000D02*
X122666D01*
X122333D01*
Y270000D01*
X122000Y269667D01*
X68001Y269000D02*
Y271000D01*
X69001D01*
X69334Y270667D01*
Y270000D01*
X69001Y269667D01*
X68001D01*
X70000Y269000D02*
X70667D01*
X70333D01*
Y271000D01*
X70000Y270667D01*
X71666D02*
X72000Y271000D01*
X72666D01*
X72999Y270667D01*
Y269334D01*
X72666Y269000D01*
X72000D01*
X71666Y269334D01*
Y270667D01*
X21834Y269000D02*
Y271000D01*
X22834D01*
X23167Y270667D01*
Y270000D01*
X22834Y269667D01*
X21834D01*
X23833Y269334D02*
X24167Y269000D01*
X24833D01*
X25166Y269334D01*
Y270667D01*
X24833Y271000D01*
X24167D01*
X23833Y270667D01*
Y270333D01*
X24167Y270000D01*
X25166D01*
X134834Y37000D02*
Y39000D01*
X135834D01*
X136167Y38666D01*
Y38000D01*
X135834Y37667D01*
X134834D01*
X136833Y38666D02*
X137167Y39000D01*
X137833D01*
X138166Y38666D01*
Y38333D01*
X137833Y38000D01*
X138166Y37667D01*
Y37334D01*
X137833Y37000D01*
X137167D01*
X136833Y37334D01*
Y37667D01*
X137167Y38000D01*
X136833Y38333D01*
Y38666D01*
X137167Y38000D02*
X137833D01*
X8834Y37000D02*
Y39000D01*
X9834D01*
X10167Y38666D01*
Y38000D01*
X9834Y37667D01*
X8834D01*
X10833Y39000D02*
X12166D01*
Y38666D01*
X10833Y37334D01*
Y37000D01*
X136834Y323000D02*
Y325000D01*
X137834D01*
X138167Y324667D01*
Y324000D01*
X137834Y323667D01*
X136834D01*
X140166Y325000D02*
X139500Y324667D01*
X138833Y324000D01*
Y323334D01*
X139166Y323000D01*
X139833D01*
X140166Y323334D01*
Y323667D01*
X139833Y324000D01*
X138833D01*
X7834Y323000D02*
Y325000D01*
X8834D01*
X9167Y324667D01*
Y324000D01*
X8834Y323667D01*
X7834D01*
X11166Y325000D02*
X9833D01*
Y324000D01*
X10500Y324333D01*
X10833D01*
X11166Y324000D01*
Y323334D01*
X10833Y323000D01*
X10166D01*
X9833Y323334D01*
X233167Y127000D02*
Y125000D01*
X234500D01*
X235166D02*
X235833D01*
X235500D01*
Y127000D01*
X235166Y126666D01*
X204167Y174667D02*
X203834Y175000D01*
X203167D01*
X202834Y174667D01*
Y173334D01*
X203167Y173000D01*
X203834D01*
X204167Y173334D01*
X204834Y174667D02*
X205167Y175000D01*
X205833D01*
X206166Y174667D01*
Y174333D01*
X205833Y174000D01*
X205500D01*
X205833D01*
X206166Y173667D01*
Y173334D01*
X205833Y173000D01*
X205167D01*
X204834Y173334D01*
X208166Y175000D02*
X207499Y174667D01*
X206833Y174000D01*
Y173334D01*
X207166Y173000D01*
X207833D01*
X208166Y173334D01*
Y173667D01*
X207833Y174000D01*
X206833D01*
X224167Y140666D02*
X223834Y141000D01*
X223167D01*
X222834Y140666D01*
Y139334D01*
X223167Y139000D01*
X223834D01*
X224167Y139334D01*
X224834Y140666D02*
X225167Y141000D01*
X225833D01*
X226166Y140666D01*
Y140333D01*
X225833Y140000D01*
X225500D01*
X225833D01*
X226166Y139667D01*
Y139334D01*
X225833Y139000D01*
X225167D01*
X224834Y139334D01*
X228166Y141000D02*
X226833D01*
Y140000D01*
X227499Y140333D01*
X227833D01*
X228166Y140000D01*
Y139334D01*
X227833Y139000D01*
X227166D01*
X226833Y139334D01*
X259167Y136667D02*
X258834Y137000D01*
X258167D01*
X257834Y136667D01*
Y135334D01*
X258167Y135000D01*
X258834D01*
X259167Y135334D01*
X259834Y136667D02*
X260167Y137000D01*
X260833D01*
X261166Y136667D01*
Y136333D01*
X260833Y136000D01*
X260500D01*
X260833D01*
X261166Y135667D01*
Y135334D01*
X260833Y135000D01*
X260167D01*
X259834Y135334D01*
X262833Y135000D02*
Y137000D01*
X261833Y136000D01*
X263166D01*
X253167Y175666D02*
X252834Y176000D01*
X252167D01*
X251834Y175666D01*
Y174334D01*
X252167Y174000D01*
X252834D01*
X253167Y174334D01*
X253834Y175666D02*
X254167Y176000D01*
X254833D01*
X255166Y175666D01*
Y175333D01*
X254833Y175000D01*
X254500D01*
X254833D01*
X255166Y174667D01*
Y174334D01*
X254833Y174000D01*
X254167D01*
X253834Y174334D01*
X255833Y175666D02*
X256166Y176000D01*
X256833D01*
X257166Y175666D01*
Y175333D01*
X256833Y175000D01*
X256499D01*
X256833D01*
X257166Y174667D01*
Y174334D01*
X256833Y174000D01*
X256166D01*
X255833Y174334D01*
X232167Y116666D02*
X231834Y117000D01*
X231167D01*
X230834Y116666D01*
Y115334D01*
X231167Y115000D01*
X231834D01*
X232167Y115334D01*
X232834Y116666D02*
X233167Y117000D01*
X233833D01*
X234166Y116666D01*
Y116333D01*
X233833Y116000D01*
X233500D01*
X233833D01*
X234166Y115667D01*
Y115334D01*
X233833Y115000D01*
X233167D01*
X232834Y115334D01*
X236166Y115000D02*
X234833D01*
X236166Y116333D01*
Y116666D01*
X235833Y117000D01*
X235166D01*
X234833Y116666D01*
X244500Y47666D02*
X244167Y48000D01*
X243501D01*
X243167Y47666D01*
Y46334D01*
X243501Y46000D01*
X244167D01*
X244500Y46334D01*
X245167Y47666D02*
X245500Y48000D01*
X246166D01*
X246500Y47666D01*
Y47333D01*
X246166Y47000D01*
X245833D01*
X246166D01*
X246500Y46667D01*
Y46334D01*
X246166Y46000D01*
X245500D01*
X245167Y46334D01*
X247166Y46000D02*
X247833D01*
X247499D01*
Y48000D01*
X247166Y47666D01*
X251167Y92667D02*
X250834Y93000D01*
X250167D01*
X249834Y92667D01*
Y91334D01*
X250167Y91000D01*
X250834D01*
X251167Y91334D01*
X251834Y92667D02*
X252167Y93000D01*
X252833D01*
X253166Y92667D01*
Y92333D01*
X252833Y92000D01*
X252500D01*
X252833D01*
X253166Y91667D01*
Y91334D01*
X252833Y91000D01*
X252167D01*
X251834Y91334D01*
X253833Y92667D02*
X254166Y93000D01*
X254833D01*
X255166Y92667D01*
Y91334D01*
X254833Y91000D01*
X254166D01*
X253833Y91334D01*
Y92667D01*
X260167Y97667D02*
X259834Y98000D01*
X259167D01*
X258834Y97667D01*
Y96334D01*
X259167Y96000D01*
X259834D01*
X260167Y96334D01*
X262166Y96000D02*
X260834D01*
X262166Y97333D01*
Y97667D01*
X261833Y98000D01*
X261167D01*
X260834Y97667D01*
X262833Y96334D02*
X263166Y96000D01*
X263833D01*
X264166Y96334D01*
Y97667D01*
X263833Y98000D01*
X263166D01*
X262833Y97667D01*
Y97333D01*
X263166Y97000D01*
X264166D01*
X197167Y271667D02*
X196834Y272000D01*
X196167D01*
X195834Y271667D01*
Y270334D01*
X196167Y270000D01*
X196834D01*
X197167Y270334D01*
X199167Y270000D02*
X197834D01*
X199167Y271333D01*
Y271667D01*
X198833Y272000D01*
X198167D01*
X197834Y271667D01*
X201166Y270000D02*
X199833D01*
X201166Y271333D01*
Y271667D01*
X200833Y272000D01*
X200166D01*
X199833Y271667D01*
M02*
