G04*
G04 #@! TF.GenerationSoftware,Altium Limited,Altium Designer,24.5.2 (23)*
G04*
G04 Layer_Color=8388736*
%FSLAX25Y25*%
%MOIN*%
G70*
G04*
G04 #@! TF.SameCoordinates,2268A734-3591-48FF-B187-AB4D2D4595D2*
G04*
G04*
G04 #@! TF.FilePolarity,Positive*
G04*
G01*
G75*
G36*
X245600Y166996D02*
X244820D01*
Y170114D01*
X245600D01*
Y166996D01*
D02*
G37*
G36*
X216600D02*
X215820D01*
Y170114D01*
X216600D01*
Y166996D01*
D02*
G37*
G36*
X245600Y147618D02*
X247808D01*
Y146839D01*
X245600D01*
Y145689D01*
X244820D01*
Y146839D01*
X242612D01*
Y147618D01*
X244820D01*
Y148807D01*
X245600D01*
Y147618D01*
D02*
G37*
G36*
X216600D02*
X218808D01*
Y146839D01*
X216600D01*
Y145689D01*
X215820D01*
Y146839D01*
X213612D01*
Y147618D01*
X215820D01*
Y148807D01*
X216600D01*
Y147618D01*
D02*
G37*
G36*
X245133Y76967D02*
X240267D01*
Y78184D01*
X245133D01*
Y76967D01*
D02*
G37*
G36*
X210057Y78184D02*
X211881D01*
Y76967D01*
X210057D01*
Y73521D01*
X208840D01*
Y76967D01*
X207015D01*
Y78184D01*
X208840D01*
Y81631D01*
X210057D01*
Y78184D01*
D02*
G37*
M02*
