G04*
G04 #@! TF.GenerationSoftware,Altium Limited,Altium Designer,24.5.2 (23)*
G04*
G04 Layer_Color=65535*
%FSLAX25Y25*%
%MOIN*%
G70*
G04*
G04 #@! TF.SameCoordinates,CB4C24F7-EE71-4198-96C3-8168C5EFC23F*
G04*
G04*
G04 #@! TF.FilePolarity,Positive*
G04*
G01*
G75*
%ADD10C,0.00984*%
%ADD11C,0.00787*%
%ADD12C,0.02362*%
%ADD13C,0.01000*%
%ADD14C,0.00500*%
D10*
X154992Y69035D02*
G03*
X154992Y69035I-492J0D01*
G01*
X170390Y2153D02*
G03*
X170390Y2153I-492J0D01*
G01*
X104992Y66618D02*
G03*
X104992Y66618I-492J0D01*
G01*
X123169Y8248D02*
G03*
X123169Y8248I-492J0D01*
G01*
X155319Y117035D02*
G03*
X155319Y117035I-492J0D01*
G01*
X47492Y50882D02*
G03*
X47492Y50882I-492J0D01*
G01*
X17492Y49618D02*
G03*
X17492Y49618I-492J0D01*
G01*
X72272Y38370D02*
G03*
X72272Y38370I-492J0D01*
G01*
D11*
X117000Y66539D02*
G03*
X122000Y66539I2500J0D01*
G01*
X34500Y50961D02*
G03*
X29500Y50961I-2500J0D01*
G01*
Y49539D02*
G03*
X34500Y49539I2500J0D01*
G01*
X168476Y34921D02*
X175563D01*
X168476D02*
Y75079D01*
X175563D01*
X156905Y22842D02*
X163992D01*
X156905Y3158D02*
X163992D01*
X156905D02*
Y22842D01*
X163992Y3158D02*
Y22842D01*
X127307Y26425D02*
Y29575D01*
X109067Y46461D02*
Y66539D01*
X129933Y46461D02*
Y66539D01*
X109067D02*
X117000D01*
X122000D02*
X129933D01*
X109067Y46461D02*
X129933D01*
X42500Y7000D02*
Y27000D01*
X2500Y7000D02*
Y27000D01*
X42500D01*
X2500Y7000D02*
X42500D01*
X52425Y40693D02*
X55575D01*
X109882Y8445D02*
X120118D01*
X109882D02*
Y12185D01*
Y26555D02*
X120118D01*
X109882Y22815D02*
Y26555D01*
X168803Y123079D02*
X175890D01*
X168803Y82921D02*
Y123079D01*
Y82921D02*
X175890D01*
X214000Y7000D02*
Y27000D01*
X184000Y7000D02*
Y27000D01*
X214000D01*
X184000Y7000D02*
X214000D01*
X194833D02*
X214000D01*
X21567Y71039D02*
X42433D01*
X21567Y50961D02*
X29500D01*
X34500D02*
X42433D01*
X21567D02*
Y71039D01*
X42433Y50961D02*
Y71039D01*
X21567Y29461D02*
X42433D01*
X34500Y49539D02*
X42433D01*
X21567D02*
X29500D01*
X42433Y29461D02*
Y49539D01*
X21567Y29461D02*
Y49539D01*
X76898Y11008D02*
X89102D01*
X76898Y36992D02*
X89102D01*
Y11008D02*
Y36992D01*
X76898Y11008D02*
Y36992D01*
X144193Y91425D02*
Y94575D01*
X67500Y49000D02*
X97500D01*
X67500Y39000D02*
Y49000D01*
Y39000D02*
X97500D01*
Y49000D01*
X135925Y23193D02*
X139075D01*
X127941Y23980D02*
X133059D01*
X129500Y69000D02*
X139500D01*
X129500D02*
Y89000D01*
X139500D01*
Y69000D02*
Y89000D01*
X127693Y90425D02*
Y93575D01*
X122925Y87846D02*
X126075D01*
X113425Y42193D02*
X116575D01*
X105441Y43480D02*
X110559D01*
D12*
X114185Y62602D02*
G03*
X114185Y62602I-1181J0D01*
G01*
X39677Y54898D02*
G03*
X39677Y54898I-1181J0D01*
G01*
X26685Y45602D02*
G03*
X26685Y45602I-1181J0D01*
G01*
X82016Y33055D02*
G03*
X82016Y33055I-1181J0D01*
G01*
D13*
X100000Y32000D02*
X104000D01*
X76000Y63500D02*
Y84000D01*
X104000Y32000D02*
X106000Y30000D01*
Y14000D02*
Y30000D01*
X105000Y13000D02*
X106000Y14000D01*
X99500Y13000D02*
X105000D01*
X99500D02*
Y49500D01*
X98000Y51000D02*
X99500Y49500D01*
X94500Y51000D02*
X98000D01*
X83500Y62000D02*
X94500Y51000D01*
X77500Y62000D02*
X83500D01*
X76000Y63500D02*
X77500Y62000D01*
X5500Y124500D02*
X85500D01*
Y99500D02*
Y124500D01*
X5500Y99500D02*
X85500D01*
X5500D02*
Y124500D01*
X132831Y101500D02*
Y104499D01*
X127668Y97500D02*
X130994D01*
X126581Y109000D02*
X132081Y108999D01*
D14*
X78000Y68179D02*
Y69512D01*
X78666Y70179D01*
X79333Y69512D01*
Y68179D01*
Y69179D01*
X78000D01*
X79999Y69846D02*
X80333Y70179D01*
X80999D01*
X81332Y69846D01*
Y69512D01*
X80999Y69179D01*
X80666D01*
X80999D01*
X81332Y68846D01*
Y68513D01*
X80999Y68179D01*
X80333D01*
X79999Y68513D01*
X78000Y64000D02*
Y65333D01*
X78666Y65999D01*
X79333Y65333D01*
Y64000D01*
Y65000D01*
X78000D01*
X80999Y64000D02*
Y65999D01*
X79999Y65000D01*
X81332D01*
X78000Y72359D02*
Y73692D01*
X78666Y74358D01*
X79333Y73692D01*
Y72359D01*
Y73359D01*
X78000D01*
X81332Y72359D02*
X79999D01*
X81332Y73692D01*
Y74025D01*
X80999Y74358D01*
X80333D01*
X79999Y74025D01*
X78000Y76538D02*
Y77871D01*
X78666Y78538D01*
X79333Y77871D01*
Y76538D01*
Y77538D01*
X78000D01*
X79999Y76538D02*
X80666D01*
X80333D01*
Y78538D01*
X79999Y78204D01*
X78000Y80718D02*
Y82051D01*
X78666Y82717D01*
X79333Y82051D01*
Y80718D01*
Y81717D01*
X78000D01*
X79999Y82384D02*
X80333Y82717D01*
X80999D01*
X81332Y82384D01*
Y81051D01*
X80999Y80718D01*
X80333D01*
X79999Y81051D01*
Y82384D01*
X58100Y42400D02*
Y44399D01*
X59100D01*
X59433Y44066D01*
Y43400D01*
X59100Y43066D01*
X58100D01*
X58766D02*
X59433Y42400D01*
X60099Y44066D02*
X60433Y44399D01*
X61099D01*
X61432Y44066D01*
Y43733D01*
X61099Y43400D01*
X60766D01*
X61099D01*
X61432Y43066D01*
Y42733D01*
X61099Y42400D01*
X60433D01*
X60099Y42733D01*
X62099Y44399D02*
X63432D01*
Y44066D01*
X62099Y42733D01*
Y42400D01*
M02*
