G04*
G04 #@! TF.GenerationSoftware,Altium Limited,Altium Designer,24.5.2 (23)*
G04*
G04 Layer_Color=16711935*
%FSLAX25Y25*%
%MOIN*%
G70*
G04*
G04 #@! TF.SameCoordinates,CB4C24F7-EE71-4198-96C3-8168C5EFC23F*
G04*
G04*
G04 #@! TF.FilePolarity,Negative*
G04*
G01*
G75*
%ADD36R,0.04737X0.05131*%
%ADD39R,0.05131X0.04737*%
%ADD42O,0.09461X0.03162*%
%ADD46R,0.06706X0.05918*%
%ADD47R,0.06706X0.06706*%
%ADD48C,0.06706*%
%ADD49C,0.08674*%
%ADD50R,0.06706X0.06706*%
%ADD51C,0.03800*%
%ADD52C,0.05800*%
%ADD84R,0.05918X0.06706*%
%ADD85R,0.06509X0.02965*%
%ADD86R,0.02965X0.06509*%
%ADD87R,0.04068X0.03280*%
%ADD88R,0.06706X0.03162*%
%ADD89R,0.06902X0.14383*%
%ADD90R,0.06902X0.05131*%
%ADD91R,0.06902X0.05131*%
%ADD92R,0.10052X0.16942*%
D36*
X9000Y43846D02*
D03*
Y37154D02*
D03*
Y63846D02*
D03*
Y57153D02*
D03*
X109500Y24847D02*
D03*
Y18154D02*
D03*
X117000Y39347D02*
D03*
Y32654D02*
D03*
D39*
X60347Y56000D02*
D03*
X53654D02*
D03*
X76346Y11500D02*
D03*
X69653D02*
D03*
X58846Y113000D02*
D03*
X52153D02*
D03*
X60347Y45000D02*
D03*
X53654D02*
D03*
X90153Y61500D02*
D03*
X96846D02*
D03*
X63153Y17500D02*
D03*
X69846D02*
D03*
X117154Y26500D02*
D03*
X123846D02*
D03*
X63153Y24000D02*
D03*
X69846D02*
D03*
X17154Y111000D02*
D03*
X23846D02*
D03*
X126154Y105500D02*
D03*
X132846D02*
D03*
D42*
X109449Y83500D02*
D03*
Y78500D02*
D03*
Y73500D02*
D03*
Y68500D02*
D03*
X90551Y83500D02*
D03*
Y78500D02*
D03*
Y73500D02*
D03*
Y68500D02*
D03*
D46*
X157000Y20240D02*
D03*
Y12760D02*
D03*
X170500Y31500D02*
D03*
Y24020D02*
D03*
D47*
X104500Y61500D02*
D03*
X7500Y12000D02*
D03*
X189000D02*
D03*
X47000Y56000D02*
D03*
X17000Y44500D02*
D03*
X92500Y44000D02*
D03*
D48*
X104500Y51500D02*
D03*
X134500Y61500D02*
D03*
Y51500D02*
D03*
X7500Y22000D02*
D03*
X17500Y12000D02*
D03*
Y22000D02*
D03*
X27500Y12000D02*
D03*
Y22000D02*
D03*
X37500Y12000D02*
D03*
Y22000D02*
D03*
X189000D02*
D03*
X199000Y12000D02*
D03*
Y22000D02*
D03*
X209000Y12000D02*
D03*
Y22000D02*
D03*
X17000Y66000D02*
D03*
Y56000D02*
D03*
X47000Y66000D02*
D03*
Y34500D02*
D03*
Y44500D02*
D03*
X17000Y34500D02*
D03*
X82500Y44000D02*
D03*
X72500D02*
D03*
X134500Y74000D02*
D03*
D49*
X15500Y119500D02*
D03*
X25500D02*
D03*
X45500D02*
D03*
X65500D02*
D03*
D50*
X134500Y84000D02*
D03*
D51*
X128000Y36000D02*
D03*
X132500D02*
D03*
X97000Y96000D02*
D03*
X69666Y89840D02*
D03*
X77500Y103500D02*
D03*
X137841Y122492D02*
D03*
X82500Y103500D02*
D03*
X63500Y11500D02*
D03*
X99032Y83532D02*
D03*
X112000Y50500D02*
D03*
X112611Y57112D02*
D03*
X137798Y117492D02*
D03*
X60500Y61500D02*
D03*
X72500Y72000D02*
D03*
X108000Y96000D02*
D03*
X64520Y39591D02*
D03*
X83335Y14165D02*
D03*
X51500Y16500D02*
D03*
Y25500D02*
D03*
X47422Y8922D02*
D03*
X87899Y25263D02*
D03*
X86021Y51237D02*
D03*
X77993Y27830D02*
D03*
X78000Y21000D02*
D03*
X73250Y58000D02*
D03*
X78000D02*
D03*
X68500D02*
D03*
X120379Y48379D02*
D03*
X96000Y56500D02*
D03*
X103000Y83500D02*
D03*
X77500Y50000D02*
D03*
X97500Y78000D02*
D03*
D52*
X180000Y23500D02*
D03*
Y17500D02*
D03*
X158500Y50000D02*
D03*
X150500D02*
D03*
Y87500D02*
D03*
X158500D02*
D03*
X206000Y68500D02*
D03*
Y59500D02*
D03*
Y50500D02*
D03*
Y41500D02*
D03*
X197500D02*
D03*
Y50500D02*
D03*
Y59500D02*
D03*
Y68500D02*
D03*
X187500Y117000D02*
D03*
Y108000D02*
D03*
Y99000D02*
D03*
Y90000D02*
D03*
X196000Y117000D02*
D03*
Y108000D02*
D03*
Y99000D02*
D03*
Y90000D02*
D03*
X204500D02*
D03*
Y99000D02*
D03*
Y108000D02*
D03*
Y117000D02*
D03*
D84*
X116260Y19000D02*
D03*
X123740D02*
D03*
X149760Y28000D02*
D03*
X157240D02*
D03*
X165260Y12500D02*
D03*
X172740D02*
D03*
X149760Y40000D02*
D03*
X157240D02*
D03*
X164260D02*
D03*
X171740D02*
D03*
X16760Y103500D02*
D03*
X24240D02*
D03*
X125760Y112500D02*
D03*
X133240D02*
D03*
X125760Y120500D02*
D03*
X133240D02*
D03*
D85*
X124126Y11000D02*
D03*
X114874D02*
D03*
X141626Y16000D02*
D03*
X132374D02*
D03*
X141626Y32000D02*
D03*
X132374D02*
D03*
Y40000D02*
D03*
X141626D02*
D03*
X132248Y24000D02*
D03*
X141500D02*
D03*
D86*
X110000Y31874D02*
D03*
Y41126D02*
D03*
D87*
X124000Y31610D02*
D03*
Y40390D02*
D03*
D88*
X70240Y37240D02*
D03*
Y29760D02*
D03*
X62760Y33500D02*
D03*
D89*
X115787Y110000D02*
D03*
D90*
X89213Y119055D02*
D03*
Y110000D02*
D03*
D91*
Y100945D02*
D03*
D92*
X69803Y100500D02*
D03*
X45197D02*
D03*
M02*
