G04*
G04 #@! TF.GenerationSoftware,Altium Limited,Altium Designer,24.5.2 (23)*
G04*
G04 Layer_Color=8421504*
%FSLAX25Y25*%
%MOIN*%
G70*
G04*
G04 #@! TF.SameCoordinates,CB4C24F7-EE71-4198-96C3-8168C5EFC23F*
G04*
G04*
G04 #@! TF.FilePolarity,Positive*
G04*
G01*
G75*
%ADD15R,0.01411X0.01533*%
%ADD16R,0.01971X0.01541*%
%ADD17R,0.01952X0.01533*%
%ADD18R,0.03937X0.04331*%
%ADD19R,0.33071X0.39764*%
%ADD20R,0.15158X0.03740*%
%ADD21R,0.04331X0.03937*%
%ADD22R,0.03937X0.02362*%
%ADD23O,0.07087X0.01378*%
%ADD24O,0.08661X0.02362*%
%ADD25R,0.05512X0.02362*%
%ADD26R,0.07087X0.02362*%
G04:AMPARAMS|DCode=27|XSize=74.8mil|YSize=125.98mil|CornerRadius=0mil|HoleSize=0mil|Usage=FLASHONLY|Rotation=270.000|XOffset=0mil|YOffset=0mil|HoleType=Round|Shape=Octagon|*
%AMOCTAGOND27*
4,1,8,0.06299,0.01870,0.06299,-0.01870,0.04429,-0.03740,-0.04429,-0.03740,-0.06299,-0.01870,-0.06299,0.01870,-0.04429,0.03740,0.04429,0.03740,0.06299,0.01870,0.0*
%
%ADD27OCTAGOND27*%

%ADD28R,0.05906X0.05118*%
D15*
X104051Y15026D02*
D03*
X104092Y17560D02*
D03*
X104120Y20137D02*
D03*
X103011Y27853D02*
D03*
X103014Y30463D02*
D03*
D16*
X101507Y15044D02*
D03*
X101545Y17571D02*
D03*
X101568Y20169D02*
D03*
X100492Y27857D02*
D03*
D17*
X100522Y30443D02*
D03*
D18*
X60000Y37347D02*
D03*
Y30654D02*
D03*
X54000Y30654D02*
D03*
Y37346D02*
D03*
X56000Y13654D02*
D03*
Y20346D02*
D03*
X9000Y57153D02*
D03*
Y63846D02*
D03*
Y43846D02*
D03*
Y37154D02*
D03*
X137500Y13153D02*
D03*
Y19846D02*
D03*
X117500Y77807D02*
D03*
Y84500D02*
D03*
X124500Y77807D02*
D03*
Y84500D02*
D03*
X115000Y32153D02*
D03*
Y38846D02*
D03*
D19*
X193673Y55000D02*
D03*
X194000Y103000D02*
D03*
D20*
X154500Y45000D02*
D03*
Y65000D02*
D03*
X154827Y113000D02*
D03*
Y93000D02*
D03*
D21*
X134153D02*
D03*
X137346Y28000D02*
D03*
X130654D02*
D03*
X140847Y93000D02*
D03*
X117654Y71500D02*
D03*
X124346D02*
D03*
X117654Y92000D02*
D03*
X124346D02*
D03*
D22*
X125000Y103000D02*
D03*
X133662Y106740D02*
D03*
Y99259D02*
D03*
X125000Y106739D02*
D03*
Y99260D02*
D03*
D23*
X94221Y20161D02*
D03*
Y15043D02*
D03*
Y17602D02*
D03*
Y27839D02*
D03*
Y30398D02*
D03*
Y12484D02*
D03*
Y22720D02*
D03*
Y25280D02*
D03*
Y32957D02*
D03*
Y35516D02*
D03*
X71780Y12484D02*
D03*
Y15043D02*
D03*
Y17602D02*
D03*
Y20161D02*
D03*
Y22720D02*
D03*
Y25280D02*
D03*
Y27839D02*
D03*
Y30398D02*
D03*
Y32957D02*
D03*
Y35516D02*
D03*
D24*
X151000Y20500D02*
D03*
Y15500D02*
D03*
Y10500D02*
D03*
Y5500D02*
D03*
X169898Y20500D02*
D03*
Y15500D02*
D03*
Y10500D02*
D03*
Y5500D02*
D03*
D25*
X122480Y11594D02*
D03*
Y23405D02*
D03*
D26*
X121693Y17500D02*
D03*
D27*
X111850D02*
D03*
D28*
X141500Y107240D02*
D03*
Y99760D02*
D03*
X130500Y12760D02*
D03*
Y20240D02*
D03*
X108000Y32260D02*
D03*
Y39740D02*
D03*
M02*
