M48
;Layer_Color=9474304
;FILE_FORMAT=2:4
INCH
;TYPE=PLATED
T01F00S00C0.0100
T02F00S00C0.0354
T03F00S00C0.0394
%
T01
X048000Y026400
X047700Y026700
X050100Y028100
X050500
X050800Y028500
Y029000
Y029500
X049700
X049288Y029512
X053700Y029500
X052838Y028161
X051400Y024500
X057200Y024800
X055500Y032900
X054800
X054300
X053212Y032588
X052700Y032600
X052212Y032588
X053500Y037700
X055000
X054256Y039643
T02
X049500Y016650
Y017650
Y018650
Y019650
X050500
Y018650
Y017650
Y016650
X056400Y029200
Y030200
Y031200
X057400
Y030200
Y029200
X045700Y019650
X044700
Y018650
X045700
Y017650
X044700
Y016650
X045700
X040900
Y017650
Y018650
Y019650
X039900
Y018650
Y017650
Y016650
X036100
Y017650
Y018650
Y019650
X035100
Y018650
Y017650
Y016650
Y034800
Y035800
Y036800
X036100
Y035800
Y034800
X039900
Y035800
Y036800
X040900
Y035800
Y034800
X044700
Y035800
Y036800
X045700
Y035800
Y034800
X049500
Y035800
Y036800
X050500
Y035800
Y034800
X052500Y031500
X053500
X054500
X056400Y032200
Y033200
Y034200
Y035200
Y036200
X057400
Y035200
Y034200
Y033200
Y032200
T03
X034050Y012400
X036050
X038050
X040000
X042000
X044000
X054051
X056019
X044059Y041065
X042059
X040059
X038050
X036050
X034050
X054051
X056019
M30
