G04*
G04 #@! TF.GenerationSoftware,Altium Limited,Altium Designer,24.5.2 (23)*
G04*
G04 Layer_Physical_Order=3*
G04 Layer_Color=16711680*
%FSLAX25Y25*%
%MOIN*%
G70*
G04*
G04 #@! TF.SameCoordinates,EC466EA2-F337-402A-A5E8-60117474A60A*
G04*
G04*
G04 #@! TF.FilePolarity,Positive*
G04*
G01*
G75*
%ADD10C,0.01000*%
%ADD22C,0.06000*%
%ADD23R,0.05906X0.05906*%
%ADD24C,0.05906*%
%ADD25R,0.05906X0.05906*%
%ADD26C,0.05906*%
D10*
X51142Y66429D02*
X56429D01*
X94000Y104000D02*
X118000D01*
X56429Y66429D02*
X94000Y104000D01*
X118000D02*
X120000Y102000D01*
Y94000D02*
X125000Y89000D01*
X120000Y94000D02*
Y102000D01*
X68858Y66429D02*
Y73858D01*
X94000Y99000D01*
X115000D01*
X133000Y38000D02*
Y48000D01*
X135000Y50000D01*
Y89000D01*
X125000D02*
X135000D01*
X183000Y8000D02*
X190000Y15000D01*
Y94000D01*
X185000Y99000D02*
X190000Y94000D01*
X173000Y8000D02*
Y18000D01*
X178000Y23000D01*
Y46000D01*
X180000Y48000D01*
Y94000D01*
X175000Y99000D02*
X180000Y94000D01*
X166000Y99000D02*
X170000Y95000D01*
X165000Y99000D02*
X166000D01*
X170000Y48000D02*
Y95000D01*
X168000Y46000D02*
X170000Y48000D01*
X168000Y23000D02*
Y46000D01*
X163000Y18000D02*
X168000Y23000D01*
X163000Y8000D02*
Y18000D01*
X153000Y8000D02*
Y17000D01*
X158000Y22000D01*
Y46000D01*
X160000Y48000D01*
Y94000D01*
X155000Y99000D02*
X160000Y94000D01*
X145000Y99000D02*
X150000Y94000D01*
Y48000D02*
Y94000D01*
X148000Y46000D02*
X150000Y48000D01*
X148000Y23000D02*
Y46000D01*
X143000Y18000D02*
X148000Y23000D01*
X143000Y8000D02*
Y18000D01*
X138562Y95438D02*
X140000Y94000D01*
X138000Y24000D02*
Y46000D01*
X133000Y19000D02*
X138000Y24000D01*
X140000Y48000D02*
Y94000D01*
X138000Y46000D02*
X140000Y48000D01*
X135000Y99000D02*
X138562Y95438D01*
X133000Y8000D02*
Y19000D01*
D22*
X51142Y106858D02*
D03*
X68858D02*
D03*
X51142Y89142D02*
D03*
X68858D02*
D03*
X51142Y66429D02*
D03*
X68858D02*
D03*
X51142Y48713D02*
D03*
X68858D02*
D03*
X51142Y26000D02*
D03*
X68858D02*
D03*
X51142Y8283D02*
D03*
X68858D02*
D03*
D23*
X115000Y89000D02*
D03*
D24*
Y99000D02*
D03*
X125000Y89000D02*
D03*
Y99000D02*
D03*
X135000Y89000D02*
D03*
Y99000D02*
D03*
X145000Y89000D02*
D03*
Y99000D02*
D03*
X155000Y89000D02*
D03*
Y99000D02*
D03*
X165000Y89000D02*
D03*
Y99000D02*
D03*
X175000Y89000D02*
D03*
Y99000D02*
D03*
X185000Y89000D02*
D03*
Y99000D02*
D03*
X183000Y8000D02*
D03*
X133000Y38000D02*
D03*
X143000D02*
D03*
X153000D02*
D03*
X163000D02*
D03*
X173000D02*
D03*
X183000D02*
D03*
D25*
X133000Y8000D02*
D03*
D26*
X143000D02*
D03*
X153000D02*
D03*
X163000D02*
D03*
X173000D02*
D03*
M02*
