G04*
G04 #@! TF.GenerationSoftware,Altium Limited,Altium Designer,24.5.2 (23)*
G04*
G04 Layer_Physical_Order=3*
G04 Layer_Color=16711680*
%FSLAX25Y25*%
%MOIN*%
G70*
G04*
G04 #@! TF.SameCoordinates,2268A734-3591-48FF-B187-AB4D2D4595D2*
G04*
G04*
G04 #@! TF.FilePolarity,Positive*
G04*
G01*
G75*
%ADD11C,0.01000*%
%ADD17R,0.03937X0.04331*%
%ADD18R,0.04331X0.03937*%
%ADD44C,0.03000*%
%ADD45C,0.02000*%
%ADD47C,0.06000*%
%ADD50C,0.09843*%
%ADD51R,0.05906X0.05906*%
%ADD52C,0.05906*%
%ADD53R,0.05906X0.05906*%
%ADD54C,0.03000*%
%ADD55O,0.07087X0.01181*%
%ADD56O,0.01181X0.07087*%
%ADD57R,0.05906X0.02362*%
%ADD58R,0.05906X0.05118*%
%ADD59R,0.02559X0.04331*%
G36*
X266404Y283268D02*
X265904Y283116D01*
X265789Y283289D01*
X262789Y286289D01*
X262197Y286684D01*
X261500Y286822D01*
X261500Y286822D01*
X221500D01*
X221500Y286822D01*
X220803Y286684D01*
X220211Y286289D01*
X217211Y283289D01*
X216816Y282697D01*
X216678Y282000D01*
X216678Y282000D01*
Y278412D01*
X216561Y278296D01*
X216213Y277455D01*
Y276545D01*
X216561Y275704D01*
X217204Y275061D01*
X218045Y274713D01*
X218955D01*
X219796Y275061D01*
X220439Y275704D01*
X220787Y276545D01*
Y277455D01*
X220439Y278296D01*
X220322Y278412D01*
Y281245D01*
X222255Y283178D01*
X260745D01*
X262678Y281245D01*
Y154755D01*
X257745Y149822D01*
X256912D01*
X256796Y149939D01*
X255955Y150287D01*
X255045D01*
X254204Y149939D01*
X253561Y149296D01*
X253213Y148455D01*
Y147545D01*
X253561Y146704D01*
X254204Y146061D01*
X255045Y145713D01*
X255955D01*
X256796Y146061D01*
X256912Y146178D01*
X258500D01*
X258500Y146178D01*
X259197Y146316D01*
X259789Y146711D01*
X265789Y152711D01*
X265789Y152711D01*
X265904Y152884D01*
X266404Y152732D01*
Y1313D01*
X157500D01*
Y64168D01*
X175543D01*
X176204Y63507D01*
X177056Y63015D01*
X178008Y62760D01*
X178992D01*
X179944Y63015D01*
X180797Y63507D01*
X181457Y64168D01*
X184760D01*
Y62760D01*
X192240D01*
Y70240D01*
X184760D01*
Y68832D01*
X181457D01*
X180797Y69493D01*
X179944Y69985D01*
X178992Y70240D01*
X178008D01*
X177056Y69985D01*
X176204Y69493D01*
X175543Y68832D01*
X157500D01*
Y74168D01*
X175543D01*
X176204Y73507D01*
X177056Y73015D01*
X178008Y72760D01*
X178992D01*
X179944Y73015D01*
X180797Y73507D01*
X181457Y74168D01*
X185543D01*
X186204Y73507D01*
X187056Y73015D01*
X188008Y72760D01*
X188992D01*
X189944Y73015D01*
X190796Y73507D01*
X191493Y74203D01*
X191985Y75056D01*
X192240Y76008D01*
Y76992D01*
X191985Y77944D01*
X191493Y78796D01*
X190796Y79493D01*
X189944Y79985D01*
X188992Y80240D01*
X188008D01*
X187056Y79985D01*
X186204Y79493D01*
X185543Y78832D01*
X181457D01*
X180797Y79493D01*
X179944Y79985D01*
X178992Y80240D01*
X178008D01*
X177056Y79985D01*
X176204Y79493D01*
X175543Y78832D01*
X157500D01*
Y82680D01*
X177485D01*
X177500Y82676D01*
Y86500D01*
Y90324D01*
X177485Y90320D01*
X157500D01*
Y92680D01*
X188500D01*
X189489Y92810D01*
X190410Y93192D01*
X191201Y93799D01*
X191808Y94590D01*
X192190Y95511D01*
X192320Y96500D01*
X192190Y97489D01*
X191808Y98410D01*
X191201Y99201D01*
X190410Y99808D01*
X189489Y100190D01*
X188500Y100320D01*
X157500D01*
Y101000D01*
X130500Y128000D01*
Y212000D01*
X146500Y228000D01*
X188500D01*
X199500Y239000D01*
Y333333D01*
X266404D01*
Y283268D01*
D02*
G37*
%LPC*%
G36*
X244444Y316359D02*
X242941D01*
X241489Y315970D01*
X240187Y315218D01*
X239124Y314155D01*
X238373Y312854D01*
X237984Y311402D01*
Y309898D01*
X238373Y308447D01*
X239124Y307145D01*
X240187Y306082D01*
X241489Y305330D01*
X242941Y304941D01*
X244444D01*
X245896Y305330D01*
X247198Y306082D01*
X248261Y307145D01*
X249012Y308447D01*
X249401Y309898D01*
Y311402D01*
X249012Y312854D01*
X248261Y314155D01*
X247198Y315218D01*
X245896Y315970D01*
X244444Y316359D01*
D02*
G37*
G36*
X224759D02*
X223256D01*
X221804Y315970D01*
X220502Y315218D01*
X219439Y314155D01*
X218688Y312854D01*
X218299Y311402D01*
Y309898D01*
X218688Y308447D01*
X219439Y307145D01*
X220502Y306082D01*
X221804Y305330D01*
X223256Y304941D01*
X224759D01*
X226211Y305330D01*
X227513Y306082D01*
X228576Y307145D01*
X229327Y308447D01*
X229716Y309898D01*
Y311402D01*
X229327Y312854D01*
X228576Y314155D01*
X227513Y315218D01*
X226211Y315970D01*
X224759Y316359D01*
D02*
G37*
G36*
X249500Y268313D02*
X243500D01*
X242998Y268213D01*
X242572Y267928D01*
X226956Y252313D01*
X214500D01*
X213998Y252213D01*
X213572Y251928D01*
X172745Y211101D01*
X172460Y210676D01*
X172361Y210173D01*
Y205362D01*
X172268Y204898D01*
Y198992D01*
X172363Y198514D01*
X172194Y198306D01*
X171986Y198137D01*
X171508Y198232D01*
X168751D01*
X168723Y198374D01*
X168438Y198800D01*
X166310Y200928D01*
X165884Y201213D01*
X165382Y201313D01*
X163799D01*
Y202756D01*
X163179D01*
Y205654D01*
X163001Y206546D01*
X162496Y207303D01*
X161149Y208649D01*
X160392Y209155D01*
X159500Y209332D01*
X149500D01*
X148608Y209155D01*
X147851Y208649D01*
X144851Y205649D01*
X144345Y204892D01*
X144168Y204000D01*
Y149000D01*
X144345Y148108D01*
X144851Y147351D01*
X148851Y143351D01*
X149608Y142845D01*
X150500Y142668D01*
X198846D01*
X199739Y142845D01*
X200496Y143351D01*
X203846Y146701D01*
X207256D01*
Y147321D01*
X208154D01*
X209046Y147499D01*
X209803Y148004D01*
X212149Y150351D01*
X212655Y151108D01*
X212832Y152000D01*
Y160000D01*
X212655Y160892D01*
X212149Y161649D01*
X211149Y162649D01*
X210392Y163155D01*
X210161Y163201D01*
X210210Y163701D01*
X210500D01*
Y167260D01*
X212500D01*
Y163701D01*
X215453D01*
X215531Y163488D01*
X217500D01*
Y166654D01*
Y169819D01*
X215933D01*
X215896Y169894D01*
X216207Y170394D01*
X221256D01*
Y171738D01*
X221709Y171828D01*
X221760Y171862D01*
X222201Y171626D01*
Y171244D01*
X228106D01*
Y176756D01*
X226063D01*
Y177323D01*
X226307D01*
Y178453D01*
X229122D01*
X229122Y178453D01*
X229819Y178592D01*
X229982Y178701D01*
X233256D01*
Y178701D01*
X233744D01*
Y178701D01*
X239256D01*
Y184606D01*
X233744D01*
Y184606D01*
X233256D01*
Y184606D01*
X227744D01*
Y182098D01*
X226307D01*
Y183228D01*
X222173D01*
Y177323D01*
X222418D01*
Y176756D01*
X222201D01*
Y175822D01*
X221500D01*
X221256Y176023D01*
Y176299D01*
X215744D01*
Y175169D01*
X215240D01*
Y177110D01*
X215760D01*
Y180276D01*
Y183441D01*
X214480D01*
Y181466D01*
X213980Y181376D01*
X211702Y183654D01*
X211681Y183687D01*
X211700Y184343D01*
X212044Y184687D01*
X223500D01*
X224002Y184787D01*
X224428Y185072D01*
X225428Y186072D01*
X225713Y186498D01*
X225767Y186772D01*
X226307D01*
Y189136D01*
X227744D01*
Y185394D01*
X233256D01*
Y185394D01*
X233744D01*
Y185394D01*
X239256D01*
Y191299D01*
X237813D01*
Y196000D01*
X237713Y196502D01*
X237428Y196928D01*
X235428Y198928D01*
X235002Y199213D01*
X234500Y199313D01*
X231345D01*
X231036Y199776D01*
X231040Y199813D01*
X231428Y200072D01*
X239428Y208072D01*
X239713Y208498D01*
X239813Y209000D01*
Y227078D01*
X240439Y227704D01*
X240787Y228545D01*
Y229455D01*
X240439Y230296D01*
X239796Y230939D01*
X238955Y231287D01*
X238045D01*
X237204Y230939D01*
X236561Y230296D01*
X236213Y229455D01*
Y228545D01*
X236561Y227704D01*
X237187Y227078D01*
Y221822D01*
X236725Y221631D01*
X232813Y225544D01*
Y227078D01*
X233439Y227704D01*
X233787Y228545D01*
Y229455D01*
X233439Y230296D01*
X232796Y230939D01*
X231955Y231287D01*
X231045D01*
X230204Y230939D01*
X229561Y230296D01*
X229250Y229545D01*
X229242Y229544D01*
X228758D01*
X228750Y229545D01*
X228439Y230296D01*
X227796Y230939D01*
X226955Y231287D01*
X226045D01*
X225204Y230939D01*
X224561Y230296D01*
X224213Y229455D01*
Y228545D01*
X224561Y227704D01*
X225187Y227078D01*
Y227000D01*
X225287Y226498D01*
X225572Y226072D01*
X233187Y218456D01*
Y213544D01*
X226956Y207313D01*
X223322D01*
X223131Y207775D01*
X226939Y211583D01*
X227056Y211515D01*
X228008Y211260D01*
X228992D01*
X229944Y211515D01*
X230797Y212007D01*
X231493Y212703D01*
X231985Y213556D01*
X232240Y214508D01*
Y215492D01*
X231985Y216444D01*
X231493Y217297D01*
X230797Y217993D01*
X229944Y218485D01*
X228992Y218740D01*
X228008D01*
X227056Y218485D01*
X226203Y217993D01*
X225507Y217297D01*
X225015Y216444D01*
X224760Y215492D01*
Y214508D01*
X225015Y213556D01*
X225083Y213439D01*
X220956Y209313D01*
X216500D01*
X215998Y209213D01*
X215572Y208928D01*
X204783Y198139D01*
X203862D01*
X203398Y198232D01*
X197492D01*
X197014Y198137D01*
X196806Y198306D01*
X196637Y198514D01*
X196732Y198992D01*
Y204898D01*
X196625Y205435D01*
X196320Y205891D01*
X195864Y206196D01*
X195327Y206303D01*
X194789Y206196D01*
X194588Y206061D01*
X194222Y206237D01*
X194128Y206772D01*
X196044Y208687D01*
X203500D01*
X204002Y208787D01*
X204428Y209072D01*
X206616Y211260D01*
X212240D01*
Y218740D01*
X204760D01*
Y213116D01*
X202956Y211313D01*
X196322D01*
X196131Y211775D01*
X205044Y220687D01*
X206500D01*
X207002Y220787D01*
X207428Y221072D01*
X210069Y223713D01*
X210955D01*
X211796Y224061D01*
X212439Y224704D01*
X212787Y225545D01*
Y225598D01*
X213287Y225865D01*
X213334Y225834D01*
Y225424D01*
X213682Y224583D01*
X214326Y223939D01*
X215166Y223591D01*
X216076D01*
X216917Y223939D01*
X217561Y224583D01*
X217909Y225424D01*
Y226334D01*
X217561Y227174D01*
X216917Y227818D01*
X216076Y228166D01*
X215190D01*
X213428Y229928D01*
X213002Y230213D01*
X212500Y230313D01*
X205322D01*
X205131Y230775D01*
X210044Y235687D01*
X245406D01*
X245540Y235187D01*
X245203Y234993D01*
X244507Y234296D01*
X244015Y233444D01*
X243760Y232492D01*
Y231508D01*
X244015Y230556D01*
X244507Y229703D01*
X245203Y229007D01*
X246056Y228515D01*
X247008Y228260D01*
X247992D01*
X248944Y228515D01*
X249797Y229007D01*
X250493Y229703D01*
X250687Y230040D01*
X251187Y229906D01*
Y227000D01*
X251287Y226498D01*
X251572Y226072D01*
X254083Y223561D01*
X254015Y223444D01*
X253760Y222492D01*
Y221508D01*
X254015Y220556D01*
X254507Y219704D01*
X255204Y219007D01*
X256056Y218515D01*
X257008Y218260D01*
X257992D01*
X258944Y218515D01*
X259797Y219007D01*
X260493Y219704D01*
X260985Y220556D01*
X261240Y221508D01*
Y222492D01*
X260985Y223444D01*
X260493Y224296D01*
X259797Y224993D01*
X258944Y225485D01*
X257992Y225740D01*
X257008D01*
X256056Y225485D01*
X255939Y225417D01*
X253813Y227544D01*
Y229906D01*
X254313Y230040D01*
X254507Y229703D01*
X255204Y229007D01*
X256056Y228515D01*
X257008Y228260D01*
X257992D01*
X258944Y228515D01*
X259797Y229007D01*
X260493Y229703D01*
X260985Y230556D01*
X261240Y231508D01*
Y232492D01*
X260985Y233444D01*
X260493Y234296D01*
X259797Y234993D01*
X258944Y235485D01*
X257992Y235740D01*
X257008D01*
X256699Y235657D01*
X253813Y238544D01*
Y239906D01*
X254313Y240040D01*
X254507Y239703D01*
X255204Y239007D01*
X256056Y238515D01*
X257008Y238260D01*
X257992D01*
X258944Y238515D01*
X259797Y239007D01*
X260493Y239703D01*
X260985Y240556D01*
X261240Y241508D01*
Y242492D01*
X260985Y243444D01*
X260493Y244297D01*
X259797Y244993D01*
X258944Y245485D01*
X257992Y245740D01*
X257008D01*
X256056Y245485D01*
X255204Y244993D01*
X254507Y244297D01*
X254313Y243960D01*
X253982Y243986D01*
X253799Y244070D01*
X253713Y244502D01*
X253428Y244928D01*
X250428Y247928D01*
X250002Y248213D01*
X249570Y248299D01*
X249486Y248482D01*
X249460Y248813D01*
X249797Y249007D01*
X250493Y249704D01*
X250985Y250556D01*
X251240Y251508D01*
Y252492D01*
X250985Y253444D01*
X250917Y253561D01*
X253428Y256072D01*
X253713Y256498D01*
X253813Y257000D01*
Y259906D01*
X254313Y260040D01*
X254507Y259703D01*
X255204Y259007D01*
X256056Y258515D01*
X257008Y258260D01*
X257992D01*
X258944Y258515D01*
X259797Y259007D01*
X260493Y259703D01*
X260985Y260556D01*
X261240Y261508D01*
Y262492D01*
X260985Y263444D01*
X260493Y264297D01*
X259797Y264993D01*
X258944Y265485D01*
X257992Y265740D01*
X257008D01*
X256056Y265485D01*
X255204Y264993D01*
X254507Y264297D01*
X254313Y263960D01*
X253982Y263986D01*
X253799Y264070D01*
X253713Y264502D01*
X253428Y264928D01*
X250428Y267928D01*
X250002Y268213D01*
X249500Y268313D01*
D02*
G37*
G36*
X257992Y255740D02*
X257008D01*
X256056Y255485D01*
X255204Y254993D01*
X254507Y254296D01*
X254015Y253444D01*
X253760Y252492D01*
Y251508D01*
X254015Y250556D01*
X254507Y249704D01*
X255204Y249007D01*
X256056Y248515D01*
X257008Y248260D01*
X257992D01*
X258944Y248515D01*
X259797Y249007D01*
X260493Y249704D01*
X260985Y250556D01*
X261240Y251508D01*
Y252492D01*
X260985Y253444D01*
X260493Y254296D01*
X259797Y254993D01*
X258944Y255485D01*
X257992Y255740D01*
D02*
G37*
G36*
X247992Y225740D02*
X247008D01*
X246056Y225485D01*
X245203Y224993D01*
X244507Y224296D01*
X244015Y223444D01*
X243760Y222492D01*
Y221508D01*
X244015Y220556D01*
X244507Y219704D01*
X245203Y219007D01*
X246056Y218515D01*
X247008Y218260D01*
X247992D01*
X248944Y218515D01*
X249797Y219007D01*
X250493Y219704D01*
X250985Y220556D01*
X251240Y221508D01*
Y222492D01*
X250985Y223444D01*
X250493Y224296D01*
X249797Y224993D01*
X248944Y225485D01*
X247992Y225740D01*
D02*
G37*
G36*
X219500Y218824D02*
Y216000D01*
X222324D01*
X222183Y216526D01*
X221663Y217427D01*
X220927Y218163D01*
X220026Y218683D01*
X219500Y218824D01*
D02*
G37*
G36*
X217500D02*
X216974Y218683D01*
X216073Y218163D01*
X215337Y217427D01*
X214817Y216526D01*
X214676Y216000D01*
X217500D01*
Y218824D01*
D02*
G37*
G36*
X258500Y215824D02*
Y213000D01*
X261324D01*
X261183Y213526D01*
X260663Y214427D01*
X259927Y215163D01*
X259026Y215683D01*
X258500Y215824D01*
D02*
G37*
G36*
X256500D02*
X255974Y215683D01*
X255073Y215163D01*
X254337Y214427D01*
X253817Y213526D01*
X253676Y213000D01*
X256500D01*
Y215824D01*
D02*
G37*
G36*
X222324Y214000D02*
X219500D01*
Y211176D01*
X220026Y211317D01*
X220927Y211837D01*
X221663Y212573D01*
X222183Y213474D01*
X222324Y214000D01*
D02*
G37*
G36*
X217500D02*
X214676D01*
X214817Y213474D01*
X215337Y212573D01*
X216073Y211837D01*
X216974Y211317D01*
X217500Y211176D01*
Y214000D01*
D02*
G37*
G36*
X247992Y215740D02*
X247008D01*
X246056Y215485D01*
X245203Y214993D01*
X244507Y214297D01*
X244015Y213444D01*
X243760Y212492D01*
Y211508D01*
X244015Y210556D01*
X244507Y209703D01*
X245203Y209007D01*
X246056Y208515D01*
X247008Y208260D01*
X247992D01*
X248944Y208515D01*
X249797Y209007D01*
X250493Y209703D01*
X250985Y210556D01*
X251240Y211508D01*
Y212492D01*
X250985Y213444D01*
X250493Y214297D01*
X249797Y214993D01*
X248944Y215485D01*
X247992Y215740D01*
D02*
G37*
G36*
X261324Y211000D02*
X258500D01*
Y208176D01*
X259026Y208317D01*
X259927Y208837D01*
X260663Y209573D01*
X261183Y210474D01*
X261324Y211000D01*
D02*
G37*
G36*
X256500D02*
X253676D01*
X253817Y210474D01*
X254337Y209573D01*
X255073Y208837D01*
X255974Y208317D01*
X256500Y208176D01*
Y211000D01*
D02*
G37*
G36*
X258500Y205824D02*
Y203000D01*
X261324D01*
X261183Y203526D01*
X260663Y204427D01*
X259927Y205163D01*
X259026Y205683D01*
X258500Y205824D01*
D02*
G37*
G36*
X256500D02*
X255974Y205683D01*
X255073Y205163D01*
X254337Y204427D01*
X253817Y203526D01*
X253676Y203000D01*
X256500D01*
Y205824D01*
D02*
G37*
G36*
X247992Y205740D02*
X247008D01*
X246056Y205485D01*
X245203Y204993D01*
X244507Y204296D01*
X244015Y203444D01*
X243760Y202492D01*
Y201508D01*
X244015Y200556D01*
X244507Y199704D01*
X245203Y199007D01*
X246056Y198515D01*
X247008Y198260D01*
X247992D01*
X248944Y198515D01*
X249797Y199007D01*
X250493Y199704D01*
X250985Y200556D01*
X251240Y201508D01*
Y202492D01*
X250985Y203444D01*
X250493Y204296D01*
X249797Y204993D01*
X248944Y205485D01*
X247992Y205740D01*
D02*
G37*
G36*
X261324Y201000D02*
X258500D01*
Y198176D01*
X259026Y198317D01*
X259927Y198837D01*
X260663Y199573D01*
X261183Y200474D01*
X261324Y201000D01*
D02*
G37*
G36*
X256500D02*
X253676D01*
X253817Y200474D01*
X254337Y199573D01*
X255073Y198837D01*
X255974Y198317D01*
X256500Y198176D01*
Y201000D01*
D02*
G37*
G36*
X261240Y195740D02*
X253760D01*
Y188260D01*
X261240D01*
Y195740D01*
D02*
G37*
G36*
X247992D02*
X247008D01*
X246056Y195485D01*
X245203Y194993D01*
X244507Y194297D01*
X244015Y193444D01*
X243760Y192492D01*
Y191508D01*
X244015Y190556D01*
X244507Y189704D01*
X245203Y189007D01*
X246056Y188515D01*
X247008Y188260D01*
X247992D01*
X248944Y188515D01*
X249797Y189007D01*
X250493Y189704D01*
X250985Y190556D01*
X251240Y191508D01*
Y192492D01*
X250985Y193444D01*
X250493Y194297D01*
X249797Y194993D01*
X248944Y195485D01*
X247992Y195740D01*
D02*
G37*
G36*
X219039Y183441D02*
X217760D01*
Y181276D01*
X219039D01*
Y183441D01*
D02*
G37*
G36*
Y179276D02*
X217760D01*
Y177110D01*
X219039D01*
Y179276D01*
D02*
G37*
G36*
X235012Y176969D02*
X232846D01*
Y175000D01*
X235012D01*
Y176969D01*
D02*
G37*
G36*
X230846D02*
X228681D01*
Y175000D01*
X230846D01*
Y176969D01*
D02*
G37*
G36*
X235012Y173000D02*
X231846D01*
X228681D01*
Y171031D01*
X229514D01*
Y169313D01*
X229187Y168986D01*
X221468D01*
Y169819D01*
X219500D01*
Y166654D01*
Y163488D01*
X221468D01*
Y164321D01*
X230153D01*
X231046Y164499D01*
X231803Y165004D01*
X233496Y166697D01*
X234001Y167454D01*
X234179Y168347D01*
Y171031D01*
X235012D01*
Y173000D01*
D02*
G37*
G36*
X189500Y90324D02*
Y87500D01*
X192324D01*
X192183Y88026D01*
X191663Y88927D01*
X190927Y89663D01*
X190026Y90183D01*
X189500Y90324D01*
D02*
G37*
G36*
X192324Y85500D02*
X189500D01*
Y82676D01*
X190026Y82817D01*
X190927Y83337D01*
X191663Y84073D01*
X192183Y84974D01*
X192324Y85500D01*
D02*
G37*
G36*
X179500Y90324D02*
Y86500D01*
Y82676D01*
X179516Y82680D01*
X187485D01*
X187500Y82676D01*
Y86500D01*
Y90324D01*
X187485Y90320D01*
X179516D01*
X179500Y90324D01*
D02*
G37*
G36*
X244692Y29838D02*
Y25000D01*
X249531D01*
X249386Y25727D01*
X248940Y26805D01*
X248292Y27775D01*
X247467Y28599D01*
X246497Y29247D01*
X245420Y29694D01*
X244692Y29838D01*
D02*
G37*
G36*
X242692D02*
X241965Y29694D01*
X240888Y29247D01*
X239918Y28599D01*
X239093Y27775D01*
X238445Y26805D01*
X237999Y25727D01*
X237854Y25000D01*
X242692D01*
Y29838D01*
D02*
G37*
G36*
X224759Y29709D02*
X223256D01*
X221804Y29320D01*
X220502Y28568D01*
X219439Y27505D01*
X218688Y26204D01*
X218299Y24752D01*
Y23248D01*
X218688Y21797D01*
X219439Y20495D01*
X220502Y19432D01*
X221804Y18680D01*
X223256Y18291D01*
X224759D01*
X226211Y18680D01*
X227513Y19432D01*
X228576Y20495D01*
X229327Y21797D01*
X229716Y23248D01*
Y24752D01*
X229327Y26204D01*
X228576Y27505D01*
X227513Y28568D01*
X226211Y29320D01*
X224759Y29709D01*
D02*
G37*
G36*
X249531Y23000D02*
X244692D01*
Y18162D01*
X245420Y18306D01*
X246497Y18753D01*
X247467Y19401D01*
X248292Y20225D01*
X248940Y21195D01*
X249386Y22273D01*
X249531Y23000D01*
D02*
G37*
G36*
X242692D02*
X237854D01*
X237999Y22273D01*
X238445Y21195D01*
X239093Y20225D01*
X239918Y19401D01*
X240888Y18753D01*
X241965Y18306D01*
X242692Y18162D01*
Y23000D01*
D02*
G37*
%LPD*%
G36*
X244015Y260556D02*
X244507Y259703D01*
X245203Y259007D01*
X246056Y258515D01*
X247008Y258260D01*
X247992D01*
X248944Y258515D01*
X249797Y259007D01*
X250493Y259703D01*
X250687Y260040D01*
X251187Y259906D01*
Y257544D01*
X249061Y255417D01*
X248944Y255485D01*
X247992Y255740D01*
X247008D01*
X246056Y255485D01*
X245203Y254993D01*
X244507Y254296D01*
X244015Y253444D01*
X243760Y252492D01*
Y251508D01*
X244015Y250556D01*
X244507Y249704D01*
X245203Y249007D01*
X245540Y248813D01*
X245406Y248313D01*
X230322D01*
X230131Y248775D01*
X242044Y260687D01*
X243980D01*
X244015Y260556D01*
D02*
G37*
G36*
X245540Y245187D02*
X245203Y244993D01*
X244507Y244297D01*
X244015Y243444D01*
X243760Y242492D01*
Y241508D01*
X244015Y240556D01*
X244507Y239703D01*
X245203Y239007D01*
X245540Y238813D01*
X245406Y238313D01*
X210322D01*
X210131Y238775D01*
X217044Y245687D01*
X245406D01*
X245540Y245187D01*
D02*
G37*
G36*
X194789Y197694D02*
X195327Y197587D01*
X195805Y197682D01*
X196013Y197513D01*
X196182Y197305D01*
X196087Y196827D01*
X196194Y196289D01*
X196493Y195843D01*
X196194Y195396D01*
X196087Y194858D01*
X196194Y194321D01*
X196493Y193874D01*
X196194Y193427D01*
X196087Y192890D01*
X196194Y192352D01*
X196493Y191905D01*
X196194Y191459D01*
X196087Y190921D01*
X196194Y190384D01*
X196493Y189937D01*
X196194Y189490D01*
X196087Y188953D01*
X196194Y188415D01*
X196493Y187969D01*
X196194Y187522D01*
X196087Y186984D01*
X196194Y186447D01*
X196493Y186000D01*
X196194Y185553D01*
X196087Y185016D01*
X196194Y184478D01*
X196372Y184212D01*
X196345Y184194D01*
X195994Y183668D01*
X195870Y183047D01*
X195917Y182813D01*
X195515Y182313D01*
X192296D01*
X192197Y182813D01*
X192796Y183061D01*
X193439Y183704D01*
X193787Y184545D01*
Y185455D01*
X193439Y186296D01*
X192796Y186939D01*
X192045Y187250D01*
X192044Y187258D01*
Y187742D01*
X192045Y187750D01*
X192796Y188061D01*
X193439Y188704D01*
X193787Y189545D01*
Y190455D01*
X193439Y191296D01*
X192796Y191939D01*
X192045Y192250D01*
X192044Y192258D01*
Y192742D01*
X192045Y192750D01*
X192796Y193061D01*
X193439Y193704D01*
X193787Y194545D01*
Y195455D01*
X193439Y196296D01*
X192796Y196939D01*
X192076Y197238D01*
X192044Y197336D01*
X192015Y197694D01*
X192015Y197698D01*
X192455Y197938D01*
X192821Y197694D01*
X193358Y197587D01*
X193896Y197694D01*
X194343Y197993D01*
X194789Y197694D01*
D02*
G37*
G36*
X188884D02*
X189421Y197587D01*
X189959Y197694D01*
X190405Y197993D01*
X190802Y197728D01*
X190837Y197492D01*
X190814Y197192D01*
X190204Y196939D01*
X189561Y196296D01*
X189213Y195455D01*
Y194569D01*
X184909Y190265D01*
X178275D01*
X178084Y190727D01*
X180069Y192713D01*
X180955D01*
X181796Y193061D01*
X182439Y193704D01*
X182787Y194545D01*
Y195455D01*
X182439Y196296D01*
X181796Y196939D01*
X181383Y197110D01*
X181529Y197591D01*
X181547Y197587D01*
X182085Y197694D01*
X182531Y197993D01*
X182978Y197694D01*
X183516Y197587D01*
X184053Y197694D01*
X184500Y197993D01*
X184947Y197694D01*
X185484Y197587D01*
X186022Y197694D01*
X186469Y197993D01*
X186915Y197694D01*
X187453Y197587D01*
X187990Y197694D01*
X188437Y197993D01*
X188884Y197694D01*
D02*
G37*
G36*
X158514Y202756D02*
X157894D01*
Y197244D01*
X163771D01*
X163932Y197216D01*
X164197Y196827D01*
X164228Y196671D01*
X163828Y196171D01*
X157185D01*
X156787Y196570D01*
X156978Y197031D01*
X157319D01*
Y199000D01*
X154154D01*
X150988D01*
Y197031D01*
X152904D01*
X152941Y196844D01*
X153225Y196418D01*
X155714Y193930D01*
X156139Y193646D01*
X156642Y193546D01*
X163828D01*
X164228Y193046D01*
X164197Y192890D01*
X164304Y192352D01*
X164603Y191905D01*
X164304Y191459D01*
X164197Y190921D01*
X164304Y190384D01*
X164603Y189937D01*
X164304Y189490D01*
X164197Y188953D01*
X164304Y188415D01*
X164603Y187969D01*
X164304Y187522D01*
X164197Y186984D01*
X164304Y186447D01*
X164603Y186000D01*
X164304Y185553D01*
X164197Y185016D01*
X164304Y184478D01*
X164603Y184031D01*
X164304Y183585D01*
X164197Y183047D01*
X164304Y182510D01*
X164603Y182063D01*
X164304Y181616D01*
X164197Y181079D01*
X164304Y180541D01*
X164603Y180095D01*
X164304Y179648D01*
X164197Y179110D01*
X164304Y178573D01*
X164603Y178126D01*
X164304Y177679D01*
X164197Y177142D01*
X164304Y176604D01*
X164603Y176157D01*
X164304Y175711D01*
X164197Y175173D01*
X164304Y174636D01*
X164609Y174180D01*
X165065Y173875D01*
X165602Y173768D01*
X171508D01*
X171986Y173863D01*
X172194Y173694D01*
X172363Y173486D01*
X172268Y173008D01*
Y171368D01*
X163555D01*
X163053Y171268D01*
X162627Y170983D01*
X160931Y169287D01*
X160045D01*
X159204Y168939D01*
X158561Y168296D01*
X158213Y167455D01*
Y166545D01*
X158561Y165704D01*
X159204Y165061D01*
X160045Y164713D01*
X160778D01*
X161051Y164551D01*
X161213Y164278D01*
Y163545D01*
X161561Y162704D01*
X162204Y162061D01*
X163045Y161713D01*
X163955D01*
X164796Y162061D01*
X165422Y162687D01*
X174500D01*
X175002Y162787D01*
X175428Y163072D01*
X176570Y164214D01*
X176854Y164639D01*
X176954Y165142D01*
Y165328D01*
X177454Y165728D01*
X177610Y165697D01*
X177766Y165728D01*
X178266Y165328D01*
Y164622D01*
X176225Y162582D01*
X175941Y162156D01*
X175841Y161653D01*
Y159756D01*
X174201D01*
Y158313D01*
X172256D01*
Y159299D01*
X166744D01*
Y153394D01*
X172256D01*
Y155687D01*
X174201D01*
Y154244D01*
X174201D01*
Y153756D01*
X174201D01*
Y148244D01*
X180106D01*
Y153756D01*
X180106D01*
Y154244D01*
X180106D01*
Y159756D01*
X178466D01*
Y161110D01*
X180163Y162807D01*
X180619Y163025D01*
X182534Y161110D01*
Y159968D01*
X180681D01*
Y158000D01*
X183846D01*
Y156000D01*
X180681D01*
Y154032D01*
X180681D01*
Y153969D01*
X180681D01*
Y152000D01*
X183846D01*
Y151000D01*
X184846D01*
Y148031D01*
X187012D01*
Y148339D01*
X189500D01*
Y150520D01*
X190500D01*
Y151520D01*
X194453D01*
Y152291D01*
X198370D01*
X198403Y152122D01*
X198688Y151696D01*
X200466Y149918D01*
X197880Y147332D01*
X172466D01*
X172256Y147542D01*
Y152606D01*
X166744D01*
Y147332D01*
X151466D01*
X148832Y149966D01*
Y203034D01*
X150466Y204668D01*
X158514D01*
Y202756D01*
D02*
G37*
G36*
X235187Y195456D02*
Y191299D01*
X233744D01*
Y191299D01*
X233256D01*
Y191299D01*
X229404D01*
X229326Y191377D01*
X228900Y191662D01*
X228398Y191761D01*
X226307D01*
Y192677D01*
X222779D01*
Y192890D01*
X221813D01*
Y195000D01*
X221713Y195502D01*
X221428Y195928D01*
X221040Y196187D01*
X221036Y196223D01*
X221345Y196687D01*
X233956D01*
X235187Y195456D01*
D02*
G37*
G36*
X183842Y183203D02*
X183204Y182939D01*
X182561Y182296D01*
X182213Y181455D01*
Y180545D01*
X182561Y179704D01*
X183187Y179078D01*
Y179000D01*
X183287Y178498D01*
X183572Y178072D01*
X183869Y177775D01*
X183678Y177313D01*
X182500D01*
X181998Y177213D01*
X181572Y176928D01*
X180619Y175975D01*
X180334Y175550D01*
X180235Y175047D01*
Y174782D01*
X179735Y174382D01*
X179579Y174413D01*
X179041Y174306D01*
X178595Y174007D01*
X178148Y174306D01*
X177610Y174413D01*
X177073Y174306D01*
X176626Y174007D01*
X176179Y174306D01*
X175642Y174413D01*
X175104Y174306D01*
X174657Y174007D01*
X174211Y174306D01*
X173673Y174413D01*
X173195Y174318D01*
X172987Y174487D01*
X172818Y174695D01*
X172913Y175173D01*
X172806Y175711D01*
X172508Y176157D01*
X172806Y176604D01*
X172913Y177142D01*
X172806Y177679D01*
X172508Y178126D01*
X172806Y178573D01*
X172913Y179110D01*
X172806Y179648D01*
X172508Y180095D01*
X172806Y180541D01*
X172913Y181079D01*
X172806Y181616D01*
X172508Y182063D01*
X172806Y182510D01*
X172913Y183047D01*
X172882Y183203D01*
X173282Y183703D01*
X183742D01*
X183842Y183203D01*
D02*
G37*
G36*
X197890Y168461D02*
X197908D01*
Y168260D01*
X198085Y167367D01*
X198591Y166611D01*
X205403Y159799D01*
X205195Y159299D01*
X203404D01*
X200775Y161928D01*
X200349Y162213D01*
X199846Y162313D01*
X191500D01*
X190998Y162213D01*
X190572Y161928D01*
X190000Y161356D01*
X186049Y165307D01*
X186149Y165781D01*
X186615Y166005D01*
X186915Y165804D01*
X187453Y165697D01*
X187990Y165804D01*
X188437Y166103D01*
X188884Y165804D01*
X189421Y165697D01*
X189959Y165804D01*
X190405Y166103D01*
X190852Y165804D01*
X191390Y165697D01*
X191927Y165804D01*
X192374Y166103D01*
X192821Y165804D01*
X193358Y165697D01*
X193896Y165804D01*
X194343Y166103D01*
X194789Y165804D01*
X195327Y165697D01*
X195864Y165804D01*
X196320Y166109D01*
X196625Y166565D01*
X196732Y167102D01*
Y168349D01*
X197169Y168586D01*
X197232Y168592D01*
X197890Y168461D01*
D02*
G37*
G36*
X172268Y167102D02*
X172375Y166565D01*
X172680Y166109D01*
X173136Y165804D01*
X173045Y165313D01*
X165422D01*
X164796Y165939D01*
X163955Y166287D01*
X163222D01*
X162949Y166449D01*
X162787Y166722D01*
Y167431D01*
X164099Y168743D01*
X172268D01*
Y167102D01*
D02*
G37*
%LPC*%
G36*
X157319Y202969D02*
X155154D01*
Y201000D01*
X157319D01*
Y202969D01*
D02*
G37*
G36*
X153154D02*
X150988D01*
Y201000D01*
X153154D01*
Y202969D01*
D02*
G37*
G36*
X194453Y149520D02*
X191500D01*
Y148339D01*
X194453D01*
Y149520D01*
D02*
G37*
G36*
X182846Y150000D02*
X180681D01*
Y148031D01*
X182846D01*
Y150000D01*
D02*
G37*
%LPD*%
D11*
X173673Y201945D02*
Y210173D01*
X214500Y251000D02*
X227500D01*
X173673Y210173D02*
X214500Y251000D01*
X215500Y249000D02*
X228500D01*
X175642Y201945D02*
Y209142D01*
X215500Y249000D01*
X177610Y208110D02*
X216500Y247000D01*
X249500D01*
X177610Y201945D02*
Y208110D01*
X179579Y201945D02*
Y207079D01*
X209500Y237000D02*
X249500D01*
X179579Y207079D02*
X209500Y237000D01*
X189421Y206921D02*
X204500Y222000D01*
X206500D02*
X210500Y226000D01*
X204500Y222000D02*
X206500D01*
X183516Y201945D02*
Y208016D01*
X204500Y229000D02*
X212500D01*
X215621Y225879D01*
Y225879D02*
Y225879D01*
X183516Y208016D02*
X204500Y229000D01*
X185484Y205742D02*
X205621Y225879D01*
X185484Y201945D02*
Y205742D01*
X189421Y201945D02*
Y206921D01*
X191390Y201945D02*
Y205890D01*
X195500Y210000D02*
X203500D01*
X191390Y205890D02*
X195500Y210000D01*
X203500D02*
X208500Y215000D01*
X203031Y158012D02*
X204500Y156543D01*
X199846Y161000D02*
X202835Y158012D01*
X191500Y161000D02*
X199846D01*
X204500Y156346D02*
Y156543D01*
X202835Y158012D02*
X203031D01*
X190136Y158681D02*
Y159636D01*
X191500Y161000D01*
X189864Y158636D02*
X190090D01*
X190136Y158681D01*
X197390Y170283D02*
X197890D01*
X195382Y170000D02*
X197390D01*
X200445Y171945D02*
Y175173D01*
X210453Y183047D02*
X213500Y180000D01*
X207500Y179000D02*
Y183000D01*
X205642Y177142D02*
X207500Y179000D01*
X200445Y177142D02*
X205642D01*
X201587Y150654D02*
X203500D01*
X177154Y151000D02*
Y157000D01*
X163500Y164000D02*
X174500D01*
X175642Y165142D02*
Y170055D01*
X174500Y164000D02*
X175642Y165142D01*
X163555Y170055D02*
X173673D01*
X160500Y167000D02*
X163555Y170055D01*
X181547D02*
Y175047D01*
X182500Y176000D01*
X193500D01*
X194642Y177142D02*
X200445D01*
X193500Y176000D02*
X194642Y177142D01*
X191500Y178000D02*
X192610Y179110D01*
X200445D01*
X185500Y178000D02*
X191500D01*
X184500Y179000D02*
X185500Y178000D01*
X184500Y179000D02*
Y181000D01*
X197285D02*
X197329Y181044D01*
X200410D02*
X200445Y181079D01*
X197329Y181044D02*
X200410D01*
X188500Y181000D02*
X197285D01*
X185453Y188953D02*
X191500Y195000D01*
X168555Y188953D02*
X185453D01*
X188484Y186984D02*
X191500Y190000D01*
X168555Y186984D02*
X188484D01*
X168555Y185016D02*
X191484D01*
X191500Y185000D01*
X176421Y190921D02*
X180500Y195000D01*
X231500Y225000D02*
Y229000D01*
Y225000D02*
X236500Y220000D01*
X238117Y228617D02*
X238500Y229000D01*
Y209000D02*
Y229000D01*
X168555Y190921D02*
X176421D01*
X174390Y192890D02*
X176379Y194879D01*
Y195121D01*
X168555Y192890D02*
X174390D01*
X227500Y203000D02*
X236500Y212000D01*
X217500Y203000D02*
X227500D01*
X236500Y212000D02*
Y220000D01*
X205327Y196827D02*
X216500Y208000D01*
X200445Y196827D02*
X205327D01*
X216500Y208000D02*
X221500D01*
X227500Y206000D02*
X234500Y213000D01*
X200445Y192890D02*
X204443D01*
X217500Y206000D02*
X227500D01*
X204443Y192890D02*
X204838Y193285D01*
Y193338D01*
X217500Y206000D01*
X230500Y201000D02*
X238500Y209000D01*
X218500Y201000D02*
X230500D01*
X206453Y188953D02*
X218500Y201000D01*
X200445Y188953D02*
X206453D01*
X205421Y190921D02*
X217500Y203000D01*
X200445Y190921D02*
X205421D01*
X226500Y227000D02*
X234500Y219000D01*
Y213000D02*
Y219000D01*
X226500Y227000D02*
Y229000D01*
X252500Y238000D02*
Y244000D01*
X257500Y232000D02*
Y233000D01*
X252500Y238000D02*
X257500Y233000D01*
X252500Y227000D02*
X257500Y222000D01*
X252500Y227000D02*
Y234000D01*
X249500Y237000D02*
X252500Y234000D01*
X228500Y249000D02*
X241500Y262000D01*
X227500Y251000D02*
X243500Y267000D01*
X249500Y247000D02*
X252500Y244000D01*
X243500Y267000D02*
X249500D01*
X252500Y264000D01*
Y257000D02*
Y264000D01*
X247500Y252000D02*
X252500Y257000D01*
X241500Y262000D02*
X247500D01*
X221500Y208000D02*
X228500Y215000D01*
X200240Y171740D02*
X200445Y171945D01*
X195327Y170055D02*
X195382Y170000D01*
X216484Y180000D02*
X216760Y180276D01*
X213500Y180000D02*
X216484D01*
X200445Y183047D02*
X210453D01*
X218500Y198000D02*
X234500D01*
X236500Y196000D01*
X217020Y196520D02*
X218500Y198000D01*
X220500Y189724D02*
Y195000D01*
X217020Y190449D02*
Y196520D01*
X236500Y188347D02*
Y196000D01*
X223500Y186000D02*
X224500Y187000D01*
Y190449D01*
X211500Y186000D02*
X223500D01*
X210500Y185000D02*
X211500Y186000D01*
X200445Y185016D02*
X200461Y185000D01*
X210500D01*
X224500Y190449D02*
X228398D01*
X228835Y190012D01*
X229031D01*
X230500Y188543D01*
Y188347D02*
Y188543D01*
X208484Y186984D02*
X211949Y190449D01*
X217020D01*
X200445Y186984D02*
X208484D01*
X154154Y197346D02*
X156642Y194858D01*
X154154Y197346D02*
Y200000D01*
X156642Y194858D02*
X168555D01*
X167510Y196910D02*
X167594Y196827D01*
X167510Y196910D02*
Y197872D01*
X165382Y200000D02*
X167510Y197872D01*
X160846Y200000D02*
X165382D01*
X167594Y196827D02*
X168555D01*
X183516Y165984D02*
X189864Y159636D01*
X183516Y165984D02*
Y170055D01*
X199616Y152624D02*
X201587Y150654D01*
X197980Y154260D02*
X198935D01*
X199616Y153579D01*
Y152624D02*
Y153579D01*
X184327Y150520D02*
X190500D01*
X183846Y151000D02*
X184327Y150520D01*
X170153Y157000D02*
X177154D01*
X169500Y156346D02*
X170153Y157000D01*
X177154D02*
Y161653D01*
X179579Y164079D02*
Y170055D01*
X177154Y161653D02*
X179579Y164079D01*
X181547Y163953D02*
X183846Y161653D01*
Y157000D02*
Y161653D01*
X181547Y163953D02*
Y170055D01*
D17*
X204500Y149653D02*
D03*
Y156346D02*
D03*
X169500Y149653D02*
D03*
Y156346D02*
D03*
X218500Y166654D02*
D03*
Y173346D02*
D03*
X230500Y181653D02*
D03*
Y188347D02*
D03*
X236500Y181653D02*
D03*
Y188347D02*
D03*
D18*
X154154Y200000D02*
D03*
X160846D02*
D03*
X183846Y151000D02*
D03*
X177154D02*
D03*
X183846Y157000D02*
D03*
X177154D02*
D03*
X225153Y174000D02*
D03*
X231846D02*
D03*
D44*
X171500Y145000D02*
X197500D01*
X150500D02*
X171500D01*
X159500Y207000D02*
X160846Y205654D01*
Y200000D02*
Y205654D01*
X149500Y207000D02*
X159500D01*
X146500Y149000D02*
Y204000D01*
X149500Y207000D01*
X146500Y149000D02*
X150500Y145000D01*
X197500D02*
X198846D01*
X231846Y168347D02*
Y174000D01*
X230153Y166654D02*
X231846Y168347D01*
X218500Y166654D02*
X230153D01*
X218032Y167260D02*
X218500Y166791D01*
Y166654D02*
Y166791D01*
X211500Y167260D02*
X218032D01*
X200240Y168260D02*
Y171740D01*
Y168260D02*
X207500Y161000D01*
X209500D01*
X210500Y160000D01*
Y152000D02*
Y160000D01*
X208154Y149653D02*
X210500Y152000D01*
X204500Y149653D02*
X208154D01*
X169873Y146627D02*
X171500Y145000D01*
X198846D02*
X203835Y149988D01*
X169500Y149653D02*
X169873Y149280D01*
Y146627D02*
Y149280D01*
X183846Y151000D02*
Y157000D01*
X178500Y66500D02*
X188500D01*
X140500D02*
X178500D01*
X130500D02*
X140500D01*
X92500D02*
X130500D01*
X82500D02*
X92500D01*
X44500D02*
X82500D01*
X34500D02*
X44500D01*
X178500Y76500D02*
X188500D01*
X140500D02*
X178500D01*
X130500D02*
X140500D01*
X92500D02*
X130500D01*
X82500D02*
X92500D01*
X44500D02*
X82500D01*
X34500D02*
X44500D01*
D45*
X255500Y148000D02*
X258500D01*
X264500Y154000D01*
Y282000D01*
X261500Y285000D02*
X264500Y282000D01*
X221500Y285000D02*
X261500D01*
X218500Y277000D02*
Y282000D01*
X221500Y285000D01*
X211894Y173346D02*
X218500D01*
X211240Y174000D02*
X211894Y173346D01*
X221500Y174000D02*
X225153D01*
X218500Y172543D02*
X219468Y173512D01*
X197890Y170283D02*
X198783D01*
X206500Y174000D02*
X211240D01*
X204240Y171740D02*
X206500Y174000D01*
X200240Y171740D02*
X204240D01*
X198783Y170283D02*
X200240Y171740D01*
X219468Y173512D02*
X221012D01*
X221500Y174000D01*
X224240Y174913D02*
Y180276D01*
Y174913D02*
X225153Y174000D01*
X229122Y180276D02*
X229335Y180488D01*
X224240Y180276D02*
X229122D01*
X230500Y181457D02*
Y181653D01*
X229532Y180488D02*
X230500Y181457D01*
X229335Y180488D02*
X229532D01*
X230500Y181653D02*
X236500D01*
D47*
X47000Y41000D02*
X64000Y24000D01*
X14500Y57000D02*
X30500Y41000D01*
X47000D01*
X118500Y248000D02*
X130500D01*
X46500Y231000D02*
X101500D01*
X118500Y248000D01*
X130500D02*
X140500D01*
X14500Y199000D02*
X46500Y231000D01*
X14500Y57000D02*
Y199000D01*
X178500Y86500D02*
X188500D01*
X140500D02*
X178500D01*
X130500D02*
X140500D01*
X92500D02*
X130500D01*
X82500D02*
X92500D01*
X44500D02*
X82500D01*
X34500D02*
X44500D01*
X178500Y96500D02*
X188500D01*
X140500D02*
X178500D01*
X130500D02*
X140500D01*
X92500D02*
X130500D01*
X82500D02*
X92500D01*
X44500D02*
X82500D01*
X34500D02*
X44500D01*
D50*
X123500Y24000D02*
D03*
X103500D02*
D03*
X83500D02*
D03*
X64000D02*
D03*
X44000D02*
D03*
X24000D02*
D03*
X243692Y310650D02*
D03*
X224008D02*
D03*
X84086D02*
D03*
X104086D02*
D03*
X124086D02*
D03*
X24000D02*
D03*
X44000D02*
D03*
X64000D02*
D03*
X243692Y24000D02*
D03*
X224008D02*
D03*
D51*
X208500Y215000D02*
D03*
D52*
X218500D02*
D03*
X228500D02*
D03*
X178500Y268000D02*
D03*
X188500D02*
D03*
X178500Y258000D02*
D03*
X188500D02*
D03*
X178500Y248000D02*
D03*
X130500Y268000D02*
D03*
X140500D02*
D03*
X130500Y258000D02*
D03*
X140500D02*
D03*
X130500Y248000D02*
D03*
X82500Y268000D02*
D03*
X92500D02*
D03*
X82500Y258000D02*
D03*
X92500D02*
D03*
X82500Y248000D02*
D03*
X34500Y268000D02*
D03*
X44500D02*
D03*
X34500Y258000D02*
D03*
X44500D02*
D03*
X34500Y248000D02*
D03*
X247500Y262000D02*
D03*
X257500D02*
D03*
X247500Y252000D02*
D03*
X257500D02*
D03*
X247500Y242000D02*
D03*
X257500D02*
D03*
X247500Y232000D02*
D03*
X257500D02*
D03*
X247500Y222000D02*
D03*
X257500D02*
D03*
X247500Y212000D02*
D03*
X257500D02*
D03*
X247500Y202000D02*
D03*
X257500D02*
D03*
X247500Y192000D02*
D03*
X130500Y96500D02*
D03*
X140500D02*
D03*
X130500Y86500D02*
D03*
X140500D02*
D03*
X130500Y76500D02*
D03*
X140500D02*
D03*
X130500Y66500D02*
D03*
X178500Y96500D02*
D03*
X188500D02*
D03*
X178500Y86500D02*
D03*
X188500D02*
D03*
X178500Y76500D02*
D03*
X188500D02*
D03*
X178500Y66500D02*
D03*
X82500Y96500D02*
D03*
X92500D02*
D03*
X82500Y86500D02*
D03*
X92500D02*
D03*
X82500Y76500D02*
D03*
X92500D02*
D03*
X82500Y66500D02*
D03*
X34500Y96500D02*
D03*
X44500D02*
D03*
X34500Y86500D02*
D03*
X44500D02*
D03*
X34500Y76500D02*
D03*
X44500D02*
D03*
X34500Y66500D02*
D03*
D53*
X188500Y248000D02*
D03*
X140500D02*
D03*
X92500D02*
D03*
X44500D02*
D03*
X257500Y192000D02*
D03*
X140500Y66500D02*
D03*
X188500D02*
D03*
X92500D02*
D03*
X44500D02*
D03*
D54*
X220500Y195000D02*
D03*
X211877Y181606D02*
D03*
X226056Y296430D02*
D03*
X205621Y225879D02*
D03*
X215621Y225879D02*
D03*
X210500Y226000D02*
D03*
X255500Y148000D02*
D03*
X197500Y145000D02*
D03*
X163500Y164000D02*
D03*
X160500Y167000D02*
D03*
X191500Y195000D02*
D03*
X184500Y181000D02*
D03*
X188500D02*
D03*
X191500Y190000D02*
D03*
Y185000D02*
D03*
X180500Y195000D02*
D03*
X231500Y229000D02*
D03*
X238500D02*
D03*
X176379Y195121D02*
D03*
X226500Y229000D02*
D03*
X233500Y277000D02*
D03*
X218500D02*
D03*
D55*
X200445Y175173D02*
D03*
Y177142D02*
D03*
Y179110D02*
D03*
Y181079D02*
D03*
Y183047D02*
D03*
Y185016D02*
D03*
Y186984D02*
D03*
Y188953D02*
D03*
Y190921D02*
D03*
Y192890D02*
D03*
Y194858D02*
D03*
Y196827D02*
D03*
X168555D02*
D03*
Y194858D02*
D03*
Y192890D02*
D03*
Y190921D02*
D03*
Y188953D02*
D03*
Y186984D02*
D03*
Y185016D02*
D03*
Y183047D02*
D03*
Y181079D02*
D03*
Y179110D02*
D03*
Y177142D02*
D03*
Y175173D02*
D03*
D56*
X195327Y201945D02*
D03*
X193358D02*
D03*
X191390D02*
D03*
X189421D02*
D03*
X187453D02*
D03*
X185484D02*
D03*
X183516D02*
D03*
X181547D02*
D03*
X179579D02*
D03*
X177610D02*
D03*
X175642D02*
D03*
X173673D02*
D03*
Y170055D02*
D03*
X175642D02*
D03*
X177610D02*
D03*
X179579D02*
D03*
X181547D02*
D03*
X183516D02*
D03*
X185484D02*
D03*
X187453D02*
D03*
X189421D02*
D03*
X191390D02*
D03*
X193358D02*
D03*
X195327D02*
D03*
D57*
X190500Y150520D02*
D03*
Y158000D02*
D03*
X197980Y154260D02*
D03*
D58*
X211500Y167260D02*
D03*
Y174740D02*
D03*
D59*
X216760Y189724D02*
D03*
X220500D02*
D03*
X224240D02*
D03*
Y180276D02*
D03*
X216760D02*
D03*
M02*
