G04*
G04 #@! TF.GenerationSoftware,Altium Limited,Altium Designer,24.5.2 (23)*
G04*
G04 Layer_Color=8388736*
%FSLAX25Y25*%
%MOIN*%
G70*
G04*
G04 #@! TF.SameCoordinates,2268A734-3591-48FF-B187-AB4D2D4595D2*
G04*
G04*
G04 #@! TF.FilePolarity,Negative*
G04*
G01*
G75*
%ADD28R,0.04737X0.05131*%
%ADD29R,0.05131X0.04737*%
%ADD30O,0.03162X0.09461*%
%ADD31R,0.02375X0.05918*%
%ADD32R,0.18517X0.07296*%
%ADD33R,0.04737X0.03556*%
%ADD34R,0.07880X0.14967*%
%ADD35R,0.05124X0.14179*%
%ADD36R,0.05131X0.06902*%
%ADD37R,0.05131X0.06902*%
%ADD38R,0.14383X0.06902*%
%ADD39C,0.10642*%
%ADD40R,0.06706X0.06706*%
%ADD41C,0.06706*%
%ADD42R,0.06706X0.06706*%
%ADD43C,0.03800*%
D28*
X211500Y263347D02*
D03*
Y256653D02*
D03*
X205500Y256653D02*
D03*
Y263347D02*
D03*
X261500Y103654D02*
D03*
Y110346D02*
D03*
X235500Y103654D02*
D03*
Y110346D02*
D03*
X232500Y139347D02*
D03*
Y132653D02*
D03*
D29*
X204153Y250000D02*
D03*
X210846D02*
D03*
X243847Y288000D02*
D03*
X237154D02*
D03*
X209154D02*
D03*
X215846D02*
D03*
X251847Y136000D02*
D03*
X245153D02*
D03*
X236846Y47000D02*
D03*
X230153D02*
D03*
X210846Y271000D02*
D03*
X204153D02*
D03*
D30*
X233500Y270000D02*
D03*
X228500D02*
D03*
X223500D02*
D03*
X218500D02*
D03*
X233500Y251102D02*
D03*
X228500D02*
D03*
X223500D02*
D03*
X218500D02*
D03*
D31*
X225918Y290596D02*
D03*
X228477Y283509D02*
D03*
X223359D02*
D03*
D32*
X243790Y77576D02*
D03*
X208358D02*
D03*
D33*
X243500Y110740D02*
D03*
Y107000D02*
D03*
Y103260D02*
D03*
X253736Y110740D02*
D03*
Y107000D02*
D03*
Y103260D02*
D03*
D34*
X241740Y123768D02*
D03*
X255913D02*
D03*
D35*
X216210Y168414D02*
D03*
Y147390D02*
D03*
X245210Y168414D02*
D03*
Y147390D02*
D03*
D36*
X206445Y105713D02*
D03*
D37*
X215500D02*
D03*
X224555D02*
D03*
D38*
X215500Y132287D02*
D03*
D39*
X123500Y24000D02*
D03*
X103500D02*
D03*
X83500D02*
D03*
X64000D02*
D03*
X44000D02*
D03*
X24000D02*
D03*
X243692Y310650D02*
D03*
X224008D02*
D03*
X84086D02*
D03*
X104086D02*
D03*
X124086D02*
D03*
X24000D02*
D03*
X44000D02*
D03*
X64000D02*
D03*
X243692Y24000D02*
D03*
X224008D02*
D03*
D40*
X208500Y215000D02*
D03*
D41*
X218500D02*
D03*
X228500D02*
D03*
X178500Y268000D02*
D03*
X188500D02*
D03*
X178500Y258000D02*
D03*
X188500D02*
D03*
X178500Y248000D02*
D03*
X130500Y268000D02*
D03*
X140500D02*
D03*
X130500Y258000D02*
D03*
X140500D02*
D03*
X130500Y248000D02*
D03*
X82500Y268000D02*
D03*
X92500D02*
D03*
X82500Y258000D02*
D03*
X92500D02*
D03*
X82500Y248000D02*
D03*
X34500Y268000D02*
D03*
X44500D02*
D03*
X34500Y258000D02*
D03*
X44500D02*
D03*
X34500Y248000D02*
D03*
X247500Y262000D02*
D03*
X257500D02*
D03*
X247500Y252000D02*
D03*
X257500D02*
D03*
X247500Y242000D02*
D03*
X257500D02*
D03*
X247500Y232000D02*
D03*
X257500D02*
D03*
X247500Y222000D02*
D03*
X257500D02*
D03*
X247500Y212000D02*
D03*
X257500D02*
D03*
X247500Y202000D02*
D03*
X257500D02*
D03*
X247500Y192000D02*
D03*
X130500Y96500D02*
D03*
X140500D02*
D03*
X130500Y86500D02*
D03*
X140500D02*
D03*
X130500Y76500D02*
D03*
X140500D02*
D03*
X130500Y66500D02*
D03*
X178500Y96500D02*
D03*
X188500D02*
D03*
X178500Y86500D02*
D03*
X188500D02*
D03*
X178500Y76500D02*
D03*
X188500D02*
D03*
X178500Y66500D02*
D03*
X82500Y96500D02*
D03*
X92500D02*
D03*
X82500Y86500D02*
D03*
X92500D02*
D03*
X82500Y76500D02*
D03*
X92500D02*
D03*
X82500Y66500D02*
D03*
X34500Y96500D02*
D03*
X44500D02*
D03*
X34500Y86500D02*
D03*
X44500D02*
D03*
X34500Y76500D02*
D03*
X44500D02*
D03*
X34500Y66500D02*
D03*
D42*
X188500Y248000D02*
D03*
X140500D02*
D03*
X92500D02*
D03*
X44500D02*
D03*
X257500Y192000D02*
D03*
X140500Y66500D02*
D03*
X188500D02*
D03*
X92500D02*
D03*
X44500D02*
D03*
D43*
X220500Y195000D02*
D03*
X211877Y181606D02*
D03*
X226056Y296430D02*
D03*
X205621Y225879D02*
D03*
X215621Y225879D02*
D03*
X210500Y226000D02*
D03*
X255500Y148000D02*
D03*
X197500Y145000D02*
D03*
X163500Y164000D02*
D03*
X160500Y167000D02*
D03*
X191500Y195000D02*
D03*
X184500Y181000D02*
D03*
X188500D02*
D03*
X191500Y190000D02*
D03*
Y185000D02*
D03*
X180500Y195000D02*
D03*
X231500Y229000D02*
D03*
X238500D02*
D03*
X176379Y195121D02*
D03*
X226500Y229000D02*
D03*
X233500Y277000D02*
D03*
X218500D02*
D03*
M02*
