G04*
G04 #@! TF.GenerationSoftware,Altium Limited,Altium Designer,24.5.2 (23)*
G04*
G04 Layer_Color=255*
%FSLAX25Y25*%
%MOIN*%
G70*
G04*
G04 #@! TF.SameCoordinates,CB4C24F7-EE71-4198-96C3-8168C5EFC23F*
G04*
G04*
G04 #@! TF.FilePolarity,Positive*
G04*
G01*
G75*
%ADD18R,0.03937X0.04331*%
%ADD21R,0.04331X0.03937*%
%ADD24O,0.08661X0.02362*%
%ADD28R,0.05906X0.05118*%
%ADD64R,0.05906X0.05906*%
%ADD65C,0.05906*%
%ADD66C,0.07874*%
%ADD67R,0.05906X0.05906*%
%ADD70R,0.05118X0.05906*%
%ADD71R,0.05709X0.02165*%
%ADD72R,0.02165X0.05709*%
%ADD73R,0.03268X0.02480*%
%ADD74R,0.05906X0.02362*%
%ADD75R,0.06102X0.13583*%
%ADD76R,0.06102X0.04331*%
%ADD77R,0.06102X0.04331*%
%ADD78R,0.09252X0.16142*%
D18*
X9000Y43846D02*
D03*
Y37154D02*
D03*
Y63846D02*
D03*
Y57153D02*
D03*
X109500Y24847D02*
D03*
Y18154D02*
D03*
X117000Y39347D02*
D03*
Y32654D02*
D03*
D21*
X60347Y56000D02*
D03*
X53654D02*
D03*
X76346Y11500D02*
D03*
X69653D02*
D03*
X58846Y113000D02*
D03*
X52153D02*
D03*
X60347Y45000D02*
D03*
X53654D02*
D03*
X90153Y61500D02*
D03*
X96846D02*
D03*
X63153Y17500D02*
D03*
X69846D02*
D03*
X117154Y26500D02*
D03*
X123846D02*
D03*
X63153Y24000D02*
D03*
X69846D02*
D03*
X17154Y111000D02*
D03*
X23846D02*
D03*
X126154Y105500D02*
D03*
X132846D02*
D03*
D24*
X109449Y83500D02*
D03*
Y78500D02*
D03*
Y73500D02*
D03*
Y68500D02*
D03*
X90551Y83500D02*
D03*
Y78500D02*
D03*
Y73500D02*
D03*
Y68500D02*
D03*
D28*
X157000Y20240D02*
D03*
Y12760D02*
D03*
X170500Y31500D02*
D03*
Y24020D02*
D03*
D64*
X104500Y61500D02*
D03*
X7500Y12000D02*
D03*
X189000D02*
D03*
X47000Y56000D02*
D03*
X17000Y44500D02*
D03*
X92500Y44000D02*
D03*
D65*
X104500Y51500D02*
D03*
X134500Y61500D02*
D03*
Y51500D02*
D03*
X7500Y22000D02*
D03*
X17500Y12000D02*
D03*
Y22000D02*
D03*
X27500Y12000D02*
D03*
Y22000D02*
D03*
X37500Y12000D02*
D03*
Y22000D02*
D03*
X189000D02*
D03*
X199000Y12000D02*
D03*
Y22000D02*
D03*
X209000Y12000D02*
D03*
Y22000D02*
D03*
X17000Y66000D02*
D03*
Y56000D02*
D03*
X47000Y66000D02*
D03*
Y34500D02*
D03*
Y44500D02*
D03*
X17000Y34500D02*
D03*
X82500Y44000D02*
D03*
X72500D02*
D03*
X134500Y74000D02*
D03*
D66*
X15500Y119500D02*
D03*
X25500D02*
D03*
X45500D02*
D03*
X65500D02*
D03*
D67*
X134500Y84000D02*
D03*
D70*
X116260Y19000D02*
D03*
X123740D02*
D03*
X149760Y28000D02*
D03*
X157240D02*
D03*
X165260Y12500D02*
D03*
X172740D02*
D03*
X149760Y40000D02*
D03*
X157240D02*
D03*
X164260D02*
D03*
X171740D02*
D03*
X16760Y103500D02*
D03*
X24240D02*
D03*
X125760Y112500D02*
D03*
X133240D02*
D03*
X125760Y120500D02*
D03*
X133240D02*
D03*
D71*
X124126Y11000D02*
D03*
X114874D02*
D03*
X141626Y16000D02*
D03*
X132374D02*
D03*
X141626Y32000D02*
D03*
X132374D02*
D03*
Y40000D02*
D03*
X141626D02*
D03*
X132248Y24000D02*
D03*
X141500D02*
D03*
D72*
X110000Y31874D02*
D03*
Y41126D02*
D03*
D73*
X124000Y31610D02*
D03*
Y40390D02*
D03*
D74*
X70240Y37240D02*
D03*
Y29760D02*
D03*
X62760Y33500D02*
D03*
D75*
X115787Y110000D02*
D03*
D76*
X89213Y119055D02*
D03*
Y110000D02*
D03*
D77*
Y100945D02*
D03*
D78*
X69803Y100500D02*
D03*
X45197D02*
D03*
M02*
