G04*
G04 #@! TF.GenerationSoftware,Altium Limited,Altium Designer,24.5.2 (23)*
G04*
G04 Layer_Color=32768*
%FSLAX25Y25*%
%MOIN*%
G70*
G04*
G04 #@! TF.SameCoordinates,2268A734-3591-48FF-B187-AB4D2D4595D2*
G04*
G04*
G04 #@! TF.FilePolarity,Positive*
G04*
G01*
G75*
%ADD66C,0.00394*%
%ADD67C,0.00197*%
%ADD68C,0.00200*%
G36*
X204066Y57300D02*
X204065Y57397D01*
X203927Y57533D01*
X203733Y57533D01*
X203595Y57397D01*
X203594Y57300D01*
X203594Y57300D01*
X203595Y57203D01*
X203733Y57067D01*
X203927Y57067D01*
X204065Y57203D01*
X204066Y57300D01*
X204066Y57300D01*
D02*
G37*
G36*
X203830Y79446D02*
X217019D01*
Y75706D01*
X203830D01*
Y79446D01*
D01*
D02*
G37*
G36*
X235129D02*
X248318D01*
Y75706D01*
X235129D01*
Y79446D01*
D01*
D02*
G37*
G36*
X241183Y115894D02*
X241179Y115989D01*
X241042Y116121D01*
X240852Y116121D01*
X240715Y115989D01*
X240711Y115894D01*
X240715Y115799D01*
X240852Y115667D01*
X241042Y115667D01*
X241179Y115799D01*
X241183Y115894D01*
X241183Y115894D01*
D02*
G37*
G36*
X240952Y116878D02*
Y130658D01*
X244693D01*
Y116878D01*
X240952D01*
D01*
D02*
G37*
G36*
X256701Y130657D02*
Y116878D01*
X252961D01*
Y130657D01*
X256701D01*
D01*
D02*
G37*
G36*
X214931Y143596D02*
Y153832D01*
X217490D01*
Y143596D01*
X214931D01*
D01*
D02*
G37*
G36*
X229202Y143832D02*
X229107Y143828D01*
X228975Y143691D01*
Y143501D01*
X229107Y143364D01*
X229202Y143360D01*
X229297Y143364D01*
X229429Y143501D01*
Y143691D01*
X229297Y143828D01*
X229202Y143832D01*
X229202D01*
D02*
G37*
G36*
X214931Y162101D02*
Y172338D01*
X217490D01*
Y162101D01*
X214931D01*
D01*
D02*
G37*
G36*
X243931Y143596D02*
Y153832D01*
X246490D01*
Y143596D01*
X243931D01*
D01*
D02*
G37*
G36*
X258202Y143832D02*
X258107Y143828D01*
X257975Y143691D01*
Y143501D01*
X258107Y143364D01*
X258202Y143360D01*
X258297Y143364D01*
X258429Y143501D01*
Y143691D01*
X258297Y143828D01*
X258202Y143832D01*
X258202D01*
D02*
G37*
G36*
X243931Y162101D02*
Y172338D01*
X246490D01*
Y162101D01*
X243931D01*
D01*
D02*
G37*
D66*
X182531Y186000D02*
X186469D01*
X184500Y184031D02*
Y187969D01*
X192272Y154260D02*
X196209D01*
X194240Y152291D02*
Y156228D01*
X213413Y192874D02*
X227587D01*
X213413Y177126D02*
X227587D01*
X213413D02*
Y192874D01*
X227587Y177126D02*
Y192874D01*
X220500Y183031D02*
Y186969D01*
X218531Y185000D02*
X222468D01*
X224031Y260551D02*
X227969D01*
X226000Y258583D02*
Y262520D01*
X236827Y245787D02*
Y275315D01*
X215173Y245787D02*
Y275315D01*
X236827D01*
X215173Y245787D02*
X236827D01*
X223950Y287052D02*
X227887D01*
X225918Y285084D02*
Y289021D01*
D67*
X164028Y165528D02*
Y206472D01*
X204972Y165528D02*
Y206472D01*
X164028D02*
X204972D01*
X164028Y165528D02*
X204972D01*
X186563Y147370D02*
Y161150D01*
X201917Y147370D02*
Y161150D01*
X186563Y147370D02*
X201917D01*
X186563Y161150D02*
X201917D01*
X231233Y279966D02*
Y294139D01*
X220603Y279966D02*
Y294139D01*
X231233D01*
X220603Y279966D02*
X231233D01*
D68*
X246350Y57300D02*
Y97851D01*
X213909Y57300D02*
X246350D01*
X205799Y65410D02*
X213909Y57300D01*
X205799Y65410D02*
Y89741D01*
X213909Y97851D01*
X246350D01*
X240953Y115894D02*
Y131642D01*
X256701D01*
Y115894D02*
Y131642D01*
X240953Y115894D02*
X256701D01*
X203218Y150106D02*
Y170894D01*
Y150106D02*
X208415Y144910D01*
X224005D01*
X229202Y150106D01*
Y170894D01*
X203218D02*
X229202D01*
X232218Y150106D02*
Y170894D01*
Y150106D02*
X237415Y144910D01*
X253005D01*
X258202Y150106D01*
Y170894D01*
X232218D02*
X258202D01*
M02*
