G04*
G04 #@! TF.GenerationSoftware,Altium Limited,Altium Designer,24.5.2 (23)*
G04*
G04 Layer_Color=16711935*
%FSLAX25Y25*%
%MOIN*%
G70*
G04*
G04 #@! TF.SameCoordinates,2268A734-3591-48FF-B187-AB4D2D4595D2*
G04*
G04*
G04 #@! TF.FilePolarity,Positive*
G04*
G01*
G75*
%ADD11C,0.01000*%
D11*
X131217Y24000D02*
G03*
X131217Y24000I-7874J0D01*
G01*
X91216D02*
G03*
X91216Y24000I-7874J0D01*
G01*
X111374D02*
G03*
X111374Y24000I-7874J0D01*
G01*
X71716D02*
G03*
X71716Y24000I-7874J0D01*
G01*
X31716D02*
G03*
X31716Y24000I-7874J0D01*
G01*
X51874D02*
G03*
X51874Y24000I-7874J0D01*
G01*
X251567Y310650D02*
G03*
X251567Y310650I-7874J0D01*
G01*
X231724D02*
G03*
X231724Y310650I-7874J0D01*
G01*
X92118D02*
G03*
X92118Y310650I-7874J0D01*
G01*
X132118D02*
G03*
X132118Y310650I-7874J0D01*
G01*
X111960D02*
G03*
X111960Y310650I-7874J0D01*
G01*
X32032D02*
G03*
X32032Y310650I-7874J0D01*
G01*
X72031D02*
G03*
X72031Y310650I-7874J0D01*
G01*
X51874D02*
G03*
X51874Y310650I-7874J0D01*
G01*
X251724Y24000D02*
G03*
X251724Y24000I-7874J0D01*
G01*
X231881D02*
G03*
X231881Y24000I-7874J0D01*
G01*
X119000Y17500D02*
X129750Y28250D01*
X117500Y19500D02*
X128000Y30000D01*
X79000Y17500D02*
X89750Y28250D01*
X77500Y19500D02*
X88000Y30000D01*
X99500Y30500D02*
X110000Y20000D01*
X97500Y28500D02*
X108000Y18000D01*
X59500Y17500D02*
X70250Y28250D01*
X58000Y19500D02*
X68500Y30000D01*
X19500Y17500D02*
X30250Y28250D01*
X18000Y19500D02*
X28500Y30000D01*
X40000Y30500D02*
X50500Y20000D01*
X38000Y28500D02*
X48500Y18000D01*
X219850Y317150D02*
X230350Y306650D01*
X228350Y304150D02*
Y304650D01*
X217850Y315150D02*
X228350Y304650D01*
X239350Y304150D02*
X250100Y314900D01*
X237850Y306150D02*
X248350Y316650D01*
X77836Y306400D02*
X88586Y317150D01*
X79586Y304650D02*
X90086Y315150D01*
X117836Y306400D02*
X128586Y317150D01*
X119586Y304650D02*
X130086Y315150D01*
X97586Y314650D02*
X108086Y304150D01*
X99586Y316650D02*
X110086Y306150D01*
X17750Y306400D02*
X28500Y317150D01*
X19500Y304650D02*
X30000Y315150D01*
X57750Y306400D02*
X68500Y317150D01*
X59500Y304650D02*
X70000Y315150D01*
X37500Y314650D02*
X48000Y304150D01*
X39500Y316650D02*
X50000Y306150D01*
X193445Y57000D02*
Y273535D01*
X145445Y57000D02*
Y273535D01*
X146256Y57000D02*
Y273535D01*
X193445D01*
X146256Y57000D02*
X193445D01*
X98256D02*
Y273535D01*
X145445D01*
X98256Y57000D02*
X145445D01*
X50256D02*
Y273535D01*
X97445Y57000D02*
Y273535D01*
X50256D02*
X97445D01*
X50256Y57000D02*
X97445D01*
X2256D02*
Y273535D01*
X49445Y57000D02*
Y273535D01*
X2256D02*
X49445D01*
X2256Y57000D02*
X49445D01*
X219350Y18000D02*
X229850Y28500D01*
X217600Y19750D02*
X228350Y30500D01*
X239350Y30000D02*
X249850Y19500D01*
X239350Y30000D02*
Y30500D01*
X237350Y28000D02*
X247850Y17500D01*
M02*
