M48
;Layer_Color=9474304
;FILE_FORMAT=2:4
INCH
;TYPE=PLATED
T01F00S00C0.0300
T02F00S00C0.0354
%
T01
X016886Y023828
Y025600
Y027871
Y029643
X015114
Y027871
Y025600
Y023828
Y031914
Y033686
X016886
Y031914
T02
X023300Y023800
X024300
X025300
X026300
X027300
X028300
Y026800
X027300
X026300
X025300
X024300
X023300
X023500Y031900
X022500
X021500
Y032900
X022500
X023500
X024500
Y031900
X025500
Y032900
X026500
Y031900
X027500
Y032900
X028500
Y031900
M30
