%FSDAX24Y24*%
%MOIN*%
%SFA1B1*%

%IPPOS*%
%ADD9500C,0.010000*%
%ADD9501C,0.023600*%
%ADD9502C,0.031500*%
%ADD9503C,0.035400*%
%ADD9504C,0.039400*%
%ADD9505C,0.043300*%
%ADD9506C,0.047200*%
%LNde-020224-1*%
%LPD*%
G54D9500*
X086300Y014725D03*
X078750Y028675D03*
X078500Y029075D03*
X078150Y029525D03*
X079250Y030250D03*
X076400Y029000D03*
X072800Y028711D03*
Y028250D03*
Y027800D03*
X071000Y028900D03*
X070450Y028450D03*
X070050Y028750D03*
X069300Y028550D03*
Y029350D03*
Y030000D03*
X069600Y029700D03*
X068550Y027850D03*
X068050D03*
X067550D03*
X066315Y028900D03*
X062800Y029125D03*
Y029600D03*
Y028650D03*
X062850Y026175D03*
X063500D03*
X064400Y026125D03*
X067300Y024450D03*
X067850D03*
X070250Y026150D03*
Y026650D03*
Y027150D03*
X062250Y026175D03*
X055650Y027550D03*
X055100D03*
X043975D03*
X038300Y027575D03*
X057850Y031925D03*
X058550D03*
X058700Y043900D03*
X056350D03*
X064625Y031950D03*
X067000Y031850D03*
X068300Y033000D03*
X069850Y033450D03*
X072700Y031850D03*
G54D9501*
X047327Y024550D03*
Y027550D03*
X050855D03*
X051855D03*
X052855D03*
Y024550D03*
X051855D03*
X050855D03*
X046328D03*
X045328D03*
Y027550D03*
X046328D03*
X041800D03*
X040800D03*
X039800D03*
Y024550D03*
X040800D03*
X041800D03*
X036272D03*
X035272D03*
X034272D03*
Y027550D03*
X035272D03*
X036272D03*
X030744D03*
X029744D03*
X028744D03*
Y024550D03*
X029744D03*
X030744D03*
X025216D03*
X024216D03*
X023216D03*
Y027550D03*
X024216D03*
X025216D03*
X019688D03*
X018688D03*
X017688D03*
Y024550D03*
X018688D03*
X019688D03*
X014161D03*
X013161D03*
X012161D03*
Y027550D03*
X013161D03*
X014161D03*
X014150Y032100D03*
X013150D03*
X012150D03*
Y035100D03*
X013150D03*
X014150D03*
X017678D03*
X018678D03*
X019678D03*
Y032100D03*
X018678D03*
X017678D03*
X023206D03*
X024206D03*
X025206D03*
Y035100D03*
X024206D03*
X023206D03*
X028733D03*
X029733D03*
X030733D03*
Y032100D03*
X029733D03*
X028733D03*
X034261D03*
X035261D03*
X036261D03*
Y035100D03*
X035261D03*
X034261D03*
X039789D03*
X040789D03*
X041789D03*
Y032100D03*
X040789D03*
X039789D03*
X045317D03*
X046317D03*
Y035100D03*
X045317D03*
X047317D03*
Y032100D03*
X050845D03*
X051845D03*
X052845D03*
Y035100D03*
X051845D03*
X050845D03*
G54D9502*
X081013Y035400D03*
X081800D03*
G54D9503*
X065981Y020500D03*
X066982D03*
Y023500D03*
X065981D03*
X071132D03*
X072132D03*
Y020500D03*
X071132D03*
X076266Y020550D03*
X077266D03*
Y023550D03*
X076266D03*
X061831D03*
X060831D03*
Y020550D03*
X061831D03*
X058200Y024550D03*
X057200D03*
Y027550D03*
X058200D03*
X056850Y032100D03*
X055850D03*
Y035100D03*
X056850D03*
X062884Y035900D03*
X063884D03*
Y038900D03*
X062884D03*
X067984D03*
X068984D03*
Y035900D03*
X067984D03*
X072984D03*
X073984D03*
Y038900D03*
X072984D03*
X073400Y032950D03*
X072400D03*
X074400D03*
X078218Y035900D03*
X079219D03*
Y038900D03*
X078218D03*
G54D9504*
X047822Y016300D03*
X048428Y017600D03*
X049744D03*
X050350Y016300D03*
X053350D03*
X053956Y017600D03*
X052727Y019450D03*
X051727D03*
X050727D03*
X050350Y021100D03*
X047822D03*
X047199Y019450D03*
X053350Y021100D03*
X044822D03*
X045199Y019450D03*
X046199D03*
X044216Y017600D03*
X042901D03*
X042294Y016300D03*
X044822D03*
X039294D03*
X038688Y017600D03*
X037373D03*
X036767Y016300D03*
X033767D03*
X033160Y017600D03*
X031845D03*
X034144Y019450D03*
X035144D03*
X036144D03*
X036767Y021100D03*
X039294D03*
X039671Y019450D03*
X040671D03*
X041671D03*
X042294Y021100D03*
X033767D03*
X031239D03*
X030616Y019450D03*
X029616D03*
X028616D03*
X028239Y021100D03*
X025711D03*
X025088Y019450D03*
X024088D03*
X023088D03*
X022711Y021100D03*
X020183D03*
X019560Y019450D03*
X018560D03*
X017560D03*
X017183Y021100D03*
X016577Y017600D03*
X017183Y016300D03*
X020183D03*
X020789Y017600D03*
X022105D03*
X022711Y016300D03*
X025711D03*
X026317Y017600D03*
X027632D03*
X028239Y016300D03*
X031239D03*
X014655D03*
X015262Y017600D03*
X014032Y019450D03*
X013032D03*
X012032D03*
X011655Y021100D03*
X014655D03*
X011049Y017600D03*
X011655Y016300D03*
Y038550D03*
X012278Y040200D03*
X013278D03*
X014278D03*
X014655Y038550D03*
X015262Y042050D03*
X014655Y043350D03*
X011655D03*
X011049Y042050D03*
X016577D03*
X017183Y043350D03*
X020183D03*
X020789Y042050D03*
X022105D03*
X022711Y043350D03*
X025711D03*
X026317Y042050D03*
X027632D03*
X028239Y043350D03*
X031239D03*
X030862Y040200D03*
X029862D03*
X028862D03*
X028239Y038550D03*
X025711D03*
X025334Y040200D03*
X024334D03*
X023334D03*
X022711Y038550D03*
X020183D03*
X019806Y040200D03*
X018806D03*
X017806D03*
X017183Y038550D03*
X031239D03*
X033767D03*
X034390Y040200D03*
X035390D03*
X036390D03*
X036767Y038550D03*
X039294D03*
X039917Y040200D03*
X040917D03*
X041917D03*
X042294Y038550D03*
X044822D03*
X045445Y040200D03*
X046445D03*
X044216Y042050D03*
X042901D03*
X042294Y043350D03*
X044822D03*
X039294D03*
X038688Y042050D03*
X037373D03*
X036767Y043350D03*
X033767D03*
X033160Y042050D03*
X031845D03*
X048428D03*
X049744D03*
X050350Y043350D03*
X047822D03*
X047445Y040200D03*
X047822Y038550D03*
X050350D03*
X050973Y040200D03*
X051973D03*
X052973D03*
X053350Y038550D03*
X053956Y042050D03*
X053350Y043350D03*
G54D9505*
X083250Y040167D03*
X084250D03*
X085250D03*
G54D9506*
X025710Y012350D03*
X027679D03*
X029647D03*
X031616D03*
X033584D03*
X035553D03*
X037521D03*
X039490D03*
X050866Y012400D03*
X052834D03*
X061347D03*
X063316D03*
X066397D03*
X068366D03*
X071547D03*
X073516D03*
X076732D03*
X078700D03*
X083300Y012350D03*
X085268D03*
Y047000D03*
X083300D03*
X078753D03*
X076784D03*
X073468D03*
X071500D03*
X068353D03*
X066384D03*
X063319D03*
X061350D03*
X052834Y047050D03*
X050866D03*
X039490D03*
X037521D03*
X035553D03*
X033584D03*
X031616D03*
X029647D03*
X027679D03*
X025710D03*
M02*