%FSDAX24Y24*%
%MOIN*%
%SFA1B1*%

%IPPOS*%
%ADD87C,0.002000*%
%ADD88C,0.002700*%
%LNde-020224-1*%
%LPD*%
G54D87*
X085189Y012270D02*
Y012430D01*
X085349*
Y012270*
X085189*
X083220D02*
Y012430D01*
X083380*
Y012270*
X083220*
X071467Y012320D02*
Y012480D01*
X071627*
Y012320*
X071467*
X073436D02*
Y012480D01*
X073596*
Y012320*
X073436*
X066317D02*
Y012480D01*
X066477*
Y012320*
X066317*
X068286D02*
Y012480D01*
X068446*
Y012320*
X068286*
X053350Y016220D02*
X053270Y016380D01*
X053430*
X053350Y016220*
X050350D02*
X050270Y016380D01*
X050430*
X050350Y016220*
X053956Y017520D02*
X053876Y017680D01*
X054036*
X053956Y017520*
X049744D02*
X049664Y017680D01*
X049824*
X049744Y017520*
X053350Y021020D02*
X053270Y021180D01*
X053430*
X053350Y021020*
X050350D02*
X050270Y021180D01*
X050430*
X050350Y021020*
X050727Y019370D02*
X050647Y019530D01*
X050807*
X050727Y019370*
X051727D02*
X051647Y019530D01*
X051807*
X051727Y019370*
X052727D02*
X052647Y019530D01*
X052807*
X052727Y019370*
X025630Y012270D02*
Y012430D01*
X025790*
Y012270*
X025630*
X027599D02*
Y012430D01*
X027759*
Y012270*
X027599*
X029567D02*
Y012430D01*
X029727*
Y012270*
X029567*
X031536D02*
Y012430D01*
X031696*
Y012270*
X031536*
X033504D02*
Y012430D01*
X033664*
Y012270*
X033504*
X035473D02*
Y012430D01*
X035633*
Y012270*
X035473*
X039410D02*
Y012430D01*
X039570*
Y012270*
X039410*
X037441D02*
Y012430D01*
X037601*
Y012270*
X037441*
X050786Y012320D02*
Y012480D01*
X050946*
Y012320*
X050786*
X052754D02*
Y012480D01*
X052914*
Y012320*
X052754*
X061267D02*
Y012480D01*
X061427*
Y012320*
X061267*
X063236D02*
Y012480D01*
X063396*
Y012320*
X063236*
X050786Y046970D02*
Y047130D01*
X050946*
Y046970*
X050786*
X052754D02*
Y047130D01*
X052914*
Y046970*
X052754*
X063239Y046920D02*
Y047080D01*
X063398*
Y046920*
X063239*
X061270D02*
Y047080D01*
X061430*
Y046920*
X061270*
X068273D02*
Y047080D01*
X068433*
Y046920*
X068273*
X066304D02*
Y047080D01*
X066464*
Y046920*
X066304*
X073389D02*
Y047080D01*
X073548*
Y046920*
X073389*
X071420D02*
Y047080D01*
X071580*
Y046920*
X071420*
X078673D02*
Y047080D01*
X078833*
Y046920*
X078673*
X076704D02*
Y047080D01*
X076864*
Y046920*
X076704*
X085189D02*
Y047080D01*
X085349*
Y046920*
X085189*
X083220D02*
Y047080D01*
X083380*
Y046920*
X083220*
X047445Y040120D02*
X047365Y040280D01*
X047525*
X047445Y040120*
X046445D02*
X046365Y040280D01*
X046525*
X046445Y040120*
X045445D02*
X045365Y040280D01*
X045525*
X045445Y040120*
X044216Y041970D02*
X044136Y042130D01*
X044296*
X044216Y041970*
X048428D02*
X048348Y042130D01*
X048508*
X048428Y041970*
X044822Y043270D02*
X044742Y043430D01*
X044902*
X044822Y043270*
X047822D02*
X047742Y043430D01*
X047902*
X047822Y043270*
X039294D02*
X039214Y043430D01*
X039374*
X039294Y043270*
X042294D02*
X042214Y043430D01*
X042374*
X042294Y043270*
X041917Y040120D02*
X041837Y040280D01*
X041997*
X041917Y040120*
X040917D02*
X040837Y040280D01*
X040997*
X040917Y040120*
X039917D02*
X039837Y040280D01*
X039997*
X039917Y040120*
X038688Y041970D02*
X038608Y042130D01*
X038768*
X038688Y041970*
X042901D02*
X042821Y042130D01*
X042981*
X042901Y041970*
X033160D02*
X033080Y042130D01*
X033240*
X033160Y041970*
X037373D02*
X037293Y042130D01*
X037453*
X037373Y041970*
X036390Y040120D02*
X036310Y040280D01*
X036470*
X036390Y040120*
X035390D02*
X035310Y040280D01*
X035470*
X035390Y040120*
X034390D02*
X034310Y040280D01*
X034470*
X034390Y040120*
X028239Y038470D02*
X028159Y038630D01*
X028319*
X028239Y038470*
X031239D02*
X031159Y038630D01*
X031319*
X031239Y038470*
X033767D02*
X033687Y038630D01*
X033847*
X033767Y038470*
X036767D02*
X036687Y038630D01*
X036847*
X036767Y038470*
X039294D02*
X039214Y038630D01*
X039374*
X039294Y038470*
X042294D02*
X042214Y038630D01*
X042374*
X042294Y038470*
X044822D02*
X044742Y038630D01*
X044902*
X044822Y038470*
X047822D02*
X047742Y038630D01*
X047902*
X047822Y038470*
X052845Y035020D02*
X052885Y035060D01*
X052925*
X052885Y035100*
X052925Y035140*
X052885*
X052845Y035180*
X052805Y035140*
X052765*
X052805Y035100*
X052765Y035060*
X052805*
X052845Y035020*
X051845D02*
X051885Y035060D01*
X051925*
X051885Y035100*
X051925Y035140*
X051885*
X051845Y035180*
X051805Y035140*
X051765*
X051805Y035100*
X051765Y035060*
X051805*
X051845Y035020*
X050845D02*
X050885Y035060D01*
X050925*
X050885Y035100*
X050925Y035140*
X050885*
X050845Y035180*
X050805Y035140*
X050765*
X050805Y035100*
X050765Y035060*
X050805*
X050845Y035020*
X052845Y032020D02*
X052885Y032060D01*
X052925*
X052885Y032100*
X052925Y032140*
X052885*
X052845Y032180*
X052805Y032140*
X052765*
X052805Y032100*
X052765Y032060*
X052805*
X052845Y032020*
X051845D02*
X051885Y032060D01*
X051925*
X051885Y032100*
X051925Y032140*
X051885*
X051845Y032180*
X051805Y032140*
X051765*
X051805Y032100*
X051765Y032060*
X051805*
X051845Y032020*
X050845D02*
X050885Y032060D01*
X050925*
X050885Y032100*
X050925Y032140*
X050885*
X050845Y032180*
X050805Y032140*
X050765*
X050805Y032100*
X050765Y032060*
X050805*
X050845Y032020*
X047317Y035020D02*
X047357Y035060D01*
X047397*
X047357Y035100*
X047397Y035140*
X047357*
X047317Y035180*
X047277Y035140*
X047237*
X047277Y035100*
X047237Y035060*
X047277*
X047317Y035020*
X046317D02*
X046357Y035060D01*
X046397*
X046357Y035100*
X046397Y035140*
X046357*
X046317Y035180*
X046277Y035140*
X046237*
X046277Y035100*
X046237Y035060*
X046277*
X046317Y035020*
X045317D02*
X045357Y035060D01*
X045397*
X045357Y035100*
X045397Y035140*
X045357*
X045317Y035180*
X045277Y035140*
X045237*
X045277Y035100*
X045237Y035060*
X045277*
X045317Y035020*
X047317Y032020D02*
X047357Y032060D01*
X047397*
X047357Y032100*
X047397Y032140*
X047357*
X047317Y032180*
X047277Y032140*
X047237*
X047277Y032100*
X047237Y032060*
X047277*
X047317Y032020*
X046317D02*
X046357Y032060D01*
X046397*
X046357Y032100*
X046397Y032140*
X046357*
X046317Y032180*
X046277Y032140*
X046237*
X046277Y032100*
X046237Y032060*
X046277*
X046317Y032020*
X045317D02*
X045357Y032060D01*
X045397*
X045357Y032100*
X045397Y032140*
X045357*
X045317Y032180*
X045277Y032140*
X045237*
X045277Y032100*
X045237Y032060*
X045277*
X045317Y032020*
X041789Y035020D02*
X041829Y035060D01*
X041869*
X041829Y035100*
X041869Y035140*
X041829*
X041789Y035180*
X041749Y035140*
X041709*
X041749Y035100*
X041709Y035060*
X041749*
X041789Y035020*
X040789D02*
X040829Y035060D01*
X040869*
X040829Y035100*
X040869Y035140*
X040829*
X040789Y035180*
X040749Y035140*
X040709*
X040749Y035100*
X040709Y035060*
X040749*
X040789Y035020*
X039789D02*
X039829Y035060D01*
X039869*
X039829Y035100*
X039869Y035140*
X039829*
X039789Y035180*
X039749Y035140*
X039709*
X039749Y035100*
X039709Y035060*
X039749*
X039789Y035020*
X041789Y032020D02*
X041829Y032060D01*
X041869*
X041829Y032100*
X041869Y032140*
X041829*
X041789Y032180*
X041749Y032140*
X041709*
X041749Y032100*
X041709Y032060*
X041749*
X041789Y032020*
X040789D02*
X040829Y032060D01*
X040869*
X040829Y032100*
X040869Y032140*
X040829*
X040789Y032180*
X040749Y032140*
X040709*
X040749Y032100*
X040709Y032060*
X040749*
X040789Y032020*
X039789D02*
X039829Y032060D01*
X039869*
X039829Y032100*
X039869Y032140*
X039829*
X039789Y032180*
X039749Y032140*
X039709*
X039749Y032100*
X039709Y032060*
X039749*
X039789Y032020*
X033767Y043270D02*
X033687Y043430D01*
X033847*
X033767Y043270*
X036767D02*
X036687Y043430D01*
X036847*
X036767Y043270*
X028239D02*
X028159Y043430D01*
X028319*
X028239Y043270*
X031239D02*
X031159Y043430D01*
X031319*
X031239Y043270*
X027632Y041970D02*
X027552Y042130D01*
X027712*
X027632Y041970*
X031845D02*
X031765Y042130D01*
X031925*
X031845Y041970*
X030862Y040120D02*
X030782Y040280D01*
X030942*
X030862Y040120*
X029862D02*
X029782Y040280D01*
X029942*
X029862Y040120*
X028862D02*
X028782Y040280D01*
X028942*
X028862Y040120*
X022711Y038470D02*
X022631Y038630D01*
X022791*
X022711Y038470*
X025711D02*
X025631Y038630D01*
X025791*
X025711Y038470*
X022711Y043270D02*
X022631Y043430D01*
X022791*
X022711Y043270*
X025711D02*
X025631Y043430D01*
X025791*
X025711Y043270*
X017183D02*
X017103Y043430D01*
X017263*
X017183Y043270*
X020183D02*
X020103Y043430D01*
X020263*
X020183Y043270*
X016577Y041970D02*
X016497Y042130D01*
X016657*
X016577Y041970*
X020789D02*
X020709Y042130D01*
X020869*
X020789Y041970*
X022105D02*
X022025Y042130D01*
X022185*
X022105Y041970*
X026317D02*
X026237Y042130D01*
X026397*
X026317Y041970*
X025334Y040120D02*
X025254Y040280D01*
X025414*
X025334Y040120*
X024334D02*
X024254Y040280D01*
X024414*
X024334Y040120*
X023334D02*
X023254Y040280D01*
X023414*
X023334Y040120*
X019806D02*
X019726Y040280D01*
X019886*
X019806Y040120*
X018806D02*
X018726Y040280D01*
X018886*
X018806Y040120*
X017806D02*
X017726Y040280D01*
X017886*
X017806Y040120*
X017183Y038470D02*
X017103Y038630D01*
X017263*
X017183Y038470*
X020183D02*
X020103Y038630D01*
X020263*
X020183Y038470*
X030733Y035020D02*
X030773Y035060D01*
X030813*
X030773Y035100*
X030813Y035140*
X030773*
X030733Y035180*
X030693Y035140*
X030653*
X030693Y035100*
X030653Y035060*
X030693*
X030733Y035020*
X029733D02*
X029773Y035060D01*
X029813*
X029773Y035100*
X029813Y035140*
X029773*
X029733Y035180*
X029693Y035140*
X029653*
X029693Y035100*
X029653Y035060*
X029693*
X029733Y035020*
X028733D02*
X028773Y035060D01*
X028813*
X028773Y035100*
X028813Y035140*
X028773*
X028733Y035180*
X028693Y035140*
X028653*
X028693Y035100*
X028653Y035060*
X028693*
X028733Y035020*
X030733Y032020D02*
X030773Y032060D01*
X030813*
X030773Y032100*
X030813Y032140*
X030773*
X030733Y032180*
X030693Y032140*
X030653*
X030693Y032100*
X030653Y032060*
X030693*
X030733Y032020*
X029733D02*
X029773Y032060D01*
X029813*
X029773Y032100*
X029813Y032140*
X029773*
X029733Y032180*
X029693Y032140*
X029653*
X029693Y032100*
X029653Y032060*
X029693*
X029733Y032020*
X028733D02*
X028773Y032060D01*
X028813*
X028773Y032100*
X028813Y032140*
X028773*
X028733Y032180*
X028693Y032140*
X028653*
X028693Y032100*
X028653Y032060*
X028693*
X028733Y032020*
X025206Y035020D02*
X025246Y035060D01*
X025286*
X025246Y035100*
X025286Y035140*
X025246*
X025206Y035180*
X025166Y035140*
X025126*
X025166Y035100*
X025126Y035060*
X025166*
X025206Y035020*
X024206D02*
X024246Y035060D01*
X024286*
X024246Y035100*
X024286Y035140*
X024246*
X024206Y035180*
X024166Y035140*
X024126*
X024166Y035100*
X024126Y035060*
X024166*
X024206Y035020*
X023206D02*
X023246Y035060D01*
X023286*
X023246Y035100*
X023286Y035140*
X023246*
X023206Y035180*
X023166Y035140*
X023126*
X023166Y035100*
X023126Y035060*
X023166*
X023206Y035020*
X025206Y032020D02*
X025246Y032060D01*
X025286*
X025246Y032100*
X025286Y032140*
X025246*
X025206Y032180*
X025166Y032140*
X025126*
X025166Y032100*
X025126Y032060*
X025166*
X025206Y032020*
X024206D02*
X024246Y032060D01*
X024286*
X024246Y032100*
X024286Y032140*
X024246*
X024206Y032180*
X024166Y032140*
X024126*
X024166Y032100*
X024126Y032060*
X024166*
X024206Y032020*
X023206D02*
X023246Y032060D01*
X023286*
X023246Y032100*
X023286Y032140*
X023246*
X023206Y032180*
X023166Y032140*
X023126*
X023166Y032100*
X023126Y032060*
X023166*
X023206Y032020*
X019678Y035020D02*
X019718Y035060D01*
X019758*
X019718Y035100*
X019758Y035140*
X019718*
X019678Y035180*
X019638Y035140*
X019598*
X019638Y035100*
X019598Y035060*
X019638*
X019678Y035020*
X018678D02*
X018718Y035060D01*
X018758*
X018718Y035100*
X018758Y035140*
X018718*
X018678Y035180*
X018638Y035140*
X018598*
X018638Y035100*
X018598Y035060*
X018638*
X018678Y035020*
X017678D02*
X017718Y035060D01*
X017758*
X017718Y035100*
X017758Y035140*
X017718*
X017678Y035180*
X017638Y035140*
X017598*
X017638Y035100*
X017598Y035060*
X017638*
X017678Y035020*
X019678Y032020D02*
X019718Y032060D01*
X019758*
X019718Y032100*
X019758Y032140*
X019718*
X019678Y032180*
X019638Y032140*
X019598*
X019638Y032100*
X019598Y032060*
X019638*
X019678Y032020*
X018678D02*
X018718Y032060D01*
X018758*
X018718Y032100*
X018758Y032140*
X018718*
X018678Y032180*
X018638Y032140*
X018598*
X018638Y032100*
X018598Y032060*
X018638*
X018678Y032020*
X017678D02*
X017718Y032060D01*
X017758*
X017718Y032100*
X017758Y032140*
X017718*
X017678Y032180*
X017638Y032140*
X017598*
X017638Y032100*
X017598Y032060*
X017638*
X017678Y032020*
X011655Y038470D02*
X011575Y038630D01*
X011735*
X011655Y038470*
X014655D02*
X014575Y038630D01*
X014735*
X014655Y038470*
X014278Y040120D02*
X014198Y040280D01*
X014358*
X014278Y040120*
X013278D02*
X013198Y040280D01*
X013358*
X013278Y040120*
X012278D02*
X012198Y040280D01*
X012358*
X012278Y040120*
X011049Y041970D02*
X010969Y042130D01*
X011129*
X011049Y041970*
X015262D02*
X015182Y042130D01*
X015342*
X015262Y041970*
X011655Y043270D02*
X011575Y043430D01*
X011735*
X011655Y043270*
X014655D02*
X014575Y043430D01*
X014735*
X014655Y043270*
X039410Y046970D02*
Y047130D01*
X039570*
Y046970*
X039410*
X037441D02*
Y047130D01*
X037601*
Y046970*
X037441*
X035473D02*
Y047130D01*
X035633*
Y046970*
X035473*
X033504D02*
Y047130D01*
X033664*
Y046970*
X033504*
X031536D02*
Y047130D01*
X031696*
Y046970*
X031536*
X029567D02*
Y047130D01*
X029727*
Y046970*
X029567*
X025630D02*
Y047130D01*
X025790*
Y046970*
X025630*
X027599D02*
Y047130D01*
X027759*
Y046970*
X027599*
X076652Y012320D02*
Y012480D01*
X076811*
Y012320*
X076652*
X078620D02*
Y012480D01*
X078780*
Y012320*
X078620*
X081720Y035320D02*
X081760Y035400D01*
X081720Y035480*
X081800Y035440*
X081880Y035480*
X081840Y035400*
X081880Y035320*
X081800Y035360*
X081720Y035320*
X080933D02*
X080973Y035400D01*
X080933Y035480*
X081013Y035440*
X081093Y035480*
X081053Y035400*
X081093Y035320*
X081013Y035360*
X080933Y035320*
X085210Y040127D02*
Y040087D01*
X085290*
Y040127*
X085330*
Y040207*
X085290*
Y040247*
X085210*
Y040207*
X085170*
Y040127*
X085210*
X084210D02*
Y040087D01*
X084290*
Y040127*
X084330*
Y040207*
X084290*
Y040247*
X084210*
Y040207*
X084170*
Y040127*
X084210*
X083210D02*
Y040087D01*
X083290*
Y040127*
X083330*
Y040207*
X083290*
Y040247*
X083210*
Y040207*
X083170*
Y040127*
X083210*
X014655Y016220D02*
X014575Y016380D01*
X014735*
X014655Y016220*
X011655D02*
X011575Y016380D01*
X011735*
X011655Y016220*
X015262Y017520D02*
X015182Y017680D01*
X015342*
X015262Y017520*
X011049D02*
X010969Y017680D01*
X011129*
X011049Y017520*
X012032Y019370D02*
X011952Y019530D01*
X012112*
X012032Y019370*
X013032D02*
X012952Y019530D01*
X013112*
X013032Y019370*
X014032D02*
X013952Y019530D01*
X014112*
X014032Y019370*
X014655Y021020D02*
X014575Y021180D01*
X014735*
X014655Y021020*
X011655D02*
X011575Y021180D01*
X011735*
X011655Y021020*
X012161Y024470D02*
X012201Y024510D01*
X012241*
X012201Y024550*
X012241Y024590*
X012201*
X012161Y024630*
X012121Y024590*
X012081*
X012121Y024550*
X012081Y024510*
X012121*
X012161Y024470*
X013161D02*
X013201Y024510D01*
X013241*
X013201Y024550*
X013241Y024590*
X013201*
X013161Y024630*
X013121Y024590*
X013081*
X013121Y024550*
X013081Y024510*
X013121*
X013161Y024470*
X014161D02*
X014201Y024510D01*
X014241*
X014201Y024550*
X014241Y024590*
X014201*
X014161Y024630*
X014121Y024590*
X014081*
X014121Y024550*
X014081Y024510*
X014121*
X014161Y024470*
X012161Y027470D02*
X012201Y027510D01*
X012241*
X012201Y027550*
X012241Y027590*
X012201*
X012161Y027630*
X012121Y027590*
X012081*
X012121Y027550*
X012081Y027510*
X012121*
X012161Y027470*
X013161D02*
X013201Y027510D01*
X013241*
X013201Y027550*
X013241Y027590*
X013201*
X013161Y027630*
X013121Y027590*
X013081*
X013121Y027550*
X013081Y027510*
X013121*
X013161Y027470*
X014161D02*
X014201Y027510D01*
X014241*
X014201Y027550*
X014241Y027590*
X014201*
X014161Y027630*
X014121Y027590*
X014081*
X014121Y027550*
X014081Y027510*
X014121*
X014161Y027470*
X020183Y016220D02*
X020103Y016380D01*
X020263*
X020183Y016220*
X017183D02*
X017103Y016380D01*
X017263*
X017183Y016220*
X020789Y017520D02*
X020709Y017680D01*
X020869*
X020789Y017520*
X016577D02*
X016497Y017680D01*
X016657*
X016577Y017520*
X017560Y019370D02*
X017480Y019530D01*
X017640*
X017560Y019370*
X018560D02*
X018480Y019530D01*
X018640*
X018560Y019370*
X019560D02*
X019480Y019530D01*
X019640*
X019560Y019370*
X020183Y021020D02*
X020103Y021180D01*
X020263*
X020183Y021020*
X017183D02*
X017103Y021180D01*
X017263*
X017183Y021020*
X017688Y024470D02*
X017728Y024510D01*
X017768*
X017728Y024550*
X017768Y024590*
X017728*
X017688Y024630*
X017648Y024590*
X017608*
X017648Y024550*
X017608Y024510*
X017648*
X017688Y024470*
X018688D02*
X018728Y024510D01*
X018768*
X018728Y024550*
X018768Y024590*
X018728*
X018688Y024630*
X018648Y024590*
X018608*
X018648Y024550*
X018608Y024510*
X018648*
X018688Y024470*
X019688D02*
X019728Y024510D01*
X019768*
X019728Y024550*
X019768Y024590*
X019728*
X019688Y024630*
X019648Y024590*
X019608*
X019648Y024550*
X019608Y024510*
X019648*
X019688Y024470*
X017688Y027470D02*
X017728Y027510D01*
X017768*
X017728Y027550*
X017768Y027590*
X017728*
X017688Y027630*
X017648Y027590*
X017608*
X017648Y027550*
X017608Y027510*
X017648*
X017688Y027470*
X018688D02*
X018728Y027510D01*
X018768*
X018728Y027550*
X018768Y027590*
X018728*
X018688Y027630*
X018648Y027590*
X018608*
X018648Y027550*
X018608Y027510*
X018648*
X018688Y027470*
X019688D02*
X019728Y027510D01*
X019768*
X019728Y027550*
X019768Y027590*
X019728*
X019688Y027630*
X019648Y027590*
X019608*
X019648Y027550*
X019608Y027510*
X019648*
X019688Y027470*
X025711Y016220D02*
X025631Y016380D01*
X025791*
X025711Y016220*
X022711D02*
X022631Y016380D01*
X022791*
X022711Y016220*
X026317Y017520D02*
X026237Y017680D01*
X026397*
X026317Y017520*
X022105D02*
X022025Y017680D01*
X022185*
X022105Y017520*
X025711Y021020D02*
X025631Y021180D01*
X025791*
X025711Y021020*
X022711D02*
X022631Y021180D01*
X022791*
X022711Y021020*
X023088Y019370D02*
X023008Y019530D01*
X023168*
X023088Y019370*
X024088D02*
X024008Y019530D01*
X024168*
X024088Y019370*
X025088D02*
X025008Y019530D01*
X025168*
X025088Y019370*
X023216Y024470D02*
X023256Y024510D01*
X023296*
X023256Y024550*
X023296Y024590*
X023256*
X023216Y024630*
X023176Y024590*
X023136*
X023176Y024550*
X023136Y024510*
X023176*
X023216Y024470*
X024216D02*
X024256Y024510D01*
X024296*
X024256Y024550*
X024296Y024590*
X024256*
X024216Y024630*
X024176Y024590*
X024136*
X024176Y024550*
X024136Y024510*
X024176*
X024216Y024470*
X025216D02*
X025256Y024510D01*
X025296*
X025256Y024550*
X025296Y024590*
X025256*
X025216Y024630*
X025176Y024590*
X025136*
X025176Y024550*
X025136Y024510*
X025176*
X025216Y024470*
X023216Y027470D02*
X023256Y027510D01*
X023296*
X023256Y027550*
X023296Y027590*
X023256*
X023216Y027630*
X023176Y027590*
X023136*
X023176Y027550*
X023136Y027510*
X023176*
X023216Y027470*
X024216D02*
X024256Y027510D01*
X024296*
X024256Y027550*
X024296Y027590*
X024256*
X024216Y027630*
X024176Y027590*
X024136*
X024176Y027550*
X024136Y027510*
X024176*
X024216Y027470*
X025216D02*
X025256Y027510D01*
X025296*
X025256Y027550*
X025296Y027590*
X025256*
X025216Y027630*
X025176Y027590*
X025136*
X025176Y027550*
X025136Y027510*
X025176*
X025216Y027470*
X031239Y016220D02*
X031159Y016380D01*
X031319*
X031239Y016220*
X028239D02*
X028159Y016380D01*
X028319*
X028239Y016220*
X031845Y017520D02*
X031765Y017680D01*
X031925*
X031845Y017520*
X027632D02*
X027552Y017680D01*
X027712*
X027632Y017520*
X028616Y019370D02*
X028536Y019530D01*
X028696*
X028616Y019370*
X029616D02*
X029536Y019530D01*
X029696*
X029616Y019370*
X030616D02*
X030536Y019530D01*
X030696*
X030616Y019370*
X031239Y021020D02*
X031159Y021180D01*
X031319*
X031239Y021020*
X028239D02*
X028159Y021180D01*
X028319*
X028239Y021020*
X028744Y024470D02*
X028784Y024510D01*
X028824*
X028784Y024550*
X028824Y024590*
X028784*
X028744Y024630*
X028704Y024590*
X028664*
X028704Y024550*
X028664Y024510*
X028704*
X028744Y024470*
X029744D02*
X029784Y024510D01*
X029824*
X029784Y024550*
X029824Y024590*
X029784*
X029744Y024630*
X029704Y024590*
X029664*
X029704Y024550*
X029664Y024510*
X029704*
X029744Y024470*
X030744D02*
X030784Y024510D01*
X030824*
X030784Y024550*
X030824Y024590*
X030784*
X030744Y024630*
X030704Y024590*
X030664*
X030704Y024550*
X030664Y024510*
X030704*
X030744Y024470*
X028744Y027470D02*
X028784Y027510D01*
X028824*
X028784Y027550*
X028824Y027590*
X028784*
X028744Y027630*
X028704Y027590*
X028664*
X028704Y027550*
X028664Y027510*
X028704*
X028744Y027470*
X029744D02*
X029784Y027510D01*
X029824*
X029784Y027550*
X029824Y027590*
X029784*
X029744Y027630*
X029704Y027590*
X029664*
X029704Y027550*
X029664Y027510*
X029704*
X029744Y027470*
X030744D02*
X030784Y027510D01*
X030824*
X030784Y027550*
X030824Y027590*
X030784*
X030744Y027630*
X030704Y027590*
X030664*
X030704Y027550*
X030664Y027510*
X030704*
X030744Y027470*
X034272Y024470D02*
X034312Y024510D01*
X034352*
X034312Y024550*
X034352Y024590*
X034312*
X034272Y024630*
X034232Y024590*
X034192*
X034232Y024550*
X034192Y024510*
X034232*
X034272Y024470*
X035272D02*
X035312Y024510D01*
X035352*
X035312Y024550*
X035352Y024590*
X035312*
X035272Y024630*
X035232Y024590*
X035192*
X035232Y024550*
X035192Y024510*
X035232*
X035272Y024470*
X036272D02*
X036312Y024510D01*
X036352*
X036312Y024550*
X036352Y024590*
X036312*
X036272Y024630*
X036232Y024590*
X036192*
X036232Y024550*
X036192Y024510*
X036232*
X036272Y024470*
X034272Y027470D02*
X034312Y027510D01*
X034352*
X034312Y027550*
X034352Y027590*
X034312*
X034272Y027630*
X034232Y027590*
X034192*
X034232Y027550*
X034192Y027510*
X034232*
X034272Y027470*
X035272D02*
X035312Y027510D01*
X035352*
X035312Y027550*
X035352Y027590*
X035312*
X035272Y027630*
X035232Y027590*
X035192*
X035232Y027550*
X035192Y027510*
X035232*
X035272Y027470*
X036272D02*
X036312Y027510D01*
X036352*
X036312Y027550*
X036352Y027590*
X036312*
X036272Y027630*
X036232Y027590*
X036192*
X036232Y027550*
X036192Y027510*
X036232*
X036272Y027470*
X036767Y021020D02*
X036687Y021180D01*
X036847*
X036767Y021020*
X033767D02*
X033687Y021180D01*
X033847*
X033767Y021020*
X034144Y019370D02*
X034064Y019530D01*
X034224*
X034144Y019370*
X035144D02*
X035064Y019530D01*
X035224*
X035144Y019370*
X036144D02*
X036064Y019530D01*
X036224*
X036144Y019370*
X036767Y016220D02*
X036687Y016380D01*
X036847*
X036767Y016220*
X033767D02*
X033687Y016380D01*
X033847*
X033767Y016220*
X037373Y017520D02*
X037293Y017680D01*
X037453*
X037373Y017520*
X033160D02*
X033080Y017680D01*
X033240*
X033160Y017520*
X045328Y024470D02*
X045367Y024510D01*
X045408*
X045367Y024550*
X045408Y024590*
X045367*
X045328Y024630*
X045287Y024590*
X045248*
X045287Y024550*
X045248Y024510*
X045287*
X045328Y024470*
X046328D02*
X046368Y024510D01*
X046407*
X046368Y024550*
X046407Y024590*
X046368*
X046328Y024630*
X046287Y024590*
X046248*
X046287Y024550*
X046248Y024510*
X046287*
X046328Y024470*
X047327D02*
X047368Y024510D01*
X047407*
X047368Y024550*
X047407Y024590*
X047368*
X047327Y024630*
X047288Y024590*
X047248*
X047288Y024550*
X047248Y024510*
X047288*
X047327Y024470*
X045328Y027470D02*
X045367Y027510D01*
X045408*
X045367Y027550*
X045408Y027590*
X045367*
X045328Y027630*
X045287Y027590*
X045248*
X045287Y027550*
X045248Y027510*
X045287*
X045328Y027470*
X046328D02*
X046368Y027510D01*
X046407*
X046368Y027550*
X046407Y027590*
X046368*
X046328Y027630*
X046287Y027590*
X046248*
X046287Y027550*
X046248Y027510*
X046287*
X046328Y027470*
X047327D02*
X047368Y027510D01*
X047407*
X047368Y027550*
X047407Y027590*
X047368*
X047327Y027630*
X047288Y027590*
X047248*
X047288Y027550*
X047248Y027510*
X047288*
X047327Y027470*
X050855Y024470D02*
X050895Y024510D01*
X050935*
X050895Y024550*
X050935Y024590*
X050895*
X050855Y024630*
X050815Y024590*
X050775*
X050815Y024550*
X050775Y024510*
X050815*
X050855Y024470*
X051855D02*
X051895Y024510D01*
X051935*
X051895Y024550*
X051935Y024590*
X051895*
X051855Y024630*
X051815Y024590*
X051775*
X051815Y024550*
X051775Y024510*
X051815*
X051855Y024470*
X052855D02*
X052895Y024510D01*
X052935*
X052895Y024550*
X052935Y024590*
X052895*
X052855Y024630*
X052815Y024590*
X052775*
X052815Y024550*
X052775Y024510*
X052815*
X052855Y024470*
X050855Y027470D02*
X050895Y027510D01*
X050935*
X050895Y027550*
X050935Y027590*
X050895*
X050855Y027630*
X050815Y027590*
X050775*
X050815Y027550*
X050775Y027510*
X050815*
X050855Y027470*
X051855D02*
X051895Y027510D01*
X051935*
X051895Y027550*
X051935Y027590*
X051895*
X051855Y027630*
X051815Y027590*
X051775*
X051815Y027550*
X051775Y027510*
X051815*
X051855Y027470*
X052855D02*
X052895Y027510D01*
X052935*
X052895Y027550*
X052935Y027590*
X052895*
X052855Y027630*
X052815Y027590*
X052775*
X052815Y027550*
X052775Y027510*
X052815*
X052855Y027470*
X039800Y024470D02*
X039840Y024510D01*
X039880*
X039840Y024550*
X039880Y024590*
X039840*
X039800Y024630*
X039760Y024590*
X039720*
X039760Y024550*
X039720Y024510*
X039760*
X039800Y024470*
X040800D02*
X040840Y024510D01*
X040880*
X040840Y024550*
X040880Y024590*
X040840*
X040800Y024630*
X040760Y024590*
X040720*
X040760Y024550*
X040720Y024510*
X040760*
X040800Y024470*
X041800D02*
X041840Y024510D01*
X041880*
X041840Y024550*
X041880Y024590*
X041840*
X041800Y024630*
X041760Y024590*
X041720*
X041760Y024550*
X041720Y024510*
X041760*
X041800Y024470*
X039800Y027470D02*
X039840Y027510D01*
X039880*
X039840Y027550*
X039880Y027590*
X039840*
X039800Y027630*
X039760Y027590*
X039720*
X039760Y027550*
X039720Y027510*
X039760*
X039800Y027470*
X040800D02*
X040840Y027510D01*
X040880*
X040840Y027550*
X040880Y027590*
X040840*
X040800Y027630*
X040760Y027590*
X040720*
X040760Y027550*
X040720Y027510*
X040760*
X040800Y027470*
X041800D02*
X041840Y027510D01*
X041880*
X041840Y027550*
X041880Y027590*
X041840*
X041800Y027630*
X041760Y027590*
X041720*
X041760Y027550*
X041720Y027510*
X041760*
X041800Y027470*
X042294Y016220D02*
X042214Y016380D01*
X042374*
X042294Y016220*
X039294D02*
X039214Y016380D01*
X039374*
X039294Y016220*
X042901Y017520D02*
X042821Y017680D01*
X042981*
X042901Y017520*
X038688D02*
X038608Y017680D01*
X038768*
X038688Y017520*
X039671Y019370D02*
X039591Y019530D01*
X039751*
X039671Y019370*
X040671D02*
X040591Y019530D01*
X040751*
X040671Y019370*
X041671D02*
X041591Y019530D01*
X041751*
X041671Y019370*
X042294Y021020D02*
X042214Y021180D01*
X042374*
X042294Y021020*
X039294D02*
X039214Y021180D01*
X039374*
X039294Y021020*
X047822Y016220D02*
X047742Y016380D01*
X047902*
X047822Y016220*
X044822D02*
X044742Y016380D01*
X044902*
X044822Y016220*
X048428Y017520D02*
X048348Y017680D01*
X048508*
X048428Y017520*
X044216D02*
X044136Y017680D01*
X044296*
X044216Y017520*
X045199Y019370D02*
X045119Y019530D01*
X045279*
X045199Y019370*
X046199D02*
X046119Y019530D01*
X046279*
X046199Y019370*
X047199D02*
X047119Y019530D01*
X047279*
X047199Y019370*
X047822Y021020D02*
X047742Y021180D01*
X047902*
X047822Y021020*
X044822D02*
X044742Y021180D01*
X044902*
X044822Y021020*
X050350Y038470D02*
X050270Y038630D01*
X050430*
X050350Y038470*
X053350D02*
X053270Y038630D01*
X053430*
X053350Y038470*
X052973Y040120D02*
X052893Y040280D01*
X053053*
X052973Y040120*
X051973D02*
X051893Y040280D01*
X052053*
X051973Y040120*
X050973D02*
X050893Y040280D01*
X051053*
X050973Y040120*
X050350Y043270D02*
X050270Y043430D01*
X050430*
X050350Y043270*
X053350D02*
X053270Y043430D01*
X053430*
X053350Y043270*
X049744Y041970D02*
X049664Y042130D01*
X049824*
X049744Y041970*
X053956D02*
X053876Y042130D01*
X054036*
X053956Y041970*
X036261Y035020D02*
X036301Y035060D01*
X036341*
X036301Y035100*
X036341Y035140*
X036301*
X036261Y035180*
X036221Y035140*
X036181*
X036221Y035100*
X036181Y035060*
X036221*
X036261Y035020*
X035261D02*
X035301Y035060D01*
X035341*
X035301Y035100*
X035341Y035140*
X035301*
X035261Y035180*
X035221Y035140*
X035181*
X035221Y035100*
X035181Y035060*
X035221*
X035261Y035020*
X034261D02*
X034301Y035060D01*
X034341*
X034301Y035100*
X034341Y035140*
X034301*
X034261Y035180*
X034221Y035140*
X034181*
X034221Y035100*
X034181Y035060*
X034221*
X034261Y035020*
X036261Y032020D02*
X036301Y032060D01*
X036341*
X036301Y032100*
X036341Y032140*
X036301*
X036261Y032180*
X036221Y032140*
X036181*
X036221Y032100*
X036181Y032060*
X036221*
X036261Y032020*
X035261D02*
X035301Y032060D01*
X035341*
X035301Y032100*
X035341Y032140*
X035301*
X035261Y032180*
X035221Y032140*
X035181*
X035221Y032100*
X035181Y032060*
X035221*
X035261Y032020*
X034261D02*
X034301Y032060D01*
X034341*
X034301Y032100*
X034341Y032140*
X034301*
X034261Y032180*
X034221Y032140*
X034181*
X034221Y032100*
X034181Y032060*
X034221*
X034261Y032020*
X014150Y035020D02*
X014190Y035060D01*
X014230*
X014190Y035100*
X014230Y035140*
X014190*
X014150Y035180*
X014110Y035140*
X014070*
X014110Y035100*
X014070Y035060*
X014110*
X014150Y035020*
X013150D02*
X013190Y035060D01*
X013230*
X013190Y035100*
X013230Y035140*
X013190*
X013150Y035180*
X013110Y035140*
X013070*
X013110Y035100*
X013070Y035060*
X013110*
X013150Y035020*
X012150D02*
X012190Y035060D01*
X012230*
X012190Y035100*
X012230Y035140*
X012190*
X012150Y035180*
X012110Y035140*
X012070*
X012110Y035100*
X012070Y035060*
X012110*
X012150Y035020*
X014150Y032020D02*
X014190Y032060D01*
X014230*
X014190Y032100*
X014230Y032140*
X014190*
X014150Y032180*
X014110Y032140*
X014070*
X014110Y032100*
X014070Y032060*
X014110*
X014150Y032020*
X013150D02*
X013190Y032060D01*
X013230*
X013190Y032100*
X013230Y032140*
X013190*
X013150Y032180*
X013110Y032140*
X013070*
X013110Y032100*
X013070Y032060*
X013110*
X013150Y032020*
X012150D02*
X012190Y032060D01*
X012230*
X012190Y032100*
X012230Y032140*
X012190*
X012150Y032180*
X012110Y032140*
X012070*
X012110Y032100*
X012070Y032060*
X012110*
X012150Y032020*
X066235Y028820D02*
X066275D01*
X066315Y028860*
X066355Y028820*
X066395*
Y028860*
X066355Y028900*
X066395Y028940*
Y028980*
X066355*
X066315Y028940*
X066275Y028980*
X066235*
Y028940*
X066275Y028900*
X066235Y028860*
Y028820*
X069220Y029920D02*
X069260D01*
X069300Y029960*
X069340Y029920*
X069380*
Y029960*
X069340Y030000*
X069380Y030040*
Y030080*
X069340*
X069300Y030040*
X069260Y030080*
X069220*
Y030040*
X069260Y030000*
X069220Y029960*
Y029920*
X069520Y029620D02*
X069560D01*
X069600Y029660*
X069640Y029620*
X069680*
Y029660*
X069640Y029700*
X069680Y029740*
Y029780*
X069640*
X069600Y029740*
X069560Y029780*
X069520*
Y029740*
X069560Y029700*
X069520Y029660*
Y029620*
X069220Y029270D02*
X069260D01*
X069300Y029310*
X069340Y029270*
X069380*
Y029310*
X069340Y029350*
X069380Y029390*
Y029430*
X069340*
X069300Y029390*
X069260Y029430*
X069220*
Y029390*
X069260Y029350*
X069220Y029310*
Y029270*
X078070Y029445D02*
X078110D01*
X078150Y029485*
X078190Y029445*
X078230*
Y029485*
X078190Y029525*
X078230Y029565*
Y029605*
X078190*
X078150Y029565*
X078110Y029605*
X078070*
Y029565*
X078110Y029525*
X078070Y029485*
Y029445*
X078420Y028995D02*
X078460D01*
X078500Y029035*
X078540Y028995*
X078580*
Y029035*
X078540Y029075*
X078580Y029115*
Y029155*
X078540*
X078500Y029115*
X078460Y029155*
X078420*
Y029115*
X078460Y029075*
X078420Y029035*
Y028995*
X078670Y028595D02*
X078710D01*
X078750Y028635*
X078790Y028595*
X078830*
Y028635*
X078790Y028675*
X078830Y028715*
Y028755*
X078790*
X078750Y028715*
X078710Y028755*
X078670*
Y028715*
X078710Y028675*
X078670Y028635*
Y028595*
X057770Y031845D02*
X057810D01*
X057850Y031885*
X057890Y031845*
X057930*
Y031885*
X057890Y031925*
X057930Y031965*
Y032005*
X057890*
X057850Y031965*
X057810Y032005*
X057770*
Y031965*
X057810Y031925*
X057770Y031885*
Y031845*
X055020Y027470D02*
X055060D01*
X055100Y027510*
X055140Y027470*
X055180*
Y027510*
X055140Y027550*
X055180Y027590*
Y027630*
X055140*
X055100Y027590*
X055060Y027630*
X055020*
Y027590*
X055060Y027550*
X055020Y027510*
Y027470*
X058470Y031845D02*
X058510D01*
X058550Y031885*
X058590Y031845*
X058630*
Y031885*
X058590Y031925*
X058630Y031965*
Y032005*
X058590*
X058550Y031965*
X058510Y032005*
X058470*
Y031965*
X058510Y031925*
X058470Y031885*
Y031845*
X055570Y027470D02*
X055610D01*
X055650Y027510*
X055690Y027470*
X055730*
Y027510*
X055690Y027550*
X055730Y027590*
Y027630*
X055690*
X055650Y027590*
X055610Y027630*
X055570*
Y027590*
X055610Y027550*
X055570Y027510*
Y027470*
X067470Y027770D02*
X067510D01*
X067550Y027810*
X067590Y027770*
X067630*
Y027810*
X067590Y027850*
X067630Y027890*
Y027930*
X067590*
X067550Y027890*
X067510Y027930*
X067470*
Y027890*
X067510Y027850*
X067470Y027810*
Y027770*
X067970D02*
X068010D01*
X068050Y027810*
X068090Y027770*
X068130*
Y027810*
X068090Y027850*
X068130Y027890*
Y027930*
X068090*
X068050Y027890*
X068010Y027930*
X067970*
Y027890*
X068010Y027850*
X067970Y027810*
Y027770*
X068470D02*
X068510D01*
X068550Y027810*
X068590Y027770*
X068630*
Y027810*
X068590Y027850*
X068630Y027890*
Y027930*
X068590*
X068550Y027890*
X068510Y027930*
X068470*
Y027890*
X068510Y027850*
X068470Y027810*
Y027770*
X069220Y028470D02*
X069260D01*
X069300Y028510*
X069340Y028470*
X069380*
Y028510*
X069340Y028550*
X069380Y028590*
Y028630*
X069340*
X069300Y028590*
X069260Y028630*
X069220*
Y028590*
X069260Y028550*
X069220Y028510*
Y028470*
X069970Y028670D02*
X070010D01*
X070050Y028710*
X070090Y028670*
X070130*
Y028710*
X070090Y028750*
X070130Y028790*
Y028830*
X070090*
X070050Y028790*
X070010Y028830*
X069970*
Y028790*
X070010Y028750*
X069970Y028710*
Y028670*
X070170Y027070D02*
X070210D01*
X070250Y027110*
X070290Y027070*
X070330*
Y027110*
X070290Y027150*
X070330Y027190*
Y027230*
X070290*
X070250Y027190*
X070210Y027230*
X070170*
Y027190*
X070210Y027150*
X070170Y027110*
Y027070*
X070370Y028370D02*
X070410D01*
X070450Y028410*
X070490Y028370*
X070530*
Y028410*
X070490Y028450*
X070530Y028490*
Y028530*
X070490*
X070450Y028490*
X070410Y028530*
X070370*
Y028490*
X070410Y028450*
X070370Y028410*
Y028370*
X070170Y026070D02*
X070210D01*
X070250Y026110*
X070290Y026070*
X070330*
Y026110*
X070290Y026150*
X070330Y026190*
Y026230*
X070290*
X070250Y026190*
X070210Y026230*
X070170*
Y026190*
X070210Y026150*
X070170Y026110*
Y026070*
X062720Y029045D02*
X062760D01*
X062800Y029085*
X062840Y029045*
X062880*
Y029085*
X062840Y029125*
X062880Y029165*
Y029205*
X062840*
X062800Y029165*
X062760Y029205*
X062720*
Y029165*
X062760Y029125*
X062720Y029085*
Y029045*
Y029520D02*
X062760D01*
X062800Y029560*
X062840Y029520*
X062880*
Y029560*
X062840Y029600*
X062880Y029640*
Y029680*
X062840*
X062800Y029640*
X062760Y029680*
X062720*
Y029640*
X062760Y029600*
X062720Y029560*
Y029520*
Y028570D02*
X062760D01*
X062800Y028610*
X062840Y028570*
X062880*
Y028610*
X062840Y028650*
X062880Y028690*
Y028730*
X062840*
X062800Y028690*
X062760Y028730*
X062720*
Y028690*
X062760Y028650*
X062720Y028610*
Y028570*
X070920Y028820D02*
X070960D01*
X071000Y028860*
X071040Y028820*
X071080*
Y028860*
X071040Y028900*
X071080Y028940*
Y028980*
X071040*
X071000Y028940*
X070960Y028980*
X070920*
Y028940*
X070960Y028900*
X070920Y028860*
Y028820*
X067770Y024370D02*
X067810D01*
X067850Y024410*
X067890Y024370*
X067930*
Y024410*
X067890Y024450*
X067930Y024490*
Y024530*
X067890*
X067850Y024490*
X067810Y024530*
X067770*
Y024490*
X067810Y024450*
X067770Y024410*
Y024370*
X067220D02*
X067260D01*
X067300Y024410*
X067340Y024370*
X067380*
Y024410*
X067340Y024450*
X067380Y024490*
Y024530*
X067340*
X067300Y024490*
X067260Y024530*
X067220*
Y024490*
X067260Y024450*
X067220Y024410*
Y024370*
X043895Y027470D02*
X043935D01*
X043975Y027510*
X044015Y027470*
X044055*
Y027510*
X044015Y027550*
X044055Y027590*
Y027630*
X044015*
X043975Y027590*
X043935Y027630*
X043895*
Y027590*
X043935Y027550*
X043895Y027510*
Y027470*
X038220Y027495D02*
X038260D01*
X038300Y027535*
X038340Y027495*
X038380*
Y027535*
X038340Y027575*
X038380Y027615*
Y027655*
X038340*
X038300Y027615*
X038260Y027655*
X038220*
Y027615*
X038260Y027575*
X038220Y027535*
Y027495*
X076320Y028920D02*
X076360D01*
X076400Y028960*
X076440Y028920*
X076480*
Y028960*
X076440Y029000*
X076480Y029040*
Y029080*
X076440*
X076400Y029040*
X076360Y029080*
X076320*
Y029040*
X076360Y029000*
X076320Y028960*
Y028920*
X072720Y027720D02*
X072760D01*
X072800Y027760*
X072840Y027720*
X072880*
Y027760*
X072840Y027800*
X072880Y027840*
Y027880*
X072840*
X072800Y027840*
X072760Y027880*
X072720*
Y027840*
X072760Y027800*
X072720Y027760*
Y027720*
Y028170D02*
X072760D01*
X072800Y028210*
X072840Y028170*
X072880*
Y028210*
X072840Y028250*
X072880Y028290*
Y028330*
X072840*
X072800Y028290*
X072760Y028330*
X072720*
Y028290*
X072760Y028250*
X072720Y028210*
Y028170*
Y028631D02*
X072760D01*
X072800Y028671*
X072840Y028631*
X072880*
Y028671*
X072840Y028711*
X072880Y028751*
Y028791*
X072840*
X072800Y028751*
X072760Y028791*
X072720*
Y028751*
X072760Y028711*
X072720Y028671*
Y028631*
X064320Y026045D02*
X064360D01*
X064400Y026085*
X064440Y026045*
X064480*
Y026085*
X064440Y026125*
X064480Y026165*
Y026205*
X064440*
X064400Y026165*
X064360Y026205*
X064320*
Y026165*
X064360Y026125*
X064320Y026085*
Y026045*
X070170Y026570D02*
X070210D01*
X070250Y026610*
X070290Y026570*
X070330*
Y026610*
X070290Y026650*
X070330Y026690*
Y026730*
X070290*
X070250Y026690*
X070210Y026730*
X070170*
Y026690*
X070210Y026650*
X070170Y026610*
Y026570*
X062170Y026095D02*
X062210D01*
X062250Y026135*
X062290Y026095*
X062330*
Y026135*
X062290Y026175*
X062330Y026215*
Y026255*
X062290*
X062250Y026215*
X062210Y026255*
X062170*
Y026215*
X062210Y026175*
X062170Y026135*
Y026095*
X062770D02*
X062810D01*
X062850Y026135*
X062890Y026095*
X062930*
Y026135*
X062890Y026175*
X062930Y026215*
Y026255*
X062890*
X062850Y026215*
X062810Y026255*
X062770*
Y026215*
X062810Y026175*
X062770Y026135*
Y026095*
X063420D02*
X063460D01*
X063500Y026135*
X063540Y026095*
X063580*
Y026135*
X063540Y026175*
X063580Y026215*
Y026255*
X063540*
X063500Y026215*
X063460Y026255*
X063420*
Y026215*
X063460Y026175*
X063420Y026135*
Y026095*
X056270Y043820D02*
X056310D01*
X056350Y043860*
X056390Y043820*
X056430*
Y043860*
X056390Y043900*
X056430Y043940*
Y043980*
X056390*
X056350Y043940*
X056310Y043980*
X056270*
Y043940*
X056310Y043900*
X056270Y043860*
Y043820*
X058620D02*
X058660D01*
X058700Y043860*
X058740Y043820*
X058780*
Y043860*
X058740Y043900*
X058780Y043940*
Y043980*
X058740*
X058700Y043940*
X058660Y043980*
X058620*
Y043940*
X058660Y043900*
X058620Y043860*
Y043820*
X066920Y031770D02*
X066960D01*
X067000Y031810*
X067040Y031770*
X067080*
Y031810*
X067040Y031850*
X067080Y031890*
Y031930*
X067040*
X067000Y031890*
X066960Y031930*
X066920*
Y031890*
X066960Y031850*
X066920Y031810*
Y031770*
X072620D02*
X072660D01*
X072700Y031810*
X072740Y031770*
X072780*
Y031810*
X072740Y031850*
X072780Y031890*
Y031930*
X072740*
X072700Y031890*
X072660Y031930*
X072620*
Y031890*
X072660Y031850*
X072620Y031810*
Y031770*
X079170Y030170D02*
X079210D01*
X079250Y030210*
X079290Y030170*
X079330*
Y030210*
X079290Y030250*
X079330Y030290*
Y030330*
X079290*
X079250Y030290*
X079210Y030330*
X079170*
Y030290*
X079210Y030250*
X079170Y030210*
Y030170*
X086220Y014645D02*
X086260D01*
X086300Y014685*
X086340Y014645*
X086380*
Y014685*
X086340Y014725*
X086380Y014765*
Y014805*
X086340*
X086300Y014765*
X086260Y014805*
X086220*
Y014765*
X086260Y014725*
X086220Y014685*
Y014645*
X064545Y031870D02*
X064585D01*
X064625Y031910*
X064665Y031870*
X064705*
Y031910*
X064665Y031950*
X064705Y031990*
Y032030*
X064665*
X064625Y031990*
X064585Y032030*
X064545*
Y031990*
X064585Y031950*
X064545Y031910*
Y031870*
X069770Y033370D02*
X069810D01*
X069850Y033410*
X069890Y033370*
X069930*
Y033410*
X069890Y033450*
X069930Y033490*
Y033530*
X069890*
X069850Y033490*
X069810Y033530*
X069770*
Y033490*
X069810Y033450*
X069770Y033410*
Y033370*
X068220Y032920D02*
X068260D01*
X068300Y032960*
X068340Y032920*
X068380*
Y032960*
X068340Y033000*
X068380Y033040*
Y033080*
X068340*
X068300Y033040*
X068260Y033080*
X068220*
Y033040*
X068260Y033000*
X068220Y032960*
Y032920*
G54D88*
X061912Y023550D02*
D01*
X061911Y023555*
X061911Y023561*
X061910Y023566*
X061908Y023572*
X061907Y023577*
X061905Y023582*
X061902Y023587*
X061899Y023592*
X061896Y023597*
X061893Y023601*
X061889Y023605*
X061885Y023609*
X061881Y023613*
X061876Y023616*
X061872Y023619*
X061867Y023621*
X061861Y023624*
X061856Y023626*
X061851Y023627*
X061845Y023628*
X061840Y023629*
X061834Y023629*
X061829*
X061823Y023629*
X061818Y023628*
X061812Y023627*
X061807Y023626*
X061802Y023624*
X061796Y023621*
X061792Y023619*
X061787Y023616*
X061782Y023613*
X061778Y023609*
X061774Y023605*
X061770Y023601*
X061767Y023597*
X061764Y023592*
X061761Y023587*
X061758Y023582*
X061756Y023577*
X061755Y023572*
X061753Y023566*
X061752Y023561*
X061752Y023555*
X061752Y023550*
X061752Y023544*
X061752Y023538*
X061753Y023533*
X061755Y023527*
X061756Y023522*
X061758Y023517*
X061761Y023512*
X061764Y023507*
X061767Y023502*
X061770Y023498*
X061774Y023494*
X061778Y023490*
X061782Y023486*
X061787Y023483*
X061792Y023480*
X061796Y023478*
X061802Y023475*
X061807Y023473*
X061812Y023472*
X061818Y023471*
X061823Y023470*
X061829Y023470*
X061834*
X061840Y023470*
X061845Y023471*
X061851Y023472*
X061856Y023473*
X061861Y023475*
X061867Y023478*
X061872Y023480*
X061876Y023483*
X061881Y023486*
X061885Y023490*
X061889Y023494*
X061893Y023498*
X061896Y023502*
X061899Y023507*
X061902Y023512*
X061905Y023517*
X061907Y023522*
X061908Y023527*
X061910Y023533*
X061911Y023538*
X061911Y023544*
X061912Y023550*
X060911D02*
D01*
X060910Y023555*
X060910Y023561*
X060909Y023566*
X060907Y023572*
X060906Y023577*
X060904Y023582*
X060901Y023587*
X060898Y023592*
X060895Y023597*
X060892Y023601*
X060888Y023605*
X060884Y023609*
X060880Y023613*
X060875Y023616*
X060871Y023619*
X060866Y023621*
X060860Y023624*
X060855Y023626*
X060850Y023627*
X060844Y023628*
X060839Y023629*
X060833Y023629*
X060828*
X060822Y023629*
X060817Y023628*
X060811Y023627*
X060806Y023626*
X060801Y023624*
X060795Y023621*
X060791Y023619*
X060786Y023616*
X060781Y023613*
X060777Y023609*
X060773Y023605*
X060769Y023601*
X060766Y023597*
X060763Y023592*
X060760Y023587*
X060757Y023582*
X060755Y023577*
X060754Y023572*
X060752Y023566*
X060751Y023561*
X060751Y023555*
X060751Y023550*
X060751Y023544*
X060751Y023538*
X060752Y023533*
X060754Y023527*
X060755Y023522*
X060757Y023517*
X060760Y023512*
X060763Y023507*
X060766Y023502*
X060769Y023498*
X060773Y023494*
X060777Y023490*
X060781Y023486*
X060786Y023483*
X060791Y023480*
X060795Y023478*
X060801Y023475*
X060806Y023473*
X060811Y023472*
X060817Y023471*
X060822Y023470*
X060828Y023470*
X060833*
X060839Y023470*
X060844Y023471*
X060850Y023472*
X060855Y023473*
X060860Y023475*
X060866Y023478*
X060871Y023480*
X060875Y023483*
X060880Y023486*
X060884Y023490*
X060888Y023494*
X060892Y023498*
X060895Y023502*
X060898Y023507*
X060901Y023512*
X060904Y023517*
X060906Y023522*
X060907Y023527*
X060909Y023533*
X060910Y023538*
X060910Y023544*
X060911Y023550*
X061912Y020550D02*
D01*
X061911Y020555*
X061911Y020561*
X061910Y020566*
X061908Y020572*
X061907Y020577*
X061905Y020582*
X061902Y020587*
X061899Y020592*
X061896Y020597*
X061893Y020601*
X061889Y020605*
X061885Y020609*
X061881Y020613*
X061876Y020616*
X061872Y020619*
X061867Y020621*
X061861Y020624*
X061856Y020626*
X061851Y020627*
X061845Y020628*
X061840Y020629*
X061834Y020629*
X061829*
X061823Y020629*
X061818Y020628*
X061812Y020627*
X061807Y020626*
X061802Y020624*
X061796Y020621*
X061792Y020619*
X061787Y020616*
X061782Y020613*
X061778Y020609*
X061774Y020605*
X061770Y020601*
X061767Y020597*
X061764Y020592*
X061761Y020587*
X061758Y020582*
X061756Y020577*
X061755Y020572*
X061753Y020566*
X061752Y020561*
X061752Y020555*
X061752Y020550*
X061752Y020544*
X061752Y020538*
X061753Y020533*
X061755Y020527*
X061756Y020522*
X061758Y020517*
X061761Y020512*
X061764Y020507*
X061767Y020502*
X061770Y020498*
X061774Y020494*
X061778Y020490*
X061782Y020486*
X061787Y020483*
X061792Y020480*
X061796Y020478*
X061802Y020475*
X061807Y020473*
X061812Y020472*
X061818Y020471*
X061823Y020470*
X061829Y020470*
X061834*
X061840Y020470*
X061845Y020471*
X061851Y020472*
X061856Y020473*
X061861Y020475*
X061867Y020478*
X061872Y020480*
X061876Y020483*
X061881Y020486*
X061885Y020490*
X061889Y020494*
X061893Y020498*
X061896Y020502*
X061899Y020507*
X061902Y020512*
X061905Y020517*
X061907Y020522*
X061908Y020527*
X061910Y020533*
X061911Y020538*
X061911Y020544*
X061912Y020550*
X060911D02*
D01*
X060910Y020555*
X060910Y020561*
X060909Y020566*
X060907Y020572*
X060906Y020577*
X060904Y020582*
X060901Y020587*
X060898Y020592*
X060895Y020597*
X060892Y020601*
X060888Y020605*
X060884Y020609*
X060880Y020613*
X060875Y020616*
X060871Y020619*
X060866Y020621*
X060860Y020624*
X060855Y020626*
X060850Y020627*
X060844Y020628*
X060839Y020629*
X060833Y020629*
X060828*
X060822Y020629*
X060817Y020628*
X060811Y020627*
X060806Y020626*
X060801Y020624*
X060795Y020621*
X060791Y020619*
X060786Y020616*
X060781Y020613*
X060777Y020609*
X060773Y020605*
X060769Y020601*
X060766Y020597*
X060763Y020592*
X060760Y020587*
X060757Y020582*
X060755Y020577*
X060754Y020572*
X060752Y020566*
X060751Y020561*
X060751Y020555*
X060751Y020550*
X060751Y020544*
X060751Y020538*
X060752Y020533*
X060754Y020527*
X060755Y020522*
X060757Y020517*
X060760Y020512*
X060763Y020507*
X060766Y020502*
X060769Y020498*
X060773Y020494*
X060777Y020490*
X060781Y020486*
X060786Y020483*
X060791Y020480*
X060795Y020478*
X060801Y020475*
X060806Y020473*
X060811Y020472*
X060817Y020471*
X060822Y020470*
X060828Y020470*
X060833*
X060839Y020470*
X060844Y020471*
X060850Y020472*
X060855Y020473*
X060860Y020475*
X060866Y020478*
X060871Y020480*
X060875Y020483*
X060880Y020486*
X060884Y020490*
X060888Y020494*
X060892Y020498*
X060895Y020502*
X060898Y020507*
X060901Y020512*
X060904Y020517*
X060906Y020522*
X060907Y020527*
X060909Y020533*
X060910Y020538*
X060910Y020544*
X060911Y020550*
X055930Y032100D02*
D01*
X055929Y032105*
X055929Y032111*
X055928Y032116*
X055926Y032122*
X055925Y032127*
X055923Y032132*
X055920Y032137*
X055917Y032142*
X055914Y032147*
X055911Y032151*
X055907Y032155*
X055903Y032159*
X055899Y032163*
X055894Y032166*
X055890Y032169*
X055885Y032171*
X055879Y032174*
X055874Y032176*
X055869Y032177*
X055863Y032178*
X055858Y032179*
X055852Y032179*
X055847*
X055841Y032179*
X055836Y032178*
X055830Y032177*
X055825Y032176*
X055820Y032174*
X055814Y032171*
X055810Y032169*
X055805Y032166*
X055800Y032163*
X055796Y032159*
X055792Y032155*
X055788Y032151*
X055785Y032147*
X055782Y032142*
X055779Y032137*
X055776Y032132*
X055774Y032127*
X055773Y032122*
X055771Y032116*
X055770Y032111*
X055770Y032105*
X055770Y032100*
X055770Y032094*
X055770Y032088*
X055771Y032083*
X055773Y032077*
X055774Y032072*
X055776Y032067*
X055779Y032062*
X055782Y032057*
X055785Y032052*
X055788Y032048*
X055792Y032044*
X055796Y032040*
X055800Y032036*
X055805Y032033*
X055810Y032030*
X055814Y032028*
X055820Y032025*
X055825Y032023*
X055830Y032022*
X055836Y032021*
X055841Y032020*
X055847Y032020*
X055852*
X055858Y032020*
X055863Y032021*
X055869Y032022*
X055874Y032023*
X055879Y032025*
X055885Y032028*
X055890Y032030*
X055894Y032033*
X055899Y032036*
X055903Y032040*
X055907Y032044*
X055911Y032048*
X055914Y032052*
X055917Y032057*
X055920Y032062*
X055923Y032067*
X055925Y032072*
X055926Y032077*
X055928Y032083*
X055929Y032088*
X055929Y032094*
X055930Y032100*
X056930D02*
D01*
X056929Y032105*
X056929Y032111*
X056928Y032116*
X056926Y032122*
X056925Y032127*
X056923Y032132*
X056920Y032137*
X056917Y032142*
X056914Y032147*
X056911Y032151*
X056907Y032155*
X056903Y032159*
X056899Y032163*
X056894Y032166*
X056890Y032169*
X056885Y032171*
X056879Y032174*
X056874Y032176*
X056869Y032177*
X056863Y032178*
X056858Y032179*
X056852Y032179*
X056847*
X056841Y032179*
X056836Y032178*
X056830Y032177*
X056825Y032176*
X056820Y032174*
X056814Y032171*
X056810Y032169*
X056805Y032166*
X056800Y032163*
X056796Y032159*
X056792Y032155*
X056788Y032151*
X056785Y032147*
X056782Y032142*
X056779Y032137*
X056776Y032132*
X056774Y032127*
X056773Y032122*
X056771Y032116*
X056770Y032111*
X056770Y032105*
X056770Y032100*
X056770Y032094*
X056770Y032088*
X056771Y032083*
X056773Y032077*
X056774Y032072*
X056776Y032067*
X056779Y032062*
X056782Y032057*
X056785Y032052*
X056788Y032048*
X056792Y032044*
X056796Y032040*
X056800Y032036*
X056805Y032033*
X056810Y032030*
X056814Y032028*
X056820Y032025*
X056825Y032023*
X056830Y032022*
X056836Y032021*
X056841Y032020*
X056847Y032020*
X056852*
X056858Y032020*
X056863Y032021*
X056869Y032022*
X056874Y032023*
X056879Y032025*
X056885Y032028*
X056890Y032030*
X056894Y032033*
X056899Y032036*
X056903Y032040*
X056907Y032044*
X056911Y032048*
X056914Y032052*
X056917Y032057*
X056920Y032062*
X056923Y032067*
X056925Y032072*
X056926Y032077*
X056928Y032083*
X056929Y032088*
X056929Y032094*
X056930Y032100*
X055930Y035100D02*
D01*
X055929Y035105*
X055929Y035111*
X055928Y035116*
X055926Y035122*
X055925Y035127*
X055923Y035132*
X055920Y035137*
X055917Y035142*
X055914Y035147*
X055911Y035151*
X055907Y035155*
X055903Y035159*
X055899Y035163*
X055894Y035166*
X055890Y035169*
X055885Y035171*
X055879Y035174*
X055874Y035176*
X055869Y035177*
X055863Y035178*
X055858Y035179*
X055852Y035179*
X055847*
X055841Y035179*
X055836Y035178*
X055830Y035177*
X055825Y035176*
X055820Y035174*
X055814Y035171*
X055810Y035169*
X055805Y035166*
X055800Y035163*
X055796Y035159*
X055792Y035155*
X055788Y035151*
X055785Y035147*
X055782Y035142*
X055779Y035137*
X055776Y035132*
X055774Y035127*
X055773Y035122*
X055771Y035116*
X055770Y035111*
X055770Y035105*
X055770Y035100*
X055770Y035094*
X055770Y035088*
X055771Y035083*
X055773Y035077*
X055774Y035072*
X055776Y035067*
X055779Y035062*
X055782Y035057*
X055785Y035052*
X055788Y035048*
X055792Y035044*
X055796Y035040*
X055800Y035036*
X055805Y035033*
X055810Y035030*
X055814Y035028*
X055820Y035025*
X055825Y035023*
X055830Y035022*
X055836Y035021*
X055841Y035020*
X055847Y035020*
X055852*
X055858Y035020*
X055863Y035021*
X055869Y035022*
X055874Y035023*
X055879Y035025*
X055885Y035028*
X055890Y035030*
X055894Y035033*
X055899Y035036*
X055903Y035040*
X055907Y035044*
X055911Y035048*
X055914Y035052*
X055917Y035057*
X055920Y035062*
X055923Y035067*
X055925Y035072*
X055926Y035077*
X055928Y035083*
X055929Y035088*
X055929Y035094*
X055930Y035100*
X056930D02*
D01*
X056929Y035105*
X056929Y035111*
X056928Y035116*
X056926Y035122*
X056925Y035127*
X056923Y035132*
X056920Y035137*
X056917Y035142*
X056914Y035147*
X056911Y035151*
X056907Y035155*
X056903Y035159*
X056899Y035163*
X056894Y035166*
X056890Y035169*
X056885Y035171*
X056879Y035174*
X056874Y035176*
X056869Y035177*
X056863Y035178*
X056858Y035179*
X056852Y035179*
X056847*
X056841Y035179*
X056836Y035178*
X056830Y035177*
X056825Y035176*
X056820Y035174*
X056814Y035171*
X056810Y035169*
X056805Y035166*
X056800Y035163*
X056796Y035159*
X056792Y035155*
X056788Y035151*
X056785Y035147*
X056782Y035142*
X056779Y035137*
X056776Y035132*
X056774Y035127*
X056773Y035122*
X056771Y035116*
X056770Y035111*
X056770Y035105*
X056770Y035100*
X056770Y035094*
X056770Y035088*
X056771Y035083*
X056773Y035077*
X056774Y035072*
X056776Y035067*
X056779Y035062*
X056782Y035057*
X056785Y035052*
X056788Y035048*
X056792Y035044*
X056796Y035040*
X056800Y035036*
X056805Y035033*
X056810Y035030*
X056814Y035028*
X056820Y035025*
X056825Y035023*
X056830Y035022*
X056836Y035021*
X056841Y035020*
X056847Y035020*
X056852*
X056858Y035020*
X056863Y035021*
X056869Y035022*
X056874Y035023*
X056879Y035025*
X056885Y035028*
X056890Y035030*
X056894Y035033*
X056899Y035036*
X056903Y035040*
X056907Y035044*
X056911Y035048*
X056914Y035052*
X056917Y035057*
X056920Y035062*
X056923Y035067*
X056925Y035072*
X056926Y035077*
X056928Y035083*
X056929Y035088*
X056929Y035094*
X056930Y035100*
X072480Y032950D02*
D01*
X072479Y032955*
X072479Y032961*
X072478Y032966*
X072476Y032972*
X072475Y032977*
X072473Y032982*
X072470Y032987*
X072467Y032992*
X072464Y032997*
X072461Y033001*
X072457Y033005*
X072453Y033009*
X072449Y033013*
X072444Y033016*
X072440Y033019*
X072435Y033021*
X072429Y033024*
X072424Y033026*
X072419Y033027*
X072413Y033028*
X072408Y033029*
X072402Y033029*
X072397*
X072391Y033029*
X072386Y033028*
X072380Y033027*
X072375Y033026*
X072370Y033024*
X072364Y033021*
X072360Y033019*
X072355Y033016*
X072350Y033013*
X072346Y033009*
X072342Y033005*
X072338Y033001*
X072335Y032997*
X072332Y032992*
X072329Y032987*
X072326Y032982*
X072324Y032977*
X072323Y032972*
X072321Y032966*
X072320Y032961*
X072320Y032955*
X072320Y032950*
X072320Y032944*
X072320Y032938*
X072321Y032933*
X072323Y032927*
X072324Y032922*
X072326Y032917*
X072329Y032912*
X072332Y032907*
X072335Y032902*
X072338Y032898*
X072342Y032894*
X072346Y032890*
X072350Y032886*
X072355Y032883*
X072360Y032880*
X072364Y032878*
X072370Y032875*
X072375Y032873*
X072380Y032872*
X072386Y032871*
X072391Y032870*
X072397Y032870*
X072402*
X072408Y032870*
X072413Y032871*
X072419Y032872*
X072424Y032873*
X072429Y032875*
X072435Y032878*
X072440Y032880*
X072444Y032883*
X072449Y032886*
X072453Y032890*
X072457Y032894*
X072461Y032898*
X072464Y032902*
X072467Y032907*
X072470Y032912*
X072473Y032917*
X072475Y032922*
X072476Y032927*
X072478Y032933*
X072479Y032938*
X072479Y032944*
X072480Y032950*
X073480D02*
D01*
X073479Y032955*
X073479Y032961*
X073478Y032966*
X073476Y032972*
X073475Y032977*
X073473Y032982*
X073470Y032987*
X073467Y032992*
X073464Y032997*
X073461Y033001*
X073457Y033005*
X073453Y033009*
X073449Y033013*
X073444Y033016*
X073440Y033019*
X073435Y033021*
X073429Y033024*
X073424Y033026*
X073419Y033027*
X073413Y033028*
X073408Y033029*
X073402Y033029*
X073397*
X073391Y033029*
X073386Y033028*
X073380Y033027*
X073375Y033026*
X073370Y033024*
X073364Y033021*
X073360Y033019*
X073355Y033016*
X073350Y033013*
X073346Y033009*
X073342Y033005*
X073338Y033001*
X073335Y032997*
X073332Y032992*
X073329Y032987*
X073326Y032982*
X073324Y032977*
X073323Y032972*
X073321Y032966*
X073320Y032961*
X073320Y032955*
X073320Y032950*
X073320Y032944*
X073320Y032938*
X073321Y032933*
X073323Y032927*
X073324Y032922*
X073326Y032917*
X073329Y032912*
X073332Y032907*
X073335Y032902*
X073338Y032898*
X073342Y032894*
X073346Y032890*
X073350Y032886*
X073355Y032883*
X073360Y032880*
X073364Y032878*
X073370Y032875*
X073375Y032873*
X073380Y032872*
X073386Y032871*
X073391Y032870*
X073397Y032870*
X073402*
X073408Y032870*
X073413Y032871*
X073419Y032872*
X073424Y032873*
X073429Y032875*
X073435Y032878*
X073440Y032880*
X073444Y032883*
X073449Y032886*
X073453Y032890*
X073457Y032894*
X073461Y032898*
X073464Y032902*
X073467Y032907*
X073470Y032912*
X073473Y032917*
X073475Y032922*
X073476Y032927*
X073478Y032933*
X073479Y032938*
X073479Y032944*
X073480Y032950*
X074480D02*
D01*
X074479Y032955*
X074479Y032961*
X074478Y032966*
X074476Y032972*
X074475Y032977*
X074473Y032982*
X074470Y032987*
X074467Y032992*
X074464Y032997*
X074461Y033001*
X074457Y033005*
X074453Y033009*
X074449Y033013*
X074444Y033016*
X074440Y033019*
X074435Y033021*
X074429Y033024*
X074424Y033026*
X074419Y033027*
X074413Y033028*
X074408Y033029*
X074402Y033029*
X074397*
X074391Y033029*
X074386Y033028*
X074380Y033027*
X074375Y033026*
X074370Y033024*
X074364Y033021*
X074360Y033019*
X074355Y033016*
X074350Y033013*
X074346Y033009*
X074342Y033005*
X074338Y033001*
X074335Y032997*
X074332Y032992*
X074329Y032987*
X074326Y032982*
X074324Y032977*
X074323Y032972*
X074321Y032966*
X074320Y032961*
X074320Y032955*
X074320Y032950*
X074320Y032944*
X074320Y032938*
X074321Y032933*
X074323Y032927*
X074324Y032922*
X074326Y032917*
X074329Y032912*
X074332Y032907*
X074335Y032902*
X074338Y032898*
X074342Y032894*
X074346Y032890*
X074350Y032886*
X074355Y032883*
X074360Y032880*
X074364Y032878*
X074370Y032875*
X074375Y032873*
X074380Y032872*
X074386Y032871*
X074391Y032870*
X074397Y032870*
X074402*
X074408Y032870*
X074413Y032871*
X074419Y032872*
X074424Y032873*
X074429Y032875*
X074435Y032878*
X074440Y032880*
X074444Y032883*
X074449Y032886*
X074453Y032890*
X074457Y032894*
X074461Y032898*
X074464Y032902*
X074467Y032907*
X074470Y032912*
X074473Y032917*
X074475Y032922*
X074476Y032927*
X074478Y032933*
X074479Y032938*
X074479Y032944*
X074480Y032950*
X058280Y027550D02*
D01*
X058279Y027555*
X058279Y027561*
X058278Y027566*
X058276Y027572*
X058275Y027577*
X058273Y027582*
X058270Y027587*
X058267Y027592*
X058264Y027597*
X058261Y027601*
X058257Y027605*
X058253Y027609*
X058249Y027613*
X058244Y027616*
X058240Y027619*
X058235Y027621*
X058229Y027624*
X058224Y027626*
X058219Y027627*
X058213Y027628*
X058208Y027629*
X058202Y027629*
X058197*
X058191Y027629*
X058186Y027628*
X058180Y027627*
X058175Y027626*
X058170Y027624*
X058164Y027621*
X058160Y027619*
X058155Y027616*
X058150Y027613*
X058146Y027609*
X058142Y027605*
X058138Y027601*
X058135Y027597*
X058132Y027592*
X058129Y027587*
X058126Y027582*
X058124Y027577*
X058123Y027572*
X058121Y027566*
X058120Y027561*
X058120Y027555*
X058120Y027550*
X058120Y027544*
X058120Y027538*
X058121Y027533*
X058123Y027527*
X058124Y027522*
X058126Y027517*
X058129Y027512*
X058132Y027507*
X058135Y027502*
X058138Y027498*
X058142Y027494*
X058146Y027490*
X058150Y027486*
X058155Y027483*
X058160Y027480*
X058164Y027478*
X058170Y027475*
X058175Y027473*
X058180Y027472*
X058186Y027471*
X058191Y027470*
X058197Y027470*
X058202*
X058208Y027470*
X058213Y027471*
X058219Y027472*
X058224Y027473*
X058229Y027475*
X058235Y027478*
X058240Y027480*
X058244Y027483*
X058249Y027486*
X058253Y027490*
X058257Y027494*
X058261Y027498*
X058264Y027502*
X058267Y027507*
X058270Y027512*
X058273Y027517*
X058275Y027522*
X058276Y027527*
X058278Y027533*
X058279Y027538*
X058279Y027544*
X058280Y027550*
X057280D02*
D01*
X057279Y027555*
X057279Y027561*
X057278Y027566*
X057276Y027572*
X057275Y027577*
X057273Y027582*
X057270Y027587*
X057267Y027592*
X057264Y027597*
X057261Y027601*
X057257Y027605*
X057253Y027609*
X057249Y027613*
X057244Y027616*
X057240Y027619*
X057235Y027621*
X057229Y027624*
X057224Y027626*
X057219Y027627*
X057213Y027628*
X057208Y027629*
X057202Y027629*
X057197*
X057191Y027629*
X057186Y027628*
X057180Y027627*
X057175Y027626*
X057170Y027624*
X057164Y027621*
X057160Y027619*
X057155Y027616*
X057150Y027613*
X057146Y027609*
X057142Y027605*
X057138Y027601*
X057135Y027597*
X057132Y027592*
X057129Y027587*
X057126Y027582*
X057124Y027577*
X057123Y027572*
X057121Y027566*
X057120Y027561*
X057120Y027555*
X057120Y027550*
X057120Y027544*
X057120Y027538*
X057121Y027533*
X057123Y027527*
X057124Y027522*
X057126Y027517*
X057129Y027512*
X057132Y027507*
X057135Y027502*
X057138Y027498*
X057142Y027494*
X057146Y027490*
X057150Y027486*
X057155Y027483*
X057160Y027480*
X057164Y027478*
X057170Y027475*
X057175Y027473*
X057180Y027472*
X057186Y027471*
X057191Y027470*
X057197Y027470*
X057202*
X057208Y027470*
X057213Y027471*
X057219Y027472*
X057224Y027473*
X057229Y027475*
X057235Y027478*
X057240Y027480*
X057244Y027483*
X057249Y027486*
X057253Y027490*
X057257Y027494*
X057261Y027498*
X057264Y027502*
X057267Y027507*
X057270Y027512*
X057273Y027517*
X057275Y027522*
X057276Y027527*
X057278Y027533*
X057279Y027538*
X057279Y027544*
X057280Y027550*
X058280Y024550D02*
D01*
X058279Y024555*
X058279Y024561*
X058278Y024566*
X058276Y024572*
X058275Y024577*
X058273Y024582*
X058270Y024587*
X058267Y024592*
X058264Y024597*
X058261Y024601*
X058257Y024605*
X058253Y024609*
X058249Y024613*
X058244Y024616*
X058240Y024619*
X058235Y024621*
X058229Y024624*
X058224Y024626*
X058219Y024627*
X058213Y024628*
X058208Y024629*
X058202Y024629*
X058197*
X058191Y024629*
X058186Y024628*
X058180Y024627*
X058175Y024626*
X058170Y024624*
X058164Y024621*
X058160Y024619*
X058155Y024616*
X058150Y024613*
X058146Y024609*
X058142Y024605*
X058138Y024601*
X058135Y024597*
X058132Y024592*
X058129Y024587*
X058126Y024582*
X058124Y024577*
X058123Y024572*
X058121Y024566*
X058120Y024561*
X058120Y024555*
X058120Y024550*
X058120Y024544*
X058120Y024538*
X058121Y024533*
X058123Y024527*
X058124Y024522*
X058126Y024517*
X058129Y024512*
X058132Y024507*
X058135Y024502*
X058138Y024498*
X058142Y024494*
X058146Y024490*
X058150Y024486*
X058155Y024483*
X058160Y024480*
X058164Y024478*
X058170Y024475*
X058175Y024473*
X058180Y024472*
X058186Y024471*
X058191Y024470*
X058197Y024470*
X058202*
X058208Y024470*
X058213Y024471*
X058219Y024472*
X058224Y024473*
X058229Y024475*
X058235Y024478*
X058240Y024480*
X058244Y024483*
X058249Y024486*
X058253Y024490*
X058257Y024494*
X058261Y024498*
X058264Y024502*
X058267Y024507*
X058270Y024512*
X058273Y024517*
X058275Y024522*
X058276Y024527*
X058278Y024533*
X058279Y024538*
X058279Y024544*
X058280Y024550*
X057280D02*
D01*
X057279Y024555*
X057279Y024561*
X057278Y024566*
X057276Y024572*
X057275Y024577*
X057273Y024582*
X057270Y024587*
X057267Y024592*
X057264Y024597*
X057261Y024601*
X057257Y024605*
X057253Y024609*
X057249Y024613*
X057244Y024616*
X057240Y024619*
X057235Y024621*
X057229Y024624*
X057224Y024626*
X057219Y024627*
X057213Y024628*
X057208Y024629*
X057202Y024629*
X057197*
X057191Y024629*
X057186Y024628*
X057180Y024627*
X057175Y024626*
X057170Y024624*
X057164Y024621*
X057160Y024619*
X057155Y024616*
X057150Y024613*
X057146Y024609*
X057142Y024605*
X057138Y024601*
X057135Y024597*
X057132Y024592*
X057129Y024587*
X057126Y024582*
X057124Y024577*
X057123Y024572*
X057121Y024566*
X057120Y024561*
X057120Y024555*
X057120Y024550*
X057120Y024544*
X057120Y024538*
X057121Y024533*
X057123Y024527*
X057124Y024522*
X057126Y024517*
X057129Y024512*
X057132Y024507*
X057135Y024502*
X057138Y024498*
X057142Y024494*
X057146Y024490*
X057150Y024486*
X057155Y024483*
X057160Y024480*
X057164Y024478*
X057170Y024475*
X057175Y024473*
X057180Y024472*
X057186Y024471*
X057191Y024470*
X057197Y024470*
X057202*
X057208Y024470*
X057213Y024471*
X057219Y024472*
X057224Y024473*
X057229Y024475*
X057235Y024478*
X057240Y024480*
X057244Y024483*
X057249Y024486*
X057253Y024490*
X057257Y024494*
X057261Y024498*
X057264Y024502*
X057267Y024507*
X057270Y024512*
X057273Y024517*
X057275Y024522*
X057276Y024527*
X057278Y024533*
X057279Y024538*
X057279Y024544*
X057280Y024550*
X072211Y023500D02*
D01*
X072210Y023505*
X072210Y023511*
X072209Y023516*
X072207Y023522*
X072206Y023527*
X072204Y023532*
X072201Y023537*
X072198Y023542*
X072195Y023547*
X072192Y023551*
X072188Y023555*
X072184Y023559*
X072180Y023563*
X072175Y023566*
X072171Y023569*
X072166Y023571*
X072160Y023574*
X072155Y023576*
X072150Y023577*
X072144Y023578*
X072139Y023579*
X072133Y023579*
X072128*
X072122Y023579*
X072117Y023578*
X072111Y023577*
X072106Y023576*
X072101Y023574*
X072095Y023571*
X072091Y023569*
X072086Y023566*
X072081Y023563*
X072077Y023559*
X072073Y023555*
X072069Y023551*
X072066Y023547*
X072063Y023542*
X072060Y023537*
X072057Y023532*
X072055Y023527*
X072054Y023522*
X072052Y023516*
X072051Y023511*
X072051Y023505*
X072051Y023500*
X072051Y023494*
X072051Y023488*
X072052Y023483*
X072054Y023477*
X072055Y023472*
X072057Y023467*
X072060Y023462*
X072063Y023457*
X072066Y023452*
X072069Y023448*
X072073Y023444*
X072077Y023440*
X072081Y023436*
X072086Y023433*
X072091Y023430*
X072095Y023428*
X072101Y023425*
X072106Y023423*
X072111Y023422*
X072117Y023421*
X072122Y023420*
X072128Y023420*
X072133*
X072139Y023420*
X072144Y023421*
X072150Y023422*
X072155Y023423*
X072160Y023425*
X072166Y023428*
X072171Y023430*
X072175Y023433*
X072180Y023436*
X072184Y023440*
X072188Y023444*
X072192Y023448*
X072195Y023452*
X072198Y023457*
X072201Y023462*
X072204Y023467*
X072206Y023472*
X072207Y023477*
X072209Y023483*
X072210Y023488*
X072210Y023494*
X072211Y023500*
X071212D02*
D01*
X071211Y023505*
X071211Y023511*
X071210Y023516*
X071208Y023522*
X071207Y023527*
X071205Y023532*
X071202Y023537*
X071199Y023542*
X071196Y023547*
X071193Y023551*
X071189Y023555*
X071185Y023559*
X071181Y023563*
X071176Y023566*
X071172Y023569*
X071167Y023571*
X071161Y023574*
X071156Y023576*
X071151Y023577*
X071145Y023578*
X071140Y023579*
X071134Y023579*
X071129*
X071123Y023579*
X071118Y023578*
X071112Y023577*
X071107Y023576*
X071102Y023574*
X071096Y023571*
X071092Y023569*
X071087Y023566*
X071082Y023563*
X071078Y023559*
X071074Y023555*
X071070Y023551*
X071067Y023547*
X071064Y023542*
X071061Y023537*
X071058Y023532*
X071056Y023527*
X071055Y023522*
X071053Y023516*
X071052Y023511*
X071052Y023505*
X071052Y023500*
X071052Y023494*
X071052Y023488*
X071053Y023483*
X071055Y023477*
X071056Y023472*
X071058Y023467*
X071061Y023462*
X071064Y023457*
X071067Y023452*
X071070Y023448*
X071074Y023444*
X071078Y023440*
X071082Y023436*
X071087Y023433*
X071092Y023430*
X071096Y023428*
X071102Y023425*
X071107Y023423*
X071112Y023422*
X071118Y023421*
X071123Y023420*
X071129Y023420*
X071134*
X071140Y023420*
X071145Y023421*
X071151Y023422*
X071156Y023423*
X071161Y023425*
X071167Y023428*
X071172Y023430*
X071176Y023433*
X071181Y023436*
X071185Y023440*
X071189Y023444*
X071193Y023448*
X071196Y023452*
X071199Y023457*
X071202Y023462*
X071205Y023467*
X071207Y023472*
X071208Y023477*
X071210Y023483*
X071211Y023488*
X071211Y023494*
X071212Y023500*
X072211Y020500D02*
D01*
X072210Y020505*
X072210Y020511*
X072209Y020516*
X072207Y020522*
X072206Y020527*
X072204Y020532*
X072201Y020537*
X072198Y020542*
X072195Y020547*
X072192Y020551*
X072188Y020555*
X072184Y020559*
X072180Y020563*
X072175Y020566*
X072171Y020569*
X072166Y020571*
X072160Y020574*
X072155Y020576*
X072150Y020577*
X072144Y020578*
X072139Y020579*
X072133Y020579*
X072128*
X072122Y020579*
X072117Y020578*
X072111Y020577*
X072106Y020576*
X072101Y020574*
X072095Y020571*
X072091Y020569*
X072086Y020566*
X072081Y020563*
X072077Y020559*
X072073Y020555*
X072069Y020551*
X072066Y020547*
X072063Y020542*
X072060Y020537*
X072057Y020532*
X072055Y020527*
X072054Y020522*
X072052Y020516*
X072051Y020511*
X072051Y020505*
X072051Y020500*
X072051Y020494*
X072051Y020488*
X072052Y020483*
X072054Y020477*
X072055Y020472*
X072057Y020467*
X072060Y020462*
X072063Y020457*
X072066Y020452*
X072069Y020448*
X072073Y020444*
X072077Y020440*
X072081Y020436*
X072086Y020433*
X072091Y020430*
X072095Y020428*
X072101Y020425*
X072106Y020423*
X072111Y020422*
X072117Y020421*
X072122Y020420*
X072128Y020420*
X072133*
X072139Y020420*
X072144Y020421*
X072150Y020422*
X072155Y020423*
X072160Y020425*
X072166Y020428*
X072171Y020430*
X072175Y020433*
X072180Y020436*
X072184Y020440*
X072188Y020444*
X072192Y020448*
X072195Y020452*
X072198Y020457*
X072201Y020462*
X072204Y020467*
X072206Y020472*
X072207Y020477*
X072209Y020483*
X072210Y020488*
X072210Y020494*
X072211Y020500*
X071212D02*
D01*
X071211Y020505*
X071211Y020511*
X071210Y020516*
X071208Y020522*
X071207Y020527*
X071205Y020532*
X071202Y020537*
X071199Y020542*
X071196Y020547*
X071193Y020551*
X071189Y020555*
X071185Y020559*
X071181Y020563*
X071176Y020566*
X071172Y020569*
X071167Y020571*
X071161Y020574*
X071156Y020576*
X071151Y020577*
X071145Y020578*
X071140Y020579*
X071134Y020579*
X071129*
X071123Y020579*
X071118Y020578*
X071112Y020577*
X071107Y020576*
X071102Y020574*
X071096Y020571*
X071092Y020569*
X071087Y020566*
X071082Y020563*
X071078Y020559*
X071074Y020555*
X071070Y020551*
X071067Y020547*
X071064Y020542*
X071061Y020537*
X071058Y020532*
X071056Y020527*
X071055Y020522*
X071053Y020516*
X071052Y020511*
X071052Y020505*
X071052Y020500*
X071052Y020494*
X071052Y020488*
X071053Y020483*
X071055Y020477*
X071056Y020472*
X071058Y020467*
X071061Y020462*
X071064Y020457*
X071067Y020452*
X071070Y020448*
X071074Y020444*
X071078Y020440*
X071082Y020436*
X071087Y020433*
X071092Y020430*
X071096Y020428*
X071102Y020425*
X071107Y020423*
X071112Y020422*
X071118Y020421*
X071123Y020420*
X071129Y020420*
X071134*
X071140Y020420*
X071145Y020421*
X071151Y020422*
X071156Y020423*
X071161Y020425*
X071167Y020428*
X071172Y020430*
X071176Y020433*
X071181Y020436*
X071185Y020440*
X071189Y020444*
X071193Y020448*
X071196Y020452*
X071199Y020457*
X071202Y020462*
X071205Y020467*
X071207Y020472*
X071208Y020477*
X071210Y020483*
X071211Y020488*
X071211Y020494*
X071212Y020500*
X067062Y023500D02*
D01*
X067061Y023505*
X067061Y023511*
X067060Y023516*
X067058Y023522*
X067057Y023527*
X067055Y023532*
X067052Y023537*
X067049Y023542*
X067046Y023547*
X067043Y023551*
X067039Y023555*
X067035Y023559*
X067031Y023563*
X067026Y023566*
X067022Y023569*
X067017Y023571*
X067011Y023574*
X067006Y023576*
X067001Y023577*
X066995Y023578*
X066990Y023579*
X066984Y023579*
X066979*
X066973Y023579*
X066968Y023578*
X066962Y023577*
X066957Y023576*
X066952Y023574*
X066946Y023571*
X066942Y023569*
X066937Y023566*
X066932Y023563*
X066928Y023559*
X066924Y023555*
X066920Y023551*
X066917Y023547*
X066914Y023542*
X066911Y023537*
X066908Y023532*
X066906Y023527*
X066905Y023522*
X066903Y023516*
X066902Y023511*
X066902Y023505*
X066902Y023500*
X066902Y023494*
X066902Y023488*
X066903Y023483*
X066905Y023477*
X066906Y023472*
X066908Y023467*
X066911Y023462*
X066914Y023457*
X066917Y023452*
X066920Y023448*
X066924Y023444*
X066928Y023440*
X066932Y023436*
X066937Y023433*
X066942Y023430*
X066946Y023428*
X066952Y023425*
X066957Y023423*
X066962Y023422*
X066968Y023421*
X066973Y023420*
X066979Y023420*
X066984*
X066990Y023420*
X066995Y023421*
X067001Y023422*
X067006Y023423*
X067011Y023425*
X067017Y023428*
X067022Y023430*
X067026Y023433*
X067031Y023436*
X067035Y023440*
X067039Y023444*
X067043Y023448*
X067046Y023452*
X067049Y023457*
X067052Y023462*
X067055Y023467*
X067057Y023472*
X067058Y023477*
X067060Y023483*
X067061Y023488*
X067061Y023494*
X067062Y023500*
X066062D02*
D01*
X066061Y023505*
X066061Y023511*
X066060Y023516*
X066058Y023522*
X066057Y023527*
X066055Y023532*
X066052Y023537*
X066049Y023542*
X066046Y023547*
X066043Y023551*
X066039Y023555*
X066035Y023559*
X066031Y023563*
X066026Y023566*
X066022Y023569*
X066017Y023571*
X066011Y023574*
X066006Y023576*
X066001Y023577*
X065995Y023578*
X065990Y023579*
X065984Y023579*
X065979*
X065973Y023579*
X065968Y023578*
X065962Y023577*
X065957Y023576*
X065952Y023574*
X065946Y023571*
X065942Y023569*
X065937Y023566*
X065932Y023563*
X065928Y023559*
X065924Y023555*
X065920Y023551*
X065917Y023547*
X065914Y023542*
X065911Y023537*
X065908Y023532*
X065906Y023527*
X065905Y023522*
X065903Y023516*
X065902Y023511*
X065902Y023505*
X065902Y023500*
X065902Y023494*
X065902Y023488*
X065903Y023483*
X065905Y023477*
X065906Y023472*
X065908Y023467*
X065911Y023462*
X065914Y023457*
X065917Y023452*
X065920Y023448*
X065924Y023444*
X065928Y023440*
X065932Y023436*
X065937Y023433*
X065942Y023430*
X065946Y023428*
X065952Y023425*
X065957Y023423*
X065962Y023422*
X065968Y023421*
X065973Y023420*
X065979Y023420*
X065984*
X065990Y023420*
X065995Y023421*
X066001Y023422*
X066006Y023423*
X066011Y023425*
X066017Y023428*
X066022Y023430*
X066026Y023433*
X066031Y023436*
X066035Y023440*
X066039Y023444*
X066043Y023448*
X066046Y023452*
X066049Y023457*
X066052Y023462*
X066055Y023467*
X066057Y023472*
X066058Y023477*
X066060Y023483*
X066061Y023488*
X066061Y023494*
X066062Y023500*
X067062Y020500D02*
D01*
X067061Y020505*
X067061Y020511*
X067060Y020516*
X067058Y020522*
X067057Y020527*
X067055Y020532*
X067052Y020537*
X067049Y020542*
X067046Y020547*
X067043Y020551*
X067039Y020555*
X067035Y020559*
X067031Y020563*
X067026Y020566*
X067022Y020569*
X067017Y020571*
X067011Y020574*
X067006Y020576*
X067001Y020577*
X066995Y020578*
X066990Y020579*
X066984Y020579*
X066979*
X066973Y020579*
X066968Y020578*
X066962Y020577*
X066957Y020576*
X066952Y020574*
X066946Y020571*
X066942Y020569*
X066937Y020566*
X066932Y020563*
X066928Y020559*
X066924Y020555*
X066920Y020551*
X066917Y020547*
X066914Y020542*
X066911Y020537*
X066908Y020532*
X066906Y020527*
X066905Y020522*
X066903Y020516*
X066902Y020511*
X066902Y020505*
X066902Y020500*
X066902Y020494*
X066902Y020488*
X066903Y020483*
X066905Y020477*
X066906Y020472*
X066908Y020467*
X066911Y020462*
X066914Y020457*
X066917Y020452*
X066920Y020448*
X066924Y020444*
X066928Y020440*
X066932Y020436*
X066937Y020433*
X066942Y020430*
X066946Y020428*
X066952Y020425*
X066957Y020423*
X066962Y020422*
X066968Y020421*
X066973Y020420*
X066979Y020420*
X066984*
X066990Y020420*
X066995Y020421*
X067001Y020422*
X067006Y020423*
X067011Y020425*
X067017Y020428*
X067022Y020430*
X067026Y020433*
X067031Y020436*
X067035Y020440*
X067039Y020444*
X067043Y020448*
X067046Y020452*
X067049Y020457*
X067052Y020462*
X067055Y020467*
X067057Y020472*
X067058Y020477*
X067060Y020483*
X067061Y020488*
X067061Y020494*
X067062Y020500*
X066062D02*
D01*
X066061Y020505*
X066061Y020511*
X066060Y020516*
X066058Y020522*
X066057Y020527*
X066055Y020532*
X066052Y020537*
X066049Y020542*
X066046Y020547*
X066043Y020551*
X066039Y020555*
X066035Y020559*
X066031Y020563*
X066026Y020566*
X066022Y020569*
X066017Y020571*
X066011Y020574*
X066006Y020576*
X066001Y020577*
X065995Y020578*
X065990Y020579*
X065984Y020579*
X065979*
X065973Y020579*
X065968Y020578*
X065962Y020577*
X065957Y020576*
X065952Y020574*
X065946Y020571*
X065942Y020569*
X065937Y020566*
X065932Y020563*
X065928Y020559*
X065924Y020555*
X065920Y020551*
X065917Y020547*
X065914Y020542*
X065911Y020537*
X065908Y020532*
X065906Y020527*
X065905Y020522*
X065903Y020516*
X065902Y020511*
X065902Y020505*
X065902Y020500*
X065902Y020494*
X065902Y020488*
X065903Y020483*
X065905Y020477*
X065906Y020472*
X065908Y020467*
X065911Y020462*
X065914Y020457*
X065917Y020452*
X065920Y020448*
X065924Y020444*
X065928Y020440*
X065932Y020436*
X065937Y020433*
X065942Y020430*
X065946Y020428*
X065952Y020425*
X065957Y020423*
X065962Y020422*
X065968Y020421*
X065973Y020420*
X065979Y020420*
X065984*
X065990Y020420*
X065995Y020421*
X066001Y020422*
X066006Y020423*
X066011Y020425*
X066017Y020428*
X066022Y020430*
X066026Y020433*
X066031Y020436*
X066035Y020440*
X066039Y020444*
X066043Y020448*
X066046Y020452*
X066049Y020457*
X066052Y020462*
X066055Y020467*
X066057Y020472*
X066058Y020477*
X066060Y020483*
X066061Y020488*
X066061Y020494*
X066062Y020500*
X077346Y023550D02*
D01*
X077345Y023555*
X077345Y023561*
X077344Y023566*
X077342Y023572*
X077341Y023577*
X077339Y023582*
X077336Y023587*
X077333Y023592*
X077330Y023597*
X077327Y023601*
X077323Y023605*
X077319Y023609*
X077315Y023613*
X077310Y023616*
X077306Y023619*
X077301Y023621*
X077295Y023624*
X077290Y023626*
X077285Y023627*
X077279Y023628*
X077274Y023629*
X077268Y023629*
X077263*
X077257Y023629*
X077252Y023628*
X077246Y023627*
X077241Y023626*
X077236Y023624*
X077230Y023621*
X077226Y023619*
X077221Y023616*
X077216Y023613*
X077212Y023609*
X077208Y023605*
X077204Y023601*
X077201Y023597*
X077198Y023592*
X077195Y023587*
X077192Y023582*
X077190Y023577*
X077189Y023572*
X077187Y023566*
X077186Y023561*
X077186Y023555*
X077186Y023550*
X077186Y023544*
X077186Y023538*
X077187Y023533*
X077189Y023527*
X077190Y023522*
X077192Y023517*
X077195Y023512*
X077198Y023507*
X077201Y023502*
X077204Y023498*
X077208Y023494*
X077212Y023490*
X077216Y023486*
X077221Y023483*
X077226Y023480*
X077230Y023478*
X077236Y023475*
X077241Y023473*
X077246Y023472*
X077252Y023471*
X077257Y023470*
X077263Y023470*
X077268*
X077274Y023470*
X077279Y023471*
X077285Y023472*
X077290Y023473*
X077295Y023475*
X077301Y023478*
X077306Y023480*
X077310Y023483*
X077315Y023486*
X077319Y023490*
X077323Y023494*
X077327Y023498*
X077330Y023502*
X077333Y023507*
X077336Y023512*
X077339Y023517*
X077341Y023522*
X077342Y023527*
X077344Y023533*
X077345Y023538*
X077345Y023544*
X077346Y023550*
X076346D02*
D01*
X076345Y023555*
X076345Y023561*
X076344Y023566*
X076342Y023572*
X076341Y023577*
X076339Y023582*
X076336Y023587*
X076333Y023592*
X076330Y023597*
X076327Y023601*
X076323Y023605*
X076319Y023609*
X076315Y023613*
X076310Y023616*
X076306Y023619*
X076301Y023621*
X076295Y023624*
X076290Y023626*
X076285Y023627*
X076279Y023628*
X076274Y023629*
X076268Y023629*
X076263*
X076257Y023629*
X076252Y023628*
X076246Y023627*
X076241Y023626*
X076236Y023624*
X076230Y023621*
X076226Y023619*
X076221Y023616*
X076216Y023613*
X076212Y023609*
X076208Y023605*
X076204Y023601*
X076201Y023597*
X076198Y023592*
X076195Y023587*
X076192Y023582*
X076190Y023577*
X076189Y023572*
X076187Y023566*
X076186Y023561*
X076186Y023555*
X076186Y023550*
X076186Y023544*
X076186Y023538*
X076187Y023533*
X076189Y023527*
X076190Y023522*
X076192Y023517*
X076195Y023512*
X076198Y023507*
X076201Y023502*
X076204Y023498*
X076208Y023494*
X076212Y023490*
X076216Y023486*
X076221Y023483*
X076226Y023480*
X076230Y023478*
X076236Y023475*
X076241Y023473*
X076246Y023472*
X076252Y023471*
X076257Y023470*
X076263Y023470*
X076268*
X076274Y023470*
X076279Y023471*
X076285Y023472*
X076290Y023473*
X076295Y023475*
X076301Y023478*
X076306Y023480*
X076310Y023483*
X076315Y023486*
X076319Y023490*
X076323Y023494*
X076327Y023498*
X076330Y023502*
X076333Y023507*
X076336Y023512*
X076339Y023517*
X076341Y023522*
X076342Y023527*
X076344Y023533*
X076345Y023538*
X076345Y023544*
X076346Y023550*
X077346Y020550D02*
D01*
X077345Y020555*
X077345Y020561*
X077344Y020566*
X077342Y020572*
X077341Y020577*
X077339Y020582*
X077336Y020587*
X077333Y020592*
X077330Y020597*
X077327Y020601*
X077323Y020605*
X077319Y020609*
X077315Y020613*
X077310Y020616*
X077306Y020619*
X077301Y020621*
X077295Y020624*
X077290Y020626*
X077285Y020627*
X077279Y020628*
X077274Y020629*
X077268Y020629*
X077263*
X077257Y020629*
X077252Y020628*
X077246Y020627*
X077241Y020626*
X077236Y020624*
X077230Y020621*
X077226Y020619*
X077221Y020616*
X077216Y020613*
X077212Y020609*
X077208Y020605*
X077204Y020601*
X077201Y020597*
X077198Y020592*
X077195Y020587*
X077192Y020582*
X077190Y020577*
X077189Y020572*
X077187Y020566*
X077186Y020561*
X077186Y020555*
X077186Y020550*
X077186Y020544*
X077186Y020538*
X077187Y020533*
X077189Y020527*
X077190Y020522*
X077192Y020517*
X077195Y020512*
X077198Y020507*
X077201Y020502*
X077204Y020498*
X077208Y020494*
X077212Y020490*
X077216Y020486*
X077221Y020483*
X077226Y020480*
X077230Y020478*
X077236Y020475*
X077241Y020473*
X077246Y020472*
X077252Y020471*
X077257Y020470*
X077263Y020470*
X077268*
X077274Y020470*
X077279Y020471*
X077285Y020472*
X077290Y020473*
X077295Y020475*
X077301Y020478*
X077306Y020480*
X077310Y020483*
X077315Y020486*
X077319Y020490*
X077323Y020494*
X077327Y020498*
X077330Y020502*
X077333Y020507*
X077336Y020512*
X077339Y020517*
X077341Y020522*
X077342Y020527*
X077344Y020533*
X077345Y020538*
X077345Y020544*
X077346Y020550*
X076346D02*
D01*
X076345Y020555*
X076345Y020561*
X076344Y020566*
X076342Y020572*
X076341Y020577*
X076339Y020582*
X076336Y020587*
X076333Y020592*
X076330Y020597*
X076327Y020601*
X076323Y020605*
X076319Y020609*
X076315Y020613*
X076310Y020616*
X076306Y020619*
X076301Y020621*
X076295Y020624*
X076290Y020626*
X076285Y020627*
X076279Y020628*
X076274Y020629*
X076268Y020629*
X076263*
X076257Y020629*
X076252Y020628*
X076246Y020627*
X076241Y020626*
X076236Y020624*
X076230Y020621*
X076226Y020619*
X076221Y020616*
X076216Y020613*
X076212Y020609*
X076208Y020605*
X076204Y020601*
X076201Y020597*
X076198Y020592*
X076195Y020587*
X076192Y020582*
X076190Y020577*
X076189Y020572*
X076187Y020566*
X076186Y020561*
X076186Y020555*
X076186Y020550*
X076186Y020544*
X076186Y020538*
X076187Y020533*
X076189Y020527*
X076190Y020522*
X076192Y020517*
X076195Y020512*
X076198Y020507*
X076201Y020502*
X076204Y020498*
X076208Y020494*
X076212Y020490*
X076216Y020486*
X076221Y020483*
X076226Y020480*
X076230Y020478*
X076236Y020475*
X076241Y020473*
X076246Y020472*
X076252Y020471*
X076257Y020470*
X076263Y020470*
X076268*
X076274Y020470*
X076279Y020471*
X076285Y020472*
X076290Y020473*
X076295Y020475*
X076301Y020478*
X076306Y020480*
X076310Y020483*
X076315Y020486*
X076319Y020490*
X076323Y020494*
X076327Y020498*
X076330Y020502*
X076333Y020507*
X076336Y020512*
X076339Y020517*
X076341Y020522*
X076342Y020527*
X076344Y020533*
X076345Y020538*
X076345Y020544*
X076346Y020550*
X078299Y035900D02*
D01*
X078298Y035905*
X078298Y035911*
X078297Y035916*
X078295Y035922*
X078294Y035927*
X078292Y035932*
X078289Y035937*
X078286Y035942*
X078283Y035947*
X078280Y035951*
X078276Y035955*
X078272Y035959*
X078268Y035963*
X078263Y035966*
X078259Y035969*
X078254Y035971*
X078248Y035974*
X078243Y035976*
X078238Y035977*
X078232Y035978*
X078227Y035979*
X078221Y035979*
X078216*
X078210Y035979*
X078205Y035978*
X078199Y035977*
X078194Y035976*
X078189Y035974*
X078183Y035971*
X078179Y035969*
X078174Y035966*
X078169Y035963*
X078165Y035959*
X078161Y035955*
X078157Y035951*
X078154Y035947*
X078151Y035942*
X078148Y035937*
X078145Y035932*
X078143Y035927*
X078142Y035922*
X078140Y035916*
X078139Y035911*
X078139Y035905*
X078139Y035900*
X078139Y035894*
X078139Y035888*
X078140Y035883*
X078142Y035877*
X078143Y035872*
X078145Y035867*
X078148Y035862*
X078151Y035857*
X078154Y035852*
X078157Y035848*
X078161Y035844*
X078165Y035840*
X078169Y035836*
X078174Y035833*
X078179Y035830*
X078183Y035828*
X078189Y035825*
X078194Y035823*
X078199Y035822*
X078205Y035821*
X078210Y035820*
X078216Y035820*
X078221*
X078227Y035820*
X078232Y035821*
X078238Y035822*
X078243Y035823*
X078248Y035825*
X078254Y035828*
X078259Y035830*
X078263Y035833*
X078268Y035836*
X078272Y035840*
X078276Y035844*
X078280Y035848*
X078283Y035852*
X078286Y035857*
X078289Y035862*
X078292Y035867*
X078294Y035872*
X078295Y035877*
X078297Y035883*
X078298Y035888*
X078298Y035894*
X078299Y035900*
X079299D02*
D01*
X079298Y035905*
X079298Y035911*
X079297Y035916*
X079295Y035922*
X079294Y035927*
X079292Y035932*
X079289Y035937*
X079286Y035942*
X079283Y035947*
X079280Y035951*
X079276Y035955*
X079272Y035959*
X079268Y035963*
X079263Y035966*
X079259Y035969*
X079254Y035971*
X079248Y035974*
X079243Y035976*
X079238Y035977*
X079232Y035978*
X079227Y035979*
X079221Y035979*
X079216*
X079210Y035979*
X079205Y035978*
X079199Y035977*
X079194Y035976*
X079189Y035974*
X079183Y035971*
X079179Y035969*
X079174Y035966*
X079169Y035963*
X079165Y035959*
X079161Y035955*
X079157Y035951*
X079154Y035947*
X079151Y035942*
X079148Y035937*
X079145Y035932*
X079143Y035927*
X079142Y035922*
X079140Y035916*
X079139Y035911*
X079139Y035905*
X079139Y035900*
X079139Y035894*
X079139Y035888*
X079140Y035883*
X079142Y035877*
X079143Y035872*
X079145Y035867*
X079148Y035862*
X079151Y035857*
X079154Y035852*
X079157Y035848*
X079161Y035844*
X079165Y035840*
X079169Y035836*
X079174Y035833*
X079179Y035830*
X079183Y035828*
X079189Y035825*
X079194Y035823*
X079199Y035822*
X079205Y035821*
X079210Y035820*
X079216Y035820*
X079221*
X079227Y035820*
X079232Y035821*
X079238Y035822*
X079243Y035823*
X079248Y035825*
X079254Y035828*
X079259Y035830*
X079263Y035833*
X079268Y035836*
X079272Y035840*
X079276Y035844*
X079280Y035848*
X079283Y035852*
X079286Y035857*
X079289Y035862*
X079292Y035867*
X079294Y035872*
X079295Y035877*
X079297Y035883*
X079298Y035888*
X079298Y035894*
X079299Y035900*
X078299Y038900D02*
D01*
X078298Y038905*
X078298Y038911*
X078297Y038916*
X078295Y038922*
X078294Y038927*
X078292Y038932*
X078289Y038937*
X078286Y038942*
X078283Y038947*
X078280Y038951*
X078276Y038955*
X078272Y038959*
X078268Y038963*
X078263Y038966*
X078259Y038969*
X078254Y038971*
X078248Y038974*
X078243Y038976*
X078238Y038977*
X078232Y038978*
X078227Y038979*
X078221Y038979*
X078216*
X078210Y038979*
X078205Y038978*
X078199Y038977*
X078194Y038976*
X078189Y038974*
X078183Y038971*
X078179Y038969*
X078174Y038966*
X078169Y038963*
X078165Y038959*
X078161Y038955*
X078157Y038951*
X078154Y038947*
X078151Y038942*
X078148Y038937*
X078145Y038932*
X078143Y038927*
X078142Y038922*
X078140Y038916*
X078139Y038911*
X078139Y038905*
X078139Y038900*
X078139Y038894*
X078139Y038888*
X078140Y038883*
X078142Y038877*
X078143Y038872*
X078145Y038867*
X078148Y038862*
X078151Y038857*
X078154Y038852*
X078157Y038848*
X078161Y038844*
X078165Y038840*
X078169Y038836*
X078174Y038833*
X078179Y038830*
X078183Y038828*
X078189Y038825*
X078194Y038823*
X078199Y038822*
X078205Y038821*
X078210Y038820*
X078216Y038820*
X078221*
X078227Y038820*
X078232Y038821*
X078238Y038822*
X078243Y038823*
X078248Y038825*
X078254Y038828*
X078259Y038830*
X078263Y038833*
X078268Y038836*
X078272Y038840*
X078276Y038844*
X078280Y038848*
X078283Y038852*
X078286Y038857*
X078289Y038862*
X078292Y038867*
X078294Y038872*
X078295Y038877*
X078297Y038883*
X078298Y038888*
X078298Y038894*
X078299Y038900*
X079299D02*
D01*
X079298Y038905*
X079298Y038911*
X079297Y038916*
X079295Y038922*
X079294Y038927*
X079292Y038932*
X079289Y038937*
X079286Y038942*
X079283Y038947*
X079280Y038951*
X079276Y038955*
X079272Y038959*
X079268Y038963*
X079263Y038966*
X079259Y038969*
X079254Y038971*
X079248Y038974*
X079243Y038976*
X079238Y038977*
X079232Y038978*
X079227Y038979*
X079221Y038979*
X079216*
X079210Y038979*
X079205Y038978*
X079199Y038977*
X079194Y038976*
X079189Y038974*
X079183Y038971*
X079179Y038969*
X079174Y038966*
X079169Y038963*
X079165Y038959*
X079161Y038955*
X079157Y038951*
X079154Y038947*
X079151Y038942*
X079148Y038937*
X079145Y038932*
X079143Y038927*
X079142Y038922*
X079140Y038916*
X079139Y038911*
X079139Y038905*
X079139Y038900*
X079139Y038894*
X079139Y038888*
X079140Y038883*
X079142Y038877*
X079143Y038872*
X079145Y038867*
X079148Y038862*
X079151Y038857*
X079154Y038852*
X079157Y038848*
X079161Y038844*
X079165Y038840*
X079169Y038836*
X079174Y038833*
X079179Y038830*
X079183Y038828*
X079189Y038825*
X079194Y038823*
X079199Y038822*
X079205Y038821*
X079210Y038820*
X079216Y038820*
X079221*
X079227Y038820*
X079232Y038821*
X079238Y038822*
X079243Y038823*
X079248Y038825*
X079254Y038828*
X079259Y038830*
X079263Y038833*
X079268Y038836*
X079272Y038840*
X079276Y038844*
X079280Y038848*
X079283Y038852*
X079286Y038857*
X079289Y038862*
X079292Y038867*
X079294Y038872*
X079295Y038877*
X079297Y038883*
X079298Y038888*
X079298Y038894*
X079299Y038900*
X073064Y035900D02*
D01*
X073063Y035905*
X073063Y035911*
X073062Y035916*
X073060Y035922*
X073059Y035927*
X073057Y035932*
X073054Y035937*
X073051Y035942*
X073048Y035947*
X073045Y035951*
X073041Y035955*
X073037Y035959*
X073033Y035963*
X073028Y035966*
X073024Y035969*
X073019Y035971*
X073013Y035974*
X073008Y035976*
X073003Y035977*
X072997Y035978*
X072992Y035979*
X072986Y035979*
X072981*
X072975Y035979*
X072970Y035978*
X072964Y035977*
X072959Y035976*
X072954Y035974*
X072948Y035971*
X072944Y035969*
X072939Y035966*
X072934Y035963*
X072930Y035959*
X072926Y035955*
X072922Y035951*
X072919Y035947*
X072916Y035942*
X072913Y035937*
X072910Y035932*
X072908Y035927*
X072907Y035922*
X072905Y035916*
X072904Y035911*
X072904Y035905*
X072904Y035900*
X072904Y035894*
X072904Y035888*
X072905Y035883*
X072907Y035877*
X072908Y035872*
X072910Y035867*
X072913Y035862*
X072916Y035857*
X072919Y035852*
X072922Y035848*
X072926Y035844*
X072930Y035840*
X072934Y035836*
X072939Y035833*
X072944Y035830*
X072948Y035828*
X072954Y035825*
X072959Y035823*
X072964Y035822*
X072970Y035821*
X072975Y035820*
X072981Y035820*
X072986*
X072992Y035820*
X072997Y035821*
X073003Y035822*
X073008Y035823*
X073013Y035825*
X073019Y035828*
X073024Y035830*
X073028Y035833*
X073033Y035836*
X073037Y035840*
X073041Y035844*
X073045Y035848*
X073048Y035852*
X073051Y035857*
X073054Y035862*
X073057Y035867*
X073059Y035872*
X073060Y035877*
X073062Y035883*
X073063Y035888*
X073063Y035894*
X073064Y035900*
X074064D02*
D01*
X074063Y035905*
X074063Y035911*
X074062Y035916*
X074060Y035922*
X074059Y035927*
X074057Y035932*
X074054Y035937*
X074051Y035942*
X074048Y035947*
X074045Y035951*
X074041Y035955*
X074037Y035959*
X074033Y035963*
X074028Y035966*
X074024Y035969*
X074019Y035971*
X074013Y035974*
X074008Y035976*
X074003Y035977*
X073997Y035978*
X073992Y035979*
X073986Y035979*
X073981*
X073975Y035979*
X073970Y035978*
X073964Y035977*
X073959Y035976*
X073954Y035974*
X073948Y035971*
X073944Y035969*
X073939Y035966*
X073934Y035963*
X073930Y035959*
X073926Y035955*
X073922Y035951*
X073919Y035947*
X073916Y035942*
X073913Y035937*
X073910Y035932*
X073908Y035927*
X073907Y035922*
X073905Y035916*
X073904Y035911*
X073904Y035905*
X073904Y035900*
X073904Y035894*
X073904Y035888*
X073905Y035883*
X073907Y035877*
X073908Y035872*
X073910Y035867*
X073913Y035862*
X073916Y035857*
X073919Y035852*
X073922Y035848*
X073926Y035844*
X073930Y035840*
X073934Y035836*
X073939Y035833*
X073944Y035830*
X073948Y035828*
X073954Y035825*
X073959Y035823*
X073964Y035822*
X073970Y035821*
X073975Y035820*
X073981Y035820*
X073986*
X073992Y035820*
X073997Y035821*
X074003Y035822*
X074008Y035823*
X074013Y035825*
X074019Y035828*
X074024Y035830*
X074028Y035833*
X074033Y035836*
X074037Y035840*
X074041Y035844*
X074045Y035848*
X074048Y035852*
X074051Y035857*
X074054Y035862*
X074057Y035867*
X074059Y035872*
X074060Y035877*
X074062Y035883*
X074063Y035888*
X074063Y035894*
X074064Y035900*
X073064Y038900D02*
D01*
X073063Y038905*
X073063Y038911*
X073062Y038916*
X073060Y038922*
X073059Y038927*
X073057Y038932*
X073054Y038937*
X073051Y038942*
X073048Y038947*
X073045Y038951*
X073041Y038955*
X073037Y038959*
X073033Y038963*
X073028Y038966*
X073024Y038969*
X073019Y038971*
X073013Y038974*
X073008Y038976*
X073003Y038977*
X072997Y038978*
X072992Y038979*
X072986Y038979*
X072981*
X072975Y038979*
X072970Y038978*
X072964Y038977*
X072959Y038976*
X072954Y038974*
X072948Y038971*
X072944Y038969*
X072939Y038966*
X072934Y038963*
X072930Y038959*
X072926Y038955*
X072922Y038951*
X072919Y038947*
X072916Y038942*
X072913Y038937*
X072910Y038932*
X072908Y038927*
X072907Y038922*
X072905Y038916*
X072904Y038911*
X072904Y038905*
X072904Y038900*
X072904Y038894*
X072904Y038888*
X072905Y038883*
X072907Y038877*
X072908Y038872*
X072910Y038867*
X072913Y038862*
X072916Y038857*
X072919Y038852*
X072922Y038848*
X072926Y038844*
X072930Y038840*
X072934Y038836*
X072939Y038833*
X072944Y038830*
X072948Y038828*
X072954Y038825*
X072959Y038823*
X072964Y038822*
X072970Y038821*
X072975Y038820*
X072981Y038820*
X072986*
X072992Y038820*
X072997Y038821*
X073003Y038822*
X073008Y038823*
X073013Y038825*
X073019Y038828*
X073024Y038830*
X073028Y038833*
X073033Y038836*
X073037Y038840*
X073041Y038844*
X073045Y038848*
X073048Y038852*
X073051Y038857*
X073054Y038862*
X073057Y038867*
X073059Y038872*
X073060Y038877*
X073062Y038883*
X073063Y038888*
X073063Y038894*
X073064Y038900*
X074064D02*
D01*
X074063Y038905*
X074063Y038911*
X074062Y038916*
X074060Y038922*
X074059Y038927*
X074057Y038932*
X074054Y038937*
X074051Y038942*
X074048Y038947*
X074045Y038951*
X074041Y038955*
X074037Y038959*
X074033Y038963*
X074028Y038966*
X074024Y038969*
X074019Y038971*
X074013Y038974*
X074008Y038976*
X074003Y038977*
X073997Y038978*
X073992Y038979*
X073986Y038979*
X073981*
X073975Y038979*
X073970Y038978*
X073964Y038977*
X073959Y038976*
X073954Y038974*
X073948Y038971*
X073944Y038969*
X073939Y038966*
X073934Y038963*
X073930Y038959*
X073926Y038955*
X073922Y038951*
X073919Y038947*
X073916Y038942*
X073913Y038937*
X073910Y038932*
X073908Y038927*
X073907Y038922*
X073905Y038916*
X073904Y038911*
X073904Y038905*
X073904Y038900*
X073904Y038894*
X073904Y038888*
X073905Y038883*
X073907Y038877*
X073908Y038872*
X073910Y038867*
X073913Y038862*
X073916Y038857*
X073919Y038852*
X073922Y038848*
X073926Y038844*
X073930Y038840*
X073934Y038836*
X073939Y038833*
X073944Y038830*
X073948Y038828*
X073954Y038825*
X073959Y038823*
X073964Y038822*
X073970Y038821*
X073975Y038820*
X073981Y038820*
X073986*
X073992Y038820*
X073997Y038821*
X074003Y038822*
X074008Y038823*
X074013Y038825*
X074019Y038828*
X074024Y038830*
X074028Y038833*
X074033Y038836*
X074037Y038840*
X074041Y038844*
X074045Y038848*
X074048Y038852*
X074051Y038857*
X074054Y038862*
X074057Y038867*
X074059Y038872*
X074060Y038877*
X074062Y038883*
X074063Y038888*
X074063Y038894*
X074064Y038900*
X068064Y035900D02*
D01*
X068063Y035905*
X068063Y035911*
X068062Y035916*
X068060Y035922*
X068059Y035927*
X068057Y035932*
X068054Y035937*
X068051Y035942*
X068048Y035947*
X068045Y035951*
X068041Y035955*
X068037Y035959*
X068033Y035963*
X068028Y035966*
X068024Y035969*
X068019Y035971*
X068013Y035974*
X068008Y035976*
X068003Y035977*
X067997Y035978*
X067992Y035979*
X067986Y035979*
X067981*
X067975Y035979*
X067970Y035978*
X067964Y035977*
X067959Y035976*
X067954Y035974*
X067948Y035971*
X067944Y035969*
X067939Y035966*
X067934Y035963*
X067930Y035959*
X067926Y035955*
X067922Y035951*
X067919Y035947*
X067916Y035942*
X067913Y035937*
X067910Y035932*
X067908Y035927*
X067907Y035922*
X067905Y035916*
X067904Y035911*
X067904Y035905*
X067904Y035900*
X067904Y035894*
X067904Y035888*
X067905Y035883*
X067907Y035877*
X067908Y035872*
X067910Y035867*
X067913Y035862*
X067916Y035857*
X067919Y035852*
X067922Y035848*
X067926Y035844*
X067930Y035840*
X067934Y035836*
X067939Y035833*
X067944Y035830*
X067948Y035828*
X067954Y035825*
X067959Y035823*
X067964Y035822*
X067970Y035821*
X067975Y035820*
X067981Y035820*
X067986*
X067992Y035820*
X067997Y035821*
X068003Y035822*
X068008Y035823*
X068013Y035825*
X068019Y035828*
X068024Y035830*
X068028Y035833*
X068033Y035836*
X068037Y035840*
X068041Y035844*
X068045Y035848*
X068048Y035852*
X068051Y035857*
X068054Y035862*
X068057Y035867*
X068059Y035872*
X068060Y035877*
X068062Y035883*
X068063Y035888*
X068063Y035894*
X068064Y035900*
X069064D02*
D01*
X069063Y035905*
X069063Y035911*
X069062Y035916*
X069060Y035922*
X069059Y035927*
X069057Y035932*
X069054Y035937*
X069051Y035942*
X069048Y035947*
X069045Y035951*
X069041Y035955*
X069037Y035959*
X069033Y035963*
X069028Y035966*
X069024Y035969*
X069019Y035971*
X069013Y035974*
X069008Y035976*
X069003Y035977*
X068997Y035978*
X068992Y035979*
X068986Y035979*
X068981*
X068975Y035979*
X068970Y035978*
X068964Y035977*
X068959Y035976*
X068954Y035974*
X068948Y035971*
X068944Y035969*
X068939Y035966*
X068934Y035963*
X068930Y035959*
X068926Y035955*
X068922Y035951*
X068919Y035947*
X068916Y035942*
X068913Y035937*
X068910Y035932*
X068908Y035927*
X068907Y035922*
X068905Y035916*
X068904Y035911*
X068904Y035905*
X068904Y035900*
X068904Y035894*
X068904Y035888*
X068905Y035883*
X068907Y035877*
X068908Y035872*
X068910Y035867*
X068913Y035862*
X068916Y035857*
X068919Y035852*
X068922Y035848*
X068926Y035844*
X068930Y035840*
X068934Y035836*
X068939Y035833*
X068944Y035830*
X068948Y035828*
X068954Y035825*
X068959Y035823*
X068964Y035822*
X068970Y035821*
X068975Y035820*
X068981Y035820*
X068986*
X068992Y035820*
X068997Y035821*
X069003Y035822*
X069008Y035823*
X069013Y035825*
X069019Y035828*
X069024Y035830*
X069028Y035833*
X069033Y035836*
X069037Y035840*
X069041Y035844*
X069045Y035848*
X069048Y035852*
X069051Y035857*
X069054Y035862*
X069057Y035867*
X069059Y035872*
X069060Y035877*
X069062Y035883*
X069063Y035888*
X069063Y035894*
X069064Y035900*
X068064Y038900D02*
D01*
X068063Y038905*
X068063Y038911*
X068062Y038916*
X068060Y038922*
X068059Y038927*
X068057Y038932*
X068054Y038937*
X068051Y038942*
X068048Y038947*
X068045Y038951*
X068041Y038955*
X068037Y038959*
X068033Y038963*
X068028Y038966*
X068024Y038969*
X068019Y038971*
X068013Y038974*
X068008Y038976*
X068003Y038977*
X067997Y038978*
X067992Y038979*
X067986Y038979*
X067981*
X067975Y038979*
X067970Y038978*
X067964Y038977*
X067959Y038976*
X067954Y038974*
X067948Y038971*
X067944Y038969*
X067939Y038966*
X067934Y038963*
X067930Y038959*
X067926Y038955*
X067922Y038951*
X067919Y038947*
X067916Y038942*
X067913Y038937*
X067910Y038932*
X067908Y038927*
X067907Y038922*
X067905Y038916*
X067904Y038911*
X067904Y038905*
X067904Y038900*
X067904Y038894*
X067904Y038888*
X067905Y038883*
X067907Y038877*
X067908Y038872*
X067910Y038867*
X067913Y038862*
X067916Y038857*
X067919Y038852*
X067922Y038848*
X067926Y038844*
X067930Y038840*
X067934Y038836*
X067939Y038833*
X067944Y038830*
X067948Y038828*
X067954Y038825*
X067959Y038823*
X067964Y038822*
X067970Y038821*
X067975Y038820*
X067981Y038820*
X067986*
X067992Y038820*
X067997Y038821*
X068003Y038822*
X068008Y038823*
X068013Y038825*
X068019Y038828*
X068024Y038830*
X068028Y038833*
X068033Y038836*
X068037Y038840*
X068041Y038844*
X068045Y038848*
X068048Y038852*
X068051Y038857*
X068054Y038862*
X068057Y038867*
X068059Y038872*
X068060Y038877*
X068062Y038883*
X068063Y038888*
X068063Y038894*
X068064Y038900*
X069064D02*
D01*
X069063Y038905*
X069063Y038911*
X069062Y038916*
X069060Y038922*
X069059Y038927*
X069057Y038932*
X069054Y038937*
X069051Y038942*
X069048Y038947*
X069045Y038951*
X069041Y038955*
X069037Y038959*
X069033Y038963*
X069028Y038966*
X069024Y038969*
X069019Y038971*
X069013Y038974*
X069008Y038976*
X069003Y038977*
X068997Y038978*
X068992Y038979*
X068986Y038979*
X068981*
X068975Y038979*
X068970Y038978*
X068964Y038977*
X068959Y038976*
X068954Y038974*
X068948Y038971*
X068944Y038969*
X068939Y038966*
X068934Y038963*
X068930Y038959*
X068926Y038955*
X068922Y038951*
X068919Y038947*
X068916Y038942*
X068913Y038937*
X068910Y038932*
X068908Y038927*
X068907Y038922*
X068905Y038916*
X068904Y038911*
X068904Y038905*
X068904Y038900*
X068904Y038894*
X068904Y038888*
X068905Y038883*
X068907Y038877*
X068908Y038872*
X068910Y038867*
X068913Y038862*
X068916Y038857*
X068919Y038852*
X068922Y038848*
X068926Y038844*
X068930Y038840*
X068934Y038836*
X068939Y038833*
X068944Y038830*
X068948Y038828*
X068954Y038825*
X068959Y038823*
X068964Y038822*
X068970Y038821*
X068975Y038820*
X068981Y038820*
X068986*
X068992Y038820*
X068997Y038821*
X069003Y038822*
X069008Y038823*
X069013Y038825*
X069019Y038828*
X069024Y038830*
X069028Y038833*
X069033Y038836*
X069037Y038840*
X069041Y038844*
X069045Y038848*
X069048Y038852*
X069051Y038857*
X069054Y038862*
X069057Y038867*
X069059Y038872*
X069060Y038877*
X069062Y038883*
X069063Y038888*
X069063Y038894*
X069064Y038900*
X062964Y035900D02*
D01*
X062963Y035905*
X062963Y035911*
X062962Y035916*
X062960Y035922*
X062959Y035927*
X062957Y035932*
X062954Y035937*
X062951Y035942*
X062948Y035947*
X062945Y035951*
X062941Y035955*
X062937Y035959*
X062933Y035963*
X062928Y035966*
X062924Y035969*
X062919Y035971*
X062913Y035974*
X062908Y035976*
X062903Y035977*
X062897Y035978*
X062892Y035979*
X062886Y035979*
X062881*
X062875Y035979*
X062870Y035978*
X062864Y035977*
X062859Y035976*
X062854Y035974*
X062848Y035971*
X062844Y035969*
X062839Y035966*
X062834Y035963*
X062830Y035959*
X062826Y035955*
X062822Y035951*
X062819Y035947*
X062816Y035942*
X062813Y035937*
X062810Y035932*
X062808Y035927*
X062807Y035922*
X062805Y035916*
X062804Y035911*
X062804Y035905*
X062804Y035900*
X062804Y035894*
X062804Y035888*
X062805Y035883*
X062807Y035877*
X062808Y035872*
X062810Y035867*
X062813Y035862*
X062816Y035857*
X062819Y035852*
X062822Y035848*
X062826Y035844*
X062830Y035840*
X062834Y035836*
X062839Y035833*
X062844Y035830*
X062848Y035828*
X062854Y035825*
X062859Y035823*
X062864Y035822*
X062870Y035821*
X062875Y035820*
X062881Y035820*
X062886*
X062892Y035820*
X062897Y035821*
X062903Y035822*
X062908Y035823*
X062913Y035825*
X062919Y035828*
X062924Y035830*
X062928Y035833*
X062933Y035836*
X062937Y035840*
X062941Y035844*
X062945Y035848*
X062948Y035852*
X062951Y035857*
X062954Y035862*
X062957Y035867*
X062959Y035872*
X062960Y035877*
X062962Y035883*
X062963Y035888*
X062963Y035894*
X062964Y035900*
X063964D02*
D01*
X063963Y035905*
X063963Y035911*
X063962Y035916*
X063960Y035922*
X063959Y035927*
X063957Y035932*
X063954Y035937*
X063951Y035942*
X063948Y035947*
X063945Y035951*
X063941Y035955*
X063937Y035959*
X063933Y035963*
X063928Y035966*
X063924Y035969*
X063919Y035971*
X063913Y035974*
X063908Y035976*
X063903Y035977*
X063897Y035978*
X063892Y035979*
X063886Y035979*
X063881*
X063875Y035979*
X063870Y035978*
X063864Y035977*
X063859Y035976*
X063854Y035974*
X063848Y035971*
X063844Y035969*
X063839Y035966*
X063834Y035963*
X063830Y035959*
X063826Y035955*
X063822Y035951*
X063819Y035947*
X063816Y035942*
X063813Y035937*
X063810Y035932*
X063808Y035927*
X063807Y035922*
X063805Y035916*
X063804Y035911*
X063804Y035905*
X063804Y035900*
X063804Y035894*
X063804Y035888*
X063805Y035883*
X063807Y035877*
X063808Y035872*
X063810Y035867*
X063813Y035862*
X063816Y035857*
X063819Y035852*
X063822Y035848*
X063826Y035844*
X063830Y035840*
X063834Y035836*
X063839Y035833*
X063844Y035830*
X063848Y035828*
X063854Y035825*
X063859Y035823*
X063864Y035822*
X063870Y035821*
X063875Y035820*
X063881Y035820*
X063886*
X063892Y035820*
X063897Y035821*
X063903Y035822*
X063908Y035823*
X063913Y035825*
X063919Y035828*
X063924Y035830*
X063928Y035833*
X063933Y035836*
X063937Y035840*
X063941Y035844*
X063945Y035848*
X063948Y035852*
X063951Y035857*
X063954Y035862*
X063957Y035867*
X063959Y035872*
X063960Y035877*
X063962Y035883*
X063963Y035888*
X063963Y035894*
X063964Y035900*
X062964Y038900D02*
D01*
X062963Y038905*
X062963Y038911*
X062962Y038916*
X062960Y038922*
X062959Y038927*
X062957Y038932*
X062954Y038937*
X062951Y038942*
X062948Y038947*
X062945Y038951*
X062941Y038955*
X062937Y038959*
X062933Y038963*
X062928Y038966*
X062924Y038969*
X062919Y038971*
X062913Y038974*
X062908Y038976*
X062903Y038977*
X062897Y038978*
X062892Y038979*
X062886Y038979*
X062881*
X062875Y038979*
X062870Y038978*
X062864Y038977*
X062859Y038976*
X062854Y038974*
X062848Y038971*
X062844Y038969*
X062839Y038966*
X062834Y038963*
X062830Y038959*
X062826Y038955*
X062822Y038951*
X062819Y038947*
X062816Y038942*
X062813Y038937*
X062810Y038932*
X062808Y038927*
X062807Y038922*
X062805Y038916*
X062804Y038911*
X062804Y038905*
X062804Y038900*
X062804Y038894*
X062804Y038888*
X062805Y038883*
X062807Y038877*
X062808Y038872*
X062810Y038867*
X062813Y038862*
X062816Y038857*
X062819Y038852*
X062822Y038848*
X062826Y038844*
X062830Y038840*
X062834Y038836*
X062839Y038833*
X062844Y038830*
X062848Y038828*
X062854Y038825*
X062859Y038823*
X062864Y038822*
X062870Y038821*
X062875Y038820*
X062881Y038820*
X062886*
X062892Y038820*
X062897Y038821*
X062903Y038822*
X062908Y038823*
X062913Y038825*
X062919Y038828*
X062924Y038830*
X062928Y038833*
X062933Y038836*
X062937Y038840*
X062941Y038844*
X062945Y038848*
X062948Y038852*
X062951Y038857*
X062954Y038862*
X062957Y038867*
X062959Y038872*
X062960Y038877*
X062962Y038883*
X062963Y038888*
X062963Y038894*
X062964Y038900*
X063964D02*
D01*
X063963Y038905*
X063963Y038911*
X063962Y038916*
X063960Y038922*
X063959Y038927*
X063957Y038932*
X063954Y038937*
X063951Y038942*
X063948Y038947*
X063945Y038951*
X063941Y038955*
X063937Y038959*
X063933Y038963*
X063928Y038966*
X063924Y038969*
X063919Y038971*
X063913Y038974*
X063908Y038976*
X063903Y038977*
X063897Y038978*
X063892Y038979*
X063886Y038979*
X063881*
X063875Y038979*
X063870Y038978*
X063864Y038977*
X063859Y038976*
X063854Y038974*
X063848Y038971*
X063844Y038969*
X063839Y038966*
X063834Y038963*
X063830Y038959*
X063826Y038955*
X063822Y038951*
X063819Y038947*
X063816Y038942*
X063813Y038937*
X063810Y038932*
X063808Y038927*
X063807Y038922*
X063805Y038916*
X063804Y038911*
X063804Y038905*
X063804Y038900*
X063804Y038894*
X063804Y038888*
X063805Y038883*
X063807Y038877*
X063808Y038872*
X063810Y038867*
X063813Y038862*
X063816Y038857*
X063819Y038852*
X063822Y038848*
X063826Y038844*
X063830Y038840*
X063834Y038836*
X063839Y038833*
X063844Y038830*
X063848Y038828*
X063854Y038825*
X063859Y038823*
X063864Y038822*
X063870Y038821*
X063875Y038820*
X063881Y038820*
X063886*
X063892Y038820*
X063897Y038821*
X063903Y038822*
X063908Y038823*
X063913Y038825*
X063919Y038828*
X063924Y038830*
X063928Y038833*
X063933Y038836*
X063937Y038840*
X063941Y038844*
X063945Y038848*
X063948Y038852*
X063951Y038857*
X063954Y038862*
X063957Y038867*
X063959Y038872*
X063960Y038877*
X063962Y038883*
X063963Y038888*
X063963Y038894*
X063964Y038900*
M02*