%FSDAX24Y24*%
%MOIN*%
%SFA1B1*%

%IPPOS*%
%ADD87C,0.002000*%
%LNde-020224-1*%
%LPD*%
G54D87*
X085032Y012350D02*
X085505D01*
X085268Y012114D02*
Y012586D01*
X083064Y012350D02*
X083536D01*
X083300Y012114D02*
Y012586D01*
X061654Y023550D02*
X062009D01*
X061831Y023373D02*
Y023727D01*
X060654Y023550D02*
X061009D01*
X060831Y023373D02*
Y023727D01*
X061654Y020550D02*
X062009D01*
X061831Y020373D02*
Y020727D01*
X060654Y020550D02*
X061009D01*
X060831Y020373D02*
Y020727D01*
X071311Y012400D02*
X071783D01*
X071547Y012164D02*
Y012636D01*
X073280Y012400D02*
X073752D01*
X073516Y012164D02*
Y012636D01*
X066161Y012400D02*
X066633D01*
X066397Y012164D02*
Y012636D01*
X068130Y012400D02*
X068602D01*
X068366Y012164D02*
Y012636D01*
X053153Y016300D02*
X053547D01*
X053350Y016103D02*
Y016497D01*
X050153Y016300D02*
X050547D01*
X050350Y016103D02*
Y016497D01*
X053759Y017600D02*
X054153D01*
X053956Y017403D02*
Y017797D01*
X049547Y017600D02*
X049941D01*
X049744Y017403D02*
Y017797D01*
X053153Y021100D02*
X053547D01*
X053350Y020903D02*
Y021297D01*
X050153Y021100D02*
X050547D01*
X050350Y020903D02*
Y021297D01*
X050530Y019450D02*
X050924D01*
X050727Y019253D02*
Y019647D01*
X051530Y019450D02*
X051924D01*
X051727Y019253D02*
Y019647D01*
X052530Y019450D02*
X052924D01*
X052727Y019253D02*
Y019647D01*
X025474Y012350D02*
X025946D01*
X025710Y012114D02*
Y012586D01*
X027443Y012350D02*
X027915D01*
X027679Y012114D02*
Y012586D01*
X029411Y012350D02*
X029883D01*
X029647Y012114D02*
Y012586D01*
X031380Y012350D02*
X031852D01*
X031616Y012114D02*
Y012586D01*
X033348Y012350D02*
X033820D01*
X033584Y012114D02*
Y012586D01*
X035317Y012350D02*
X035789D01*
X035553Y012114D02*
Y012586D01*
X039254Y012350D02*
X039726D01*
X039490Y012114D02*
Y012586D01*
X037285Y012350D02*
X037757D01*
X037521Y012114D02*
Y012586D01*
X050630Y012400D02*
X051102D01*
X050866Y012164D02*
Y012636D01*
X052598Y012400D02*
X053070D01*
X052834Y012164D02*
Y012636D01*
X061111Y012400D02*
X061583D01*
X061347Y012164D02*
Y012636D01*
X063080Y012400D02*
X063552D01*
X063316Y012164D02*
Y012636D01*
X050630Y047050D02*
X051102D01*
X050866Y046814D02*
Y047286D01*
X052598Y047050D02*
X053070D01*
X052834Y046814D02*
Y047286D01*
X063082Y047000D02*
X063555D01*
X063319Y046764D02*
Y047236D01*
X061114Y047000D02*
X061586D01*
X061350Y046764D02*
Y047236D01*
X068117Y047000D02*
X068589D01*
X068353Y046764D02*
Y047236D01*
X066148Y047000D02*
X066620D01*
X066384Y046764D02*
Y047236D01*
X073232Y047000D02*
X073705D01*
X073468Y046764D02*
Y047236D01*
X071264Y047000D02*
X071736D01*
X071500Y046764D02*
Y047236D01*
X078517Y047000D02*
X078989D01*
X078753Y046764D02*
Y047236D01*
X076548Y047000D02*
X077020D01*
X076784Y046764D02*
Y047236D01*
X085032Y047000D02*
X085505D01*
X085268Y046764D02*
Y047236D01*
X083064Y047000D02*
X083536D01*
X083300Y046764D02*
Y047236D01*
X047248Y040200D02*
X047642D01*
X047445Y040003D02*
Y040397D01*
X046248Y040200D02*
X046642D01*
X046445Y040003D02*
Y040397D01*
X045248Y040200D02*
X045642D01*
X045445Y040003D02*
Y040397D01*
X044019Y042050D02*
X044413D01*
X044216Y041853D02*
Y042247D01*
X048232Y042050D02*
X048625D01*
X048428Y041853D02*
Y042247D01*
X044625Y043350D02*
X045019D01*
X044822Y043153D02*
Y043547D01*
X047625Y043350D02*
X048019D01*
X047822Y043153D02*
Y043547D01*
X039098Y043350D02*
X039491D01*
X039294Y043153D02*
Y043547D01*
X042098Y043350D02*
X042491D01*
X042294Y043153D02*
Y043547D01*
X041721Y040200D02*
X042114D01*
X041917Y040003D02*
Y040397D01*
X040721Y040200D02*
X041114D01*
X040917Y040003D02*
Y040397D01*
X039721Y040200D02*
X040114D01*
X039917Y040003D02*
Y040397D01*
X038491Y042050D02*
X038885D01*
X038688Y041853D02*
Y042247D01*
X042704Y042050D02*
X043098D01*
X042901Y041853D02*
Y042247D01*
X032963Y042050D02*
X033357D01*
X033160Y041853D02*
Y042247D01*
X037176Y042050D02*
X037570D01*
X037373Y041853D02*
Y042247D01*
X036193Y040200D02*
X036586D01*
X036390Y040003D02*
Y040397D01*
X035193Y040200D02*
X035586D01*
X035390Y040003D02*
Y040397D01*
X034193Y040200D02*
X034586D01*
X034390Y040003D02*
Y040397D01*
X028042Y038550D02*
X028436D01*
X028239Y038353D02*
Y038747D01*
X031042Y038550D02*
X031436D01*
X031239Y038353D02*
Y038747D01*
X033570Y038550D02*
X033963D01*
X033767Y038353D02*
Y038747D01*
X036570Y038550D02*
X036963D01*
X036767Y038353D02*
Y038747D01*
X039098Y038550D02*
X039491D01*
X039294Y038353D02*
Y038747D01*
X042098Y038550D02*
X042491D01*
X042294Y038353D02*
Y038747D01*
X044625Y038550D02*
X045019D01*
X044822Y038353D02*
Y038747D01*
X047625Y038550D02*
X048019D01*
X047822Y038353D02*
Y038747D01*
X055673Y032100D02*
X056027D01*
X055850Y031923D02*
Y032277D01*
X056673Y032100D02*
X057027D01*
X056850Y031923D02*
Y032277D01*
X055673Y035100D02*
X056027D01*
X055850Y034923D02*
Y035277D01*
X056673Y035100D02*
X057027D01*
X056850Y034923D02*
Y035277D01*
X052727Y035100D02*
X052963D01*
X052845Y034982D02*
Y035218D01*
X051727Y035100D02*
X051963D01*
X051845Y034982D02*
Y035218D01*
X050727Y035100D02*
X050963D01*
X050845Y034982D02*
Y035218D01*
X052727Y032100D02*
X052963D01*
X052845Y031982D02*
Y032218D01*
X051727Y032100D02*
X051963D01*
X051845Y031982D02*
Y032218D01*
X050727Y032100D02*
X050963D01*
X050845Y031982D02*
Y032218D01*
X047199Y035100D02*
X047435D01*
X047317Y034982D02*
Y035218D01*
X046199Y035100D02*
X046435D01*
X046317Y034982D02*
Y035218D01*
X045199Y035100D02*
X045435D01*
X045317Y034982D02*
Y035218D01*
X047199Y032100D02*
X047435D01*
X047317Y031982D02*
Y032218D01*
X046199Y032100D02*
X046435D01*
X046317Y031982D02*
Y032218D01*
X045199Y032100D02*
X045435D01*
X045317Y031982D02*
Y032218D01*
X041671Y035100D02*
X041907D01*
X041789Y034982D02*
Y035218D01*
X040671Y035100D02*
X040907D01*
X040789Y034982D02*
Y035218D01*
X039671Y035100D02*
X039907D01*
X039789Y034982D02*
Y035218D01*
X041671Y032100D02*
X041907D01*
X041789Y031982D02*
Y032218D01*
X040671Y032100D02*
X040907D01*
X040789Y031982D02*
Y032218D01*
X039671Y032100D02*
X039907D01*
X039789Y031982D02*
Y032218D01*
X033570Y043350D02*
X033963D01*
X033767Y043153D02*
Y043547D01*
X036570Y043350D02*
X036963D01*
X036767Y043153D02*
Y043547D01*
X028042Y043350D02*
X028436D01*
X028239Y043153D02*
Y043547D01*
X031042Y043350D02*
X031436D01*
X031239Y043153D02*
Y043547D01*
X027436Y042050D02*
X027829D01*
X027632Y041853D02*
Y042247D01*
X031648Y042050D02*
X032042D01*
X031845Y041853D02*
Y042247D01*
X030665Y040200D02*
X031059D01*
X030862Y040003D02*
Y040397D01*
X029665Y040200D02*
X030059D01*
X029862Y040003D02*
Y040397D01*
X028665Y040200D02*
X029059D01*
X028862Y040003D02*
Y040397D01*
X022514Y038550D02*
X022908D01*
X022711Y038353D02*
Y038747D01*
X025514Y038550D02*
X025908D01*
X025711Y038353D02*
Y038747D01*
X022514Y043350D02*
X022908D01*
X022711Y043153D02*
Y043547D01*
X025514Y043350D02*
X025908D01*
X025711Y043153D02*
Y043547D01*
X016986Y043350D02*
X017380D01*
X017183Y043153D02*
Y043547D01*
X019986Y043350D02*
X020380D01*
X020183Y043153D02*
Y043547D01*
X016380Y042050D02*
X016774D01*
X016577Y041853D02*
Y042247D01*
X020593Y042050D02*
X020986D01*
X020789Y041853D02*
Y042247D01*
X021908Y042050D02*
X022301D01*
X022105Y041853D02*
Y042247D01*
X026120Y042050D02*
X026514D01*
X026317Y041853D02*
Y042247D01*
X025137Y040200D02*
X025531D01*
X025334Y040003D02*
Y040397D01*
X024137Y040200D02*
X024531D01*
X024334Y040003D02*
Y040397D01*
X023137Y040200D02*
X023531D01*
X023334Y040003D02*
Y040397D01*
X019609Y040200D02*
X020003D01*
X019806Y040003D02*
Y040397D01*
X018609Y040200D02*
X019003D01*
X018806Y040003D02*
Y040397D01*
X017609Y040200D02*
X018003D01*
X017806Y040003D02*
Y040397D01*
X016986Y038550D02*
X017380D01*
X017183Y038353D02*
Y038747D01*
X019986Y038550D02*
X020380D01*
X020183Y038353D02*
Y038747D01*
X030615Y035100D02*
X030852D01*
X030733Y034982D02*
Y035218D01*
X029615Y035100D02*
X029852D01*
X029733Y034982D02*
Y035218D01*
X028615Y035100D02*
X028852D01*
X028733Y034982D02*
Y035218D01*
X030615Y032100D02*
X030852D01*
X030733Y031982D02*
Y032218D01*
X029615Y032100D02*
X029852D01*
X029733Y031982D02*
Y032218D01*
X028615Y032100D02*
X028852D01*
X028733Y031982D02*
Y032218D01*
X025088Y035100D02*
X025324D01*
X025206Y034982D02*
Y035218D01*
X024088Y035100D02*
X024324D01*
X024206Y034982D02*
Y035218D01*
X023088Y035100D02*
X023324D01*
X023206Y034982D02*
Y035218D01*
X025088Y032100D02*
X025324D01*
X025206Y031982D02*
Y032218D01*
X024088Y032100D02*
X024324D01*
X024206Y031982D02*
Y032218D01*
X023088Y032100D02*
X023324D01*
X023206Y031982D02*
Y032218D01*
X019560Y035100D02*
X019796D01*
X019678Y034982D02*
Y035218D01*
X018560Y035100D02*
X018796D01*
X018678Y034982D02*
Y035218D01*
X017560Y035100D02*
X017796D01*
X017678Y034982D02*
Y035218D01*
X019560Y032100D02*
X019796D01*
X019678Y031982D02*
Y032218D01*
X018560Y032100D02*
X018796D01*
X018678Y031982D02*
Y032218D01*
X017560Y032100D02*
X017796D01*
X017678Y031982D02*
Y032218D01*
X011458Y038550D02*
X011852D01*
X011655Y038353D02*
Y038747D01*
X014458Y038550D02*
X014852D01*
X014655Y038353D02*
Y038747D01*
X014081Y040200D02*
X014475D01*
X014278Y040003D02*
Y040397D01*
X013082Y040200D02*
X013475D01*
X013278Y040003D02*
Y040397D01*
X012082Y040200D02*
X012475D01*
X012278Y040003D02*
Y040397D01*
X010852Y042050D02*
X011246D01*
X011049Y041853D02*
Y042247D01*
X015065Y042050D02*
X015458D01*
X015262Y041853D02*
Y042247D01*
X011458Y043350D02*
X011852D01*
X011655Y043153D02*
Y043547D01*
X014458Y043350D02*
X014852D01*
X014655Y043153D02*
Y043547D01*
X039254Y047050D02*
X039726D01*
X039490Y046814D02*
Y047286D01*
X037285Y047050D02*
X037757D01*
X037521Y046814D02*
Y047286D01*
X035317Y047050D02*
X035789D01*
X035553Y046814D02*
Y047286D01*
X033348Y047050D02*
X033820D01*
X033584Y046814D02*
Y047286D01*
X031380Y047050D02*
X031852D01*
X031616Y046814D02*
Y047286D01*
X029411Y047050D02*
X029883D01*
X029647Y046814D02*
Y047286D01*
X025474Y047050D02*
X025946D01*
X025710Y046814D02*
Y047286D01*
X027443Y047050D02*
X027915D01*
X027679Y046814D02*
Y047286D01*
X072223Y032950D02*
X072577D01*
X072400Y032773D02*
Y033127D01*
X073223Y032950D02*
X073577D01*
X073400Y032773D02*
Y033127D01*
X074223Y032950D02*
X074577D01*
X074400Y032773D02*
Y033127D01*
X058023Y027550D02*
X058377D01*
X058200Y027373D02*
Y027727D01*
X057023Y027550D02*
X057377D01*
X057200Y027373D02*
Y027727D01*
X058023Y024550D02*
X058377D01*
X058200Y024373D02*
Y024727D01*
X057023Y024550D02*
X057377D01*
X057200Y024373D02*
Y024727D01*
X076495Y012400D02*
X076968D01*
X076732Y012164D02*
Y012636D01*
X078464Y012400D02*
X078936D01*
X078700Y012164D02*
Y012636D01*
X071954Y023500D02*
X072309D01*
X072132Y023323D02*
Y023677D01*
X070954Y023500D02*
X071309D01*
X071132Y023323D02*
Y023677D01*
X071954Y020500D02*
X072309D01*
X072132Y020323D02*
Y020677D01*
X070954Y020500D02*
X071309D01*
X071132Y020323D02*
Y020677D01*
X066804Y023500D02*
X067159D01*
X066982Y023323D02*
Y023677D01*
X065804Y023500D02*
X066159D01*
X065981Y023323D02*
Y023677D01*
X066804Y020500D02*
X067159D01*
X066982Y020323D02*
Y020677D01*
X065804Y020500D02*
X066159D01*
X065981Y020323D02*
Y020677D01*
X077089Y023550D02*
X077443D01*
X077266Y023373D02*
Y023727D01*
X076089Y023550D02*
X076443D01*
X076266Y023373D02*
Y023727D01*
X077089Y020550D02*
X077443D01*
X077266Y020373D02*
Y020727D01*
X076089Y020550D02*
X076443D01*
X076266Y020373D02*
Y020727D01*
X081643Y035400D02*
X081957D01*
X081800Y035243D02*
Y035557D01*
X080855Y035400D02*
X081170D01*
X081013Y035243D02*
Y035557D01*
X085033Y040167D02*
X085467D01*
X085250Y039950D02*
Y040383D01*
X084033Y040167D02*
X084467D01*
X084250Y039950D02*
Y040383D01*
X083033Y040167D02*
X083467D01*
X083250Y039950D02*
Y040383D01*
X078041Y035900D02*
X078396D01*
X078218Y035723D02*
Y036077D01*
X079041Y035900D02*
X079396D01*
X079219Y035723D02*
Y036077D01*
X078041Y038900D02*
X078396D01*
X078218Y038723D02*
Y039077D01*
X079041Y038900D02*
X079396D01*
X079219Y038723D02*
Y039077D01*
X072807Y035900D02*
X073161D01*
X072984Y035723D02*
Y036077D01*
X073807Y035900D02*
X074161D01*
X073984Y035723D02*
Y036077D01*
X072807Y038900D02*
X073161D01*
X072984Y038723D02*
Y039077D01*
X073807Y038900D02*
X074161D01*
X073984Y038723D02*
Y039077D01*
X067807Y035900D02*
X068161D01*
X067984Y035723D02*
Y036077D01*
X068807Y035900D02*
X069161D01*
X068984Y035723D02*
Y036077D01*
X067807Y038900D02*
X068161D01*
X067984Y038723D02*
Y039077D01*
X068807Y038900D02*
X069161D01*
X068984Y038723D02*
Y039077D01*
X062707Y035900D02*
X063061D01*
X062884Y035723D02*
Y036077D01*
X063707Y035900D02*
X064061D01*
X063884Y035723D02*
Y036077D01*
X062707Y038900D02*
X063061D01*
X062884Y038723D02*
Y039077D01*
X063707Y038900D02*
X064061D01*
X063884Y038723D02*
Y039077D01*
X014458Y016300D02*
X014852D01*
X014655Y016103D02*
Y016497D01*
X011458Y016300D02*
X011852D01*
X011655Y016103D02*
Y016497D01*
X015065Y017600D02*
X015458D01*
X015262Y017403D02*
Y017797D01*
X010852Y017600D02*
X011246D01*
X011049Y017403D02*
Y017797D01*
X011835Y019450D02*
X012229D01*
X012032Y019253D02*
Y019647D01*
X012835Y019450D02*
X013229D01*
X013032Y019253D02*
Y019647D01*
X013835Y019450D02*
X014229D01*
X014032Y019253D02*
Y019647D01*
X014458Y021100D02*
X014852D01*
X014655Y020903D02*
Y021297D01*
X011458Y021100D02*
X011852D01*
X011655Y020903D02*
Y021297D01*
X012043Y024550D02*
X012279D01*
X012161Y024432D02*
Y024668D01*
X013043Y024550D02*
X013279D01*
X013161Y024432D02*
Y024668D01*
X014043Y024550D02*
X014279D01*
X014161Y024432D02*
Y024668D01*
X012043Y027550D02*
X012279D01*
X012161Y027432D02*
Y027668D01*
X013043Y027550D02*
X013279D01*
X013161Y027432D02*
Y027668D01*
X014043Y027550D02*
X014279D01*
X014161Y027432D02*
Y027668D01*
X019986Y016300D02*
X020380D01*
X020183Y016103D02*
Y016497D01*
X016986Y016300D02*
X017380D01*
X017183Y016103D02*
Y016497D01*
X020593Y017600D02*
X020986D01*
X020789Y017403D02*
Y017797D01*
X016380Y017600D02*
X016774D01*
X016577Y017403D02*
Y017797D01*
X017363Y019450D02*
X017757D01*
X017560Y019253D02*
Y019647D01*
X018363Y019450D02*
X018757D01*
X018560Y019253D02*
Y019647D01*
X019363Y019450D02*
X019757D01*
X019560Y019253D02*
Y019647D01*
X019986Y021100D02*
X020380D01*
X020183Y020903D02*
Y021297D01*
X016986Y021100D02*
X017380D01*
X017183Y020903D02*
Y021297D01*
X017570Y024550D02*
X017807D01*
X017688Y024432D02*
Y024668D01*
X018570Y024550D02*
X018807D01*
X018688Y024432D02*
Y024668D01*
X019570Y024550D02*
X019807D01*
X019688Y024432D02*
Y024668D01*
X017570Y027550D02*
X017807D01*
X017688Y027432D02*
Y027668D01*
X018570Y027550D02*
X018807D01*
X018688Y027432D02*
Y027668D01*
X019570Y027550D02*
X019807D01*
X019688Y027432D02*
Y027668D01*
X025514Y016300D02*
X025908D01*
X025711Y016103D02*
Y016497D01*
X022514Y016300D02*
X022908D01*
X022711Y016103D02*
Y016497D01*
X026120Y017600D02*
X026514D01*
X026317Y017403D02*
Y017797D01*
X021908Y017600D02*
X022301D01*
X022105Y017403D02*
Y017797D01*
X025514Y021100D02*
X025908D01*
X025711Y020903D02*
Y021297D01*
X022514Y021100D02*
X022908D01*
X022711Y020903D02*
Y021297D01*
X022891Y019450D02*
X023285D01*
X023088Y019253D02*
Y019647D01*
X023891Y019450D02*
X024285D01*
X024088Y019253D02*
Y019647D01*
X024891Y019450D02*
X025285D01*
X025088Y019253D02*
Y019647D01*
X023098Y024550D02*
X023334D01*
X023216Y024432D02*
Y024668D01*
X024098Y024550D02*
X024334D01*
X024216Y024432D02*
Y024668D01*
X025098Y024550D02*
X025334D01*
X025216Y024432D02*
Y024668D01*
X023098Y027550D02*
X023334D01*
X023216Y027432D02*
Y027668D01*
X024098Y027550D02*
X024334D01*
X024216Y027432D02*
Y027668D01*
X025098Y027550D02*
X025334D01*
X025216Y027432D02*
Y027668D01*
X031042Y016300D02*
X031436D01*
X031239Y016103D02*
Y016497D01*
X028042Y016300D02*
X028436D01*
X028239Y016103D02*
Y016497D01*
X031648Y017600D02*
X032042D01*
X031845Y017403D02*
Y017797D01*
X027436Y017600D02*
X027829D01*
X027632Y017403D02*
Y017797D01*
X028419Y019450D02*
X028813D01*
X028616Y019253D02*
Y019647D01*
X029419Y019450D02*
X029813D01*
X029616Y019253D02*
Y019647D01*
X030419Y019450D02*
X030813D01*
X030616Y019253D02*
Y019647D01*
X031042Y021100D02*
X031436D01*
X031239Y020903D02*
Y021297D01*
X028042Y021100D02*
X028436D01*
X028239Y020903D02*
Y021297D01*
X028626Y024550D02*
X028862D01*
X028744Y024432D02*
Y024668D01*
X029626Y024550D02*
X029862D01*
X029744Y024432D02*
Y024668D01*
X030626Y024550D02*
X030862D01*
X030744Y024432D02*
Y024668D01*
X028626Y027550D02*
X028862D01*
X028744Y027432D02*
Y027668D01*
X029626Y027550D02*
X029862D01*
X029744Y027432D02*
Y027668D01*
X030626Y027550D02*
X030862D01*
X030744Y027432D02*
Y027668D01*
X034154Y024550D02*
X034390D01*
X034272Y024432D02*
Y024668D01*
X035154Y024550D02*
X035390D01*
X035272Y024432D02*
Y024668D01*
X036154Y024550D02*
X036390D01*
X036272Y024432D02*
Y024668D01*
X034154Y027550D02*
X034390D01*
X034272Y027432D02*
Y027668D01*
X035154Y027550D02*
X035390D01*
X035272Y027432D02*
Y027668D01*
X036154Y027550D02*
X036390D01*
X036272Y027432D02*
Y027668D01*
X036570Y021100D02*
X036963D01*
X036767Y020903D02*
Y021297D01*
X033570Y021100D02*
X033963D01*
X033767Y020903D02*
Y021297D01*
X033947Y019450D02*
X034340D01*
X034144Y019253D02*
Y019647D01*
X034947Y019450D02*
X035340D01*
X035144Y019253D02*
Y019647D01*
X035947Y019450D02*
X036340D01*
X036144Y019253D02*
Y019647D01*
X036570Y016300D02*
X036963D01*
X036767Y016103D02*
Y016497D01*
X033570Y016300D02*
X033963D01*
X033767Y016103D02*
Y016497D01*
X037176Y017600D02*
X037570D01*
X037373Y017403D02*
Y017797D01*
X032963Y017600D02*
X033357D01*
X033160Y017403D02*
Y017797D01*
X045209Y024550D02*
X045446D01*
X045328Y024432D02*
Y024668D01*
X046209Y024550D02*
X046446D01*
X046328Y024432D02*
Y024668D01*
X047209Y024550D02*
X047446D01*
X047327Y024432D02*
Y024668D01*
X045209Y027550D02*
X045446D01*
X045328Y027432D02*
Y027668D01*
X046209Y027550D02*
X046446D01*
X046328Y027432D02*
Y027668D01*
X047209Y027550D02*
X047446D01*
X047327Y027432D02*
Y027668D01*
X050737Y024550D02*
X050973D01*
X050855Y024432D02*
Y024668D01*
X051737Y024550D02*
X051973D01*
X051855Y024432D02*
Y024668D01*
X052737Y024550D02*
X052973D01*
X052855Y024432D02*
Y024668D01*
X050737Y027550D02*
X050973D01*
X050855Y027432D02*
Y027668D01*
X051737Y027550D02*
X051973D01*
X051855Y027432D02*
Y027668D01*
X052737Y027550D02*
X052973D01*
X052855Y027432D02*
Y027668D01*
X039682Y024550D02*
X039918D01*
X039800Y024432D02*
Y024668D01*
X040682Y024550D02*
X040918D01*
X040800Y024432D02*
Y024668D01*
X041682Y024550D02*
X041918D01*
X041800Y024432D02*
Y024668D01*
X039682Y027550D02*
X039918D01*
X039800Y027432D02*
Y027668D01*
X040682Y027550D02*
X040918D01*
X040800Y027432D02*
Y027668D01*
X041682Y027550D02*
X041918D01*
X041800Y027432D02*
Y027668D01*
X042098Y016300D02*
X042491D01*
X042294Y016103D02*
Y016497D01*
X039098Y016300D02*
X039491D01*
X039294Y016103D02*
Y016497D01*
X042704Y017600D02*
X043098D01*
X042901Y017403D02*
Y017797D01*
X038491Y017600D02*
X038885D01*
X038688Y017403D02*
Y017797D01*
X039474Y019450D02*
X039868D01*
X039671Y019253D02*
Y019647D01*
X040474Y019450D02*
X040868D01*
X040671Y019253D02*
Y019647D01*
X041474Y019450D02*
X041868D01*
X041671Y019253D02*
Y019647D01*
X042098Y021100D02*
X042491D01*
X042294Y020903D02*
Y021297D01*
X039098Y021100D02*
X039491D01*
X039294Y020903D02*
Y021297D01*
X047625Y016300D02*
X048019D01*
X047822Y016103D02*
Y016497D01*
X044625Y016300D02*
X045019D01*
X044822Y016103D02*
Y016497D01*
X048232Y017600D02*
X048625D01*
X048428Y017403D02*
Y017797D01*
X044019Y017600D02*
X044413D01*
X044216Y017403D02*
Y017797D01*
X045002Y019450D02*
X045396D01*
X045199Y019253D02*
Y019647D01*
X046002Y019450D02*
X046396D01*
X046199Y019253D02*
Y019647D01*
X047002Y019450D02*
X047396D01*
X047199Y019253D02*
Y019647D01*
X047625Y021100D02*
X048019D01*
X047822Y020903D02*
Y021297D01*
X044625Y021100D02*
X045019D01*
X044822Y020903D02*
Y021297D01*
X050153Y038550D02*
X050547D01*
X050350Y038353D02*
Y038747D01*
X053153Y038550D02*
X053547D01*
X053350Y038353D02*
Y038747D01*
X052776Y040200D02*
X053170D01*
X052973Y040003D02*
Y040397D01*
X051776Y040200D02*
X052170D01*
X051973Y040003D02*
Y040397D01*
X050776Y040200D02*
X051170D01*
X050973Y040003D02*
Y040397D01*
X050153Y043350D02*
X050547D01*
X050350Y043153D02*
Y043547D01*
X053153Y043350D02*
X053547D01*
X053350Y043153D02*
Y043547D01*
X049547Y042050D02*
X049941D01*
X049744Y041853D02*
Y042247D01*
X053759Y042050D02*
X054153D01*
X053956Y041853D02*
Y042247D01*
X036143Y035100D02*
X036379D01*
X036261Y034982D02*
Y035218D01*
X035143Y035100D02*
X035379D01*
X035261Y034982D02*
Y035218D01*
X034143Y035100D02*
X034379D01*
X034261Y034982D02*
Y035218D01*
X036143Y032100D02*
X036379D01*
X036261Y031982D02*
Y032218D01*
X035143Y032100D02*
X035379D01*
X035261Y031982D02*
Y032218D01*
X034143Y032100D02*
X034379D01*
X034261Y031982D02*
Y032218D01*
X014032Y035100D02*
X014268D01*
X014150Y034982D02*
Y035218D01*
X013032Y035100D02*
X013268D01*
X013150Y034982D02*
Y035218D01*
X012032Y035100D02*
X012268D01*
X012150Y034982D02*
Y035218D01*
X014032Y032100D02*
X014268D01*
X014150Y031982D02*
Y032218D01*
X013032Y032100D02*
X013268D01*
X013150Y031982D02*
Y032218D01*
X012032Y032100D02*
X012268D01*
X012150Y031982D02*
Y032218D01*
X066265Y028900D02*
X066365D01*
X066315Y028850D02*
Y028950D01*
X069250Y030000D02*
X069350D01*
X069300Y029950D02*
Y030050D01*
X069550Y029700D02*
X069650D01*
X069600Y029650D02*
Y029750D01*
X069250Y029350D02*
X069350D01*
X069300Y029300D02*
Y029400D01*
X078100Y029525D02*
X078200D01*
X078150Y029475D02*
Y029575D01*
X078450Y029075D02*
X078550D01*
X078500Y029025D02*
Y029125D01*
X078700Y028675D02*
X078800D01*
X078750Y028625D02*
Y028725D01*
X057800Y031925D02*
X057900D01*
X057850Y031875D02*
Y031975D01*
X055050Y027550D02*
X055150D01*
X055100Y027500D02*
Y027600D01*
X058500Y031925D02*
X058600D01*
X058550Y031875D02*
Y031975D01*
X055600Y027550D02*
X055700D01*
X055650Y027500D02*
Y027600D01*
X067500Y027850D02*
X067600D01*
X067550Y027800D02*
Y027900D01*
X068000Y027850D02*
X068100D01*
X068050Y027800D02*
Y027900D01*
X068500Y027850D02*
X068600D01*
X068550Y027800D02*
Y027900D01*
X069250Y028550D02*
X069350D01*
X069300Y028500D02*
Y028600D01*
X070000Y028750D02*
X070100D01*
X070050Y028700D02*
Y028800D01*
X070200Y027150D02*
X070300D01*
X070250Y027100D02*
Y027200D01*
X070400Y028450D02*
X070500D01*
X070450Y028400D02*
Y028500D01*
X070200Y026150D02*
X070300D01*
X070250Y026100D02*
Y026200D01*
X062750Y029125D02*
X062850D01*
X062800Y029075D02*
Y029175D01*
X062750Y029600D02*
X062850D01*
X062800Y029550D02*
Y029650D01*
X062750Y028650D02*
X062850D01*
X062800Y028600D02*
Y028700D01*
X070950Y028900D02*
X071050D01*
X071000Y028850D02*
Y028950D01*
X067800Y024450D02*
X067900D01*
X067850Y024400D02*
Y024500D01*
X067250Y024450D02*
X067350D01*
X067300Y024400D02*
Y024500D01*
X043925Y027550D02*
X044025D01*
X043975Y027500D02*
Y027600D01*
X038250Y027575D02*
X038350D01*
X038300Y027525D02*
Y027625D01*
X076350Y029000D02*
X076450D01*
X076400Y028950D02*
Y029050D01*
X072750Y027800D02*
X072850D01*
X072800Y027750D02*
Y027850D01*
X072750Y028250D02*
X072850D01*
X072800Y028200D02*
Y028300D01*
X072750Y028711D02*
X072850D01*
X072800Y028661D02*
Y028761D01*
X064350Y026125D02*
X064450D01*
X064400Y026075D02*
Y026175D01*
X070200Y026650D02*
X070300D01*
X070250Y026600D02*
Y026700D01*
X062200Y026175D02*
X062300D01*
X062250Y026125D02*
Y026225D01*
X062800Y026175D02*
X062900D01*
X062850Y026125D02*
Y026225D01*
X063450Y026175D02*
X063550D01*
X063500Y026125D02*
Y026225D01*
X056300Y043900D02*
X056400D01*
X056350Y043850D02*
Y043950D01*
X058650Y043900D02*
X058750D01*
X058700Y043850D02*
Y043950D01*
X066950Y031850D02*
X067050D01*
X067000Y031800D02*
Y031900D01*
X072650Y031850D02*
X072750D01*
X072700Y031800D02*
Y031900D01*
X079200Y030250D02*
X079300D01*
X079250Y030200D02*
Y030300D01*
X086250Y014725D02*
X086350D01*
X086300Y014675D02*
Y014775D01*
X064575Y031950D02*
X064675D01*
X064625Y031900D02*
Y032000D01*
X069800Y033450D02*
X069900D01*
X069850Y033400D02*
Y033500D01*
X068250Y033000D02*
X068350D01*
X068300Y032950D02*
Y033050D01*
M02*