%FSDAX24Y24*%
%MOIN*%
%SFA1B1*%

%IPPOS*%
%ADD17R,0.039370X0.043310*%
%ADD18R,0.043310X0.039370*%
%ADD50C,0.098430*%
%ADD51R,0.059060X0.059060*%
%ADD52C,0.059060*%
%ADD53R,0.059060X0.059060*%
%ADD55O,0.070870X0.011810*%
%ADD56O,0.011810X0.070870*%
%ADD57R,0.059060X0.023620*%
%ADD58R,0.059060X0.051180*%
%ADD59R,0.025590X0.043310*%
%LNpcb_baseboard-1*%
%LPD*%
G54D17*
X020450Y014965D03*
Y015634D03*
X016950Y014965D03*
Y015634D03*
X021850Y016665D03*
Y017334D03*
X023050Y018165D03*
Y018834D03*
X023650Y018165D03*
Y018834D03*
G54D18*
X015415Y020000D03*
X016084D03*
X018384Y015100D03*
X017715D03*
X018384Y015700D03*
X017715D03*
X022515Y017400D03*
X023184D03*
G54D50*
X012350Y002400D03*
X010350D03*
X008350D03*
X006400D03*
X004400D03*
X002400D03*
X024369Y031065D03*
X022400D03*
X008408D03*
X010408D03*
X012408D03*
X002400D03*
X004400D03*
X006400D03*
X024369Y002400D03*
X022400D03*
G54D51*
X020850Y021500D03*
G54D52*
X021850Y021500D03*
X022850D03*
X017850Y026800D03*
X018850D03*
X017850Y025800D03*
X018850D03*
X017850Y024800D03*
X013050Y026800D03*
X014050D03*
X013050Y025800D03*
X014050D03*
X013050Y024800D03*
X008250Y026800D03*
X009250D03*
X008250Y025800D03*
X009250D03*
X008250Y024800D03*
X003450Y026800D03*
X004450D03*
X003450Y025800D03*
X004450D03*
X003450Y024800D03*
X024750Y026200D03*
X025750D03*
X024750Y025200D03*
X025750D03*
X024750Y024200D03*
X025750D03*
X024750Y023200D03*
X025750D03*
X024750Y022200D03*
X025750D03*
X024750Y021200D03*
X025750D03*
X024750Y020200D03*
X025750D03*
X024750Y019200D03*
X013050Y009650D03*
X014050D03*
X013050Y008650D03*
X014050D03*
X013050Y007650D03*
X014050D03*
X013050Y006650D03*
X017850Y009650D03*
X018850D03*
X017850Y008650D03*
X018850D03*
X017850Y007650D03*
X018850D03*
X017850Y006650D03*
X008250Y009650D03*
X009250D03*
X008250Y008650D03*
X009250D03*
X008250Y007650D03*
X009250D03*
X008250Y006650D03*
X003450Y009650D03*
X004450D03*
X003450Y008650D03*
X004450D03*
X003450Y007650D03*
X004450D03*
X003450Y006650D03*
G54D53*
X018850Y024800D03*
X014050D03*
X009250D03*
X004450D03*
X025750Y019200D03*
X014050Y006650D03*
X018850D03*
X009250D03*
X004450D03*
G54D55*
X020044Y017517D03*
Y017714D03*
Y017911D03*
Y018107D03*
Y018304D03*
Y018501D03*
Y018698D03*
Y018895D03*
Y019092D03*
Y019289D03*
Y019485D03*
Y019682D03*
X016855D03*
Y019485D03*
Y019289D03*
Y019092D03*
Y018895D03*
Y018698D03*
Y018501D03*
Y018304D03*
Y018107D03*
Y017911D03*
Y017714D03*
Y017517D03*
G54D56*
X019532Y020194D03*
X019335D03*
X019139D03*
X018942D03*
X018745D03*
X018548D03*
X018351D03*
X018154D03*
X017957D03*
X017761D03*
X017564D03*
X017367D03*
Y017005D03*
X017564D03*
X017761D03*
X017957D03*
X018154D03*
X018351D03*
X018548D03*
X018745D03*
X018942D03*
X019139D03*
X019335D03*
X019532D03*
G54D57*
X019050Y015052D03*
Y015800D03*
X019798Y015426D03*
G54D58*
X021150Y016726D03*
Y017474D03*
G54D59*
X021676Y018972D03*
X022050D03*
X022424D03*
Y018027D03*
X021676D03*
M02*