%FSDAX24Y24*%
%MOIN*%
%SFA1B1*%

%IPPOS*%
%ADD17R,0.039370X0.043310*%
%ADD18R,0.043310X0.039370*%
%ADD19O,0.023620X0.086610*%
%ADD20R,0.015750X0.051180*%
%ADD21R,0.177170X0.064960*%
%ADD22R,0.039370X0.027560*%
%ADD23R,0.074800X0.145670*%
%ADD24R,0.047240X0.137800*%
%ADD25R,0.043310X0.061020*%
%ADD26R,0.043310X0.061020*%
%ADD27R,0.135830X0.061020*%
%ADD50C,0.098430*%
%ADD51R,0.059060X0.059060*%
%ADD52C,0.059060*%
%ADD53R,0.059060X0.059060*%
%LNpcb_baseboard-1*%
%LPD*%
G54D17*
X021150Y026334D03*
Y025665D03*
X020550D03*
Y026334D03*
X026150Y010365D03*
Y011034D03*
X023550Y010365D03*
Y011034D03*
X023250Y013934D03*
Y013265D03*
G54D18*
X020415Y025000D03*
X021084D03*
X024384Y028800D03*
X023715D03*
X020915D03*
X021584D03*
X025184Y013600D03*
X024515D03*
X023684Y004700D03*
X023015D03*
X021084Y027100D03*
X020415D03*
G54D19*
X023350Y027000D03*
X022850D03*
X022350D03*
X021850D03*
X023350Y025110D03*
X022850D03*
X022350D03*
X021850D03*
G54D20*
X022591Y029059D03*
X022847Y028350D03*
X022335D03*
G54D21*
X024379Y007757D03*
X020835D03*
G54D22*
X024350Y011074D03*
Y010700D03*
Y010326D03*
X025373Y011074D03*
Y010700D03*
Y010326D03*
G54D23*
X024174Y012376D03*
X025591D03*
G54D24*
X021621Y016841D03*
Y014739D03*
X024521Y016841D03*
Y014739D03*
G54D25*
X020644Y010571D03*
G54D26*
X021550Y010571D03*
X022455D03*
G54D27*
X021550Y013228D03*
G54D50*
X012350Y002400D03*
X010350D03*
X008350D03*
X006400D03*
X004400D03*
X002400D03*
X024369Y031065D03*
X022400D03*
X008408D03*
X010408D03*
X012408D03*
X002400D03*
X004400D03*
X006400D03*
X024369Y002400D03*
X022400D03*
G54D51*
X020850Y021500D03*
G54D52*
X021850Y021500D03*
X022850D03*
X017850Y026800D03*
X018850D03*
X017850Y025800D03*
X018850D03*
X017850Y024800D03*
X013050Y026800D03*
X014050D03*
X013050Y025800D03*
X014050D03*
X013050Y024800D03*
X008250Y026800D03*
X009250D03*
X008250Y025800D03*
X009250D03*
X008250Y024800D03*
X003450Y026800D03*
X004450D03*
X003450Y025800D03*
X004450D03*
X003450Y024800D03*
X024750Y026200D03*
X025750D03*
X024750Y025200D03*
X025750D03*
X024750Y024200D03*
X025750D03*
X024750Y023200D03*
X025750D03*
X024750Y022200D03*
X025750D03*
X024750Y021200D03*
X025750D03*
X024750Y020200D03*
X025750D03*
X024750Y019200D03*
X013050Y009650D03*
X014050D03*
X013050Y008650D03*
X014050D03*
X013050Y007650D03*
X014050D03*
X013050Y006650D03*
X017850Y009650D03*
X018850D03*
X017850Y008650D03*
X018850D03*
X017850Y007650D03*
X018850D03*
X017850Y006650D03*
X008250Y009650D03*
X009250D03*
X008250Y008650D03*
X009250D03*
X008250Y007650D03*
X009250D03*
X008250Y006650D03*
X003450Y009650D03*
X004450D03*
X003450Y008650D03*
X004450D03*
X003450Y007650D03*
X004450D03*
X003450Y006650D03*
G54D53*
X018850Y024800D03*
X014050D03*
X009250D03*
X004450D03*
X025750Y019200D03*
X014050Y006650D03*
X018850D03*
X009250D03*
X004450D03*
M02*