%FSDAX24Y24*%
%MOIN*%
%SFA1B1*%

%IPPOS*%
%ADD11C,0.010000*%
%ADD16C,0.005000*%
%ADD45C,0.020000*%
%ADD66C,0.003940*%
%ADD67C,0.001970*%
%ADD68C,0.002000*%
%LNpcb_baseboard-1*%
%LPD*%
G54D66*
X018253Y018600D02*
X018646D01*
X018450Y018403D02*
Y018796D01*
X019227Y015426D02*
X019620D01*
X019424Y015229D02*
Y015622D01*
X021341Y019287D02*
X022758D01*
X021341Y017712D02*
X022758D01*
X021341D02*
Y019287D01*
X022758Y017712D02*
Y019287D01*
X022050Y018303D02*
Y018696D01*
X021853Y018500D02*
X022246D01*
X022403Y026055D02*
X022796D01*
X022600Y025858D02*
Y026252D01*
X023682Y024578D02*
Y027531D01*
X021517Y024578D02*
Y027531D01*
X023682*
X021517Y024578D02*
X023682D01*
X022395Y028705D02*
X022788D01*
X022591Y028508D02*
Y028902D01*
G54D67*
X016402Y016552D02*
Y020647D01*
X020497Y016552D02*
Y020647D01*
X016402D02*
X020497D01*
X016402Y016552D02*
X020497D01*
X018656Y014737D02*
Y016115D01*
X020191Y014737D02*
Y016115D01*
X018656Y014737D02*
X020191D01*
X018656Y016115D02*
X020191D01*
X023123Y027996D02*
Y029413D01*
X022060Y027996D02*
Y029413D01*
X023123*
X022060Y027996D02*
X023123D01*
G54D68*
X024635Y005730D02*
Y009785D01*
X021390Y005730D02*
X024635D01*
X020579Y006541D02*
X021390Y005730D01*
X020579Y006541D02*
Y008974D01*
X021390Y009785*
X024635*
X024095Y011589D02*
Y013164D01*
X025670*
Y011589D02*
Y013164D01*
X024095Y011589D02*
X025670D01*
X020321Y015010D02*
Y017089D01*
Y015010D02*
X020841Y014491D01*
X022400*
X022920Y015010*
Y017089*
X020321D02*
X022920D01*
X023221Y015010D02*
Y017089D01*
Y015010D02*
X023741Y014491D01*
X025300*
X025820Y015010*
Y017089*
X023221D02*
X025820D01*
G54D16*
X020381Y005729D02*
Y005729D01*
X020382Y005728*
X020383*
X020384Y005729*
Y005729*
Y005730*
X020383Y005731*
X020382*
X020381Y005730*
Y005730*
X020408Y007919D02*
X021676D01*
Y007595*
X020408*
Y007919*
G54D11*
X020458Y007869D02*
X021626D01*
Y007645*
X020458*
Y007869*
G54D45*
X020558Y007769D02*
X021526D01*
Y007745*
X020558*
Y007769*
G54D16*
X023537Y007919D02*
X024806D01*
Y007595*
X023537*
Y007919*
G54D11*
X023587Y007869D02*
X024756D01*
Y007645*
X023587*
Y007869*
G54D45*
X023687Y007769D02*
X024656D01*
Y007745*
X023687*
Y007769*
G54D16*
X024093Y011589D02*
X024093Y011587D01*
X024094Y011587*
X024095*
X024096Y011587*
X024096Y011589*
X024095Y011591*
X024095Y011591*
X024094*
X024093Y011590*
X024093Y011589*
X024120Y011712D02*
Y013040D01*
X024444*
Y011712*
X024120*
G54D11*
X024170Y011762D02*
Y012990D01*
X024394*
Y011762*
X024170*
G54D45*
X024270Y011862D02*
Y012890D01*
X024294*
Y011862*
X024270*
G54D16*
X025645Y013040D02*
Y011712D01*
X025321*
Y013040*
X025645*
G54D11*
X025595Y012990D02*
Y011762D01*
X025371*
Y012990*
X025595*
G54D45*
X025495Y012890D02*
Y011862D01*
X025471*
Y012890*
X025495*
G54D16*
X021518Y014384D02*
Y015358D01*
X021724*
Y014384*
X021518*
G54D11*
X021568Y014434D02*
Y015308D01*
X021674*
Y014434*
X021568*
G54D16*
X022919Y014358D02*
X022921Y014358D01*
X022922Y014359*
Y014360*
X022921Y014360*
X022920Y014360*
X022918Y014360*
X022917Y014360*
Y014359*
X022918Y014358*
X022919Y014358*
X021518Y016235D02*
Y017208D01*
X021724*
Y016235*
X021518*
G54D11*
X021568Y016285D02*
Y017158D01*
X021674*
Y016285*
X021568*
G54D16*
X024418Y014384D02*
Y015358D01*
X024624*
Y014384*
X024418*
G54D11*
X024468Y014434D02*
Y015308D01*
X024574*
Y014434*
X024468*
G54D16*
X025819Y014358D02*
X025821Y014358D01*
X025822Y014359*
Y014360*
X025821Y014360*
X025820Y014360*
X025818Y014360*
X025817Y014360*
Y014359*
X025818Y014358*
X025819Y014358*
X024418Y016235D02*
Y017208D01*
X024624*
Y016235*
X024418*
G54D11*
X024468Y016285D02*
Y017158D01*
X024574*
Y016285*
X024468*
M02*