%FSDAX24Y24*%
%MOIN*%
%SFA1B1*%

%IPPOS*%
%ADD11C,0.010000*%
%LNpcb_baseboard-1*%
%LPD*%
G54D11*
X013121Y002400D02*
D01*
X013119Y002454*
X013114Y002509*
X013104Y002563*
X013091Y002617*
X013074Y002669*
X013053Y002720*
X013029Y002769*
X013002Y002817*
X012971Y002862*
X012937Y002906*
X012900Y002946*
X012861Y002985*
X012819Y003020*
X012774Y003052*
X012728Y003081*
X012679Y003107*
X012629Y003130*
X012577Y003148*
X012524Y003164*
X012471Y003175*
X012416Y003183*
X012361Y003186*
X012306*
X012251Y003183*
X012197Y003175*
X012143Y003164*
X012090Y003148*
X012039Y003130*
X011989Y003107*
X011940Y003081*
X011893Y003052*
X011849Y003020*
X011807Y002985*
X011767Y002946*
X011731Y002906*
X011697Y002862*
X011666Y002817*
X011639Y002769*
X011614Y002720*
X011594Y002669*
X011577Y002617*
X011564Y002563*
X011554Y002509*
X011548Y002454*
X011546Y002400*
X011548Y002345*
X011554Y002290*
X011564Y002236*
X011577Y002182*
X011594Y002130*
X011614Y002079*
X011639Y002030*
X011666Y001982*
X011697Y001937*
X011731Y001893*
X011767Y001853*
X011807Y001814*
X011849Y001779*
X011893Y001747*
X011940Y001718*
X011989Y001692*
X012039Y001669*
X012090Y001651*
X012143Y001635*
X012197Y001624*
X012251Y001616*
X012306Y001613*
X012361*
X012416Y001616*
X012471Y001624*
X012524Y001635*
X012577Y001651*
X012629Y001669*
X012679Y001692*
X012728Y001718*
X012774Y001747*
X012819Y001779*
X012861Y001814*
X012900Y001853*
X012937Y001893*
X012971Y001937*
X013002Y001982*
X013029Y002030*
X013053Y002079*
X013074Y002130*
X013091Y002182*
X013104Y002236*
X013114Y002290*
X013119Y002345*
X013121Y002400*
X009121D02*
D01*
X009119Y002454*
X009113Y002509*
X009104Y002563*
X009091Y002617*
X009074Y002669*
X009053Y002720*
X009029Y002769*
X009001Y002817*
X008971Y002862*
X008937Y002906*
X008900Y002946*
X008861Y002985*
X008818Y003020*
X008774Y003052*
X008727Y003081*
X008679Y003107*
X008629Y003130*
X008577Y003148*
X008524Y003164*
X008470Y003175*
X008416Y003183*
X008361Y003186*
X008306*
X008251Y003183*
X008197Y003175*
X008143Y003164*
X008090Y003148*
X008039Y003130*
X007989Y003107*
X007940Y003081*
X007893Y003052*
X007849Y003020*
X007807Y002985*
X007767Y002946*
X007731Y002906*
X007697Y002862*
X007666Y002817*
X007638Y002769*
X007614Y002720*
X007594Y002669*
X007577Y002617*
X007564Y002563*
X007554Y002509*
X007548Y002454*
X007546Y002400*
X007548Y002345*
X007554Y002290*
X007564Y002236*
X007577Y002182*
X007594Y002130*
X007614Y002079*
X007638Y002030*
X007666Y001982*
X007697Y001937*
X007731Y001893*
X007767Y001853*
X007807Y001814*
X007849Y001779*
X007893Y001747*
X007940Y001718*
X007989Y001692*
X008039Y001669*
X008090Y001651*
X008143Y001635*
X008197Y001624*
X008251Y001616*
X008306Y001613*
X008361*
X008416Y001616*
X008470Y001624*
X008524Y001635*
X008577Y001651*
X008629Y001669*
X008679Y001692*
X008727Y001718*
X008774Y001747*
X008818Y001779*
X008861Y001814*
X008900Y001853*
X008937Y001893*
X008971Y001937*
X009001Y001982*
X009029Y002030*
X009053Y002079*
X009074Y002130*
X009091Y002182*
X009104Y002236*
X009113Y002290*
X009119Y002345*
X009121Y002400*
X011137D02*
D01*
X011135Y002454*
X011129Y002509*
X011120Y002563*
X011106Y002617*
X011089Y002669*
X011069Y002720*
X011045Y002769*
X011017Y002817*
X010987Y002862*
X010953Y002906*
X010916Y002946*
X010876Y002985*
X010834Y003020*
X010790Y003052*
X010743Y003081*
X010695Y003107*
X010644Y003130*
X010593Y003148*
X010540Y003164*
X010486Y003175*
X010432Y003183*
X010377Y003186*
X010322*
X010267Y003183*
X010213Y003175*
X010159Y003164*
X010106Y003148*
X010055Y003130*
X010004Y003107*
X009956Y003081*
X009909Y003052*
X009865Y003020*
X009823Y002985*
X009783Y002946*
X009746Y002906*
X009712Y002862*
X009682Y002817*
X009654Y002769*
X009630Y002720*
X009610Y002669*
X009593Y002617*
X009579Y002563*
X009570Y002509*
X009564Y002454*
X009562Y002400*
X009564Y002345*
X009570Y002290*
X009579Y002236*
X009593Y002182*
X009610Y002130*
X009630Y002079*
X009654Y002030*
X009682Y001982*
X009712Y001937*
X009746Y001893*
X009783Y001853*
X009823Y001814*
X009865Y001779*
X009909Y001747*
X009956Y001718*
X010004Y001692*
X010055Y001669*
X010106Y001651*
X010159Y001635*
X010213Y001624*
X010267Y001616*
X010322Y001613*
X010377*
X010432Y001616*
X010486Y001624*
X010540Y001635*
X010593Y001651*
X010644Y001669*
X010695Y001692*
X010743Y001718*
X010790Y001747*
X010834Y001779*
X010876Y001814*
X010916Y001853*
X010953Y001893*
X010987Y001937*
X011017Y001982*
X011045Y002030*
X011069Y002079*
X011089Y002130*
X011106Y002182*
X011120Y002236*
X011129Y002290*
X011135Y002345*
X011137Y002400*
X007171D02*
D01*
X007169Y002454*
X007163Y002509*
X007154Y002563*
X007141Y002617*
X007124Y002669*
X007103Y002720*
X007079Y002769*
X007051Y002817*
X007021Y002862*
X006987Y002906*
X006950Y002946*
X006911Y002985*
X006868Y003020*
X006824Y003052*
X006777Y003081*
X006729Y003107*
X006679Y003130*
X006627Y003148*
X006574Y003164*
X006520Y003175*
X006466Y003183*
X006411Y003186*
X006356*
X006301Y003183*
X006247Y003175*
X006193Y003164*
X006140Y003148*
X006089Y003130*
X006039Y003107*
X005990Y003081*
X005943Y003052*
X005899Y003020*
X005857Y002985*
X005817Y002946*
X005781Y002906*
X005747Y002862*
X005716Y002817*
X005688Y002769*
X005664Y002720*
X005644Y002669*
X005627Y002617*
X005614Y002563*
X005604Y002509*
X005598Y002454*
X005596Y002400*
X005598Y002345*
X005604Y002290*
X005614Y002236*
X005627Y002182*
X005644Y002130*
X005664Y002079*
X005688Y002030*
X005716Y001982*
X005747Y001937*
X005781Y001893*
X005817Y001853*
X005857Y001814*
X005899Y001779*
X005943Y001747*
X005990Y001718*
X006039Y001692*
X006089Y001669*
X006140Y001651*
X006193Y001635*
X006247Y001624*
X006301Y001616*
X006356Y001613*
X006411*
X006466Y001616*
X006520Y001624*
X006574Y001635*
X006627Y001651*
X006679Y001669*
X006729Y001692*
X006777Y001718*
X006824Y001747*
X006868Y001779*
X006911Y001814*
X006950Y001853*
X006987Y001893*
X007021Y001937*
X007051Y001982*
X007079Y002030*
X007103Y002079*
X007124Y002130*
X007141Y002182*
X007154Y002236*
X007163Y002290*
X007169Y002345*
X007171Y002400*
X003171D02*
D01*
X003169Y002454*
X003163Y002509*
X003154Y002563*
X003141Y002617*
X003124Y002669*
X003103Y002720*
X003079Y002769*
X003051Y002817*
X003021Y002862*
X002987Y002906*
X002950Y002946*
X002911Y002985*
X002868Y003020*
X002824Y003052*
X002777Y003081*
X002729Y003107*
X002679Y003130*
X002627Y003148*
X002574Y003164*
X002520Y003175*
X002466Y003183*
X002411Y003186*
X002356*
X002301Y003183*
X002247Y003175*
X002193Y003164*
X002140Y003148*
X002089Y003130*
X002039Y003107*
X001990Y003081*
X001943Y003052*
X001899Y003020*
X001857Y002985*
X001817Y002946*
X001781Y002906*
X001747Y002862*
X001716Y002817*
X001688Y002769*
X001664Y002720*
X001644Y002669*
X001627Y002617*
X001614Y002563*
X001604Y002509*
X001598Y002454*
X001596Y002400*
X001598Y002345*
X001604Y002290*
X001614Y002236*
X001627Y002182*
X001644Y002130*
X001664Y002079*
X001688Y002030*
X001716Y001982*
X001747Y001937*
X001781Y001893*
X001817Y001853*
X001857Y001814*
X001899Y001779*
X001943Y001747*
X001990Y001718*
X002039Y001692*
X002089Y001669*
X002140Y001651*
X002193Y001635*
X002247Y001624*
X002301Y001616*
X002356Y001613*
X002411*
X002466Y001616*
X002520Y001624*
X002574Y001635*
X002627Y001651*
X002679Y001669*
X002729Y001692*
X002777Y001718*
X002824Y001747*
X002868Y001779*
X002911Y001814*
X002950Y001853*
X002987Y001893*
X003021Y001937*
X003051Y001982*
X003079Y002030*
X003103Y002079*
X003124Y002130*
X003141Y002182*
X003154Y002236*
X003163Y002290*
X003169Y002345*
X003171Y002400*
X005187D02*
D01*
X005185Y002454*
X005179Y002509*
X005170Y002563*
X005156Y002617*
X005139Y002669*
X005119Y002720*
X005095Y002769*
X005067Y002817*
X005037Y002862*
X005003Y002906*
X004966Y002946*
X004926Y002985*
X004884Y003020*
X004840Y003052*
X004793Y003081*
X004745Y003107*
X004694Y003130*
X004643Y003148*
X004590Y003164*
X004536Y003175*
X004482Y003183*
X004427Y003186*
X004372*
X004317Y003183*
X004263Y003175*
X004209Y003164*
X004156Y003148*
X004105Y003130*
X004054Y003107*
X004006Y003081*
X003959Y003052*
X003915Y003020*
X003873Y002985*
X003833Y002946*
X003796Y002906*
X003762Y002862*
X003732Y002817*
X003704Y002769*
X003680Y002720*
X003660Y002669*
X003643Y002617*
X003629Y002563*
X003620Y002509*
X003614Y002454*
X003612Y002400*
X003614Y002345*
X003620Y002290*
X003629Y002236*
X003643Y002182*
X003660Y002130*
X003680Y002079*
X003704Y002030*
X003732Y001982*
X003762Y001937*
X003796Y001893*
X003833Y001853*
X003873Y001814*
X003915Y001779*
X003959Y001747*
X004006Y001718*
X004054Y001692*
X004105Y001669*
X004156Y001651*
X004209Y001635*
X004263Y001624*
X004317Y001616*
X004372Y001613*
X004427*
X004482Y001616*
X004536Y001624*
X004590Y001635*
X004643Y001651*
X004694Y001669*
X004745Y001692*
X004793Y001718*
X004840Y001747*
X004884Y001779*
X004926Y001814*
X004966Y001853*
X005003Y001893*
X005037Y001937*
X005067Y001982*
X005095Y002030*
X005119Y002079*
X005139Y002130*
X005156Y002182*
X005170Y002236*
X005179Y002290*
X005185Y002345*
X005187Y002400*
X025156Y031065D02*
D01*
X025154Y031119*
X025149Y031174*
X025139Y031228*
X025126Y031282*
X025109Y031334*
X025088Y031385*
X025064Y031434*
X025037Y031482*
X025006Y031527*
X024972Y031571*
X024935Y031611*
X024896Y031650*
X024854Y031685*
X024809Y031717*
X024763Y031746*
X024714Y031772*
X024664Y031795*
X024612Y031813*
X024559Y031829*
X024506Y031840*
X024451Y031848*
X024396Y031851*
X024341*
X024286Y031848*
X024232Y031840*
X024178Y031829*
X024125Y031813*
X024074Y031795*
X024024Y031772*
X023975Y031746*
X023928Y031717*
X023884Y031685*
X023842Y031650*
X023802Y031611*
X023766Y031571*
X023732Y031527*
X023701Y031482*
X023674Y031434*
X023649Y031385*
X023629Y031334*
X023612Y031282*
X023599Y031228*
X023589Y031174*
X023583Y031119*
X023581Y031065*
X023583Y031010*
X023589Y030955*
X023599Y030901*
X023612Y030847*
X023629Y030795*
X023649Y030744*
X023674Y030695*
X023701Y030647*
X023732Y030602*
X023766Y030558*
X023802Y030518*
X023842Y030479*
X023884Y030444*
X023928Y030412*
X023975Y030383*
X024024Y030357*
X024074Y030334*
X024125Y030316*
X024178Y030300*
X024232Y030289*
X024286Y030281*
X024341Y030278*
X024396*
X024451Y030281*
X024506Y030289*
X024559Y030300*
X024612Y030316*
X024664Y030334*
X024714Y030357*
X024763Y030383*
X024809Y030412*
X024854Y030444*
X024896Y030479*
X024935Y030518*
X024972Y030558*
X025006Y030602*
X025037Y030647*
X025064Y030695*
X025088Y030744*
X025109Y030795*
X025126Y030847*
X025139Y030901*
X025149Y030955*
X025154Y031010*
X025156Y031065*
X023172D02*
D01*
X023170Y031119*
X023164Y031174*
X023155Y031228*
X023141Y031282*
X023124Y031334*
X023104Y031385*
X023080Y031434*
X023052Y031482*
X023022Y031527*
X022988Y031571*
X022951Y031611*
X022911Y031650*
X022869Y031685*
X022825Y031717*
X022778Y031746*
X022730Y031772*
X022679Y031795*
X022628Y031813*
X022575Y031829*
X022521Y031840*
X022467Y031848*
X022412Y031851*
X022357*
X022302Y031848*
X022248Y031840*
X022194Y031829*
X022141Y031813*
X022090Y031795*
X022039Y031772*
X021991Y031746*
X021944Y031717*
X021900Y031685*
X021858Y031650*
X021818Y031611*
X021781Y031571*
X021747Y031527*
X021717Y031482*
X021689Y031434*
X021665Y031385*
X021645Y031334*
X021628Y031282*
X021614Y031228*
X021605Y031174*
X021599Y031119*
X021597Y031065*
X021599Y031010*
X021605Y030955*
X021614Y030901*
X021628Y030847*
X021645Y030795*
X021665Y030744*
X021689Y030695*
X021717Y030647*
X021747Y030602*
X021781Y030558*
X021818Y030518*
X021858Y030479*
X021900Y030444*
X021944Y030412*
X021991Y030383*
X022039Y030357*
X022090Y030334*
X022141Y030316*
X022194Y030300*
X022248Y030289*
X022302Y030281*
X022357Y030278*
X022412*
X022467Y030281*
X022521Y030289*
X022575Y030300*
X022628Y030316*
X022679Y030334*
X022730Y030357*
X022778Y030383*
X022825Y030412*
X022869Y030444*
X022911Y030479*
X022951Y030518*
X022988Y030558*
X023022Y030602*
X023052Y030647*
X023080Y030695*
X023104Y030744*
X023124Y030795*
X023141Y030847*
X023155Y030901*
X023164Y030955*
X023170Y031010*
X023172Y031065*
X009211D02*
D01*
X009209Y031119*
X009204Y031174*
X009194Y031228*
X009181Y031282*
X009164Y031334*
X009143Y031385*
X009119Y031434*
X009092Y031482*
X009061Y031527*
X009027Y031571*
X008990Y031611*
X008951Y031650*
X008909Y031685*
X008864Y031717*
X008818Y031746*
X008769Y031772*
X008719Y031795*
X008667Y031813*
X008614Y031829*
X008561Y031840*
X008506Y031848*
X008451Y031851*
X008396*
X008342Y031848*
X008287Y031840*
X008233Y031829*
X008181Y031813*
X008129Y031795*
X008079Y031772*
X008030Y031746*
X007984Y031717*
X007939Y031685*
X007897Y031650*
X007857Y031611*
X007821Y031571*
X007787Y031527*
X007756Y031482*
X007729Y031434*
X007705Y031385*
X007684Y031334*
X007667Y031282*
X007654Y031228*
X007644Y031174*
X007638Y031119*
X007637Y031065*
X007638Y031010*
X007644Y030955*
X007654Y030901*
X007667Y030847*
X007684Y030795*
X007705Y030744*
X007729Y030695*
X007756Y030647*
X007787Y030602*
X007821Y030558*
X007857Y030518*
X007897Y030479*
X007939Y030444*
X007984Y030412*
X008030Y030383*
X008079Y030357*
X008129Y030334*
X008181Y030316*
X008233Y030300*
X008287Y030289*
X008342Y030281*
X008396Y030278*
X008451*
X008506Y030281*
X008561Y030289*
X008614Y030300*
X008667Y030316*
X008719Y030334*
X008769Y030357*
X008818Y030383*
X008864Y030412*
X008909Y030444*
X008951Y030479*
X008990Y030518*
X009027Y030558*
X009061Y030602*
X009092Y030647*
X009119Y030695*
X009143Y030744*
X009164Y030795*
X009181Y030847*
X009194Y030901*
X009204Y030955*
X009209Y031010*
X009211Y031065*
X013211D02*
D01*
X013209Y031119*
X013204Y031174*
X013194Y031228*
X013181Y031282*
X013164Y031334*
X013143Y031385*
X013119Y031434*
X013092Y031482*
X013061Y031527*
X013027Y031571*
X012990Y031611*
X012951Y031650*
X012909Y031685*
X012864Y031717*
X012818Y031746*
X012769Y031772*
X012719Y031795*
X012667Y031813*
X012614Y031829*
X012561Y031840*
X012506Y031848*
X012451Y031851*
X012396*
X012342Y031848*
X012287Y031840*
X012233Y031829*
X012181Y031813*
X012129Y031795*
X012079Y031772*
X012030Y031746*
X011984Y031717*
X011939Y031685*
X011897Y031650*
X011857Y031611*
X011821Y031571*
X011787Y031527*
X011756Y031482*
X011729Y031434*
X011705Y031385*
X011684Y031334*
X011667Y031282*
X011654Y031228*
X011644Y031174*
X011638Y031119*
X011637Y031065*
X011638Y031010*
X011644Y030955*
X011654Y030901*
X011667Y030847*
X011684Y030795*
X011705Y030744*
X011729Y030695*
X011756Y030647*
X011787Y030602*
X011821Y030558*
X011857Y030518*
X011897Y030479*
X011939Y030444*
X011984Y030412*
X012030Y030383*
X012079Y030357*
X012129Y030334*
X012181Y030316*
X012233Y030300*
X012287Y030289*
X012342Y030281*
X012396Y030278*
X012451*
X012506Y030281*
X012561Y030289*
X012614Y030300*
X012667Y030316*
X012719Y030334*
X012769Y030357*
X012818Y030383*
X012864Y030412*
X012909Y030444*
X012951Y030479*
X012990Y030518*
X013027Y030558*
X013061Y030602*
X013092Y030647*
X013119Y030695*
X013143Y030744*
X013164Y030795*
X013181Y030847*
X013194Y030901*
X013204Y030955*
X013209Y031010*
X013211Y031065*
X011196D02*
D01*
X011194Y031119*
X011188Y031174*
X011178Y031228*
X011165Y031282*
X011148Y031334*
X011127Y031385*
X011103Y031434*
X011076Y031482*
X011045Y031527*
X011011Y031571*
X010975Y031611*
X010935Y031650*
X010893Y031685*
X010848Y031717*
X010802Y031746*
X010753Y031772*
X010703Y031795*
X010651Y031813*
X010599Y031829*
X010545Y031840*
X010490Y031848*
X010436Y031851*
X010381*
X010326Y031848*
X010271Y031840*
X010218Y031829*
X010165Y031813*
X010113Y031795*
X010063Y031772*
X010014Y031746*
X009968Y031717*
X009923Y031685*
X009881Y031650*
X009842Y031611*
X009805Y031571*
X009771Y031527*
X009740Y031482*
X009713Y031434*
X009689Y031385*
X009668Y031334*
X009651Y031282*
X009638Y031228*
X009628Y031174*
X009623Y031119*
X009621Y031065*
X009623Y031010*
X009628Y030955*
X009638Y030901*
X009651Y030847*
X009668Y030795*
X009689Y030744*
X009713Y030695*
X009740Y030647*
X009771Y030602*
X009805Y030558*
X009842Y030518*
X009881Y030479*
X009923Y030444*
X009968Y030412*
X010014Y030383*
X010063Y030357*
X010113Y030334*
X010165Y030316*
X010218Y030300*
X010271Y030289*
X010326Y030281*
X010381Y030278*
X010436*
X010490Y030281*
X010545Y030289*
X010599Y030300*
X010651Y030316*
X010703Y030334*
X010753Y030357*
X010802Y030383*
X010848Y030412*
X010893Y030444*
X010935Y030479*
X010975Y030518*
X011011Y030558*
X011045Y030602*
X011076Y030647*
X011103Y030695*
X011127Y030744*
X011148Y030795*
X011165Y030847*
X011178Y030901*
X011188Y030955*
X011194Y031010*
X011196Y031065*
X003203D02*
D01*
X003201Y031119*
X003195Y031174*
X003185Y031228*
X003172Y031282*
X003155Y031334*
X003135Y031385*
X003111Y031434*
X003083Y031482*
X003052Y031527*
X003018Y031571*
X002982Y031611*
X002942Y031650*
X002900Y031685*
X002856Y031717*
X002809Y031746*
X002760Y031772*
X002710Y031795*
X002659Y031813*
X002606Y031829*
X002552Y031840*
X002498Y031848*
X002443Y031851*
X002388*
X002333Y031848*
X002279Y031840*
X002225Y031829*
X002172Y031813*
X002120Y031795*
X002070Y031772*
X002022Y031746*
X001975Y031717*
X001931Y031685*
X001888Y031650*
X001849Y031611*
X001812Y031571*
X001778Y031527*
X001748Y031482*
X001720Y031434*
X001696Y031385*
X001675Y031334*
X001658Y031282*
X001645Y031228*
X001636Y031174*
X001630Y031119*
X001628Y031065*
X001630Y031010*
X001636Y030955*
X001645Y030901*
X001658Y030847*
X001675Y030795*
X001696Y030744*
X001720Y030695*
X001748Y030647*
X001778Y030602*
X001812Y030558*
X001849Y030518*
X001888Y030479*
X001931Y030444*
X001975Y030412*
X002022Y030383*
X002070Y030357*
X002120Y030334*
X002172Y030316*
X002225Y030300*
X002279Y030289*
X002333Y030281*
X002388Y030278*
X002443*
X002498Y030281*
X002552Y030289*
X002606Y030300*
X002659Y030316*
X002710Y030334*
X002760Y030357*
X002809Y030383*
X002856Y030412*
X002900Y030444*
X002942Y030479*
X002982Y030518*
X003018Y030558*
X003052Y030602*
X003083Y030647*
X003111Y030695*
X003135Y030744*
X003155Y030795*
X003172Y030847*
X003185Y030901*
X003195Y030955*
X003201Y031010*
X003203Y031065*
X007203D02*
D01*
X007201Y031119*
X007195Y031174*
X007185Y031228*
X007172Y031282*
X007155Y031334*
X007135Y031385*
X007110Y031434*
X007083Y031482*
X007052Y031527*
X007018Y031571*
X006982Y031611*
X006942Y031650*
X006900Y031685*
X006856Y031717*
X006809Y031746*
X006760Y031772*
X006710Y031795*
X006659Y031813*
X006606Y031829*
X006552Y031840*
X006498Y031848*
X006443Y031851*
X006388*
X006333Y031848*
X006278Y031840*
X006225Y031829*
X006172Y031813*
X006120Y031795*
X006070Y031772*
X006021Y031746*
X005975Y031717*
X005930Y031685*
X005888Y031650*
X005849Y031611*
X005812Y031571*
X005778Y031527*
X005747Y031482*
X005720Y031434*
X005696Y031385*
X005675Y031334*
X005658Y031282*
X005645Y031228*
X005635Y031174*
X005630Y031119*
X005628Y031065*
X005630Y031010*
X005635Y030955*
X005645Y030901*
X005658Y030847*
X005675Y030795*
X005696Y030744*
X005720Y030695*
X005747Y030647*
X005778Y030602*
X005812Y030558*
X005849Y030518*
X005888Y030479*
X005930Y030444*
X005975Y030412*
X006022Y030383*
X006070Y030357*
X006120Y030334*
X006172Y030316*
X006225Y030300*
X006278Y030289*
X006333Y030281*
X006388Y030278*
X006443*
X006498Y030281*
X006552Y030289*
X006606Y030300*
X006659Y030316*
X006710Y030334*
X006760Y030357*
X006809Y030383*
X006856Y030412*
X006900Y030444*
X006942Y030479*
X006982Y030518*
X007018Y030558*
X007052Y030602*
X007083Y030647*
X007110Y030695*
X007135Y030744*
X007155Y030795*
X007172Y030847*
X007185Y030901*
X007195Y030955*
X007201Y031010*
X007203Y031065*
X005187D02*
D01*
X005185Y031119*
X005179Y031174*
X005170Y031228*
X005156Y031282*
X005139Y031334*
X005119Y031385*
X005095Y031434*
X005067Y031482*
X005037Y031527*
X005003Y031571*
X004966Y031611*
X004926Y031650*
X004884Y031685*
X004840Y031717*
X004793Y031746*
X004745Y031772*
X004694Y031795*
X004643Y031813*
X004590Y031829*
X004536Y031840*
X004482Y031848*
X004427Y031851*
X004372*
X004317Y031848*
X004263Y031840*
X004209Y031829*
X004156Y031813*
X004105Y031795*
X004054Y031772*
X004006Y031746*
X003959Y031717*
X003915Y031685*
X003873Y031650*
X003833Y031611*
X003796Y031571*
X003762Y031527*
X003732Y031482*
X003704Y031434*
X003680Y031385*
X003660Y031334*
X003643Y031282*
X003629Y031228*
X003620Y031174*
X003614Y031119*
X003612Y031065*
X003614Y031010*
X003620Y030955*
X003629Y030901*
X003643Y030847*
X003660Y030795*
X003680Y030744*
X003704Y030695*
X003732Y030647*
X003762Y030602*
X003796Y030558*
X003833Y030518*
X003873Y030479*
X003915Y030444*
X003959Y030412*
X004006Y030383*
X004054Y030357*
X004105Y030334*
X004156Y030316*
X004209Y030300*
X004263Y030289*
X004317Y030281*
X004372Y030278*
X004427*
X004482Y030281*
X004536Y030289*
X004590Y030300*
X004643Y030316*
X004694Y030334*
X004745Y030357*
X004793Y030383*
X004840Y030412*
X004884Y030444*
X004926Y030479*
X004966Y030518*
X005003Y030558*
X005037Y030602*
X005067Y030647*
X005095Y030695*
X005119Y030744*
X005139Y030795*
X005156Y030847*
X005170Y030901*
X005179Y030955*
X005185Y031010*
X005187Y031065*
X025172Y002400D02*
D01*
X025170Y002454*
X025164Y002509*
X025155Y002563*
X025141Y002617*
X025124Y002669*
X025104Y002720*
X025080Y002769*
X025052Y002817*
X025022Y002862*
X024988Y002906*
X024951Y002946*
X024911Y002985*
X024869Y003020*
X024825Y003052*
X024778Y003081*
X024730Y003107*
X024679Y003130*
X024628Y003148*
X024575Y003164*
X024521Y003175*
X024467Y003183*
X024412Y003186*
X024357*
X024302Y003183*
X024248Y003175*
X024194Y003164*
X024141Y003148*
X024090Y003130*
X024039Y003107*
X023991Y003081*
X023944Y003052*
X023900Y003020*
X023858Y002985*
X023818Y002946*
X023781Y002906*
X023747Y002862*
X023717Y002817*
X023689Y002769*
X023665Y002720*
X023645Y002669*
X023628Y002617*
X023614Y002563*
X023605Y002509*
X023599Y002454*
X023597Y002400*
X023599Y002345*
X023605Y002290*
X023614Y002236*
X023628Y002182*
X023645Y002130*
X023665Y002079*
X023689Y002030*
X023717Y001982*
X023747Y001937*
X023781Y001893*
X023818Y001853*
X023858Y001814*
X023900Y001779*
X023944Y001747*
X023991Y001718*
X024039Y001692*
X024090Y001669*
X024141Y001651*
X024194Y001635*
X024248Y001624*
X024302Y001616*
X024357Y001613*
X024412*
X024467Y001616*
X024521Y001624*
X024575Y001635*
X024628Y001651*
X024679Y001669*
X024730Y001692*
X024778Y001718*
X024825Y001747*
X024869Y001779*
X024911Y001814*
X024951Y001853*
X024988Y001893*
X025022Y001937*
X025052Y001982*
X025080Y002030*
X025104Y002079*
X025124Y002130*
X025141Y002182*
X025155Y002236*
X025164Y002290*
X025170Y002345*
X025172Y002400*
X023188D02*
D01*
X023186Y002454*
X023180Y002509*
X023170Y002563*
X023157Y002617*
X023140Y002669*
X023120Y002720*
X023095Y002769*
X023068Y002817*
X023037Y002862*
X023003Y002906*
X022967Y002946*
X022927Y002985*
X022885Y003020*
X022841Y003052*
X022794Y003081*
X022745Y003107*
X022695Y003130*
X022644Y003148*
X022591Y003164*
X022537Y003175*
X022483Y003183*
X022428Y003186*
X022373*
X022318Y003183*
X022263Y003175*
X022210Y003164*
X022157Y003148*
X022105Y003130*
X022055Y003107*
X022007Y003081*
X021960Y003052*
X021915Y003020*
X021873Y002985*
X021834Y002946*
X021797Y002906*
X021763Y002862*
X021732Y002817*
X021705Y002769*
X021681Y002720*
X021660Y002669*
X021643Y002617*
X021630Y002563*
X021620Y002509*
X021615Y002454*
X021613Y002400*
X021615Y002345*
X021620Y002290*
X021630Y002236*
X021643Y002182*
X021660Y002130*
X021681Y002079*
X021705Y002030*
X021732Y001982*
X021763Y001937*
X021797Y001893*
X021834Y001853*
X021873Y001814*
X021915Y001779*
X021960Y001747*
X022007Y001718*
X022055Y001692*
X022105Y001669*
X022157Y001651*
X022210Y001635*
X022263Y001624*
X022318Y001616*
X022373Y001613*
X022428*
X022483Y001616*
X022537Y001624*
X022591Y001635*
X022644Y001651*
X022695Y001669*
X022745Y001692*
X022794Y001718*
X022841Y001747*
X022885Y001779*
X022927Y001814*
X022967Y001853*
X023003Y001893*
X023037Y001937*
X023068Y001982*
X023095Y002030*
X023120Y002079*
X023140Y002130*
X023157Y002182*
X023170Y002236*
X023180Y002290*
X023186Y002345*
X023188Y002400*
X011900Y001750D02*
X012975Y002825D01*
X011750Y001950D02*
X012800Y003000D01*
X007900Y001750D02*
X008975Y002825D01*
X007750Y001950D02*
X008800Y003000D01*
X009950Y003050D02*
X011000Y002000D01*
X009750Y002850D02*
X010800Y001800D01*
X005950Y001750D02*
X007025Y002825D01*
X005800Y001950D02*
X006850Y003000D01*
X001950Y001750D02*
X003025Y002825D01*
X001800Y001950D02*
X002850Y003000D01*
X004000Y003050D02*
X005050Y002000D01*
X003800Y002850D02*
X004850Y001800D01*
X021985Y031715D02*
X023035Y030665D01*
X022835Y030415D02*
Y030465D01*
X021785Y031515D02*
X022835Y030465D01*
X023935Y030415D02*
X025010Y031490D01*
X023785Y030615D02*
X024835Y031665D01*
X007783Y030640D02*
X008858Y031715D01*
X007958Y030465D02*
X009008Y031515D01*
X011783Y030640D02*
X012858Y031715D01*
X011958Y030465D02*
X013008Y031515D01*
X009758Y031465D02*
X010808Y030415D01*
X009958Y031665D02*
X011008Y030615D01*
X001775Y030640D02*
X002850Y031715D01*
X001950Y030465D02*
X003000Y031515D01*
X005775Y030640D02*
X006850Y031715D01*
X005950Y030465D02*
X007000Y031515D01*
X003750Y031465D02*
X004800Y030415D01*
X003950Y031665D02*
X005000Y030615D01*
X019344Y005700D02*
Y027353D01*
X014544Y005700D02*
Y027353D01*
X014625Y005700D02*
Y027353D01*
X019344*
X014625Y005700D02*
X019344D01*
X009825D02*
Y027353D01*
X014544*
X009825Y005700D02*
X014544D01*
X005025D02*
Y027353D01*
X009744Y005700D02*
Y027353D01*
X005025D02*
X009744D01*
X005025Y005700D02*
X009744D01*
X000225D02*
Y027353D01*
X004944Y005700D02*
Y027353D01*
X000225D02*
X004944D01*
X000225Y005700D02*
X004944D01*
X021935Y001800D02*
X022985Y002850D01*
X021760Y001975D02*
X022835Y003050D01*
X023935Y003000D02*
X024985Y001950D01*
X023935Y003000D02*
Y003050D01*
X023735Y002800D02*
X024785Y001750D01*
M02*