%FSDAX24Y24*%
%MOIN*%
%SFA1B1*%

%IPPOS*%
%ADD11C,0.010000*%
%ADD16C,0.005000*%
%ADD17R,0.039370X0.043310*%
%ADD18R,0.043310X0.039370*%
%ADD19O,0.023620X0.086610*%
%ADD20R,0.015750X0.051180*%
%ADD21R,0.177170X0.064960*%
%ADD22R,0.039370X0.027560*%
%ADD23R,0.074800X0.145670*%
%ADD24R,0.047240X0.137800*%
%ADD25R,0.043310X0.061020*%
%ADD26R,0.043310X0.061020*%
%ADD27R,0.135830X0.061020*%
%ADD44C,0.030000*%
%ADD45C,0.020000*%
%ADD46C,0.050000*%
%ADD47C,0.060000*%
%ADD48R,0.380000X0.190000*%
%ADD49R,0.060000X0.150000*%
%ADD50C,0.098430*%
%ADD51R,0.059060X0.059060*%
%ADD52C,0.059060*%
%ADD53R,0.059060X0.059060*%
%ADD54C,0.030000*%
%ADD70C,0.040000*%
%ADD71C,0.080000*%
%ADD72C,0.160000*%
%ADD73C,0.320000*%
%LNpcb_baseboard-1*%
%LPD*%
G54D16*
X026615Y000156D02*
X015175D01*
Y018389*
X019875Y023089*
Y033308*
X026615*
Y000156*
G54D11*
X026565Y000206D02*
X015225D01*
Y018368*
X019925Y023068*
Y033258*
X026565*
Y000206*
G54D45*
X026465Y000306D02*
X015325D01*
Y018327*
X020025Y023027*
Y033158*
X026465*
Y000306*
G54D70*
X026265Y000506D02*
X015525D01*
Y018244*
X020225Y022944*
Y032958*
X026265*
Y000506*
G54D71*
X025865Y000906D02*
X015925D01*
Y018078*
X020625Y022778*
Y032558*
X025865*
Y000906*
G54D72*
X025065Y001706D02*
X016725D01*
Y017747*
X021425Y022447*
Y031758*
X025065*
Y001706*
G54D73*
X023465Y003306D02*
X018325D01*
Y017084*
X023025Y021784*
Y030158*
X023465*
Y003306*
X019920Y003320D02*
Y018510D01*
X023120Y003320D02*
Y030160D01*
G54D16*
X022520Y026520D02*
Y026540D01*
Y027470D02*
Y028680D01*
X022570Y026520D02*
Y026640D01*
Y027370D02*
Y028680D01*
X022620Y026520D02*
Y026670D01*
Y027340D02*
Y028680D01*
X022670Y026520D02*
Y026550D01*
Y027460D02*
Y027980D01*
G54D11*
X022143Y025714D02*
Y025607D01*
X022151Y025616*
X022094Y025531*
X022074Y025432*
Y024787*
X022093Y024689*
X022153Y024599*
X022143Y024606*
Y024585*
X020898Y023340*
X020858Y023279*
X020843Y023207*
Y022823*
X020792Y022772*
X020780Y022743*
X020826*
X020819Y022759*
X020756Y022823*
Y024649*
X020785*
Y025350*
X020736*
X020756Y025326*
Y025295*
X020825*
X020874*
X021500*
Y025474*
X021494Y025473*
X021555Y025514*
X021735Y025693*
X022164*
X022143Y025714*
X020800Y022750D02*
Y022760D01*
Y022810D02*
Y025280D01*
X020900Y023370D02*
Y025280D01*
X021000Y023470D02*
Y025280D01*
X021100Y023570D02*
Y025280D01*
X021200Y023670D02*
Y025280D01*
X021300Y023770D02*
Y025280D01*
X021400Y023870D02*
Y025280D01*
X021500Y023970D02*
Y025460D01*
X021600Y024070D02*
Y025540D01*
X021700Y024170D02*
Y025640D01*
X021800Y024270D02*
Y025680D01*
X021900Y024370D02*
Y025680D01*
X022000Y024470D02*
Y025680D01*
X022100Y024570D02*
Y024660D01*
Y025570D02*
Y025680D01*
G54D16*
X022830Y023090D02*
Y023360D01*
X022880Y023020D02*
Y023410D01*
X022930Y023060D02*
Y023460D01*
X022980Y023110D02*
Y023510D01*
X023030D02*
Y023560D01*
X023080Y023570D02*
Y023610D01*
X023130Y023620D02*
Y023660D01*
X023180Y023670D02*
Y023710D01*
X023230Y023720D02*
Y023760D01*
X023280Y023770D02*
Y023810D01*
X023330Y023820D02*
Y023860D01*
X023380Y023870D02*
Y023910D01*
X023430Y023920D02*
Y023960D01*
X023480Y023970D02*
Y024010D01*
X023530Y024020D02*
Y024060D01*
X023580Y024070D02*
Y024110D01*
X023630Y024120D02*
Y024160D01*
X023680Y024170D02*
Y024210D01*
X023730Y024220D02*
Y024260D01*
X023780Y024270D02*
Y024310D01*
X023830Y024320D02*
Y024360D01*
X023880Y024370D02*
Y024420D01*
X023930D02*
Y024960D01*
X023980Y024470D02*
Y025010D01*
X024030Y024520D02*
Y025060D01*
X024080Y024570D02*
Y025110D01*
X024130Y024620D02*
Y025160D01*
X024180Y024670D02*
Y025210D01*
X024230Y024720D02*
Y025260D01*
X024280Y024770D02*
Y025310D01*
X024330Y024820D02*
Y025360D01*
X024380Y024850D02*
Y025040D01*
Y025370D02*
Y025410D01*
X024430Y024870D02*
Y024950D01*
Y025460D02*
D01*
X024480Y024870D02*
Y024900D01*
Y025510D02*
D01*
X023360Y022270D02*
Y022290D01*
X023410Y022270D02*
Y022340D01*
X023460Y022270D02*
Y022390D01*
X023510Y022270D02*
Y022440D01*
X023560Y022270D02*
Y022490D01*
X023610Y022300D02*
Y022540D01*
X023660Y022350D02*
Y022590D01*
X023710Y022400D02*
Y022670D01*
X023760Y022450D02*
Y022660D01*
X023810Y022500D02*
Y022640D01*
X023860Y022550D02*
Y022640D01*
X023910Y022600D02*
Y022650D01*
X023960D02*
Y022670D01*
X024010Y022700D02*
D01*
Y023110D02*
Y023340D01*
X024060Y022750D02*
D01*
Y023060D02*
Y023390D01*
X024110Y022800D02*
Y023440D01*
X024160Y022850D02*
Y023490D01*
X024210Y022900D02*
Y023540D01*
X024260Y022950D02*
Y023540D01*
X024310Y023000D02*
Y023540D01*
X024360Y023050D02*
Y023110D01*
Y023300D02*
Y023540D01*
X024410Y023420D02*
Y023540D01*
X024460Y023490D02*
Y023540D01*
X024510D02*
D01*
%LNpcb_baseboard-2*%
%LPC*%
G36*
X022475Y031635D02*
X022325D01*
X022180Y031597*
X022050Y031521*
X021943Y031415*
X021868Y031285*
X021829Y031140*
Y030989*
X021868Y030844*
X021888Y030810*
X020786Y029708*
X020747Y029649*
X020733Y029579*
Y029075*
X020620*
Y028524*
X021210*
Y029075*
X021097*
Y029504*
X022146Y030552*
X022180Y030533*
X022325Y030494*
X022475*
X022621Y030533*
X022751Y030608*
X022857Y030714*
X022932Y030844*
X022971Y030989*
Y031140*
X022932Y031285*
X022857Y031415*
X022751Y031521*
X022621Y031597*
X022475Y031635*
G37*
G36*
X022605Y029876D02*
X022516Y029858D01*
X022440Y029807*
X022390Y029732*
X022372Y029643*
Y029073*
X022390Y028984*
X022413Y028949*
Y028703*
X022370Y028685*
X022186*
X021979Y028892*
X021937Y028921*
X021886Y028931*
X021879*
Y029075*
X021289*
Y028524*
X021879*
Y028556*
X021926Y028575*
X022118Y028382*
X022161Y028353*
X022178Y028350*
Y028016*
X022218*
Y027464*
X022208Y027456*
X022164Y027391*
X022149Y027315*
Y026685*
X022164Y026608*
X022208Y026543*
X022224Y026532*
X022209Y026482*
X021990*
X021975Y026532*
X021991Y026543*
X022035Y026608*
X022050Y026685*
Y027315*
X022035Y027391*
X022032Y027396*
Y027558*
X022043Y027570*
X022078Y027654*
Y027745*
X022043Y027829*
X021979Y027893*
X021895Y027928*
X021804*
X021720Y027893*
X021656Y027829*
X021621Y027745*
Y027654*
X021656Y027570*
X021667Y027558*
Y027396*
X021664Y027391*
X021649Y027315*
Y027282*
X021379*
Y027375*
X020789*
Y026824*
X021379*
Y026917*
X021649*
Y026685*
X021664Y026608*
X021708Y026543*
X021724Y026532*
X021709Y026482*
X021446*
Y026651*
X021250*
Y026334*
Y026018*
X021446*
Y026117*
X023150*
X023219Y026131*
X023278Y026171*
X023478Y026371*
X023518Y026430*
X023532Y026500*
Y026565*
X023555Y026599*
X023572Y026685*
Y026900*
X023350*
X023127*
Y026685*
X023144Y026599*
X023163Y026571*
X023074Y026482*
X022990*
X022975Y026532*
X022991Y026543*
X023035Y026608*
X023050Y026685*
Y027315*
X023035Y027391*
X022991Y027456*
X022981Y027464*
Y028016*
X023005*
Y028350*
X023022Y028353*
X023064Y028382*
X023351Y028668*
X023420*
Y028524*
X024010*
Y029075*
X023420*
Y028931*
X023296*
X023246Y028921*
X023204Y028892*
X022996Y028685*
X022813*
X022770Y028703*
Y028735*
Y028908*
X022821Y028984*
X022838Y029073*
Y029643*
X022821Y029732*
X022770Y029807*
X022694Y029858*
X022605Y029876*
G37*
G36*
X024444Y031635D02*
X024294D01*
X024148Y031597*
X024018Y031521*
X023912Y031415*
X023837Y031285*
X023798Y031140*
Y030989*
X023837Y030844*
X023912Y030714*
X024018Y030608*
X024148Y030533*
X024202Y030518*
Y029075*
X024089*
Y028524*
X024679*
Y029075*
X024566*
Y030527*
X024589Y030533*
X024719Y030608*
X024826Y030714*
X024901Y030844*
X024940Y030989*
Y031140*
X024901Y031285*
X024826Y031415*
X024719Y031521*
X024589Y031597*
X024444Y031635*
G37*
G36*
X020731Y027396D02*
X020515D01*
Y027200*
X020731*
Y027396*
G37*
G36*
X020315D02*
X020098D01*
Y027200*
X020315*
Y027396*
G37*
G36*
X023350Y027831D02*
X023299Y027821D01*
X023257Y027792*
X023228Y027750*
X023218Y027700*
Y027489*
X023192Y027472*
X023144Y027400*
X023127Y027315*
Y027100*
X023350*
X023572*
Y027315*
X023555Y027400*
X023507Y027472*
X023481Y027489*
Y027700*
X023471Y027750*
X023442Y027792*
X023400Y027821*
X023350Y027831*
G37*
G36*
X020450Y026234D02*
X020253D01*
Y026018*
X020450*
Y026234*
G37*
G36*
X020731Y027000D02*
X020415D01*
X020098*
Y026803*
X020233*
Y026489*
X020243Y026434*
X020550*
Y026334*
X020650*
Y026018*
X020846*
X020853*
X021050*
Y026334*
Y026651*
X020853*
X020846*
X020597*
Y026803*
X020731*
Y027000*
G37*
G36*
X025799Y026574D02*
X025700D01*
X025605Y026548*
X025520Y026499*
X025450Y026429*
X025401Y026344*
X025376Y026249*
Y026150*
X025401Y026055*
X025408Y026043*
X025195Y025831*
X024959*
X024946Y025881*
X024979Y025900*
X025049Y025970*
X025098Y026055*
X025124Y026150*
Y026249*
X025098Y026344*
X025049Y026429*
X024979Y026499*
X024894Y026548*
X024799Y026574*
X024700*
X024605Y026548*
X024520Y026499*
X024450Y026429*
X024401Y026344*
X024376Y026249*
Y026150*
X024401Y026055*
X024450Y025970*
X024520Y025900*
X024554Y025881*
X024540Y025831*
X024450*
X024399Y025821*
X024357Y025792*
X023657Y025092*
X023628Y025050*
X023618Y025000*
Y024554*
X022557Y023492*
X022528Y023450*
X022518Y023400*
Y023092*
X022456Y023029*
X022421Y022945*
Y022854*
X022456Y022770*
X022520Y022706*
X022604Y022671*
X022695*
X022779Y022706*
X022843Y022770*
X022875Y022845*
X022875Y022845*
X022924*
X022925Y022845*
X022956Y022770*
X023020Y022706*
X023104Y022671*
X023195*
X023279Y022706*
X023343Y022770*
X023368Y022830*
X023418Y022820*
Y022754*
X023083Y022419*
X021782*
X021760Y022469*
X021790Y022542*
Y022633*
X021756Y022717*
X021704Y022768*
X023442Y024507*
X023471Y024549*
X023481Y024600*
Y024646*
X023491Y024653*
X023535Y024718*
X023550Y024795*
Y025425*
X023535Y025502*
X023491Y025567*
X023426Y025610*
X023350Y025625*
X023273Y025610*
X023208Y025567*
X023164Y025502*
X023149Y025425*
Y024795*
X023164Y024718*
X023208Y024653*
X023208Y024644*
X021469Y022904*
X021440Y022862*
X021430Y022812*
Y022780*
X021368Y022717*
X021333Y022633*
Y022542*
X021363Y022469*
X021342Y022419*
X021257*
X021238Y022465*
X021243Y022470*
X021278Y022554*
Y022645*
X021243Y022729*
X021181Y022792*
Y023145*
X022442Y024407*
X022471Y024449*
X022481Y024500*
Y024646*
X022491Y024653*
X022535Y024718*
X022550Y024795*
Y024979*
X022649*
Y024795*
X022664Y024718*
X022708Y024653*
X022773Y024609*
X022850Y024594*
X022926Y024609*
X022991Y024653*
X023035Y024718*
X023050Y024795*
Y025425*
X023035Y025502*
X022991Y025567*
X022926Y025610*
X022850Y025625*
X022773Y025610*
X022708Y025567*
X022664Y025502*
X022649Y025425*
Y025241*
X022550*
Y025425*
X022535Y025502*
X022491Y025567*
X022481Y025574*
Y025800*
X022471Y025850*
X022442Y025892*
X022342Y025992*
X022300Y026021*
X022250Y026031*
X021650*
X021599Y026021*
X021557Y025992*
X021471Y025907*
X021425Y025926*
Y025960*
X020874*
X020825*
X020274*
Y025370*
X020364*
X020371Y025362*
X020389Y025320*
X020371Y025292*
X020367Y025275*
X020120*
Y024724*
X020418*
Y022768*
X020368Y022717*
X020333Y022633*
Y022542*
X020363Y022469*
X020342Y022419*
X020037*
X019987Y022409*
X019945Y022380*
X017545Y019980*
X017516Y019938*
X017506Y019887*
Y019704*
X017444Y019641*
X017409Y019557*
Y019466*
X017444Y019382*
X017508Y019318*
X017592Y019283*
X017683*
X017767Y019318*
X017807Y019357*
X017851Y019369*
X017870Y019356*
X017920Y019306*
X018004Y019271*
X018095*
X018179Y019306*
X018243Y019370*
X018268Y019430*
X018318Y019420*
Y018292*
X018256Y018229*
X018221Y018145*
Y018054*
X018256Y017970*
X018320Y017906*
X018404Y017871*
X018495*
X018579Y017906*
X018617Y017943*
X018650Y017966*
X018682Y017943*
X018720Y017906*
X018804Y017871*
X018895*
X018979Y017906*
X019043Y017970*
X019078Y018054*
Y018145*
X019043Y018229*
X019022Y018251*
X019050Y018293*
X019104Y018271*
X019195*
X019279Y018306*
X019343Y018370*
X019378Y018454*
Y018543*
X020504Y019668*
X021827*
X021854Y019618*
X021834Y019589*
X021816Y019500*
Y018596*
X021613Y018393*
X021610Y018393*
X021187*
X021098Y018376*
X021022Y018325*
X020972Y018249*
X020954Y018160*
X020972Y018071*
X021022Y017995*
X021098Y017945*
X021187Y017927*
X021387*
Y017630*
X021284*
Y016941*
X021621*
Y016841*
X021721*
Y016052*
X021957*
Y016608*
X024184*
Y016052*
X024421*
Y016841*
Y017630*
X024184*
Y017074*
X021957*
Y017630*
X021854*
Y017974*
X022214Y018335*
X022265Y018410*
X022283Y018500*
Y019500*
X022265Y019589*
X022245Y019618*
X022272Y019668*
X023295*
X024457Y018507*
X024499Y018478*
X024550Y018468*
X025650*
X025700Y018478*
X025742Y018507*
X025842Y018607*
X025871Y018649*
X025881Y018700*
Y018826*
X026124*
Y019574*
X025376*
Y018826*
X025618*
Y018754*
X025595Y018731*
X024604*
X023513Y019822*
X023532Y019868*
X023895*
X024408Y019356*
X024401Y019344*
X024376Y019249*
Y019150*
X024401Y019055*
X024450Y018970*
X024520Y018900*
X024605Y018851*
X024700Y018826*
X024799*
X024894Y018851*
X024979Y018900*
X025049Y018970*
X025098Y019055*
X025124Y019150*
Y019249*
X025098Y019344*
X025049Y019429*
X024979Y019499*
X024894Y019548*
X024799Y019574*
X024700*
X024605Y019548*
X024593Y019541*
X024113Y020022*
X024132Y020068*
X024398*
X024401Y020055*
X024450Y019970*
X024520Y019900*
X024605Y019851*
X024700Y019826*
X024799*
X024894Y019851*
X024979Y019900*
X025049Y019970*
X025098Y020055*
X025124Y020150*
Y020249*
X025098Y020344*
X025049Y020429*
X024979Y020499*
X024894Y020548*
X024799Y020574*
X024700*
X024605Y020548*
X024520Y020499*
X024450Y020429*
X024401Y020344*
X024398Y020331*
X024132*
X024113Y020377*
X024593Y020858*
X024605Y020851*
X024700Y020826*
X024799*
X024894Y020851*
X024979Y020900*
X025049Y020970*
X025098Y021055*
X025124Y021150*
Y021249*
X025098Y021344*
X025049Y021429*
X024979Y021499*
X024894Y021548*
X024799Y021574*
X024700*
X024605Y021548*
X024520Y021499*
X024450Y021429*
X024401Y021344*
X024376Y021249*
Y021150*
X024401Y021055*
X024408Y021043*
X023895Y020531*
X023332*
X023313Y020577*
X024593Y021858*
X024605Y021851*
X024700Y021826*
X024799*
X024894Y021851*
X024979Y021900*
X025049Y021970*
X025098Y022055*
X025124Y022150*
Y022249*
X025098Y022344*
X025049Y022429*
X024979Y022499*
X024894Y022548*
X024799Y022574*
X024700*
X024605Y022548*
X024520Y022499*
X024450Y022429*
X024401Y022344*
X024376Y022249*
Y022150*
X024401Y022055*
X024408Y022043*
X023095Y020731*
X019450*
X019399Y020721*
X019357Y020692*
X018357Y019692*
X018328Y019650*
X018318Y019600*
Y019579*
X018268Y019569*
X018243Y019629*
X018181Y019692*
Y019945*
X020204Y021968*
X023650*
X023700Y021978*
X023742Y022007*
X024593Y022858*
X024605Y022851*
X024700Y022826*
X024799*
X024894Y022851*
X024979Y022900*
X025049Y022970*
X025098Y023055*
X025124Y023150*
Y023249*
X025098Y023344*
X025049Y023429*
X024979Y023499*
X024946Y023518*
X024959Y023568*
X025250*
X025300Y023578*
X025342Y023607*
X025593Y023858*
X025605Y023851*
X025700Y023826*
X025799*
X025894Y023851*
X025979Y023900*
X026049Y023970*
X026098Y024055*
X026124Y024150*
Y024249*
X026098Y024344*
X026049Y024429*
X025979Y024499*
X025894Y024548*
X025799Y024574*
X025700*
X025605Y024548*
X025520Y024499*
X025450Y024429*
X025401Y024344*
X025376Y024249*
Y024150*
X025401Y024055*
X025408Y024043*
X025195Y023831*
X024959*
X024946Y023881*
X024979Y023900*
X025049Y023970*
X025098Y024055*
X025124Y024150*
Y024249*
X025098Y024344*
X025049Y024429*
X024979Y024499*
X024946Y024518*
X024959Y024568*
X025250*
X025300Y024578*
X025342Y024607*
X025593Y024858*
X025605Y024851*
X025700Y024826*
X025799*
X025894Y024851*
X025979Y024900*
X026049Y024970*
X026098Y025055*
X026124Y025150*
Y025249*
X026098Y025344*
X026049Y025429*
X025979Y025499*
X025894Y025548*
X025799Y025574*
X025700*
X025605Y025548*
X025520Y025499*
X025450Y025429*
X025401Y025344*
X025376Y025249*
Y025150*
X025401Y025055*
X025408Y025043*
X025195Y024831*
X024959*
X024946Y024881*
X024979Y024900*
X025049Y024970*
X025098Y025055*
X025124Y025150*
Y025249*
X025098Y025344*
X025049Y025429*
X024979Y025499*
X024946Y025518*
X024959Y025568*
X025250*
X025300Y025578*
X025342Y025607*
X025593Y025858*
X025605Y025851*
X025700Y025826*
X025799*
X025894Y025851*
X025979Y025900*
X026049Y025970*
X026098Y026055*
X026124Y026150*
Y026249*
X026098Y026344*
X026049Y026429*
X025979Y026499*
X025894Y026548*
X025799Y026574*
G37*
G36*
Y023574D02*
X025700D01*
X025605Y023548*
X025520Y023499*
X025450Y023429*
X025401Y023344*
X025376Y023249*
Y023150*
X025401Y023055*
X025450Y022970*
X025520Y022900*
X025605Y022851*
X025700Y022826*
X025799*
X025894Y022851*
X025979Y022900*
X026049Y022970*
X026098Y023055*
X026124Y023150*
Y023249*
X026098Y023344*
X026049Y023429*
X025979Y023499*
X025894Y023548*
X025799Y023574*
G37*
G36*
Y022574D02*
X025700D01*
X025605Y022548*
X025520Y022499*
X025450Y022429*
X025401Y022344*
X025376Y022249*
Y022150*
X025401Y022055*
X025450Y021970*
X025520Y021900*
X025605Y021851*
X025700Y021826*
X025799*
X025894Y021851*
X025979Y021900*
X026049Y021970*
X026098Y022055*
X026124Y022150*
Y022249*
X026098Y022344*
X026049Y022429*
X025979Y022499*
X025894Y022548*
X025799Y022574*
G37*
G36*
X021950Y021882D02*
Y021600D01*
X022232*
X022218Y021652*
X022166Y021742*
X022092Y021816*
X022002Y021868*
X021950Y021882*
G37*
G36*
X021750D02*
X021697Y021868D01*
X021607Y021816*
X021533Y021742*
X021481Y021652*
X021467Y021600*
X021750*
Y021882*
G37*
G36*
X025850Y021582D02*
Y021300D01*
X026132*
X026118Y021352*
X026066Y021442*
X025992Y021516*
X025902Y021568*
X025850Y021582*
G37*
G36*
X025650D02*
X025597Y021568D01*
X025507Y021516*
X025433Y021442*
X025381Y021352*
X025367Y021300*
X025650*
Y021582*
G37*
G36*
X022899Y021874D02*
X022800D01*
X022705Y021848*
X022620Y021799*
X022550Y021729*
X022501Y021644*
X022476Y021549*
Y021450*
X022501Y021355*
X022550Y021270*
X022620Y021200*
X022705Y021151*
X022800Y021126*
X022899*
X022994Y021151*
X023079Y021200*
X023149Y021270*
X023198Y021355*
X023224Y021450*
Y021549*
X023198Y021644*
X023149Y021729*
X023079Y021799*
X022994Y021848*
X022899Y021874*
G37*
G36*
X021224D02*
X020476D01*
Y021126*
X021224*
Y021874*
G37*
G36*
X022232Y021400D02*
X021950D01*
Y021117*
X022002Y021131*
X022092Y021183*
X022166Y021257*
X022218Y021347*
X022232Y021400*
G37*
G36*
X021750D02*
X021467D01*
X021481Y021347*
X021533Y021257*
X021607Y021183*
X021697Y021131*
X021750Y021117*
Y021400*
G37*
G36*
X026132Y021100D02*
X025850D01*
Y020817*
X025902Y020831*
X025992Y020883*
X026066Y020957*
X026118Y021047*
X026132Y021100*
G37*
G36*
X025650D02*
X025367D01*
X025381Y021047*
X025433Y020957*
X025507Y020883*
X025597Y020831*
X025650Y020817*
Y021100*
G37*
G36*
X025850Y020582D02*
Y020300D01*
X026132*
X026118Y020352*
X026066Y020442*
X025992Y020516*
X025902Y020568*
X025850Y020582*
G37*
G36*
X025650D02*
X025597Y020568D01*
X025507Y020516*
X025433Y020442*
X025381Y020352*
X025367Y020300*
X025650*
Y020582*
G37*
G36*
X026132Y020100D02*
X025850D01*
Y019817*
X025902Y019831*
X025992Y019883*
X026066Y019957*
X026118Y020047*
X026132Y020100*
G37*
G36*
X025650D02*
X025367D01*
X025381Y020047*
X025433Y019957*
X025507Y019883*
X025597Y019831*
X025650Y019817*
Y020100*
G37*
G36*
X024857Y017630D02*
X024621D01*
Y016941*
X024857*
Y017630*
G37*
G36*
Y016741D02*
X024621D01*
Y016052*
X024857*
Y016741*
G37*
G36*
X021521D02*
X021284D01*
Y016052*
X021521*
Y016741*
G37*
G36*
X023546Y014251D02*
X023350D01*
Y014034*
X023546*
Y014251*
G37*
G36*
X023150D02*
X022953D01*
Y014034*
X023150*
Y014251*
G37*
G36*
X025501Y013896D02*
X025284D01*
Y013700*
X025501*
Y013896*
G37*
G36*
X025084D02*
X024868D01*
Y013700*
X025084*
Y013896*
G37*
G36*
X023546Y013834D02*
X023350D01*
Y013618*
X023546*
Y013834*
G37*
G36*
X023150D02*
X022953D01*
Y013618*
X023150*
Y013834*
G37*
G36*
X025501Y013500D02*
X025284D01*
Y013303*
X025501*
Y013500*
G37*
G36*
X025084D02*
X024868D01*
Y013303*
X025084*
Y013500*
G37*
G36*
X024836Y015506D02*
X024206D01*
Y013971*
X024287*
Y013875*
X024220*
Y013634*
X024009Y013423*
X023958Y013347*
X023940Y013258*
Y013183*
X023721*
Y011569*
X023769*
Y011329*
X023558*
X023545Y011344*
X023526Y011379*
X023530Y011400*
Y013300*
X023525Y013323*
Y013560*
X022974*
Y013498*
X022307*
Y013612*
X021854*
Y013971*
X021936*
Y015506*
X021306*
Y013971*
X021387*
Y013612*
X020792*
Y013462*
X020017*
X019983Y013496*
Y014500*
X019978Y014522*
Y014545*
X019969Y014566*
X019965Y014589*
X019952Y014608*
X019943Y014629*
X019927Y014645*
X019914Y014664*
X019895Y014677*
X019879Y014693*
X019858Y014702*
X019839Y014715*
X019816Y014719*
X019795Y014728*
X019772*
X019750Y014733*
X019727Y014728*
X019704*
X019683Y014719*
X019660Y014715*
X019641Y014702*
X019620Y014693*
X019604Y014677*
X019585Y014664*
X019572Y014645*
X019556Y014629*
X019547Y014608*
X019534Y014589*
X019530Y014566*
X019521Y014545*
Y014522*
X019516Y014500*
Y013400*
X019534Y013310*
X019569Y013258*
Y011400*
X019575Y011369*
X019593Y011343*
X019619Y011325*
X019650Y011319*
X021316*
Y010955*
X021254*
Y010187*
X021845*
Y010955*
X021783*
Y011319*
X023274*
Y011256*
X022958*
X022888Y011242*
X022829Y011202*
X022585Y010958*
X022572*
X022554Y010955*
X022160*
Y010187*
X022750*
Y010621*
X022789Y010647*
X023033Y010891*
X023274*
Y010739*
X023825*
Y010891*
X024074*
Y010483*
Y010109*
X024116*
Y009996*
X023796Y009675*
X023750Y009682*
X023260*
X023245Y009732*
X023249Y009735*
X023563Y010048*
X023846*
Y010265*
X023550*
Y010365*
X023450*
Y010681*
X023253*
Y010398*
X022988Y010133*
X020997*
X020961Y010166*
Y010471*
X020327*
Y010166*
X020411*
Y010105*
X020429Y010016*
X020479Y009940*
X020685Y009735*
X020760Y009684*
X020850Y009666*
X021495*
X021512Y009616*
X021451Y009570*
X020835Y008954*
X019870Y009920*
X019791Y009980*
X019698Y010019*
X019649Y010025*
X019600Y010032*
X018850*
X018751Y010019*
X018659Y009980*
X018579Y009920*
X018519Y009841*
X018481Y009748*
X018468Y009650*
X018481Y009551*
X018519Y009459*
X018579Y009379*
X018659Y009319*
X018751Y009281*
X018850Y009268*
X019441*
X020453Y008255*
Y008161*
X019871*
Y007354*
X020504*
Y004700*
Y003964*
X020515Y003879*
X020548Y003799*
X020601Y003730*
X021835Y002496*
X021829Y002475*
Y002324*
X021868Y002179*
X021943Y002049*
X022050Y001943*
X022180Y001868*
X022325Y001829*
X022475*
X022621Y001868*
X022751Y001943*
X022857Y002049*
X022932Y002179*
X022971Y002324*
Y002475*
X022932Y002620*
X022857Y002750*
X022751Y002856*
X022621Y002932*
X022475Y002970*
X022325*
X022304Y002965*
X021167Y004102*
Y004466*
X022720*
Y004424*
X023310*
Y004975*
X022720*
Y004933*
X021167*
Y007354*
X021800*
Y008161*
X021217*
Y008255*
X021879Y008918*
X023750*
X023848Y008931*
X023941Y008969*
X024020Y009029*
X024080Y009109*
X024119Y009201*
X024132Y009300*
X024125Y009346*
X024514Y009735*
X024565Y009810*
X024583Y009900*
Y010109*
X024625*
Y010483*
Y010857*
Y011290*
X024530*
Y011569*
X024626*
Y013183*
X024494*
X024475Y013230*
X024569Y013324*
X024810*
Y013875*
X024754*
Y013971*
X024836*
Y014617*
X025408*
X025420Y014606*
X025504Y014571*
X025595*
X025679Y014606*
X025743Y014670*
X025778Y014754*
Y014845*
X025743Y014929*
X025679Y014993*
X025595Y015028*
X025504*
X025420Y014993*
X025408Y014982*
X024836*
Y015506*
G37*
G36*
X020961Y010976D02*
X020744D01*
Y010671*
X020961*
Y010976*
G37*
G36*
X020544D02*
X020327D01*
Y010671*
X020544*
Y010976*
G37*
G36*
X023846Y010681D02*
X023650D01*
Y010465*
X023846*
Y010681*
G37*
G36*
X025273Y010226D02*
X025076D01*
Y010088*
X025273*
Y010226*
G37*
G36*
X026044Y013183D02*
X025138D01*
Y012116*
X025081Y012104*
X025022Y012065*
X024821Y011864*
X024781Y011805*
X024767Y011735*
Y010800*
X024781Y010730*
X024821Y010671*
X024921Y010571*
X024980Y010531*
X025050Y010517*
X025076*
Y010426*
X025373*
Y010326*
X025473*
Y010088*
X025670*
Y010319*
X025720Y010340*
X025758Y010302*
X025817Y010262*
X025874Y010251*
Y010070*
X026425*
Y010660*
X025954*
X025928Y010693*
X025948Y010739*
X026425*
Y011329*
X025874*
Y011256*
X025649*
Y011290*
X025132*
Y011522*
X025138Y011569*
X026044*
Y013183*
G37*
G36*
X017899Y010024D02*
X017800D01*
X017705Y009998*
X017620Y009949*
X017550Y009879*
X017501Y009794*
X017476Y009699*
Y009600*
X017501Y009505*
X017550Y009420*
X017620Y009350*
X017705Y009301*
X017800Y009276*
X017899*
X017994Y009301*
X018079Y009350*
X018149Y009420*
X018198Y009505*
X018224Y009600*
Y009699*
X018198Y009794*
X018149Y009879*
X018079Y009949*
X017994Y009998*
X017899Y010024*
G37*
G36*
X018950Y009032D02*
Y008750D01*
X019232*
X019218Y008802*
X019166Y008892*
X019092Y008966*
X019002Y009018*
X018950Y009032*
G37*
G36*
X017950D02*
Y008750D01*
X018232*
X018218Y008802*
X018166Y008892*
X018092Y008966*
X018002Y009018*
X017950Y009032*
G37*
G36*
X018750D02*
X018697Y009018D01*
X018607Y008966*
X018533Y008892*
X018481Y008802*
X018467Y008750*
X018750*
Y009032*
G37*
G36*
X017750D02*
X017697Y009018D01*
X017607Y008966*
X017533Y008892*
X017481Y008802*
X017467Y008750*
X017750*
Y009032*
G37*
G36*
X019232Y008550D02*
X018950D01*
Y008267*
X019002Y008281*
X019092Y008333*
X019166Y008407*
X019218Y008497*
X019232Y008550*
G37*
G36*
X018232D02*
X017950D01*
Y008267*
X018002Y008281*
X018092Y008333*
X018166Y008407*
X018218Y008497*
X018232Y008550*
G37*
G36*
X018750D02*
X018467D01*
X018481Y008497*
X018533Y008407*
X018607Y008333*
X018697Y008281*
X018750Y008267*
Y008550*
G37*
G36*
X017750D02*
X017467D01*
X017481Y008497*
X017533Y008407*
X017607Y008333*
X017697Y008281*
X017750Y008267*
Y008550*
G37*
G36*
X025364Y008182D02*
X024479D01*
Y007857*
X025364*
Y008182*
G37*
G36*
X024279D02*
X023393D01*
Y007857*
X024279*
Y008182*
G37*
G36*
X018899Y008024D02*
X018800D01*
X018705Y007998*
X018620Y007949*
X018550Y007879*
X018501Y007794*
X018476Y007699*
Y007600*
X018501Y007505*
X018550Y007420*
X018620Y007350*
X018705Y007301*
X018800Y007276*
X018899*
X018994Y007301*
X019079Y007350*
X019149Y007420*
X019198Y007505*
X019224Y007600*
Y007699*
X019198Y007794*
X019149Y007879*
X019079Y007949*
X018994Y007998*
X018899Y008024*
G37*
G36*
X016095Y016928D02*
X016004D01*
X015920Y016893*
X015856Y016829*
X015821Y016745*
Y016654*
X015856Y016570*
X015918Y016507*
Y007700*
X015928Y007649*
X015957Y007607*
X017007Y006557*
X017049Y006528*
X017100Y006518*
X017498*
X017501Y006505*
X017550Y006420*
X017620Y006350*
X017705Y006301*
X017800Y006276*
X017899*
X017994Y006301*
X018079Y006350*
X018149Y006420*
X018198Y006505*
X018224Y006600*
Y006699*
X018198Y006794*
X018149Y006879*
X018079Y006949*
X017994Y006998*
X017899Y007024*
X017800*
X017705Y006998*
X017620Y006949*
X017550Y006879*
X017501Y006794*
X017498Y006781*
X017154*
X016181Y007754*
Y008515*
X016227Y008546*
X016231Y008546*
X016257Y008507*
X017207Y007557*
X017249Y007528*
X017300Y007518*
X017498*
X017501Y007505*
X017550Y007420*
X017620Y007350*
X017705Y007301*
X017800Y007276*
X017899*
X017994Y007301*
X018079Y007350*
X018149Y007420*
X018198Y007505*
X018224Y007600*
Y007699*
X018198Y007794*
X018149Y007879*
X018079Y007949*
X017994Y007998*
X017899Y008024*
X017800*
X017705Y007998*
X017620Y007949*
X017550Y007879*
X017501Y007794*
X017498Y007781*
X017354*
X016481Y008654*
Y016207*
X016543Y016270*
X016578Y016354*
Y016445*
X016543Y016529*
X016479Y016593*
X016395Y016628*
X016322*
X016294Y016644*
X016278Y016672*
Y016745*
X016243Y016829*
X016179Y016893*
X016095Y016928*
G37*
G36*
X019224Y007024D02*
X018476D01*
Y006276*
X019224*
Y007024*
G37*
G36*
X023584Y004996D02*
X023368D01*
Y004800*
X023584*
Y004996*
G37*
G36*
Y004600D02*
X023368D01*
Y004403*
X023584*
Y004600*
G37*
G36*
X025364Y007657D02*
X023393D01*
Y007332*
X024037*
Y005029*
X024001Y004996*
X023784*
Y004700*
Y004403*
X024001*
X024037Y004370*
Y002890*
X023991Y002859*
X023909Y002777*
X023844Y002680*
X023799Y002572*
X023785Y002500*
X024369*
X024953*
X024938Y002572*
X024894Y002680*
X024829Y002777*
X024746Y002859*
X024700Y002890*
Y004700*
Y007332*
X025364*
Y007657*
G37*
G36*
X024953Y002300D02*
X024469D01*
Y001816*
X024542Y001830*
X024649Y001875*
X024746Y001940*
X024829Y002022*
X024894Y002119*
X024938Y002227*
X024953Y002300*
G37*
G36*
X024269D02*
X023785D01*
X023799Y002227*
X023844Y002119*
X023909Y002022*
X023991Y001940*
X024088Y001875*
X024196Y001830*
X024269Y001816*
Y002300*
G37*
%LNpcb_baseboard-3*%
%LPD*%
G54D16*
X022665Y028669D02*
Y028653D01*
Y027991*
X022693*
Y027477*
X022690Y027474*
X022641Y027401*
X022624Y027317*
Y026682*
X022641Y026598*
X022690Y026525*
X022695Y026521*
X022690Y026507*
X022509*
X022504Y026521*
X022509Y026525*
X022558Y026598*
X022575Y026682*
Y027317*
X022558Y027401*
X022509Y027474*
X022506Y027477*
Y027991*
X022518*
Y028653*
Y028669*
X022541Y028678*
X022642*
X022665Y028669*
X022193Y025735D02*
Y025587D01*
X022190Y025584*
X022141Y025511*
X022124Y025427*
Y024792*
X022141Y024708*
X022190Y024635*
X022193Y024632*
Y024564*
X020937Y023308*
X020905Y023259*
X020893Y023202*
Y022802*
X020834Y022743*
X020813Y022693*
X020793*
X020777Y022731*
X020705Y022802*
X020706Y022802*
Y024699*
X020735*
Y025300*
X020713*
X020706Y025308*
Y025345*
X020825*
X020874*
X021450*
Y025515*
X021475Y025520*
X021524Y025553*
X021714Y025743*
X022185*
X022193Y025735*
X024492Y025531D02*
X024496Y025514D01*
X024505Y025519*
X024430Y025444*
X024378Y025354*
X024351Y025252*
Y025147*
X024378Y025045*
X024430Y024955*
X024504Y024880*
X024524Y024869*
X024521Y024856*
X024447*
X024390Y024844*
X024341Y024812*
X023037Y023508*
X023005Y023459*
X022993Y023402*
Y023102*
X022934Y023043*
X022908Y022979*
X022891*
X022865Y023043*
X022806Y023102*
Y023335*
X023862Y024391*
X023894Y024440*
X023906Y024497*
Y024935*
X024501Y025530*
X024492Y025531*
X024524Y023530D02*
X024504Y023519D01*
X024430Y023444*
X024378Y023354*
X024351Y023252*
Y023147*
X024378Y023045*
X024377Y023047*
X023585Y022256*
X023348*
X023342Y022271*
X023662Y022591*
X023694Y022640*
X023699Y022663*
X023706Y022667*
X023728Y022676*
X023726Y022676*
X023799Y022646*
X023900*
X023993Y022684*
X024065Y022756*
X024103Y022849*
Y022950*
X024065Y023043*
X024006Y023102*
Y023335*
X024214Y023543*
X024521*
X024524Y023530*
%LNpcb_baseboard-4*%
%LPC*%
G36*
X021850Y025625D02*
X021773Y025610D01*
X021708Y025567*
X021664Y025502*
X021649Y025425*
Y025131*
X021379*
Y025275*
X020789*
Y024724*
X021379*
Y024868*
X021649*
Y024795*
X021664Y024718*
X021708Y024653*
X021773Y024609*
X021850Y024594*
X021926Y024609*
X021991Y024653*
X022035Y024718*
X022050Y024795*
Y025425*
X022035Y025502*
X021991Y025567*
X021926Y025610*
X021850Y025625*
G37*
%LNpcb_baseboard-5*%
%LPD*%
G54D11*
X022847Y028446D02*
X022876Y028475D01*
X023296Y028800D02*
X023715D01*
X022847Y028350D02*
Y028446D01*
X022876Y028475D02*
X022971D01*
X023296Y028800*
X022307Y028475D02*
X022335Y028446D01*
Y028350D02*
Y028446D01*
X022211Y028475D02*
X022307D01*
X021886Y028800D02*
X022211Y028475D01*
X021584Y028800D02*
X021886D01*
X022850Y027000D02*
Y028348D01*
X022847Y028350D02*
X022850Y028348D01*
X022335Y028350D02*
X022350Y028336D01*
Y027000D02*
Y028336D01*
X020550Y022600D02*
X020562Y022587D01*
X020550Y022600D02*
Y024865D01*
X020415Y025000D02*
X020492Y025076D01*
X017637Y019887D02*
X020037Y022287D01*
X023137D02*
X023550Y022700D01*
X020037Y022287D02*
X023137D01*
X018450Y019600D02*
X019450Y020600D01*
X023150*
X024750Y022200*
X023950Y020400D02*
X024750Y021200D01*
X018850Y019700D02*
X019550Y020400D01*
X023950*
X017637Y019512D02*
Y019887D01*
X018050Y019500D02*
Y020000D01*
X020150Y022100D02*
X023650D01*
X018050Y020000D02*
X020150Y022100D01*
X020415Y025000D02*
X020550Y024865D01*
X021050Y022600D02*
Y023200D01*
X022350Y024500*
X021562Y022812D02*
X023350Y024600D01*
X021562Y022587D02*
Y022812D01*
X016350Y008600D02*
Y016400D01*
Y008600D02*
X017300Y007650D01*
X017850*
X016050Y007700D02*
Y016700D01*
Y007700D02*
X017100Y006650D01*
X017850*
X018450Y018100D02*
Y019600D01*
X018850Y018100D02*
Y019700D01*
X019150Y019500D02*
X019850Y020200D01*
X019150Y019000D02*
X020150Y020000D01*
X020450Y019800D02*
X023350D01*
X019150Y018500D02*
X020450Y019800D01*
X023650Y022100D02*
X024750Y023200D01*
X023550Y022700D02*
Y023500D01*
X024250Y024200*
X023150Y022900D02*
Y023400D01*
X024450Y024700*
X023850Y022900D02*
Y023400D01*
X023950Y020000D02*
X024750Y019200D01*
X023350Y019800D02*
X024550Y018600D01*
X020150Y020000D02*
X023950D01*
X019850Y020200D02*
X024750D01*
X024550Y018600D02*
X025650D01*
X025750Y018700D02*
Y019200D01*
X025650Y018600D02*
X025750Y018700D01*
X024250Y024200D02*
X024750D01*
X023850Y023400D02*
X024150Y023700D01*
X025250*
X025750Y024200*
X024450Y024700D02*
X025250D01*
X023750Y025000D02*
X024450Y025700D01*
X023750Y024500D02*
Y025000D01*
X022650Y023400D02*
X023750Y024500D01*
X024450Y025700D02*
X025250D01*
X022650Y022900D02*
Y023400D01*
X025250Y024700D02*
X025750Y025200D01*
X025250Y025700D02*
X025750Y026200D01*
X022350Y024500D02*
Y025110D01*
X023350Y024600D02*
Y025110D01*
Y027000D02*
Y027700D01*
X020550Y025300D02*
Y025665D01*
X020492Y025076D02*
Y025242D01*
X020550Y025300*
X021850Y027000D02*
Y027037D01*
X021787Y027100D02*
X021850Y027037D01*
X021787Y025000D02*
X021850Y025062D01*
Y025110*
X021084Y025000D02*
X021787D01*
X022350Y025110D02*
X022850D01*
X022350D02*
Y025800D01*
X022250Y025900D02*
X022350Y025800D01*
X021650Y025900D02*
X022250D01*
X021150Y025665D02*
X021415D01*
X021650Y025900*
G54D17*
X021150Y026334D03*
Y025665D03*
X020550D03*
Y026334D03*
X026150Y010365D03*
Y011034D03*
X023550Y010365D03*
Y011034D03*
X023250Y013934D03*
Y013265D03*
G54D18*
X020415Y025000D03*
X021084D03*
X024384Y028800D03*
X023715D03*
X020915D03*
X021584D03*
X025184Y013600D03*
X024515D03*
X023684Y004700D03*
X023015D03*
X021084Y027100D03*
X020415D03*
G54D19*
X023350Y027000D03*
X022850D03*
X022350D03*
X021850D03*
X023350Y025110D03*
X022850D03*
X022350D03*
X021850D03*
G54D20*
X022591Y029059D03*
X022847Y028350D03*
X022335D03*
G54D21*
X024379Y007757D03*
X020835D03*
G54D22*
X024350Y011074D03*
Y010700D03*
Y010326D03*
X025373Y011074D03*
Y010700D03*
Y010326D03*
G54D23*
X024174Y012376D03*
X025591D03*
G54D24*
X021621Y016841D03*
Y014739D03*
X024521Y016841D03*
Y014739D03*
G54D25*
X020644Y010571D03*
G54D26*
X021550Y010571D03*
X022455D03*
G54D27*
X021550Y013228D03*
G54D44*
X022050Y018500D02*
Y019500D01*
X021621Y016841D02*
Y018071D01*
X021187Y018160D02*
X021610D01*
X021621Y018071D02*
Y018160D01*
Y018071D02*
X022050Y018500D01*
X022605Y029073D02*
Y029643D01*
X020835Y004700D02*
X023015D01*
X023684D02*
X024369D01*
X021550Y010571D02*
Y011700D01*
X019750Y013400D02*
Y014500D01*
Y013400D02*
X019921Y013228D01*
X021550*
X020644Y010105D02*
X020850Y009900D01*
X020644Y010105D02*
Y010571D01*
X023084Y009900D02*
X023483Y010298D01*
X020850Y009900D02*
X023084D01*
X023550Y010345D02*
Y010365D01*
X023503Y010298D02*
X023550Y010345D01*
X023483Y010298D02*
X023503D01*
X021586Y013265D02*
X021621Y013299D01*
X021550Y013228D02*
X021586Y013265D01*
X021621Y013299D02*
Y014739D01*
X021586Y013265D02*
X023250D01*
X024515Y013600D02*
X024521Y013605D01*
Y014739*
X024448Y013553D02*
X024495Y013600D01*
X024515*
X024174Y012376D02*
Y013258D01*
X024448Y013533*
Y013553*
X021621Y016841D02*
X024521D01*
X023750Y009300D02*
X024350Y009900D01*
Y010326*
G54D45*
X024369Y031065D02*
X024384Y031049D01*
Y028800D02*
Y031049D01*
X020915Y028800D02*
Y029579D01*
X022400Y031065*
X024582Y014800D02*
X025550D01*
X024521Y014739D02*
X024582Y014800D01*
X020415Y026489D02*
X020550Y026354D01*
Y026334D02*
Y026354D01*
X020415Y026489D02*
Y027100D01*
X020550Y026334D02*
D01*
X021150*
X021184Y026300D02*
X023150D01*
X021150Y026334D02*
X021184Y026300D01*
X023350Y026500D02*
Y027000D01*
X023150Y026300D02*
X023350Y026500D01*
X021850Y027037D02*
Y027700D01*
X021084Y027100D02*
X021787D01*
X024350Y010326D02*
Y010700D01*
X022958Y011074D02*
X024350D01*
X022455Y010571D02*
Y010659D01*
X022572Y010776*
X022660*
X022958Y011074*
X026110D02*
X026150Y011034D01*
X025373Y011074D02*
X026110D01*
X025887Y010431D02*
X026084D01*
X026150Y010365*
X025818Y010500D02*
X025887Y010431D01*
X025650Y010700D02*
X025818Y010531D01*
X025373Y010700D02*
X025650D01*
X025818Y010500D02*
Y010531D01*
X024950Y010800D02*
Y011735D01*
X025591Y012210D02*
Y012376D01*
X025317Y011936D02*
X025591Y012210D01*
X025151Y011936D02*
X025317D01*
X024950Y011735D02*
X025151Y011936D01*
X025050Y010700D02*
X025373D01*
X024950Y010800D02*
X025050Y010700D01*
G54D46*
X020835Y004700D02*
Y007757D01*
Y003964D02*
Y004700D01*
X024369D02*
Y007747D01*
Y002400D02*
Y004700D01*
Y007747D02*
X024379Y007757D01*
X020835Y003964D02*
X022400Y002400D01*
G54D47*
X006950Y013800D02*
X016650Y023500D01*
X006950Y005900D02*
Y013800D01*
X016650Y023500D02*
Y025100D01*
X005650Y014300D02*
X015450Y024100D01*
X005650Y005100D02*
Y014300D01*
X015450Y024100D02*
Y025700D01*
X017850Y022900D02*
Y024800D01*
X011050Y003700D02*
Y016100D01*
X017850Y022900*
X016650Y025100D02*
X017350Y025800D01*
X018850*
X011050Y003700D02*
X012350Y002400D01*
X006950Y005900D02*
X010350Y002500D01*
Y002400D02*
Y002500D01*
X005650Y005100D02*
X008350Y002400D01*
X004950Y022500D02*
X010350D01*
X001950Y019500D02*
X004950Y022500D01*
X010350D02*
X012050Y024200D01*
X004150Y023500D02*
X009750D01*
X010650Y024400*
X000850Y020200D02*
X004150Y023500D01*
X012050Y024200D02*
Y025400D01*
X001950Y004850D02*
Y019500D01*
X010650Y024400D02*
Y025700D01*
X011750Y026800*
X000850Y003950D02*
Y020200D01*
X021721Y009300D02*
X023750D01*
X020835Y008414D02*
X021721Y009300D01*
X019600Y009650D02*
X020835Y008414D01*
Y007757D02*
Y008414D01*
X018850Y009650D02*
X019600D01*
X017850Y024800D02*
X018850D01*
X016550Y026800D02*
X017850D01*
X015450Y025700D02*
X016550Y026800D01*
X017850D02*
X018850D01*
X001950Y004850D02*
X004400Y002400D01*
X000850Y003950D02*
X002400Y002400D01*
X012450Y025800D02*
X013050D01*
X012050Y025400D02*
X012450Y025800D01*
X013050D02*
X014050D01*
X011750Y026800D02*
X013050D01*
X014050*
X005950Y028606D02*
X008408Y031065D01*
X005950Y025800D02*
Y028606D01*
Y025800D02*
X006950Y024800D01*
X008250*
X009250*
X007150Y026300D02*
X007650Y025800D01*
X008250*
X004450Y029115D02*
X006400Y031065D01*
X004450Y026800D02*
Y029115D01*
X002450Y026100D02*
Y029115D01*
X004400Y031065*
X001050Y025600D02*
Y029715D01*
X002400Y031065*
X009250Y027906D02*
X012408Y031065D01*
X009250Y026800D02*
Y027906D01*
X008250Y026800D02*
X009250D01*
X010216Y030768D02*
X010408Y030961D01*
X010216Y030766D02*
Y030768D01*
X010408Y030961D02*
Y031065D01*
X007150Y027700D02*
X010216Y030766D01*
X007150Y026300D02*
Y027700D01*
X008250Y025800D02*
X009250D01*
X001050Y025600D02*
X001850Y024800D01*
X003450*
X004450*
X002450Y026100D02*
X002750Y025800D01*
X003450*
X004450*
X003450Y026800D02*
X004450D01*
G54D48*
X021550Y012350D03*
G54D49*
X024150Y011750D03*
G54D50*
X012350Y002400D03*
X010350D03*
X008350D03*
X006400D03*
X004400D03*
X002400D03*
X024369Y031065D03*
X022400D03*
X008408D03*
X010408D03*
X012408D03*
X002400D03*
X004400D03*
X006400D03*
X024369Y002400D03*
X022400D03*
G54D51*
X020850Y021500D03*
G54D52*
X021850Y021500D03*
X022850D03*
X017850Y026800D03*
X018850D03*
X017850Y025800D03*
X018850D03*
X017850Y024800D03*
X013050Y026800D03*
X014050D03*
X013050Y025800D03*
X014050D03*
X013050Y024800D03*
X008250Y026800D03*
X009250D03*
X008250Y025800D03*
X009250D03*
X008250Y024800D03*
X003450Y026800D03*
X004450D03*
X003450Y025800D03*
X004450D03*
X003450Y024800D03*
X024750Y026200D03*
X025750D03*
X024750Y025200D03*
X025750D03*
X024750Y024200D03*
X025750D03*
X024750Y023200D03*
X025750D03*
X024750Y022200D03*
X025750D03*
X024750Y021200D03*
X025750D03*
X024750Y020200D03*
X025750D03*
X024750Y019200D03*
X013050Y009650D03*
X014050D03*
X013050Y008650D03*
X014050D03*
X013050Y007650D03*
X014050D03*
X013050Y006650D03*
X017850Y009650D03*
X018850D03*
X017850Y008650D03*
X018850D03*
X017850Y007650D03*
X018850D03*
X017850Y006650D03*
X008250Y009650D03*
X009250D03*
X008250Y008650D03*
X009250D03*
X008250Y007650D03*
X009250D03*
X008250Y006650D03*
X003450Y009650D03*
X004450D03*
X003450Y008650D03*
X004450D03*
X003450Y007650D03*
X004450D03*
X003450Y006650D03*
G54D53*
X018850Y024800D03*
X014050D03*
X009250D03*
X004450D03*
X025750Y019200D03*
X014050Y006650D03*
X018850D03*
X009250D03*
X004450D03*
G54D54*
X022050Y019500D03*
X021187Y018160D03*
X022605Y029643D03*
X020562Y022587D03*
X021562D03*
X021050Y022600D03*
X025550Y014800D03*
X019750Y014500D03*
X016350Y016400D03*
X016050Y016700D03*
X019150Y019500D03*
X018450Y018100D03*
X018850D03*
X019150Y019000D03*
Y018500D03*
X018050Y019500D03*
X023150Y022900D03*
X023850D03*
X017637Y019512D03*
X022650Y022900D03*
X023350Y027700D03*
X021850D03*
M02*