%FSDAX24Y24*%
%MOIN*%
%SFA1B1*%

%IPPOS*%
%ADD28R,0.047370X0.051310*%
%ADD29R,0.051310X0.047370*%
%ADD30O,0.031620X0.094610*%
%ADD31R,0.023750X0.059180*%
%ADD32R,0.185170X0.072960*%
%ADD33R,0.047370X0.035560*%
%ADD34R,0.078800X0.149670*%
%ADD35R,0.051240X0.141790*%
%ADD36R,0.051310X0.069020*%
%ADD37R,0.051310X0.069020*%
%ADD38R,0.143830X0.069020*%
%ADD39C,0.106420*%
%ADD40R,0.067060X0.067060*%
%ADD41C,0.067060*%
%ADD42R,0.067060X0.067060*%
%ADD43C,0.038000*%
%LNpcb_baseboard-1*%
%LPD*%
G54D28*
X021150Y026334D03*
Y025665D03*
X020550D03*
Y026334D03*
X026150Y010365D03*
Y011034D03*
X023550Y010365D03*
Y011034D03*
X023250Y013934D03*
Y013265D03*
G54D29*
X020415Y025000D03*
X021084D03*
X024384Y028800D03*
X023715D03*
X020915D03*
X021584D03*
X025184Y013600D03*
X024515D03*
X023684Y004700D03*
X023015D03*
X021084Y027100D03*
X020415D03*
G54D30*
X023350Y027000D03*
X022850D03*
X022350D03*
X021850D03*
X023350Y025110D03*
X022850D03*
X022350D03*
X021850D03*
G54D31*
X022591Y029059D03*
X022847Y028350D03*
X022335D03*
G54D32*
X024379Y007757D03*
X020835D03*
G54D33*
X024350Y011074D03*
Y010700D03*
Y010326D03*
X025373Y011074D03*
Y010700D03*
Y010326D03*
G54D34*
X024174Y012376D03*
X025591D03*
G54D35*
X021621Y016841D03*
Y014739D03*
X024521Y016841D03*
Y014739D03*
G54D36*
X020644Y010571D03*
G54D37*
X021550Y010571D03*
X022455D03*
G54D38*
X021550Y013228D03*
G54D39*
X012350Y002400D03*
X010350D03*
X008350D03*
X006400D03*
X004400D03*
X002400D03*
X024369Y031065D03*
X022400D03*
X008408D03*
X010408D03*
X012408D03*
X002400D03*
X004400D03*
X006400D03*
X024369Y002400D03*
X022400D03*
G54D40*
X020850Y021500D03*
G54D41*
X021850Y021500D03*
X022850D03*
X017850Y026800D03*
X018850D03*
X017850Y025800D03*
X018850D03*
X017850Y024800D03*
X013050Y026800D03*
X014050D03*
X013050Y025800D03*
X014050D03*
X013050Y024800D03*
X008250Y026800D03*
X009250D03*
X008250Y025800D03*
X009250D03*
X008250Y024800D03*
X003450Y026800D03*
X004450D03*
X003450Y025800D03*
X004450D03*
X003450Y024800D03*
X024750Y026200D03*
X025750D03*
X024750Y025200D03*
X025750D03*
X024750Y024200D03*
X025750D03*
X024750Y023200D03*
X025750D03*
X024750Y022200D03*
X025750D03*
X024750Y021200D03*
X025750D03*
X024750Y020200D03*
X025750D03*
X024750Y019200D03*
X013050Y009650D03*
X014050D03*
X013050Y008650D03*
X014050D03*
X013050Y007650D03*
X014050D03*
X013050Y006650D03*
X017850Y009650D03*
X018850D03*
X017850Y008650D03*
X018850D03*
X017850Y007650D03*
X018850D03*
X017850Y006650D03*
X008250Y009650D03*
X009250D03*
X008250Y008650D03*
X009250D03*
X008250Y007650D03*
X009250D03*
X008250Y006650D03*
X003450Y009650D03*
X004450D03*
X003450Y008650D03*
X004450D03*
X003450Y007650D03*
X004450D03*
X003450Y006650D03*
G54D42*
X018850Y024800D03*
X014050D03*
X009250D03*
X004450D03*
X025750Y019200D03*
X014050Y006650D03*
X018850D03*
X009250D03*
X004450D03*
G54D43*
X022050Y019500D03*
X021187Y018160D03*
X022605Y029643D03*
X020562Y022587D03*
X021562D03*
X021050Y022600D03*
X025550Y014800D03*
X019750Y014500D03*
X016350Y016400D03*
X016050Y016700D03*
X019150Y019500D03*
X018450Y018100D03*
X018850D03*
X019150Y019000D03*
Y018500D03*
X018050Y019500D03*
X023150Y022900D03*
X023850D03*
X017637Y019512D03*
X022650Y022900D03*
X023350Y027700D03*
X021850D03*
M02*