%FSDAX24Y24*%
%MOIN*%
%SFA1B1*%

%IPPOS*%
%ADD10C,0.009840*%
%ADD11C,0.010000*%
%ADD12C,0.007870*%
%ADD16C,0.005000*%
%ADD65C,0.023620*%
%LNpcb_baseboard-1*%
%LPD*%
G54D16*
X008006Y019011D02*
X008051D01*
Y018997*
X008066*
Y018982*
X008081*
Y018967*
X008096*
Y018952*
X008110*
Y018922*
X008125*
Y018907*
X008140*
Y018877*
X008155*
Y018848*
X008170*
Y018833*
X008185*
Y018803*
X008200*
Y018788*
X008215*
Y018758*
X008230*
Y018744*
X008244*
Y018714*
X008259*
Y018684*
X008274*
Y018669*
X008289*
Y018639*
X008304*
Y018624*
X008319*
Y018595*
X008334*
Y018565*
X008349*
Y018550*
X008364*
Y018520*
X008378*
Y018505*
X008393*
Y018476*
X008408*
Y018446*
X008423*
Y018431*
X008438*
Y018401*
X008453*
Y018386*
X008468*
Y018357*
X008483*
Y018327*
X008498*
Y018312*
X008512*
Y018282*
X008527*
Y018267*
X008542*
Y018237*
X008557*
Y018208*
X008572*
Y018193*
X008587*
Y018163*
X008602*
Y018148*
X008617*
Y018118*
X008631*
Y018089*
X008646*
Y018074*
X008661*
Y018044*
X008676*
Y018029*
X008691*
Y017999*
X008706*
Y017970*
X008721*
Y017955*
X008736*
Y017925*
X008751*
Y017910*
X008765*
Y017880*
X008780*
Y017850*
X008795*
Y017836*
X008810*
Y017806*
X008825*
Y017791*
X008840*
Y017761*
X008855*
Y017731*
X008870*
Y017716*
X008885*
Y017687*
X008899*
Y017672*
X008914*
Y017642*
X008929*
Y017627*
X008944*
Y017597*
X008959*
Y017568*
X008974*
Y017553*
X008989*
Y017523*
X009004*
Y017508*
X009018*
Y017478*
X009033*
Y017449*
X009048*
Y017434*
X009063*
Y017404*
X009078*
Y017389*
X009093*
Y017359*
X009108*
Y017329*
X009123*
Y017315*
X009138*
Y017285*
X009152*
Y017270*
X009167*
Y017240*
X009182*
Y017210*
X009197*
Y017196*
X009212*
Y017166*
X009227*
Y017151*
X009242*
Y017121*
X009257*
Y017091*
X009272*
Y017076*
X009286*
Y017047*
X009301*
Y017032*
X009316*
Y017002*
X009331*
Y016972*
X009346*
Y016957*
X009361*
Y016928*
X009376*
Y016913*
X009391*
Y016883*
X009405*
Y016853*
X009420*
Y016838*
X009435*
Y016809*
X009450*
Y016794*
X009465*
Y016764*
X009480*
Y016734*
X009495*
Y016719*
X009510*
Y016689*
X009525*
Y016675*
X009539*
Y016645*
X009554*
Y016615*
X009569*
Y016600*
X009584*
Y016570*
X009599*
Y016555*
X009614*
Y016526*
X009629*
Y016496*
X009644*
Y016481*
X009659*
Y016451*
X009673*
Y016436*
X009688*
Y016407*
X009703*
Y016377*
X009718*
Y016362*
X009733*
Y016332*
X009748*
Y016317*
X009763*
Y016288*
X009778*
Y016258*
X009792*
Y016243*
X009807*
Y016213*
X009822*
Y016198*
X009837*
Y016168*
X009852*
Y016139*
X009867*
Y016124*
X009882*
Y016094*
X009897*
Y016079*
X009912*
Y016049*
X009926*
Y016035*
X009941*
Y016005*
X009956*
Y015975*
X009971*
Y015960*
X009986*
Y015930*
X010001*
Y015915*
X010016*
Y015886*
X010031*
Y015856*
X010046*
Y015841*
X010060*
Y015811*
X010075*
Y015796*
X010090*
Y015767*
X010105*
Y015737*
X010120*
Y015722*
X010135*
Y015692*
X010150*
Y015677*
X010165*
Y015648*
X010179*
Y015618*
X010194*
Y015603*
X010209*
Y015573*
X010224*
Y015558*
X010239*
Y015528*
X010254*
Y015499*
X010269*
Y015484*
X010284*
Y015454*
X010299*
Y015439*
X010313*
Y015409*
X010328*
Y015380*
X010343*
Y015365*
X010358*
Y015335*
X010373*
Y015266*
X010358*
Y015236*
X010343*
Y015221*
X010328*
Y015206*
X010313*
Y015191*
X010284*
Y015177*
X005705*
Y015191*
X005675*
Y015206*
X005660*
Y015221*
X005645*
Y015251*
X005630*
Y015281*
X005615*
Y015320*
X005630*
Y015350*
X005645*
Y015380*
X005660*
Y015409*
X005675*
Y015424*
X005690*
Y015454*
X005705*
Y015484*
X005719*
Y015499*
X005734*
Y015528*
X005749*
Y015543*
X005764*
Y015573*
X005779*
Y015588*
X005794*
Y015618*
X005809*
Y015648*
X005824*
Y015662*
X005838*
Y015692*
X005853*
Y015707*
X005868*
Y015737*
X005883*
Y015767*
X005898*
Y015781*
X005913*
Y015811*
X005928*
Y015826*
X005943*
Y015856*
X005958*
Y015886*
X005972*
Y015901*
X005987*
Y015930*
X006002*
Y015945*
X006017*
Y015975*
X006032*
Y016005*
X006047*
Y016020*
X006062*
Y016049*
X006077*
Y016064*
X006092*
Y016094*
X006106*
Y016124*
X006121*
Y016139*
X006136*
Y016168*
X006151*
Y016183*
X006166*
Y016213*
X006181*
Y016243*
X006196*
Y016258*
X006211*
Y016288*
X006225*
Y016302*
X006240*
Y016332*
X006255*
Y016362*
X006270*
Y016377*
X006285*
Y016407*
X006300*
Y016422*
X006315*
Y016451*
X006330*
Y016481*
X006345*
Y016496*
X006359*
Y016526*
X006374*
Y016541*
X006389*
Y016570*
X006404*
Y016585*
X006419*
Y016615*
X006434*
Y016645*
X006449*
Y016660*
X006464*
Y016689*
X006479*
Y016704*
X006493*
Y016734*
X006508*
Y016764*
X006523*
Y016779*
X006538*
Y016809*
X006553*
Y016838*
X006568*
Y016853*
X006583*
Y016883*
X006598*
Y016898*
X006612*
Y016928*
X006627*
Y016942*
X006642*
Y016972*
X006657*
Y017002*
X006672*
Y017017*
X006687*
Y017047*
X006702*
Y017062*
X006717*
Y017091*
X006732*
Y017121*
X006746*
Y017136*
X006761*
Y017166*
X006776*
Y017181*
X006791*
Y017210*
X006806*
Y017240*
X006821*
Y017255*
X006836*
Y017285*
X006851*
Y017300*
X006866*
Y017329*
X006880*
Y017359*
X006895*
Y017374*
X006910*
Y017404*
X006925*
Y017419*
X006940*
Y017449*
X006955*
Y017478*
X006970*
Y017493*
X006985*
Y017523*
X006999*
Y017538*
X007014*
Y017568*
X007029*
Y017597*
X007044*
Y017612*
X007059*
Y017642*
X007074*
Y017657*
X007089*
Y017687*
X007104*
Y017702*
X007119*
Y017731*
X007133*
Y017761*
X007148*
Y017776*
X007163*
Y017806*
X007178*
Y017836*
X007193*
Y017850*
X007208*
Y017880*
X007223*
Y017895*
X007238*
Y017925*
X007253*
Y017955*
X007267*
Y017970*
X007282*
Y017999*
X007297*
Y018014*
X007312*
Y018044*
X007327*
Y018059*
X007342*
Y018089*
X007357*
Y018118*
X007372*
Y018133*
X007387*
Y018163*
X007401*
Y018193*
X007416*
Y018208*
X007431*
Y018237*
X007446*
Y018252*
X007461*
Y018282*
X007476*
Y018297*
X007491*
Y018327*
X007506*
Y018357*
X007520*
Y018371*
X007535*
Y018401*
X007550*
Y018416*
X007565*
Y018446*
X007580*
Y018476*
X007595*
Y018490*
X007610*
Y018520*
X007625*
Y018535*
X007640*
Y018565*
X007654*
Y018595*
X007669*
Y018610*
X007684*
Y018639*
X007699*
Y018654*
X007714*
Y018684*
X007729*
Y018714*
X007744*
Y018729*
X007759*
Y018758*
X007774*
Y018773*
X007788*
Y018803*
X007803*
Y018833*
X007818*
Y018848*
X007833*
Y018877*
X007848*
Y018892*
X007863*
Y018922*
X007878*
Y018952*
X007893*
Y018967*
X007907*
Y018982*
X007922*
Y018997*
X007937*
Y019011*
X007982*
Y019026*
X008006*
Y019011*
G54D11*
X007956Y018961D02*
X008001D01*
Y018947*
X008016*
Y018932*
X008031*
Y018917*
X008046*
Y018902*
X008060*
Y018872*
X008075*
Y018857*
X008090*
Y018827*
X008105*
Y018798*
X008120*
Y018783*
X008135*
Y018753*
X008150*
Y018738*
X008165*
Y018708*
X008180*
Y018694*
X008194*
Y018664*
X008209*
Y018634*
X008224*
Y018619*
X008239*
Y018589*
X008254*
Y018574*
X008269*
Y018545*
X008284*
Y018515*
X008299*
Y018500*
X008314*
Y018470*
X008328*
Y018455*
X008343*
Y018426*
X008358*
Y018396*
X008373*
Y018381*
X008388*
Y018351*
X008403*
Y018336*
X008418*
Y018307*
X008433*
Y018277*
X008448*
Y018262*
X008462*
Y018232*
X008477*
Y018217*
X008492*
Y018187*
X008507*
Y018158*
X008522*
Y018143*
X008537*
Y018113*
X008552*
Y018098*
X008567*
Y018068*
X008581*
Y018039*
X008596*
Y018024*
X008611*
Y017994*
X008626*
Y017979*
X008641*
Y017949*
X008656*
Y017920*
X008671*
Y017905*
X008686*
Y017875*
X008701*
Y017860*
X008715*
Y017830*
X008730*
Y017800*
X008745*
Y017786*
X008760*
Y017756*
X008775*
Y017741*
X008790*
Y017711*
X008805*
Y017681*
X008820*
Y017666*
X008835*
Y017637*
X008849*
Y017622*
X008864*
Y017592*
X008879*
Y017577*
X008894*
Y017547*
X008909*
Y017518*
X008924*
Y017503*
X008939*
Y017473*
X008954*
Y017458*
X008968*
Y017428*
X008983*
Y017399*
X008998*
Y017384*
X009013*
Y017354*
X009028*
Y017339*
X009043*
Y017309*
X009058*
Y017279*
X009073*
Y017265*
X009088*
Y017235*
X009102*
Y017220*
X009117*
Y017190*
X009132*
Y017160*
X009147*
Y017146*
X009162*
Y017116*
X009177*
Y017101*
X009192*
Y017071*
X009207*
Y017041*
X009222*
Y017026*
X009236*
Y016997*
X009251*
Y016982*
X009266*
Y016952*
X009281*
Y016922*
X009296*
Y016907*
X009311*
Y016878*
X009326*
Y016863*
X009341*
Y016833*
X009355*
Y016803*
X009370*
Y016788*
X009385*
Y016759*
X009400*
Y016744*
X009415*
Y016714*
X009430*
Y016684*
X009445*
Y016669*
X009460*
Y016639*
X009475*
Y016625*
X009489*
Y016595*
X009504*
Y016565*
X009519*
Y016550*
X009534*
Y016520*
X009549*
Y016505*
X009564*
Y016476*
X009579*
Y016446*
X009594*
Y016431*
X009609*
Y016401*
X009623*
Y016386*
X009638*
Y016357*
X009653*
Y016327*
X009668*
Y016312*
X009683*
Y016282*
X009698*
Y016267*
X009713*
Y016238*
X009728*
Y016208*
X009742*
Y016193*
X009757*
Y016163*
X009772*
Y016148*
X009787*
Y016118*
X009802*
Y016089*
X009817*
Y016074*
X009832*
Y016044*
X009847*
Y016029*
X009862*
Y015999*
X009876*
Y015985*
X009891*
Y015955*
X009906*
Y015925*
X009921*
Y015910*
X009936*
Y015880*
X009951*
Y015865*
X009966*
Y015836*
X009981*
Y015806*
X009996*
Y015791*
X010010*
Y015761*
X010025*
Y015746*
X010040*
Y015717*
X010055*
Y015687*
X010070*
Y015672*
X010085*
Y015642*
X010100*
Y015627*
X010115*
Y015598*
X010129*
Y015568*
X010144*
Y015553*
X010159*
Y015523*
X010174*
Y015508*
X010189*
Y015478*
X010204*
Y015449*
X010219*
Y015434*
X010234*
Y015404*
X010249*
Y015389*
X010263*
Y015359*
X010278*
Y015330*
X010293*
Y015315*
X010308*
Y015285*
X010323*
Y015316*
X010308*
Y015286*
X010293*
Y015271*
X010278*
Y015256*
X010263*
Y015241*
X010234*
Y015227*
X005755*
Y015241*
X005725*
Y015256*
X005710*
Y015271*
X005695*
Y015301*
X005680*
Y015331*
X005665*
Y015270*
X005680*
Y015300*
X005695*
Y015330*
X005710*
Y015359*
X005725*
Y015374*
X005740*
Y015404*
X005755*
Y015434*
X005769*
Y015449*
X005784*
Y015478*
X005799*
Y015493*
X005814*
Y015523*
X005829*
Y015538*
X005844*
Y015568*
X005859*
Y015598*
X005874*
Y015612*
X005888*
Y015642*
X005903*
Y015657*
X005918*
Y015687*
X005933*
Y015717*
X005948*
Y015731*
X005963*
Y015761*
X005978*
Y015776*
X005993*
Y015806*
X006008*
Y015836*
X006022*
Y015851*
X006037*
Y015880*
X006052*
Y015895*
X006067*
Y015925*
X006082*
Y015955*
X006097*
Y015970*
X006112*
Y015999*
X006127*
Y016014*
X006142*
Y016044*
X006156*
Y016074*
X006171*
Y016089*
X006186*
Y016118*
X006201*
Y016133*
X006216*
Y016163*
X006231*
Y016193*
X006246*
Y016208*
X006261*
Y016238*
X006275*
Y016252*
X006290*
Y016282*
X006305*
Y016312*
X006320*
Y016327*
X006335*
Y016357*
X006350*
Y016372*
X006365*
Y016401*
X006380*
Y016431*
X006395*
Y016446*
X006409*
Y016476*
X006424*
Y016491*
X006439*
Y016520*
X006454*
Y016535*
X006469*
Y016565*
X006484*
Y016595*
X006499*
Y016610*
X006514*
Y016639*
X006529*
Y016654*
X006543*
Y016684*
X006558*
Y016714*
X006573*
Y016729*
X006588*
Y016759*
X006603*
Y016788*
X006618*
Y016803*
X006633*
Y016833*
X006648*
Y016848*
X006662*
Y016878*
X006677*
Y016892*
X006692*
Y016922*
X006707*
Y016952*
X006722*
Y016967*
X006737*
Y016997*
X006752*
Y017012*
X006767*
Y017041*
X006782*
Y017071*
X006796*
Y017086*
X006811*
Y017116*
X006826*
Y017131*
X006841*
Y017160*
X006856*
Y017190*
X006871*
Y017205*
X006886*
Y017235*
X006901*
Y017250*
X006916*
Y017279*
X006930*
Y017309*
X006945*
Y017324*
X006960*
Y017354*
X006975*
Y017369*
X006990*
Y017399*
X007005*
Y017428*
X007020*
Y017443*
X007035*
Y017473*
X007049*
Y017488*
X007064*
Y017518*
X007079*
Y017547*
X007094*
Y017562*
X007109*
Y017592*
X007124*
Y017607*
X007139*
Y017637*
X007154*
Y017652*
X007169*
Y017681*
X007183*
Y017711*
X007198*
Y017726*
X007213*
Y017756*
X007228*
Y017786*
X007243*
Y017800*
X007258*
Y017830*
X007273*
Y017845*
X007288*
Y017875*
X007303*
Y017905*
X007317*
Y017920*
X007332*
Y017949*
X007347*
Y017964*
X007362*
Y017994*
X007377*
Y018009*
X007392*
Y018039*
X007407*
Y018068*
X007422*
Y018083*
X007437*
Y018113*
X007451*
Y018143*
X007466*
Y018158*
X007481*
Y018187*
X007496*
Y018202*
X007511*
Y018232*
X007526*
Y018247*
X007541*
Y018277*
X007556*
Y018307*
X007570*
Y018321*
X007585*
Y018351*
X007600*
Y018366*
X007615*
Y018396*
X007630*
Y018426*
X007645*
Y018440*
X007660*
Y018470*
X007675*
Y018485*
X007690*
Y018515*
X007704*
Y018545*
X007719*
Y018560*
X007734*
Y018589*
X007749*
Y018604*
X007764*
Y018634*
X007779*
Y018664*
X007794*
Y018679*
X007809*
Y018708*
X007824*
Y018723*
X007838*
Y018753*
X007853*
Y018783*
X007868*
Y018798*
X007883*
Y018827*
X007898*
Y018842*
X007913*
Y018872*
X007928*
Y018902*
X007943*
Y018917*
X007957*
Y018932*
X007972*
Y018947*
X007987*
Y018961*
X008032*
Y018976*
X007956*
Y018961*
X005680Y015280D02*
X005670D01*
X005720D02*
X010270D01*
X005760Y015380D02*
X010250D01*
X005820Y015480D02*
X010170D01*
X005880Y015580D02*
X010110D01*
X005940Y015680D02*
X010050D01*
X006000Y015780D02*
X009990D01*
X006060Y015880D02*
X009930D01*
X006120Y015980D02*
X009870D01*
X006180Y016080D02*
X009810D01*
X006240Y016180D02*
X009750D01*
X006320Y016280D02*
X009670D01*
X006380Y016380D02*
X009630D01*
X006440Y016480D02*
X009550D01*
X006500Y016580D02*
X009490D01*
X006580Y016680D02*
X009410D01*
X006620Y016780D02*
X009370D01*
X006700Y016880D02*
X009290D01*
X006760Y016980D02*
X009230D01*
X006820Y017080D02*
X009170D01*
X006880Y017180D02*
X009110D01*
X006940Y017280D02*
X009050D01*
X007000Y017380D02*
X008990D01*
X007060Y017480D02*
X008930D01*
X007120Y017580D02*
X008870D01*
X007200Y017680D02*
X008790D01*
X007240Y017780D02*
X008750D01*
X007320Y017880D02*
X008670D01*
X007380Y017980D02*
X008610D01*
X007460Y018080D02*
X008550D01*
X007500Y018180D02*
X008490D01*
X007580Y018280D02*
X008410D01*
X007640Y018380D02*
X008350D01*
X007700Y018480D02*
X008290D01*
X007740Y018580D02*
X008230D01*
X007820Y018680D02*
X008170D01*
X007880Y018780D02*
X008110D01*
X007940Y018880D02*
X008050D01*
G54D16*
X007610Y017580D02*
Y017650D01*
X007660Y017520D02*
Y017650D01*
X007710Y017430D02*
Y017650D01*
X007760Y017360D02*
Y017650D01*
X007810Y017300D02*
Y017650D01*
Y018560D02*
Y018600D01*
X007860Y017210D02*
Y017650D01*
Y018500D02*
D01*
X007910Y017140D02*
Y017650D01*
Y018390D02*
Y018420D01*
X007960Y017080D02*
Y017650D01*
Y018250D02*
Y018330D01*
X008010Y016990D02*
Y017650D01*
Y018060D02*
Y018270D01*
X008060Y016910D02*
Y017650D01*
Y017930D02*
Y018210D01*
X008110Y016850D02*
Y017650D01*
Y017790D02*
Y018120D01*
X008160Y016760D02*
Y017020D01*
Y017330D02*
Y018060D01*
X008210Y016680D02*
Y016670D01*
Y017350D02*
Y018000D01*
X008260Y017350D02*
Y017920D01*
X008310Y017350D02*
Y017860D01*
X008360Y017350D02*
Y017780D01*
X008410Y017350D02*
Y017710D01*
X008460Y017350D02*
Y017650D01*
X008510Y017350D02*
Y017570D01*
X008560Y017350D02*
Y017510D01*
X008610Y017350D02*
Y017440D01*
X008660Y017350D02*
Y017360D01*
X008710Y017320D02*
Y017330D01*
%LNpcb_baseboard-2*%
%LPC*%
G36*
X008046Y018992D02*
X007957D01*
Y018977*
X007927*
Y018962*
X007912*
Y018932*
X007897*
Y018917*
X007882*
Y018888*
X007868*
Y018873*
X007853*
Y018843*
X007838*
Y018813*
X007823*
Y018798*
X007808*
Y018769*
X007793*
Y018754*
X007778*
Y018724*
X007763*
Y018694*
X007749*
Y018679*
X007734*
Y018649*
X007719*
Y018635*
X007704*
Y018605*
X007689*
Y018575*
X007674*
Y018560*
X007659*
Y018530*
X007644*
Y018515*
X007629*
Y018486*
X007615*
Y018456*
X007600*
Y018441*
X007585*
Y018411*
X007570*
Y018396*
X007555*
Y018367*
X007540*
Y018337*
X007525*
Y018322*
X007510*
Y018292*
X007495*
Y018277*
X007481*
Y018248*
X007466*
Y018218*
X007451*
Y018203*
X007436*
Y018173*
X007421*
Y018158*
X007406*
Y018128*
X007391*
Y018099*
X007376*
Y018084*
X007362*
Y018054*
X007347*
Y018039*
X007332*
Y018009*
X007317*
Y017980*
X007302*
Y017965*
X007287*
Y017935*
X007272*
Y017920*
X007257*
Y017890*
X007242*
Y017875*
X007228*
Y017846*
X007213*
Y017816*
X007198*
Y017801*
X007183*
Y017771*
X007168*
Y017756*
X007153*
Y017727*
X007138*
Y017697*
X007123*
Y017682*
X007108*
Y017652*
X007094*
Y017637*
X007079*
Y017608*
X007064*
Y017578*
X007049*
Y017563*
X007034*
Y017533*
X007019*
Y017518*
X007004*
Y017488*
X006989*
Y017459*
X006974*
Y017444*
X006960*
Y017414*
X006945*
Y017399*
X006930*
Y017369*
X006915*
Y017340*
X006900*
Y017325*
X006885*
Y017295*
X006870*
Y017280*
X006855*
Y017250*
X006841*
Y017221*
X006826*
Y017206*
X006811*
Y017176*
X006796*
Y017161*
X006781*
Y017131*
X006766*
Y017116*
X006751*
Y017087*
X006736*
Y017057*
X006721*
Y017042*
X006707*
Y017012*
X006692*
Y016982*
X006677*
Y016967*
X006662*
Y016938*
X006647*
Y016923*
X006632*
Y016893*
X006617*
Y016863*
X006602*
Y016848*
X006587*
Y016819*
X006573*
Y016804*
X006558*
Y016774*
X006543*
Y016744*
X006528*
Y016729*
X006513*
Y016700*
X006498*
Y016685*
X006483*
Y016655*
X006468*
Y016640*
X006454*
Y016610*
X006439*
Y016580*
X006424*
Y016566*
X006409*
Y016536*
X006394*
Y016506*
X006379*
Y016491*
X006364*
Y016461*
X006349*
Y016447*
X006334*
Y016417*
X006320*
Y016387*
X006305*
Y016372*
X006290*
Y016342*
X006275*
Y016327*
X006260*
Y016298*
X006245*
Y016283*
X006230*
Y016253*
X006215*
Y016223*
X006200*
Y016208*
X006186*
Y016179*
X006171*
Y016164*
X006156*
Y016134*
X006141*
Y016104*
X006126*
Y016089*
X006111*
Y016060*
X006096*
Y016045*
X006081*
Y016015*
X006067*
Y015985*
X006052*
Y015970*
X006037*
Y015940*
X006022*
Y015926*
X006007*
Y015896*
X005992*
Y015866*
X005977*
Y015851*
X005962*
Y015821*
X005947*
Y015806*
X005933*
Y015777*
X005918*
Y015747*
X005903*
Y015732*
X005888*
Y015702*
X005873*
Y015687*
X005858*
Y015658*
X005843*
Y015628*
X005828*
Y015613*
X005813*
Y015583*
X005799*
Y015568*
X005784*
Y015539*
X005769*
Y015509*
X005754*
Y015494*
X005739*
Y015464*
X005724*
Y015449*
X005709*
Y015419*
X005694*
Y015390*
X005680*
Y015375*
X005665*
Y015345*
X005650*
Y015256*
X005665*
Y015226*
X005680*
Y015211*
X005724*
Y015196*
X010279*
Y015211*
X010309*
Y015226*
X010324*
Y015241*
X010338*
Y015285*
X010353*
Y015300*
X010338*
Y015360*
X010324*
Y015375*
X010309*
Y015405*
X010294*
Y015419*
X010279*
Y015449*
X010264*
Y015479*
X010249*
Y015494*
X010234*
Y015524*
X010219*
Y015539*
X010204*
Y015568*
X010190*
Y015598*
X010175*
Y015613*
X010160*
Y015643*
X010145*
Y015658*
X010130*
Y015687*
X010115*
Y015702*
X010100*
Y015732*
X010085*
Y015762*
X010071*
Y015777*
X010056*
Y015806*
X010041*
Y015836*
X010026*
Y015851*
X010011*
Y015881*
X009996*
Y015896*
X009981*
Y015926*
X009966*
Y015955*
X009951*
Y015970*
X009937*
Y016000*
X009922*
Y016015*
X009907*
Y016045*
X009892*
Y016074*
X009877*
Y016089*
X009862*
Y016119*
X009847*
Y016134*
X009832*
Y016164*
X009817*
Y016179*
X009803*
Y016208*
X009788*
Y016238*
X009773*
Y016253*
X009758*
Y016283*
X009743*
Y016298*
X009728*
Y016327*
X009713*
Y016357*
X009698*
Y016372*
X009684*
Y016402*
X009669*
Y016417*
X009654*
Y016447*
X009639*
Y016476*
X009624*
Y016491*
X009609*
Y016521*
X009594*
Y016536*
X009579*
Y016566*
X009564*
Y016595*
X009550*
Y016610*
X009535*
Y016640*
X009520*
Y016655*
X009505*
Y016685*
X009490*
Y016714*
X009475*
Y016729*
X009460*
Y016759*
X009445*
Y016774*
X009430*
Y016804*
X009416*
Y016834*
X009401*
Y016848*
X009386*
Y016878*
X009371*
Y016893*
X009356*
Y016923*
X009341*
Y016953*
X009326*
Y016967*
X009311*
Y016997*
X009297*
Y017012*
X009282*
Y017042*
X009267*
Y017057*
X009252*
Y017087*
X009237*
Y017116*
X009222*
Y017131*
X009207*
Y017161*
X009192*
Y017176*
X009177*
Y017206*
X009163*
Y017235*
X009148*
Y017250*
X009133*
Y017280*
X009118*
Y017310*
X009103*
Y017325*
X009088*
Y017354*
X009073*
Y017369*
X009058*
Y017399*
X009043*
Y017414*
X009029*
Y017444*
X009014*
Y017474*
X008999*
Y017488*
X008984*
Y017518*
X008969*
Y017533*
X008954*
Y017563*
X008939*
Y017593*
X008924*
Y017608*
X008910*
Y017637*
X008895*
Y017652*
X008880*
Y017682*
X008865*
Y017712*
X008850*
Y017727*
X008835*
Y017756*
X008820*
Y017771*
X008805*
Y017801*
X008790*
Y017831*
X008776*
Y017846*
X008761*
Y017875*
X008746*
Y017890*
X008731*
Y017920*
X008716*
Y017950*
X008701*
Y017965*
X008686*
Y017995*
X008671*
Y018009*
X008656*
Y018039*
X008642*
Y018069*
X008627*
Y018084*
X008612*
Y018114*
X008597*
Y018128*
X008582*
Y018158*
X008567*
Y018188*
X008552*
Y018203*
X008537*
Y018233*
X008523*
Y018248*
X008508*
Y018277*
X008493*
Y018307*
X008478*
Y018322*
X008463*
Y018352*
X008448*
Y018367*
X008433*
Y018396*
X008418*
Y018426*
X008403*
Y018441*
X008389*
Y018471*
X008374*
Y018486*
X008359*
Y018515*
X008344*
Y018545*
X008329*
Y018560*
X008314*
Y018590*
X008299*
Y018605*
X008284*
Y018635*
X008269*
Y018649*
X008255*
Y018679*
X008240*
Y018709*
X008225*
Y018724*
X008210*
Y018754*
X008195*
Y018769*
X008180*
Y018798*
X008165*
Y018828*
X008150*
Y018843*
X008135*
Y018873*
X008121*
Y018902*
X008106*
Y018917*
X008091*
Y018947*
X008076*
Y018962*
X008061*
Y018977*
X008046*
Y018992*
G37*
%LNpcb_baseboard-3*%
%LPD*%
G54D10*
X019857Y017005D02*
D01*
X019857Y017008*
X019857Y017012*
X019856Y017015*
X019855Y017019*
X019854Y017022*
X019853Y017025*
X019851Y017028*
X019850Y017031*
X019848Y017034*
X019845Y017037*
X019843Y017039*
X019841Y017042*
X019838Y017044*
X019835Y017046*
X019832Y017048*
X019829Y017049*
X019826Y017051*
X019823Y017052*
X019820Y017053*
X019816Y017053*
X019813Y017054*
X019810Y017054*
X019806*
X019803Y017054*
X019799Y017053*
X019796Y017053*
X019793Y017052*
X019789Y017051*
X019786Y017049*
X019783Y017048*
X019780Y017046*
X019778Y017044*
X019775Y017042*
X019772Y017039*
X019770Y017037*
X019768Y017034*
X019766Y017031*
X019764Y017028*
X019763Y017025*
X019762Y017022*
X019761Y017019*
X019760Y017015*
X019759Y017012*
X019759Y017008*
X019759Y017005*
X019759Y017002*
X019759Y016998*
X019760Y016995*
X019761Y016991*
X019762Y016988*
X019763Y016985*
X019764Y016982*
X019766Y016979*
X019768Y016976*
X019770Y016973*
X019772Y016971*
X019775Y016968*
X019778Y016966*
X019780Y016964*
X019783Y016962*
X019786Y016961*
X019789Y016959*
X019793Y016958*
X019796Y016957*
X019799Y016957*
X019803Y016956*
X019806Y016956*
X019810*
X019813Y016956*
X019816Y016957*
X019820Y016957*
X019823Y016958*
X019826Y016959*
X019829Y016961*
X019832Y016962*
X019835Y016964*
X019838Y016966*
X019841Y016968*
X019843Y016971*
X019845Y016973*
X019848Y016976*
X019850Y016979*
X019851Y016982*
X019853Y016985*
X019854Y016988*
X019855Y016991*
X019856Y016995*
X019857Y016998*
X019857Y017002*
X019857Y017005*
X019099Y014717D02*
D01*
X019099Y014720*
X019098Y014724*
X019098Y014727*
X019097Y014730*
X019096Y014734*
X019094Y014737*
X019093Y014740*
X019091Y014743*
X019089Y014746*
X019087Y014748*
X019085Y014751*
X019082Y014753*
X019080Y014756*
X019077Y014758*
X019074Y014759*
X019071Y014761*
X019068Y014762*
X019065Y014764*
X019061Y014765*
X019058Y014765*
X019055Y014766*
X019051Y014766*
X019048*
X019044Y014766*
X019041Y014765*
X019038Y014765*
X019034Y014764*
X019031Y014762*
X019028Y014761*
X019025Y014759*
X019022Y014758*
X019019Y014756*
X019017Y014753*
X019014Y014751*
X019012Y014748*
X019010Y014746*
X019008Y014743*
X019006Y014740*
X019005Y014737*
X019003Y014734*
X019002Y014730*
X019001Y014727*
X019001Y014724*
X019000Y014720*
X019000Y014717*
X019000Y014713*
X019001Y014710*
X019001Y014707*
X019002Y014703*
X019003Y014700*
X019005Y014697*
X019006Y014694*
X019008Y014691*
X019010Y014688*
X019012Y014685*
X019014Y014683*
X019017Y014680*
X019019Y014678*
X019022Y014676*
X019025Y014674*
X019028Y014673*
X019031Y014671*
X019034Y014670*
X019038Y014669*
X019041Y014668*
X019044Y014668*
X019048Y014668*
X019051*
X019055Y014668*
X019058Y014668*
X019061Y014669*
X019065Y014670*
X019068Y014671*
X019071Y014673*
X019074Y014674*
X019077Y014676*
X019080Y014678*
X019082Y014680*
X019085Y014683*
X019087Y014685*
X019089Y014688*
X019091Y014691*
X019093Y014694*
X019094Y014697*
X019096Y014700*
X019097Y014703*
X019098Y014707*
X019098Y014710*
X019099Y014713*
X019099Y014717*
X021380Y018972D02*
D01*
X021380Y018975*
X021380Y018979*
X021379Y018982*
X021378Y018985*
X021377Y018989*
X021376Y018992*
X021374Y018995*
X021373Y018998*
X021371Y019001*
X021369Y019004*
X021366Y019006*
X021364Y019008*
X021361Y019011*
X021359Y019013*
X021356Y019015*
X021353Y019016*
X021349Y019018*
X021346Y019019*
X021343Y019020*
X021340Y019020*
X021336Y019021*
X021333Y019021*
X021329*
X021326Y019021*
X021322Y019020*
X021319Y019020*
X021316Y019019*
X021313Y019018*
X021309Y019016*
X021306Y019015*
X021303Y019013*
X021301Y019011*
X021298Y019008*
X021296Y019006*
X021293Y019004*
X021291Y019001*
X021289Y018998*
X021288Y018995*
X021286Y018992*
X021285Y018989*
X021284Y018985*
X021283Y018982*
X021282Y018979*
X021282Y018975*
X021282Y018972*
X021282Y018968*
X021282Y018965*
X021283Y018962*
X021284Y018958*
X021285Y018955*
X021286Y018952*
X021288Y018949*
X021289Y018946*
X021291Y018943*
X021293Y018940*
X021296Y018938*
X021298Y018935*
X021301Y018933*
X021303Y018931*
X021306Y018929*
X021309Y018928*
X021313Y018926*
X021316Y018925*
X021319Y018924*
X021322Y018923*
X021326Y018923*
X021329Y018923*
X021333*
X021336Y018923*
X021340Y018923*
X021343Y018924*
X021346Y018925*
X021349Y018926*
X021353Y018928*
X021356Y018929*
X021359Y018931*
X021361Y018933*
X021364Y018935*
X021366Y018938*
X021369Y018940*
X021371Y018943*
X021373Y018946*
X021374Y018949*
X021376Y018952*
X021377Y018955*
X021378Y018958*
X021379Y018962*
X021380Y018965*
X021380Y018968*
X021380Y018972*
G54D11*
X005737Y015488D02*
X010276D01*
X011150Y020099D02*
Y020599D01*
Y020000D02*
Y019900D01*
X010950Y020099D02*
Y020599D01*
Y020000D02*
Y019900D01*
X010750Y020099D02*
Y020599D01*
Y020000D02*
Y019900D01*
X009950Y020499D02*
Y019900D01*
X009750Y020099*
X009550Y019900*
Y020499*
X009350Y019900D02*
Y020299D01*
X009150Y020499*
X008950Y020299*
Y019900*
Y020199*
X009350*
X008750Y019900D02*
Y020499D01*
X008450*
X008350Y020399*
Y020199*
X008450Y020099*
X008750*
X008550D02*
X008350Y019900D01*
X008151D02*
Y020499D01*
X007751Y019900*
Y020499*
X007551D02*
X007351D01*
X007451*
Y019900*
X007551*
X007351*
X007051D02*
Y020499D01*
X006651Y019900*
Y020499*
X006051Y020399D02*
X006151Y020499D01*
X006351*
X006451Y020399*
Y020000*
X006351Y019900*
X006151*
X006051Y020000*
Y020199*
X006251*
X005251Y020099D02*
Y020599D01*
Y020000D02*
Y019900D01*
X005052Y020099D02*
Y020599D01*
Y020000D02*
Y019900D01*
X004852Y020099D02*
Y020599D01*
Y020000D02*
Y019900D01*
X011550Y013699D02*
Y013100D01*
Y013399*
X011150*
Y013699*
Y013100*
X010950Y013699D02*
X010750D01*
X010850*
Y013100*
X010950*
X010750*
X010050Y013599D02*
X010150Y013699D01*
X010350*
X010450Y013599*
Y013200*
X010350Y013100*
X010150*
X010050Y013200*
Y013399*
X010250*
X009850Y013699D02*
Y013100D01*
Y013399*
X009450*
Y013699*
Y013100*
X008650Y013699D02*
Y013299D01*
X008451Y013100*
X008251Y013299*
Y013699*
X007751D02*
X007951D01*
X008051Y013599*
Y013200*
X007951Y013100*
X007751*
X007651Y013200*
Y013599*
X007751Y013699*
X007451D02*
Y013100D01*
X007051*
X006851Y013699D02*
X006451D01*
X006651*
Y013100*
X006251D02*
Y013499D01*
X006051Y013699*
X005851Y013499*
Y013100*
Y013399*
X006251*
X005252Y013599D02*
X005352Y013699D01*
X005551*
X005651Y013599*
Y013200*
X005551Y013100*
X005352*
X005252Y013200*
Y013399*
X005452*
X004652Y013699D02*
X005052D01*
Y013100*
X004652*
X005052Y013399D02*
X004852D01*
X009203Y015721D02*
X009670D01*
X009203Y016187*
Y016304*
X009320Y016421*
X009553*
X009670Y016304*
X008503Y015721D02*
X008970D01*
X008503Y016187*
Y016304*
X008620Y016421*
X008853*
X008970Y016304*
X008270D02*
X008153Y016421D01*
X007920*
X007803Y016304*
Y015837*
X007920Y015721*
X008153*
X008270Y015837*
Y016304*
X006870Y016421D02*
Y015954D01*
X006637Y015721*
X006404Y015954*
Y016421*
G54D12*
X017367Y017517D02*
Y019682D01*
X019532Y017517D02*
Y019682D01*
X017367D02*
X019532D01*
X017367Y017517D02*
X019532D01*
X016419Y019842D02*
Y020157D01*
X019502Y014835D02*
X019699D01*
Y015150*
X019502Y016016D02*
X019699D01*
Y015701D02*
Y016016D01*
X017380Y014942D02*
Y015257D01*
Y015542D02*
Y015857D01*
X023519Y017242D02*
Y017557D01*
X021692Y017669D02*
X022007D01*
X020894Y017848D02*
X021405D01*
X021439Y018401D02*
Y018598D01*
X022660Y018401D02*
Y018598D01*
X021439D02*
X022660D01*
X021439Y018401D02*
X022660D01*
G54D16*
X018483Y014566D02*
X018516Y014600D01*
X018583*
X018616Y014566*
Y014433*
X018583Y014400*
X018516*
X018483Y014433*
X018283Y014400D02*
X018416D01*
X018283Y014533*
Y014566*
X018316Y014600*
X018383*
X018416Y014566*
X018216D02*
X018183Y014600D01*
X018116*
X018083Y014566*
Y014533*
X018116Y014500*
X018083Y014466*
Y014433*
X018116Y014400*
X018183*
X018216Y014433*
Y014466*
X018183Y014500*
X018216Y014533*
Y014566*
X018183Y014500D02*
X018116D01*
X018483Y016266D02*
X018516Y016300D01*
X018583*
X018616Y016266*
Y016133*
X018583Y016100*
X018516*
X018483Y016133*
X018283Y016100D02*
X018416D01*
X018283Y016233*
Y016266*
X018316Y016300*
X018383*
X018416Y016266*
X018216Y016300D02*
X018083D01*
Y016266*
X018216Y016133*
Y016100*
X014883Y020066D02*
X014916Y020100D01*
X014983*
X015016Y020066*
Y019933*
X014983Y019900*
X014916*
X014883Y019933*
X014683Y019900D02*
X014816D01*
X014683Y020033*
Y020066*
X014716Y020100*
X014783*
X014816Y020066*
X014483Y020100D02*
X014550Y020066D01*
X014616Y020000*
Y019933*
X014583Y019900*
X014516*
X014483Y019933*
Y019966*
X014516Y020000*
X014616*
X022083Y016266D02*
X022116Y016300D01*
X022183*
X022216Y016266*
Y016133*
X022183Y016100*
X022116*
X022083Y016133*
X021883Y016100D02*
X022016D01*
X021883Y016233*
Y016266*
X021916Y016300*
X021983*
X022016Y016266*
X021683Y016300D02*
X021816D01*
Y016200*
X021750Y016233*
X021716*
X021683Y016200*
Y016133*
X021716Y016100*
X021783*
X021816Y016133*
X021283Y016266D02*
X021316Y016300D01*
X021383*
X021416Y016266*
Y016133*
X021383Y016100*
X021316*
X021283Y016133*
X021083Y016100D02*
X021216D01*
X021083Y016233*
Y016266*
X021116Y016300*
X021183*
X021216Y016266*
X020916Y016100D02*
Y016300D01*
X021016Y016200*
X020883*
X021599Y019600D02*
Y019433D01*
X021566Y019400*
X021500*
X021466Y019433*
Y019600*
X021400Y019400D02*
X021333D01*
X021366*
Y019600*
X021400Y019566*
X021100Y019600D02*
X021166Y019566D01*
X021233Y019500*
Y019433*
X021200Y019400*
X021133*
X021100Y019433*
Y019466*
X021133Y019500*
X021233*
X019799Y016400D02*
Y016233D01*
X019766Y016200*
X019700*
X019666Y016233*
Y016400*
X019600Y016200D02*
X019533D01*
X019566*
Y016400*
X019600Y016366*
X019300Y016400D02*
X019433D01*
Y016300*
X019366Y016333*
X019333*
X019300Y016300*
Y016233*
X019333Y016200*
X019400*
X019433Y016233*
X015999Y018400D02*
Y018233D01*
X015966Y018200*
X015900*
X015866Y018233*
Y018400*
X015800Y018200D02*
X015733D01*
X015766*
Y018400*
X015800Y018366*
X015500Y018200D02*
X015633D01*
X015500Y018333*
Y018366*
X015533Y018400*
X015600*
X015633Y018366*
X017116Y014400D02*
Y014600D01*
X017016*
X016983Y014566*
Y014500*
X017016Y014466*
X017116*
X017049D02*
X016983Y014400D01*
X016916Y014566D02*
X016883Y014600D01*
X016816*
X016783Y014566*
Y014533*
X016816Y014500*
X016850*
X016816*
X016783Y014466*
Y014433*
X016816Y014400*
X016883*
X016916Y014433*
X016583Y014600D02*
X016650Y014566D01*
X016716Y014500*
Y014433*
X016683Y014400*
X016616*
X016583Y014433*
Y014466*
X016616Y014500*
X016716*
X023316Y019300D02*
Y019500D01*
X023216*
X023183Y019466*
Y019400*
X023216Y019366*
X023316*
X023249D02*
X023183Y019300D01*
X023116Y019466D02*
X023083Y019500D01*
X023016*
X022983Y019466*
Y019433*
X023016Y019400*
X023050*
X023016*
X022983Y019366*
Y019333*
X023016Y019300*
X023083*
X023116Y019333*
X022783Y019500D02*
X022916D01*
Y019400*
X022850Y019433*
X022816*
X022783Y019400*
Y019333*
X022816Y019300*
X022883*
X022916Y019333*
X024016Y019300D02*
Y019500D01*
X023916*
X023883Y019466*
Y019400*
X023916Y019366*
X024016*
X023949D02*
X023883Y019300D01*
X023816Y019466D02*
X023783Y019500D01*
X023716*
X023683Y019466*
Y019433*
X023716Y019400*
X023750*
X023716*
X023683Y019366*
Y019333*
X023716Y019300*
X023783*
X023816Y019333*
X023516Y019300D02*
Y019500D01*
X023616Y019400*
X023483*
X020716Y014400D02*
Y014600D01*
X020616*
X020583Y014566*
Y014500*
X020616Y014466*
X020716*
X020649D02*
X020583Y014400D01*
X020516Y014566D02*
X020483Y014600D01*
X020416*
X020383Y014566*
Y014533*
X020416Y014500*
X020450*
X020416*
X020383Y014466*
Y014433*
X020416Y014400*
X020483*
X020516Y014433*
X020316Y014566D02*
X020283Y014600D01*
X020216*
X020183Y014566*
Y014533*
X020216Y014500*
X020250*
X020216*
X020183Y014466*
Y014433*
X020216Y014400*
X020283*
X020316Y014433*
X024083Y017466D02*
X024116Y017500D01*
X024183*
X024216Y017466*
Y017333*
X024183Y017300*
X024116*
X024083Y017333*
X023883Y017300D02*
X024016D01*
X023883Y017433*
Y017466*
X023916Y017500*
X023983*
X024016Y017466*
X023816D02*
X023783Y017500D01*
X023716*
X023683Y017466*
Y017433*
X023716Y017400*
X023750*
X023716*
X023683Y017366*
Y017333*
X023716Y017300*
X023783*
X023816Y017333*
G54D65*
X019257Y017911D02*
D01*
X019256Y017919*
X019255Y017927*
X019254Y017935*
X019252Y017943*
X019249Y017951*
X019246Y017959*
X019243Y017966*
X019239Y017973*
X019234Y017980*
X019229Y017986*
X019223Y017993*
X019218Y017998*
X019211Y018004*
X019205Y018008*
X019198Y018013*
X019190Y018017*
X019183Y018020*
X019175Y018023*
X019167Y018025*
X019159Y018027*
X019151Y018028*
X019143Y018029*
X019134*
X019126Y018028*
X019118Y018027*
X019110Y018025*
X019102Y018023*
X019094Y018020*
X019087Y018017*
X019079Y018013*
X019072Y018008*
X019066Y018004*
X019059Y017998*
X019054Y017993*
X019048Y017986*
X019043Y017980*
X019038Y017973*
X019034Y017966*
X019031Y017959*
X019028Y017951*
X019025Y017943*
X019023Y017935*
X019022Y017927*
X019021Y017919*
X019020Y017911*
X019021Y017902*
X019022Y017894*
X019023Y017886*
X019025Y017878*
X019028Y017870*
X019031Y017862*
X019034Y017855*
X019038Y017848*
X019043Y017841*
X019048Y017835*
X019054Y017828*
X019059Y017823*
X019066Y017817*
X019072Y017813*
X019079Y017808*
X019087Y017804*
X019094Y017801*
X019102Y017798*
X019110Y017796*
X019118Y017794*
X019126Y017793*
X019134Y017792*
X019143*
X019151Y017793*
X019159Y017794*
X019167Y017796*
X019175Y017798*
X019183Y017801*
X019190Y017804*
X019198Y017808*
X019205Y017813*
X019211Y017817*
X019218Y017823*
X019223Y017828*
X019229Y017835*
X019234Y017841*
X019239Y017848*
X019243Y017855*
X019246Y017862*
X019249Y017870*
X019252Y017878*
X019254Y017886*
X019255Y017894*
X019256Y017902*
X019257Y017911*
G54D16*
X007798Y018580D02*
X007813D01*
Y018550*
X007828*
Y018535*
X007843*
Y018505*
X007857*
Y018490*
X007872*
Y018476*
X007887*
Y018446*
X007902*
Y018431*
X007917*
Y018416*
X007932*
Y018386*
X007947*
Y018371*
X007962*
Y018342*
X007977*
Y018327*
X007991*
Y018312*
X008006*
Y018282*
X008021*
Y018267*
X008036*
Y018237*
X008051*
Y018223*
X008066*
Y018208*
X008081*
Y018178*
X008096*
Y018163*
X008110*
Y018133*
X008125*
Y018118*
X008140*
Y018103*
X008155*
Y018074*
X008170*
Y018059*
X008185*
Y018029*
X008200*
Y018014*
X008215*
Y017999*
X008230*
Y017970*
X008244*
Y017955*
X008259*
Y017925*
X008274*
Y017910*
X008289*
Y017895*
X008304*
Y017865*
X008319*
Y017850*
X008334*
Y017836*
X008349*
Y017806*
X008364*
Y017791*
X008378*
Y017761*
X008393*
Y017746*
X008408*
Y017716*
X008423*
Y017702*
X008438*
Y017687*
X008453*
Y017657*
X008468*
Y017642*
X008483*
Y017612*
X008498*
Y017597*
X008512*
Y017583*
X008527*
Y017553*
X008542*
Y017538*
X008557*
Y017523*
X008572*
Y017493*
X008587*
Y017478*
X008602*
Y017449*
X008617*
Y017434*
X008631*
Y017419*
X008646*
Y017389*
X008661*
Y017374*
X008676*
Y017344*
X008691*
Y017329*
X008706*
Y017315*
X008721*
Y017335*
X008200*
Y017320*
X008125*
Y017255*
X008140*
Y017151*
X008155*
Y017032*
X008170*
Y016913*
X008185*
Y016794*
X008200*
Y016675*
X008215*
Y016605*
X008250*
Y016635*
X008235*
Y016665*
X008220*
Y016680*
X008205*
Y016710*
X008190*
Y016725*
X008175*
Y016754*
X008160*
Y016769*
X008146*
Y016799*
X008131*
Y016814*
X008116*
Y016844*
X008101*
Y016859*
X008086*
Y016888*
X008071*
Y016903*
X008056*
Y016933*
X008041*
Y016948*
X008027*
Y016978*
X008012*
Y016992*
X007997*
Y017022*
X007982*
Y017037*
X007967*
Y017067*
X007952*
Y017082*
X007937*
Y017112*
X007922*
Y017126*
X007907*
Y017156*
X007893*
Y017171*
X007878*
Y017201*
X007863*
Y017216*
X007848*
Y017246*
X007833*
Y017260*
X007818*
Y017290*
X007803*
Y017305*
X007788*
Y017335*
X007774*
Y017350*
X007759*
Y017379*
X007744*
Y017394*
X007729*
Y017424*
X007714*
Y017439*
X007699*
Y017469*
X007684*
Y017484*
X007669*
Y017513*
X007654*
Y017528*
X007640*
Y017558*
X007625*
Y017573*
X007610*
Y017603*
X007595*
Y017618*
X007580*
Y017647*
X007565*
Y017662*
X007550*
Y017692*
X007535*
Y017657*
X008131*
Y017722*
X008116*
Y017781*
X008101*
Y017826*
X008086*
Y017871*
X008071*
Y017915*
X008056*
Y017960*
X008041*
Y018005*
X008027*
Y018049*
X008012*
Y018094*
X007997*
Y018139*
X007982*
Y018198*
X007967*
Y018243*
X007952*
Y018287*
X007937*
Y018332*
X007922*
Y018377*
X007907*
Y018421*
X007893*
Y018466*
X007878*
Y018511*
X007863*
Y018555*
X007848*
Y018600*
X007833*
Y018595*
X007798*
Y018580*
M02*