%FSDAX24Y24*%
%MOIN*%
%SFA1B1*%

%IPPOS*%
%ADD10C,0.009840*%
%ADD11C,0.010000*%
%ADD12C,0.007870*%
%ADD13C,0.005980*%
%ADD14C,0.006000*%
%ADD15C,0.008000*%
%ADD16C,0.005000*%
%ADD45C,0.020000*%
%LNpcb_baseboard-1*%
%LPD*%
G54D10*
X021564Y025110D02*
D01*
X021564Y025113*
X021564Y025117*
X021563Y025120*
X021562Y025123*
X021561Y025127*
X021560Y025130*
X021558Y025133*
X021557Y025136*
X021555Y025139*
X021553Y025141*
X021550Y025144*
X021548Y025146*
X021545Y025148*
X021542Y025150*
X021540Y025152*
X021536Y025154*
X021533Y025155*
X021530Y025156*
X021527Y025157*
X021523Y025158*
X021520Y025159*
X021517Y025159*
X021513*
X021510Y025159*
X021506Y025158*
X021503Y025157*
X021500Y025156*
X021496Y025155*
X021493Y025154*
X021490Y025152*
X021487Y025150*
X021485Y025148*
X021482Y025146*
X021480Y025144*
X021477Y025141*
X021475Y025139*
X021473Y025136*
X021471Y025133*
X021470Y025130*
X021469Y025127*
X021468Y025123*
X021467Y025120*
X021466Y025117*
X021466Y025113*
X021466Y025110*
X021466Y025106*
X021466Y025103*
X021467Y025099*
X021468Y025096*
X021469Y025093*
X021470Y025090*
X021471Y025087*
X021473Y025084*
X021475Y025081*
X021477Y025078*
X021480Y025076*
X021482Y025073*
X021485Y025071*
X021487Y025069*
X021490Y025067*
X021493Y025065*
X021496Y025064*
X021500Y025063*
X021503Y025062*
X021506Y025061*
X021510Y025061*
X021513Y025061*
X021517*
X021520Y025061*
X021523Y025061*
X021527Y025062*
X021530Y025063*
X021533Y025064*
X021536Y025065*
X021540Y025067*
X021542Y025069*
X021545Y025071*
X021548Y025073*
X021550Y025076*
X021553Y025078*
X021555Y025081*
X021557Y025084*
X021558Y025087*
X021560Y025090*
X021561Y025093*
X021562Y025096*
X021563Y025099*
X021564Y025103*
X021564Y025106*
X021564Y025110*
X022089Y028350D02*
D01*
X022089Y028354*
X022089Y028357*
X022088Y028361*
X022087Y028364*
X022086Y028367*
X022085Y028370*
X022084Y028373*
X022082Y028376*
X022080Y028379*
X022078Y028382*
X022076Y028385*
X022073Y028387*
X022070Y028389*
X022068Y028391*
X022065Y028393*
X022062Y028395*
X022059Y028396*
X022055Y028397*
X022052Y028398*
X022049Y028399*
X022045Y028399*
X022042Y028400*
X022038*
X022035Y028399*
X022032Y028399*
X022028Y028398*
X022025Y028397*
X022022Y028396*
X022019Y028395*
X022016Y028393*
X022013Y028391*
X022010Y028389*
X022007Y028387*
X022005Y028385*
X022003Y028382*
X022000Y028379*
X021998Y028376*
X021997Y028373*
X021995Y028370*
X021994Y028367*
X021993Y028364*
X021992Y028361*
X021991Y028357*
X021991Y028354*
X021991Y028350*
X021991Y028347*
X021991Y028344*
X021992Y028340*
X021993Y028337*
X021994Y028334*
X021995Y028330*
X021997Y028327*
X021998Y028324*
X022000Y028321*
X022003Y028319*
X022005Y028316*
X022007Y028314*
X022010Y028312*
X022013Y028310*
X022016Y028308*
X022019Y028306*
X022022Y028305*
X022025Y028304*
X022028Y028303*
X022032Y028302*
X022035Y028301*
X022038Y028301*
X022042*
X022045Y028301*
X022049Y028302*
X022052Y028303*
X022055Y028304*
X022059Y028305*
X022062Y028306*
X022065Y028308*
X022068Y028310*
X022070Y028312*
X022073Y028314*
X022076Y028316*
X022078Y028319*
X022080Y028321*
X022082Y028324*
X022084Y028327*
X022085Y028330*
X022086Y028334*
X022087Y028337*
X022088Y028340*
X022089Y028344*
X022089Y028347*
X022089Y028350*
X020693Y010049D02*
D01*
X020693Y010053*
X020693Y010056*
X020692Y010059*
X020691Y010063*
X020690Y010066*
X020689Y010069*
X020687Y010072*
X020686Y010075*
X020684Y010078*
X020682Y010081*
X020679Y010083*
X020677Y010086*
X020674Y010088*
X020672Y010090*
X020669Y010092*
X020666Y010093*
X020662Y010095*
X020659Y010096*
X020656Y010097*
X020653Y010098*
X020649Y010098*
X020646Y010098*
X020642*
X020639Y010098*
X020635Y010098*
X020632Y010097*
X020629Y010096*
X020626Y010095*
X020622Y010093*
X020619Y010092*
X020616Y010090*
X020614Y010088*
X020611Y010086*
X020609Y010083*
X020606Y010081*
X020604Y010078*
X020602Y010075*
X020601Y010072*
X020599Y010069*
X020598Y010066*
X020597Y010063*
X020596Y010059*
X020595Y010056*
X020595Y010053*
X020595Y010049*
X020595Y010046*
X020595Y010042*
X020596Y010039*
X020597Y010036*
X020598Y010032*
X020599Y010029*
X020601Y010026*
X020602Y010023*
X020604Y010020*
X020606Y010017*
X020609Y010015*
X020611Y010013*
X020614Y010010*
X020616Y010008*
X020619Y010006*
X020622Y010005*
X020626Y010003*
X020629Y010002*
X020632Y010001*
X020635Y010001*
X020639Y010000*
X020642Y010000*
X020646*
X020649Y010000*
X020653Y010001*
X020656Y010001*
X020659Y010002*
X020662Y010003*
X020666Y010005*
X020669Y010006*
X020672Y010008*
X020674Y010010*
X020677Y010013*
X020679Y010015*
X020682Y010017*
X020684Y010020*
X020686Y010023*
X020687Y010026*
X020689Y010029*
X020690Y010032*
X020691Y010036*
X020692Y010039*
X020693Y010042*
X020693Y010046*
X020693Y010049*
G54D11*
X024768Y011261D02*
D01*
X024768Y011254*
X024769Y011247*
X024770Y011241*
X024771Y011235*
X024773Y011229*
X024776Y011222*
X024779Y011217*
X024782Y011211*
X024786Y011206*
X024790Y011200*
X024794Y011196*
X024799Y011191*
X024804Y011187*
X024809Y011183*
X024815Y011180*
X024820Y011176*
X024826Y011174*
X024832Y011172*
X024839Y011170*
X024845Y011168*
X024852Y011168*
X024858Y011167*
X024865*
X024871Y011168*
X024878Y011168*
X024884Y011170*
X024890Y011172*
X024896Y011174*
X024902Y011176*
X024908Y011180*
X024914Y011183*
X024919Y011187*
X024924Y011191*
X024929Y011196*
X024933Y011200*
X024937Y011206*
X024941Y011211*
X024944Y011217*
X024947Y011222*
X024949Y011229*
X024951Y011235*
X024953Y011241*
X024954Y011247*
X024955Y011254*
X024955Y011261*
X007350Y003900D02*
X013350D01*
X007350Y000900D02*
X013350D01*
Y003900*
X007350Y000900D02*
Y003900D01*
X001400D02*
X007400D01*
X001400Y000900D02*
X007400D01*
Y003900*
X001400Y000900D02*
Y003900D01*
X024768Y011261D02*
X025100D01*
X024620D02*
X024955D01*
X024620Y010139D02*
Y011261D01*
Y010139D02*
X025100D01*
Y011261*
X021385Y032565D02*
X025385D01*
X021385Y029565D02*
Y032565D01*
X025385Y029565D02*
Y032565D01*
X021385Y029565D02*
X025385D01*
X007408D02*
X013408D01*
X007408Y032565D02*
X013408D01*
X007408Y029565D02*
Y032565D01*
X013408Y029565D02*
Y032565D01*
X001400Y029565D02*
X007400D01*
X001400Y032565D02*
X007400D01*
X001400Y029565D02*
Y032565D01*
X007400Y029565D02*
Y032565D01*
X021385Y003900D02*
X025385D01*
X021385Y000900D02*
Y003900D01*
X025385Y000900D02*
Y003900D01*
X021385Y000900D02*
X025385D01*
X001452Y014200D02*
Y014599D01*
X001552*
X001652Y014499*
Y014200*
Y014499*
X001752Y014599*
X001852Y014499*
Y014200*
X002352D02*
X002152D01*
X002052Y014300*
Y014499*
X002152Y014599*
X002352*
X002452Y014499*
Y014399*
X002052*
X002652Y014200D02*
Y014599D01*
X002751*
X002851Y014499*
Y014200*
Y014499*
X002951Y014599*
X003051Y014499*
Y014200*
X003251Y014799D02*
Y014200D01*
X003551*
X003651Y014300*
Y014399*
Y014499*
X003551Y014599*
X003251*
X004151Y014200D02*
X003951D01*
X003851Y014300*
Y014499*
X003951Y014599*
X004151*
X004251Y014499*
Y014399*
X003851*
X004451Y014599D02*
Y014200D01*
Y014399*
X004551Y014499*
X004651Y014599*
X004751*
X005751Y014200D02*
X005950D01*
X006050Y014300*
Y014499*
X005950Y014599*
X005751*
X005651Y014499*
Y014300*
X005751Y014200*
X006350D02*
Y014699D01*
Y014499*
X006250*
X006450*
X006350*
Y014699*
X006450Y014799*
X007350Y014200D02*
X007550D01*
X007450*
Y014599*
X007350*
X007850Y014200D02*
Y014799D01*
X008050Y014599*
X008250Y014799*
Y014200*
X008750D02*
X008550D01*
X008450Y014300*
Y014499*
X008550Y014599*
X008750*
X008850Y014499*
Y014399*
X008450*
X009449Y014799D02*
Y014200D01*
X009149*
X009049Y014300*
Y014499*
X009149Y014599*
X009449*
X009649Y014200D02*
X009849D01*
X009749*
Y014599*
X009649*
X010249D02*
X010449D01*
X010549Y014499*
Y014200*
X010249*
X010149Y014300*
X010249Y014399*
X010549*
X011749Y014699D02*
X011649Y014799D01*
X011449*
X011349Y014699*
Y014300*
X011449Y014200*
X011649*
X011749Y014300*
Y014499*
X011549*
X011949Y014599D02*
Y014200D01*
Y014399*
X012048Y014499*
X012148Y014599*
X012248*
X012648Y014200D02*
X012848D01*
X012948Y014300*
Y014499*
X012848Y014599*
X012648*
X012548Y014499*
Y014300*
X012648Y014200*
X013148Y014599D02*
Y014300D01*
X013248Y014200*
X013548*
Y014599*
X013748Y014000D02*
Y014599D01*
X014048*
X014148Y014499*
Y014300*
X014048Y014200*
X013748*
X001450Y012199D02*
Y011600D01*
X001749*
X001849Y011700*
Y012099*
X001749Y012199*
X001450*
X002449D02*
X002049D01*
Y011600*
X002449*
X002049Y011899D02*
X002249D01*
X002649D02*
X003049D01*
X003249Y011600D02*
X003449D01*
X003349*
Y012199*
X003249Y012099*
X003749D02*
X003849Y012199D01*
X004049*
X004149Y012099*
Y011999*
X004049Y011899*
X004149Y011799*
Y011700*
X004049Y011600*
X003849*
X003749Y011700*
Y011799*
X003849Y011899*
X003749Y011999*
Y012099*
X003849Y011899D02*
X004049D01*
X004349Y012099D02*
X004449Y012199D01*
X004649*
X004748Y012099*
Y011700*
X004649Y011600*
X004449*
X004349Y011700*
Y012099*
X004948D02*
X005048Y012199D01*
X005248*
X005348Y012099*
Y011999*
X005248Y011899*
X005348Y011799*
Y011700*
X005248Y011600*
X005048*
X004948Y011700*
Y011799*
X005048Y011899*
X004948Y011999*
Y012099*
X005048Y011899D02*
X005248D01*
X005948Y011600D02*
X005548D01*
X005948Y011999*
Y012099*
X005848Y012199*
X005648*
X005548Y012099*
X006448Y011600D02*
Y012199D01*
X006148Y011899*
X006548*
X001450Y020700D02*
Y021299D01*
X001749*
X001849Y021199*
Y020999*
X001749Y020899*
X001450*
X002049Y020700D02*
Y021299D01*
X002349*
X002449Y021199*
Y020999*
X002349Y020899*
X002049*
X002249D02*
X002449Y020700D01*
X002949Y021299D02*
X002749D01*
X002649Y021199*
Y020800*
X002749Y020700*
X002949*
X003049Y020800*
Y021199*
X002949Y021299*
X003249D02*
Y020700D01*
X003549*
X003649Y020800*
Y021199*
X003549Y021299*
X003249*
X003849D02*
Y020800D01*
X003949Y020700*
X004149*
X004249Y020800*
Y021299*
X004848Y021199D02*
X004748Y021299D01*
X004549*
X004449Y021199*
Y020800*
X004549Y020700*
X004748*
X004848Y020800*
X005448Y021299D02*
X005048D01*
Y020700*
X005448*
X005048Y020999D02*
X005248D01*
X005648Y021299D02*
Y020700D01*
X005948*
X006048Y020800*
Y021199*
X005948Y021299*
X005648*
X006248Y021099D02*
X006348D01*
Y020999*
X006248*
Y021099*
Y020800D02*
X006348D01*
Y020700*
X006248*
Y020800*
X001450Y018699D02*
Y018100D01*
X001749*
X001849Y018200*
Y018299*
X001749Y018399*
X001450*
X001749*
X001849Y018499*
Y018599*
X001749Y018699*
X001450*
X002149Y018100D02*
X002349D01*
X002449Y018200*
Y018399*
X002349Y018499*
X002149*
X002049Y018399*
Y018200*
X002149Y018100*
X002649D02*
X002949D01*
X003049Y018200*
X002949Y018299*
X002749*
X002649Y018399*
X002749Y018499*
X003049*
X003249Y018100D02*
Y018499D01*
X003549*
X003649Y018399*
Y018100*
X003949Y018499D02*
X004149D01*
X004249Y018399*
Y018100*
X003949*
X003849Y018200*
X003949Y018299*
X004249*
X005048Y018100D02*
X005248D01*
X005148*
Y018499*
X005048*
X006148Y018699D02*
Y018100D01*
Y018399*
X006548*
Y018699*
Y018100*
X007048D02*
X006848D01*
X006748Y018200*
Y018399*
X006848Y018499*
X007048*
X007148Y018399*
Y018299*
X006748*
X007348Y018499D02*
Y018100D01*
Y018299*
X007448Y018399*
X007548Y018499*
X007648*
X008347D02*
X008047D01*
X007947Y018399*
Y018200*
X008047Y018100*
X008347*
X008847D02*
X008647D01*
X008547Y018200*
Y018399*
X008647Y018499*
X008847*
X008947Y018399*
Y018299*
X008547*
X009347Y017900D02*
X009447D01*
X009547Y018000*
Y018499*
X009247*
X009147Y018399*
Y018200*
X009247Y018100*
X009547*
X009847D02*
X010047D01*
X010147Y018200*
Y018399*
X010047Y018499*
X009847*
X009747Y018399*
Y018200*
X009847Y018100*
X010347Y018499D02*
X010547Y018100D01*
X010747Y018499*
X010946Y018100D02*
X011146D01*
X011046*
Y018499*
X010946*
X011446Y018100D02*
Y018499D01*
X011746*
X011846Y018399*
Y018100*
X012146Y018499D02*
X012346D01*
X012446Y018399*
Y018100*
X012146*
X012046Y018200*
X012146Y018299*
X012446*
X001849Y019999D02*
X001649D01*
X001749*
Y019500*
X001649Y019400*
X001550*
X001450Y019500*
X002049Y019999D02*
Y019500D01*
X002149Y019400*
X002349*
X002449Y019500*
Y019999*
X002649D02*
Y019400D01*
X002949*
X003049Y019500*
Y019599*
X002949Y019699*
X002649*
X002949*
X003049Y019799*
Y019899*
X002949Y019999*
X002649*
X003649D02*
X003249D01*
Y019400*
X003649*
X003249Y019699D02*
X003449D01*
X003849Y019400D02*
Y019999D01*
X004149*
X004249Y019899*
Y019699*
X004149Y019599*
X003849*
X004049D02*
X004249Y019400D01*
X004449D02*
Y019799D01*
X004649Y019999*
X004848Y019799*
Y019400*
Y019699*
X004449*
X006048Y019999D02*
Y019400D01*
X005748*
X005648Y019500*
Y019699*
X005748Y019799*
X006048*
X006248Y019400D02*
Y019500D01*
X006348*
Y019400*
X006248*
X006848D02*
X007048D01*
X007148Y019500*
Y019699*
X007048Y019799*
X006848*
X006748Y019699*
Y019500*
X006848Y019400*
X007348D02*
Y019500D01*
X007448*
Y019400*
X007348*
X007947D02*
X008147D01*
X008247Y019500*
Y019699*
X008147Y019799*
X007947*
X007847Y019699*
Y019500*
X007947Y019400*
X008447D02*
Y019500D01*
X008547*
Y019400*
X008447*
X009947Y019899D02*
X009847Y019999D01*
X009647*
X009547Y019899*
Y019799*
X009647Y019699*
X009847*
X009947Y019599*
Y019500*
X009847Y019400*
X009647*
X009547Y019500*
X010247Y019799D02*
X010447D01*
X010547Y019699*
Y019400*
X010247*
X010147Y019500*
X010247Y019599*
X010547*
X010747Y019799D02*
Y019400D01*
Y019599*
X010847Y019699*
X010946Y019799*
X011046*
X011446D02*
X011646D01*
X011746Y019699*
Y019400*
X011446*
X011346Y019500*
X011446Y019599*
X011746*
X011946Y019200D02*
X012046D01*
X012146Y019300*
Y019799*
X012846Y019400D02*
X012646D01*
X012546Y019500*
Y019699*
X012646Y019799*
X012846*
X012946Y019699*
Y019599*
X012546*
X013146Y019799D02*
X013346Y019400D01*
X013546Y019799*
X013846Y019400D02*
X014045D01*
X014145Y019500*
Y019699*
X014045Y019799*
X013846*
X013746Y019699*
Y019500*
X013846Y019400*
X009049Y012199D02*
X008850D01*
X008750Y012099*
Y011700*
X008850Y011600*
X009049*
X009149Y011700*
Y012099*
X009049Y012199*
X009749Y012099D02*
X009649Y012199D01*
X009449*
X009349Y012099*
Y011700*
X009449Y011600*
X009649*
X009749Y011700*
X009949Y012199D02*
X010349D01*
X010149*
Y011600*
X010549D02*
Y011700D01*
X010649*
Y011600*
X010549*
X012048D02*
X011649D01*
X012048Y011999*
Y012099*
X011949Y012199*
X011749*
X011649Y012099*
X012248D02*
X012348Y012199D01*
X012548*
X012648Y012099*
Y011700*
X012548Y011600*
X012348*
X012248Y011700*
Y012099*
X013248Y011600D02*
X012848D01*
X013248Y011999*
Y012099*
X013148Y012199*
X012948*
X012848Y012099*
X013748Y011600D02*
Y012199D01*
X013448Y011899*
X013848*
X014048Y011600D02*
Y011700D01*
X014148*
Y011600*
X014048*
X004050Y015999D02*
Y015700D01*
X004150Y015600*
X004249Y015700*
X004349Y015600*
X004449Y015700*
Y015999*
X004649D02*
Y015700D01*
X004749Y015600*
X004849Y015700*
X004949Y015600*
X005049Y015700*
Y015999*
X005249D02*
Y015700D01*
X005349Y015600*
X005449Y015700*
X005549Y015600*
X005649Y015700*
Y015999*
X005849Y015600D02*
Y015700D01*
X005949*
Y015600*
X005849*
X006349D02*
X006549D01*
X006449*
Y015999*
X006349*
X006849Y015600D02*
Y015999D01*
X006949*
X007049Y015899*
Y015600*
Y015899*
X007149Y015999*
X007249Y015899*
Y015600*
X007748D02*
X007548D01*
X007448Y015700*
Y015899*
X007548Y015999*
X007748*
X007848Y015899*
Y015799*
X007448*
X008448Y016199D02*
Y015600D01*
X008148*
X008048Y015700*
Y015899*
X008148Y015999*
X008448*
X008648Y015600D02*
X008848D01*
X008748*
Y015999*
X008648*
X009248D02*
X009448D01*
X009548Y015899*
Y015600*
X009248*
X009148Y015700*
X009248Y015799*
X009548*
X009748Y015600D02*
Y015700D01*
X009848*
Y015600*
X009748*
X010248Y016199D02*
Y015600D01*
X010547*
X010647Y015700*
Y015799*
Y015899*
X010547Y015999*
X010248*
X010947D02*
X011147D01*
X011247Y015899*
Y015600*
X010947*
X010847Y015700*
X010947Y015799*
X011247*
G54D12*
X023584Y025700D02*
Y026409D01*
X021615Y025700D02*
Y026409D01*
X023584*
X021615Y025700D02*
X023584D01*
X022828Y028980D02*
X023024D01*
Y028744D02*
Y028980D01*
X022158D02*
X022355D01*
X022158Y028744D02*
Y028980D01*
X020350Y021000D02*
X023350D01*
Y022000*
X020350D02*
X023350D01*
X020350Y021000D02*
Y022000D01*
X025992Y010030D02*
X026307D01*
X023392D02*
X023707D01*
X025519Y013442D02*
Y013757D01*
X023092Y014269D02*
X023407D01*
X020231Y012628D02*
X022868D01*
Y011171D02*
Y012628D01*
X020231Y011171D02*
X022868D01*
X020231D02*
Y012628D01*
X024019Y004542D02*
Y004857D01*
X019350Y025383D02*
Y027300D01*
Y024300D02*
Y027300D01*
X017350Y024300D02*
Y027300D01*
Y024300D02*
X019350D01*
X017350Y027300D02*
X019350D01*
X014550Y025383D02*
Y027300D01*
Y024300D02*
Y027300D01*
X012550Y024300D02*
Y027300D01*
Y024300D02*
X014550D01*
X012550Y027300D02*
X014550D01*
X009750Y025383D02*
Y027300D01*
Y024300D02*
Y027300D01*
X007750Y024300D02*
Y027300D01*
Y024300D02*
X009750D01*
X007750Y027300D02*
X009750D01*
X004950Y025383D02*
Y027300D01*
Y024300D02*
Y027300D01*
X002950Y024300D02*
Y027300D01*
Y024300D02*
X004950D01*
X002950Y027300D02*
X004950D01*
X021419Y026942D02*
Y027257D01*
X024250Y018700D02*
Y026700D01*
X026250Y018700D02*
Y026700D01*
X024250Y018700D02*
X026250D01*
X024250Y026700D02*
X026250D01*
X014550Y006150D02*
Y010150D01*
X012550Y006150D02*
Y010150D01*
Y006150D02*
X014550D01*
X012550Y010150D02*
X014550D01*
X019350Y006150D02*
Y010150D01*
X017350Y006150D02*
Y010150D01*
Y006150D02*
X019350D01*
X017350Y010150D02*
X019350D01*
X009750Y006150D02*
Y010150D01*
X007750Y006150D02*
Y010150D01*
Y006150D02*
X009750D01*
X007750Y010150D02*
X009750D01*
X004950Y006150D02*
Y010150D01*
X002950Y006150D02*
Y010150D01*
Y006150D02*
X004950D01*
X002950Y010150D02*
X004950D01*
G54D13*
X024665Y008153D02*
Y009815D01*
Y005700D02*
Y007361D01*
X020549Y006541D02*
Y007361D01*
Y008153D02*
Y008974D01*
G54D14*
X021390Y009815D02*
X024665D01*
X020549Y008974D02*
X021390Y009815D01*
Y005700D02*
X024665D01*
X020549Y006541D02*
X021390Y005700D01*
X020841Y014461D02*
X021351D01*
X020291Y015010D02*
X020841Y014461D01*
X020291Y015010D02*
Y017119D01*
X021342Y017116*
X021891Y014466D02*
X022401Y014461D01*
X022950Y015010*
Y017119*
X021912Y017111D02*
X022950Y017119D01*
X023741Y014461D02*
X024251D01*
X023191Y015010D02*
X023741Y014461D01*
X023191Y015010D02*
Y017119D01*
X024242Y017116*
X024791Y014466D02*
X025301Y014461D01*
X025850Y015010*
Y017119*
X024812Y017111D02*
X025850Y017119D01*
G54D15*
X024095Y013203D02*
X025670D01*
X024095Y011550D02*
X025670D01*
X025100Y033200D02*
Y032933D01*
X024966Y032800*
X024833Y032933*
Y033200*
Y033000*
X025100*
X024300Y033200D02*
Y032800D01*
X024100*
X024033Y032866*
Y033000*
X024100Y033066*
X024300*
X024167D02*
X024033Y033200D01*
X023633Y032866D02*
X023700Y032800D01*
X023833*
X023900Y032866*
Y032933*
X023833Y033000*
X023700*
X023633Y033066*
Y033133*
X023700Y033200*
X023833*
X023900Y033133*
X023300Y033200D02*
Y032800D01*
X023500Y033000*
X023233*
X023100Y032866D02*
X023034Y032800D01*
X022900*
X022834Y032866*
Y032933*
X022900Y033000*
X022834Y033066*
Y033133*
X022900Y033200*
X023034*
X023100Y033133*
Y033066*
X023034Y033000*
X023100Y032933*
Y032866*
X023034Y033000D02*
X022900D01*
X022434Y032800D02*
X022700D01*
Y033000*
X022567Y032933*
X022500*
X022434Y033000*
Y033133*
X022500Y033200*
X022634*
X022700Y033133*
X021901Y032800D02*
Y033200D01*
X021701*
X021634Y033133*
Y033066*
X021701Y033000*
X021901*
X021701*
X021634Y032933*
Y032866*
X021701Y032800*
X021901*
X021450Y000424D02*
X021749D01*
X021600Y000574D02*
Y000275D01*
X021899Y000200D02*
X022049D01*
X021974*
Y000649*
X021899Y000574*
X022574Y000200D02*
X022274D01*
X022574Y000499*
Y000574*
X022499Y000649*
X022349*
X022274Y000574*
X022724Y000649D02*
Y000350D01*
X022874Y000200*
X023024Y000350*
Y000649*
X024374Y000574D02*
X024299Y000649D01*
X024149*
X024074Y000574*
Y000275*
X024149Y000200*
X024299*
X024374Y000275*
Y000424*
X024224*
X024524Y000200D02*
Y000649D01*
X024823Y000200*
Y000649*
X024973D02*
Y000200D01*
X025198*
X025273Y000275*
Y000574*
X025198Y000649*
X024973*
X001550Y000200D02*
Y000699D01*
X001883Y000200*
Y000699*
X002049Y000616D02*
X002133Y000699D01*
X002299*
X002383Y000616*
Y000533*
X002299Y000449*
X002216*
X002299*
X002383Y000366*
Y000283*
X002299Y000200*
X002133*
X002049Y000283*
X003882Y000616D02*
X003799Y000699D01*
X003632*
X003549Y000616*
Y000283*
X003632Y000200*
X003799*
X003882Y000283*
X004049Y000699D02*
Y000200D01*
Y000449*
X004382*
Y000699*
Y000200*
X004549Y000616D02*
X004632Y000699D01*
X004798*
X004882Y000616*
Y000533*
X004798Y000449*
X004715*
X004798*
X004882Y000366*
Y000283*
X004798Y000200*
X004632*
X004549Y000283*
X006048Y000699D02*
Y000200D01*
X006381*
X006548Y000616D02*
X006631Y000699D01*
X006798*
X006881Y000616*
Y000533*
X006798Y000449*
X006715*
X006798*
X006881Y000366*
Y000283*
X006798Y000200*
X006631*
X006548Y000283*
X006850Y033300D02*
Y032800D01*
X006516Y033300*
Y032800*
X006350Y033300D02*
X006183D01*
X006266*
Y032800*
X006350Y032883*
X004600D02*
X004684Y032800D01*
X004850*
X004934Y032883*
Y033216*
X004850Y033300*
X004684*
X004600Y033216*
X004434Y032800D02*
Y033300D01*
Y033050*
X004100*
Y032800*
Y033300*
X003934D02*
X003767D01*
X003851*
Y032800*
X003934Y032883*
X002518Y032800D02*
Y033300D01*
X002184*
X002018D02*
X001851D01*
X001934*
Y032800*
X002018Y032883*
X012950Y033300D02*
Y032800D01*
X012616Y033300*
Y032800*
X012116Y033300D02*
X012450D01*
X012116Y032966*
Y032883*
X012200Y032800*
X012366*
X012450Y032883*
X010617D02*
X010700Y032800D01*
X010867*
X010950Y032883*
Y033216*
X010867Y033300*
X010700*
X010617Y033216*
X010450Y032800D02*
Y033300D01*
Y033050*
X010117*
Y032800*
Y033300*
X009617D02*
X009951D01*
X009617Y032966*
Y032883*
X009701Y032800*
X009867*
X009951Y032883*
X008451Y032800D02*
Y033300D01*
X008118*
X007618D02*
X007951D01*
X007618Y032966*
Y032883*
X007701Y032800*
X007868*
X007951Y032883*
X007850Y000200D02*
Y000699D01*
X008183Y000200*
Y000699*
X008599Y000200D02*
Y000699D01*
X008349Y000449*
X008683*
X010182Y000616D02*
X010099Y000699D01*
X009932*
X009849Y000616*
Y000283*
X009932Y000200*
X010099*
X010182Y000283*
X010349Y000699D02*
Y000200D01*
Y000449*
X010682*
Y000699*
Y000200*
X011098D02*
Y000699D01*
X010849Y000449*
X011182*
X012348Y000699D02*
Y000200D01*
X012681*
X013098D02*
Y000699D01*
X012848Y000449*
X013181*
G54D16*
X025850Y018200D02*
X025916D01*
X025883*
Y018399*
X025850Y018366*
X014250Y005850D02*
Y005916D01*
Y005883*
X014050*
X014083Y005850*
X014250Y024000D02*
Y024066D01*
Y024033*
X014050*
X014083Y024000*
X019050D02*
Y024066D01*
Y024033*
X018850*
X018883Y024000*
X009450D02*
Y024066D01*
Y024033*
X009250*
X009283Y024000*
X004650D02*
Y024066D01*
Y024033*
X004450*
X004483Y024000*
X019050Y005850D02*
Y005916D01*
Y005883*
X018850*
X018883Y005850*
X009450D02*
Y005916D01*
Y005883*
X009250*
X009283Y005850*
X004650D02*
Y005916D01*
Y005883*
X004450*
X004483Y005850*
X019500Y012600D02*
Y012433D01*
X019533Y012400*
X019600*
X019633Y012433*
Y012600*
X019700Y012400D02*
X019766D01*
X019733*
Y012600*
X019700Y012566*
X019866D02*
X019900Y012600D01*
X019966*
X019999Y012566*
Y012533*
X019966Y012500*
X019999Y012466*
Y012433*
X019966Y012400*
X019900*
X019866Y012433*
Y012466*
X019900Y012500*
X019866Y012533*
Y012566*
X019900Y012500D02*
X019966D01*
X025000Y009800D02*
Y009633D01*
X025033Y009600*
X025100*
X025133Y009633*
Y009800*
X025200Y009600D02*
X025266D01*
X025233*
Y009800*
X025200Y009766*
X025366Y009800D02*
X025499D01*
Y009766*
X025366Y009633*
Y009600*
X021400Y028400D02*
Y028233D01*
X021433Y028200*
X021500*
X021533Y028233*
Y028400*
X021600Y028200D02*
X021666D01*
X021633*
Y028400*
X021600Y028366*
X021866Y028200D02*
Y028400D01*
X021766Y028300*
X021899*
X021800Y024400D02*
Y024233D01*
X021833Y024200*
X021900*
X021933Y024233*
Y024400*
X022000Y024200D02*
X022066D01*
X022033*
Y024400*
X022000Y024366*
X022166D02*
X022200Y024400D01*
X022266*
X022299Y024366*
Y024333*
X022266Y024300*
X022233*
X022266*
X022299Y024266*
Y024233*
X022266Y024200*
X022200*
X022166Y024233*
X019583Y026300D02*
Y026500D01*
X019683*
X019716Y026466*
Y026400*
X019683Y026366*
X019583*
X019650D02*
X019716Y026300D01*
X019783Y026466D02*
X019816Y026500D01*
X019883*
X019916Y026466*
Y026433*
X019883Y026400*
X019850*
X019883*
X019916Y026366*
Y026333*
X019883Y026300*
X019816*
X019783Y026333*
X019983Y026466D02*
X020016Y026500D01*
X020083*
X020116Y026466*
Y026333*
X020083Y026300*
X020016*
X019983Y026333*
Y026466*
X020183Y024400D02*
Y024600D01*
X020283*
X020316Y024566*
Y024500*
X020283Y024466*
X020183*
X020250D02*
X020316Y024400D01*
X020516D02*
X020383D01*
X020516Y024533*
Y024566*
X020483Y024600*
X020416*
X020383Y024566*
X020583Y024433D02*
X020616Y024400D01*
X020683*
X020716Y024433*
Y024566*
X020683Y024600*
X020616*
X020583Y024566*
Y024533*
X020616Y024500*
X020716*
X020683Y028200D02*
Y028400D01*
X020783*
X020816Y028366*
Y028300*
X020783Y028266*
X020683*
X020750D02*
X020816Y028200D01*
X021016D02*
X020883D01*
X021016Y028333*
Y028366*
X020983Y028400*
X020916*
X020883Y028366*
X021083D02*
X021116Y028400D01*
X021183*
X021216Y028366*
Y028333*
X021183Y028300*
X021216Y028266*
Y028233*
X021183Y028200*
X021116*
X021083Y028233*
Y028266*
X021116Y028300*
X021083Y028333*
Y028366*
X021116Y028300D02*
X021183D01*
X023483Y028200D02*
Y028400D01*
X023583*
X023616Y028366*
Y028300*
X023583Y028266*
X023483*
X023550D02*
X023616Y028200D01*
X023816D02*
X023683D01*
X023816Y028333*
Y028366*
X023783Y028400*
X023716*
X023683Y028366*
X023883Y028400D02*
X024016D01*
Y028366*
X023883Y028233*
Y028200*
X019583Y025900D02*
Y026100D01*
X019683*
X019716Y026066*
Y026000*
X019683Y025966*
X019583*
X019650D02*
X019716Y025900D01*
X019916D02*
X019783D01*
X019916Y026033*
Y026066*
X019883Y026100*
X019816*
X019783Y026066*
X020116Y026100D02*
X019983D01*
Y026000*
X020049Y026033*
X020083*
X020116Y026000*
Y025933*
X020083Y025900*
X020016*
X019983Y025933*
X021390Y004200D02*
Y004399D01*
X021490*
X021523Y004366*
Y004300*
X021490Y004266*
X021390*
X021723Y004200D02*
X021589D01*
X021723Y004333*
Y004366*
X021689Y004399*
X021623*
X021589Y004366*
X021789Y004200D02*
X021856D01*
X021823*
Y004399*
X021789Y004366*
X025083Y027000D02*
Y027200D01*
X025183*
X025216Y027166*
Y027100*
X025183Y027066*
X025083*
X025416Y027000D02*
X025283D01*
X025416Y027133*
Y027166*
X025383Y027200*
X025316*
X025283Y027166*
X025483D02*
X025516Y027200D01*
X025583*
X025616Y027166*
Y027033*
X025583Y027000*
X025516*
X025483Y027033*
Y027166*
X020600Y032200D02*
Y032400D01*
X020700*
X020733Y032366*
Y032300*
X020700Y032266*
X020600*
X020800Y032200D02*
X020866D01*
X020833*
Y032400*
X020800Y032366*
X020966Y032233D02*
X020999Y032200D01*
X021066*
X021099Y032233*
Y032366*
X021066Y032400*
X020999*
X020966Y032366*
Y032333*
X020999Y032300*
X021099*
X019600Y021700D02*
Y021900D01*
X019700*
X019733Y021866*
Y021800*
X019700Y021766*
X019600*
X019800Y021700D02*
X019866D01*
X019833*
Y021900*
X019800Y021866*
X019966D02*
X019999Y021900D01*
X020066*
X020099Y021866*
Y021833*
X020066Y021800*
X020099Y021766*
Y021733*
X020066Y021700*
X019999*
X019966Y021733*
Y021766*
X019999Y021800*
X019966Y021833*
Y021866*
X019999Y021800D02*
X020066D01*
X017360Y010750D02*
Y010949D01*
X017460*
X017493Y010916*
Y010850*
X017460Y010816*
X017360*
X017559Y010750D02*
X017626D01*
X017593*
Y010949*
X017559Y010916*
X017859Y010949D02*
X017793Y010916D01*
X017726Y010850*
Y010783*
X017759Y010750*
X017826*
X017859Y010783*
Y010816*
X017826Y010850*
X017726*
X012560Y010680D02*
Y010879D01*
X012660*
X012693Y010846*
Y010780*
X012660Y010746*
X012560*
X012759Y010680D02*
X012826D01*
X012793*
Y010879*
X012759Y010846*
X013059Y010879D02*
X012926D01*
Y010780*
X012993Y010813*
X013026*
X013059Y010780*
Y010713*
X013026Y010680*
X012959*
X012926Y010713*
X007760Y010750D02*
Y010949D01*
X007860*
X007893Y010916*
Y010850*
X007860Y010816*
X007760*
X007959Y010750D02*
X008026D01*
X007993*
Y010949*
X007959Y010916*
X008226Y010750D02*
Y010949D01*
X008126Y010850*
X008259*
X002960Y010750D02*
Y010949D01*
X003060*
X003093Y010916*
Y010850*
X003060Y010816*
X002960*
X003159Y010750D02*
X003226D01*
X003193*
Y010949*
X003159Y010916*
X003326D02*
X003359Y010949D01*
X003426*
X003459Y010916*
Y010883*
X003426Y010850*
X003393*
X003426*
X003459Y010816*
Y010783*
X003426Y010750*
X003359*
X003326Y010783*
X016500Y026800D02*
Y027000D01*
X016600*
X016633Y026966*
Y026900*
X016600Y026866*
X016500*
X016700Y026800D02*
X016766D01*
X016733*
Y027000*
X016700Y026966*
X016999Y026800D02*
X016866D01*
X016999Y026933*
Y026966*
X016966Y027000*
X016900*
X016866Y026966*
X011833Y026800D02*
Y027000D01*
X011933*
X011966Y026966*
Y026900*
X011933Y026866*
X011833*
X012033Y026800D02*
X012100D01*
X012066*
Y027000*
X012033Y026966*
X012200Y026800D02*
X012266D01*
X012233*
Y027000*
X012200Y026966*
X006800Y026900D02*
Y027100D01*
X006900*
X006933Y027066*
Y027000*
X006900Y026966*
X006800*
X007000Y026900D02*
X007066D01*
X007033*
Y027100*
X007000Y027066*
X007166D02*
X007200Y027100D01*
X007266*
X007299Y027066*
Y026933*
X007266Y026900*
X007200*
X007166Y026933*
Y027066*
X002183Y026900D02*
Y027100D01*
X002283*
X002316Y027066*
Y027000*
X002283Y026966*
X002183*
X002383Y026933D02*
X002416Y026900D01*
X002483*
X002516Y026933*
Y027066*
X002483Y027100*
X002416*
X002383Y027066*
Y027033*
X002416Y027000*
X002516*
X013483Y003700D02*
Y003900D01*
X013583*
X013616Y003866*
Y003800*
X013583Y003766*
X013483*
X013683Y003866D02*
X013716Y003900D01*
X013783*
X013816Y003866*
Y003833*
X013783Y003800*
X013816Y003766*
Y003733*
X013783Y003700*
X013716*
X013683Y003733*
Y003766*
X013716Y003800*
X013683Y003833*
Y003866*
X013716Y003800D02*
X013783D01*
X000883Y003700D02*
Y003900D01*
X000983*
X001016Y003866*
Y003800*
X000983Y003766*
X000883*
X001083Y003900D02*
X001216D01*
Y003866*
X001083Y003733*
Y003700*
X013683Y032300D02*
Y032500D01*
X013783*
X013816Y032466*
Y032400*
X013783Y032366*
X013683*
X014016Y032500D02*
X013950Y032466D01*
X013883Y032400*
Y032333*
X013916Y032300*
X013983*
X014016Y032333*
Y032366*
X013983Y032400*
X013883*
X000783Y032300D02*
Y032500D01*
X000883*
X000916Y032466*
Y032400*
X000883Y032366*
X000783*
X001116Y032500D02*
X000983D01*
Y032400*
X001050Y032433*
X001083*
X001116Y032400*
Y032333*
X001083Y032300*
X001016*
X000983Y032333*
X023316Y012700D02*
Y012500D01*
X023450*
X023516D02*
X023583D01*
X023550*
Y012700*
X023516Y012666*
X020416Y017466D02*
X020383Y017500D01*
X020316*
X020283Y017466*
Y017333*
X020316Y017300*
X020383*
X020416Y017333*
X020483Y017466D02*
X020516Y017500D01*
X020583*
X020616Y017466*
Y017433*
X020583Y017400*
X020550*
X020583*
X020616Y017366*
Y017333*
X020583Y017300*
X020516*
X020483Y017333*
X020816Y017500D02*
X020749Y017466D01*
X020683Y017400*
Y017333*
X020716Y017300*
X020783*
X020816Y017333*
Y017366*
X020783Y017400*
X020683*
X022416Y014066D02*
X022383Y014100D01*
X022316*
X022283Y014066*
Y013933*
X022316Y013900*
X022383*
X022416Y013933*
X022483Y014066D02*
X022516Y014100D01*
X022583*
X022616Y014066*
Y014033*
X022583Y014000*
X022550*
X022583*
X022616Y013966*
Y013933*
X022583Y013900*
X022516*
X022483Y013933*
X022816Y014100D02*
X022683D01*
Y014000*
X022749Y014033*
X022783*
X022816Y014000*
Y013933*
X022783Y013900*
X022716*
X022683Y013933*
X025916Y013666D02*
X025883Y013700D01*
X025816*
X025783Y013666*
Y013533*
X025816Y013500*
X025883*
X025916Y013533*
X025983Y013666D02*
X026016Y013700D01*
X026083*
X026116Y013666*
Y013633*
X026083Y013600*
X026050*
X026083*
X026116Y013566*
Y013533*
X026083Y013500*
X026016*
X025983Y013533*
X026283Y013500D02*
Y013700D01*
X026183Y013600*
X026316*
X025316Y017566D02*
X025283Y017600D01*
X025216*
X025183Y017566*
Y017433*
X025216Y017400*
X025283*
X025316Y017433*
X025383Y017566D02*
X025416Y017600D01*
X025483*
X025516Y017566*
Y017533*
X025483Y017500*
X025450*
X025483*
X025516Y017466*
Y017433*
X025483Y017400*
X025416*
X025383Y017433*
X025583Y017566D02*
X025616Y017600D01*
X025683*
X025716Y017566*
Y017533*
X025683Y017500*
X025649*
X025683*
X025716Y017466*
Y017433*
X025683Y017400*
X025616*
X025583Y017433*
X023216Y011666D02*
X023183Y011700D01*
X023116*
X023083Y011666*
Y011533*
X023116Y011500*
X023183*
X023216Y011533*
X023283Y011666D02*
X023316Y011700D01*
X023383*
X023416Y011666*
Y011633*
X023383Y011600*
X023350*
X023383*
X023416Y011566*
Y011533*
X023383Y011500*
X023316*
X023283Y011533*
X023616Y011500D02*
X023483D01*
X023616Y011633*
Y011666*
X023583Y011700*
X023516*
X023483Y011666*
X024450Y004766D02*
X024416Y004800D01*
X024350*
X024316Y004766*
Y004633*
X024350Y004600*
X024416*
X024450Y004633*
X024516Y004766D02*
X024550Y004800D01*
X024616*
X024650Y004766*
Y004733*
X024616Y004700*
X024583*
X024616*
X024650Y004666*
Y004633*
X024616Y004600*
X024550*
X024516Y004633*
X024716Y004600D02*
X024783D01*
X024749*
Y004800*
X024716Y004766*
X025116Y009266D02*
X025083Y009300D01*
X025016*
X024983Y009266*
Y009133*
X025016Y009100*
X025083*
X025116Y009133*
X025183Y009266D02*
X025216Y009300D01*
X025283*
X025316Y009266*
Y009233*
X025283Y009200*
X025250*
X025283*
X025316Y009166*
Y009133*
X025283Y009100*
X025216*
X025183Y009133*
X025383Y009266D02*
X025416Y009300D01*
X025483*
X025516Y009266*
Y009133*
X025483Y009100*
X025416*
X025383Y009133*
Y009266*
X026016Y009766D02*
X025983Y009800D01*
X025916*
X025883Y009766*
Y009633*
X025916Y009600*
X025983*
X026016Y009633*
X026216Y009600D02*
X026083D01*
X026216Y009733*
Y009766*
X026183Y009800*
X026116*
X026083Y009766*
X026283Y009633D02*
X026316Y009600D01*
X026383*
X026416Y009633*
Y009766*
X026383Y009800*
X026316*
X026283Y009766*
Y009733*
X026316Y009700*
X026416*
X019716Y027166D02*
X019683Y027200D01*
X019616*
X019583Y027166*
Y027033*
X019616Y027000*
X019683*
X019716Y027033*
X019916Y027000D02*
X019783D01*
X019916Y027133*
Y027166*
X019883Y027200*
X019816*
X019783Y027166*
X020116Y027000D02*
X019983D01*
X020116Y027133*
Y027166*
X020083Y027200*
X020016*
X019983Y027166*
X025132Y016724D02*
X025104D01*
Y016986*
X025132*
Y016724*
X022232D02*
X022204D01*
Y016986*
X022232*
Y016724*
X025132Y014738D02*
X025353D01*
Y014710*
X025132*
Y014593*
X025104*
Y014710*
X024883*
Y014738*
X025104*
Y014855*
X025132*
Y014738*
G54D11*
X025082Y014688D02*
X025303D01*
Y014760*
X025082*
Y014643*
X025154*
Y014760*
X024933*
Y014688*
X025154*
Y014805*
X025082*
Y014688*
X024940Y014690D02*
X025300D01*
X025100Y014790D02*
X025130D01*
G54D16*
X022232Y014738D02*
X022453D01*
Y014710*
X022232*
Y014593*
X022204*
Y014710*
X021983*
Y014738*
X022204*
Y014855*
X022232*
Y014738*
G54D11*
X022182Y014688D02*
X022403D01*
Y014760*
X022182*
Y014643*
X022254*
Y014760*
X022033*
Y014688*
X022254*
Y014805*
X022182*
Y014688*
X022040Y014690D02*
X022400D01*
X022200Y014790D02*
X022230D01*
G54D16*
X024488Y006789D02*
X024051D01*
Y006860*
X024488*
Y006789*
G54D11*
X024438Y006839D02*
X024101D01*
Y006810*
X024438*
Y006839*
G54D16*
X020980Y006860D02*
X021163D01*
Y006789*
X020980*
Y006444*
X020909*
Y006789*
X020726*
Y006860*
X020909*
Y007205*
X020980*
Y006860*
G54D11*
X020930Y006810D02*
X021113D01*
Y006839*
X020930*
Y006494*
X020959*
Y006839*
X020776*
Y006810*
X020959*
Y007155*
X020930*
Y006810*
G54D45*
X021030Y006910D02*
X021013D01*
Y006739*
X021030*
Y006594*
X020859*
Y006739*
X020876*
Y006910*
X020859*
Y007055*
X021030*
Y006910*
M02*