%FSDAX24Y24*%
%MOIN*%
%SFA1B1*%

%IPPOS*%
%ADD10C,0.009840*%
%ADD11C,0.007870*%
%ADD12C,0.023620*%
%ADD13C,0.010000*%
%ADD14C,0.005000*%
%LNde-180824-1*%
%LPD*%
G54D10*
X017039Y000215D02*
D01*
X017038Y000218*
X017038Y000222*
X017037Y000225*
X017037Y000228*
X017036Y000232*
X017034Y000235*
X017033Y000238*
X017031Y000241*
X017029Y000244*
X017027Y000246*
X017025Y000249*
X017022Y000251*
X017020Y000254*
X017017Y000256*
X017014Y000257*
X017011Y000259*
X017008Y000260*
X017005Y000262*
X017001Y000263*
X016998Y000263*
X016994Y000264*
X016991Y000264*
X016988*
X016984Y000264*
X016981Y000263*
X016977Y000263*
X016974Y000262*
X016971Y000260*
X016968Y000259*
X016965Y000257*
X016962Y000256*
X016959Y000254*
X016956Y000251*
X016954Y000249*
X016952Y000246*
X016949Y000244*
X016948Y000241*
X016946Y000238*
X016944Y000235*
X016943Y000232*
X016942Y000228*
X016941Y000225*
X016941Y000222*
X016940Y000218*
X016940Y000215*
X016940Y000211*
X016941Y000208*
X016941Y000205*
X016942Y000201*
X016943Y000198*
X016944Y000195*
X016946Y000192*
X016948Y000189*
X016949Y000186*
X016952Y000183*
X016954Y000181*
X016956Y000178*
X016959Y000176*
X016962Y000174*
X016965Y000172*
X016968Y000171*
X016971Y000169*
X016974Y000168*
X016977Y000167*
X016981Y000166*
X016984Y000166*
X016988Y000166*
X016991*
X016994Y000166*
X016998Y000166*
X017001Y000167*
X017005Y000168*
X017008Y000169*
X017011Y000171*
X017014Y000172*
X017017Y000174*
X017020Y000176*
X017022Y000178*
X017025Y000181*
X017027Y000183*
X017029Y000186*
X017031Y000189*
X017033Y000192*
X017034Y000195*
X017036Y000198*
X017037Y000201*
X017037Y000205*
X017038Y000208*
X017038Y000211*
X017039Y000215*
X010499Y006661D02*
D01*
X010499Y006665*
X010498Y006668*
X010498Y006672*
X010497Y006675*
X010496Y006678*
X010494Y006681*
X010493Y006684*
X010491Y006687*
X010489Y006690*
X010487Y006693*
X010485Y006695*
X010482Y006698*
X010480Y006700*
X010477Y006702*
X010474Y006704*
X010471Y006706*
X010468Y006707*
X010465Y006708*
X010461Y006709*
X010458Y006710*
X010455Y006710*
X010451Y006710*
X010448*
X010444Y006710*
X010441Y006710*
X010438Y006709*
X010434Y006708*
X010431Y006707*
X010428Y006706*
X010425Y006704*
X010422Y006702*
X010419Y006700*
X010417Y006698*
X010414Y006695*
X010412Y006693*
X010410Y006690*
X010408Y006687*
X010406Y006684*
X010405Y006681*
X010403Y006678*
X010402Y006675*
X010401Y006672*
X010401Y006668*
X010400Y006665*
X010400Y006661*
X010400Y006658*
X010401Y006654*
X010401Y006651*
X010402Y006648*
X010403Y006644*
X010405Y006641*
X010406Y006638*
X010408Y006635*
X010410Y006632*
X010412Y006630*
X010414Y006627*
X010417Y006625*
X010419Y006623*
X010422Y006621*
X010425Y006619*
X010428Y006617*
X010431Y006616*
X010434Y006615*
X010438Y006614*
X010441Y006613*
X010444Y006612*
X010448Y006612*
X010451*
X010455Y006612*
X010458Y006613*
X010461Y006614*
X010465Y006615*
X010468Y006616*
X010471Y006617*
X010474Y006619*
X010477Y006621*
X010480Y006623*
X010482Y006625*
X010485Y006627*
X010487Y006630*
X010489Y006632*
X010491Y006635*
X010493Y006638*
X010494Y006641*
X010496Y006644*
X010497Y006648*
X010498Y006651*
X010498Y006654*
X010499Y006658*
X010499Y006661*
X015499Y006903D02*
D01*
X015499Y006906*
X015498Y006910*
X015498Y006913*
X015497Y006917*
X015496Y006920*
X015494Y006923*
X015493Y006926*
X015491Y006929*
X015489Y006932*
X015487Y006935*
X015485Y006937*
X015482Y006940*
X015480Y006942*
X015477Y006944*
X015474Y006946*
X015471Y006947*
X015468Y006949*
X015465Y006950*
X015461Y006951*
X015458Y006951*
X015455Y006952*
X015451Y006952*
X015448*
X015444Y006952*
X015441Y006951*
X015438Y006951*
X015434Y006950*
X015431Y006949*
X015428Y006947*
X015425Y006946*
X015422Y006944*
X015419Y006942*
X015417Y006940*
X015414Y006937*
X015412Y006935*
X015410Y006932*
X015408Y006929*
X015406Y006926*
X015405Y006923*
X015403Y006920*
X015402Y006917*
X015401Y006913*
X015401Y006910*
X015400Y006906*
X015400Y006903*
X015400Y006900*
X015401Y006896*
X015401Y006893*
X015402Y006889*
X015403Y006886*
X015405Y006883*
X015406Y006880*
X015408Y006877*
X015410Y006874*
X015412Y006871*
X015414Y006869*
X015417Y006866*
X015419Y006864*
X015422Y006862*
X015425Y006860*
X015428Y006859*
X015431Y006857*
X015434Y006856*
X015438Y006855*
X015441Y006855*
X015444Y006854*
X015448Y006854*
X015451*
X015455Y006854*
X015458Y006855*
X015461Y006855*
X015465Y006856*
X015468Y006857*
X015471Y006859*
X015474Y006860*
X015477Y006862*
X015480Y006864*
X015482Y006866*
X015485Y006869*
X015487Y006871*
X015489Y006874*
X015491Y006877*
X015493Y006880*
X015494Y006883*
X015496Y006886*
X015497Y006889*
X015498Y006893*
X015498Y006896*
X015499Y006900*
X015499Y006903*
X012316Y000824D02*
D01*
X012316Y000828*
X012316Y000831*
X012315Y000835*
X012314Y000838*
X012313Y000841*
X012312Y000844*
X012311Y000847*
X012309Y000850*
X012307Y000853*
X012305Y000856*
X012303Y000858*
X012300Y000861*
X012297Y000863*
X012295Y000865*
X012292Y000867*
X012289Y000869*
X012286Y000870*
X012282Y000871*
X012279Y000872*
X012276Y000873*
X012272Y000873*
X012269Y000873*
X012265*
X012262Y000873*
X012259Y000873*
X012255Y000872*
X012252Y000871*
X012249Y000870*
X012246Y000869*
X012243Y000867*
X012240Y000865*
X012237Y000863*
X012234Y000861*
X012232Y000858*
X012230Y000856*
X012227Y000853*
X012225Y000850*
X012224Y000847*
X012222Y000844*
X012221Y000841*
X012220Y000838*
X012219Y000835*
X012218Y000831*
X012218Y000828*
X012218Y000824*
X012218Y000821*
X012218Y000817*
X012219Y000814*
X012220Y000811*
X012221Y000807*
X012222Y000804*
X012224Y000801*
X012225Y000798*
X012227Y000795*
X012230Y000793*
X012232Y000790*
X012234Y000788*
X012237Y000786*
X012240Y000784*
X012243Y000782*
X012246Y000780*
X012249Y000779*
X012252Y000778*
X012255Y000777*
X012259Y000776*
X012262Y000775*
X012265Y000775*
X012269*
X012272Y000775*
X012276Y000776*
X012279Y000777*
X012282Y000778*
X012286Y000779*
X012289Y000780*
X012292Y000782*
X012295Y000784*
X012297Y000786*
X012300Y000788*
X012303Y000790*
X012305Y000793*
X012307Y000795*
X012309Y000798*
X012311Y000801*
X012312Y000804*
X012313Y000807*
X012314Y000811*
X012315Y000814*
X012316Y000817*
X012316Y000821*
X012316Y000824*
X015531Y011703D02*
D01*
X015531Y011706*
X015531Y011710*
X015530Y011713*
X015529Y011717*
X015528Y011720*
X015527Y011723*
X015526Y011726*
X015524Y011729*
X015522Y011732*
X015520Y011735*
X015518Y011737*
X015515Y011740*
X015512Y011742*
X015510Y011744*
X015507Y011746*
X015504Y011747*
X015501Y011749*
X015497Y011750*
X015494Y011751*
X015491Y011751*
X015487Y011752*
X015484Y011752*
X015480*
X015477Y011752*
X015474Y011751*
X015470Y011751*
X015467Y011750*
X015464Y011749*
X015461Y011747*
X015458Y011746*
X015455Y011744*
X015452Y011742*
X015449Y011740*
X015447Y011737*
X015445Y011735*
X015442Y011732*
X015440Y011729*
X015439Y011726*
X015437Y011723*
X015436Y011720*
X015435Y011717*
X015434Y011713*
X015433Y011710*
X015433Y011706*
X015433Y011703*
X015433Y011700*
X015433Y011696*
X015434Y011693*
X015435Y011689*
X015436Y011686*
X015437Y011683*
X015439Y011680*
X015440Y011677*
X015442Y011674*
X015445Y011671*
X015447Y011669*
X015449Y011666*
X015452Y011664*
X015455Y011662*
X015458Y011660*
X015461Y011659*
X015464Y011657*
X015467Y011656*
X015470Y011655*
X015474Y011655*
X015477Y011654*
X015480Y011654*
X015484*
X015487Y011654*
X015491Y011655*
X015494Y011655*
X015497Y011656*
X015501Y011657*
X015504Y011659*
X015507Y011660*
X015510Y011662*
X015512Y011664*
X015515Y011666*
X015518Y011669*
X015520Y011671*
X015522Y011674*
X015524Y011677*
X015526Y011680*
X015527Y011683*
X015528Y011686*
X015529Y011689*
X015530Y011693*
X015531Y011696*
X015531Y011700*
X015531Y011703*
X004749Y005088D02*
D01*
X004749Y005091*
X004748Y005095*
X004748Y005098*
X004747Y005101*
X004746Y005105*
X004744Y005108*
X004743Y005111*
X004741Y005114*
X004739Y005117*
X004737Y005119*
X004735Y005122*
X004732Y005124*
X004730Y005126*
X004727Y005128*
X004724Y005130*
X004721Y005132*
X004718Y005133*
X004715Y005134*
X004711Y005135*
X004708Y005136*
X004705Y005137*
X004701Y005137*
X004698*
X004694Y005137*
X004691Y005136*
X004688Y005135*
X004684Y005134*
X004681Y005133*
X004678Y005132*
X004675Y005130*
X004672Y005128*
X004669Y005126*
X004667Y005124*
X004664Y005122*
X004662Y005119*
X004660Y005117*
X004658Y005114*
X004656Y005111*
X004655Y005108*
X004653Y005105*
X004652Y005101*
X004651Y005098*
X004651Y005095*
X004650Y005091*
X004650Y005088*
X004650Y005084*
X004651Y005081*
X004651Y005077*
X004652Y005074*
X004653Y005071*
X004655Y005068*
X004656Y005065*
X004658Y005062*
X004660Y005059*
X004662Y005056*
X004664Y005054*
X004667Y005051*
X004669Y005049*
X004672Y005047*
X004675Y005045*
X004678Y005043*
X004681Y005042*
X004684Y005041*
X004688Y005040*
X004691Y005039*
X004694Y005039*
X004698Y005039*
X004701*
X004705Y005039*
X004708Y005039*
X004711Y005040*
X004715Y005041*
X004718Y005042*
X004721Y005043*
X004724Y005045*
X004727Y005047*
X004730Y005049*
X004732Y005051*
X004735Y005054*
X004737Y005056*
X004739Y005059*
X004741Y005062*
X004743Y005065*
X004744Y005068*
X004746Y005071*
X004747Y005074*
X004748Y005077*
X004748Y005081*
X004749Y005084*
X004749Y005088*
X001749Y004961D02*
D01*
X001749Y004965*
X001748Y004968*
X001748Y004972*
X001747Y004975*
X001746Y004978*
X001744Y004981*
X001743Y004984*
X001741Y004987*
X001739Y004990*
X001737Y004993*
X001735Y004995*
X001732Y004998*
X001730Y005000*
X001727Y005002*
X001724Y005004*
X001721Y005006*
X001718Y005007*
X001715Y005008*
X001711Y005009*
X001708Y005010*
X001705Y005010*
X001701Y005010*
X001698*
X001694Y005010*
X001691Y005010*
X001688Y005009*
X001684Y005008*
X001681Y005007*
X001678Y005006*
X001675Y005004*
X001672Y005002*
X001669Y005000*
X001667Y004998*
X001664Y004995*
X001662Y004993*
X001660Y004990*
X001658Y004987*
X001656Y004984*
X001655Y004981*
X001653Y004978*
X001652Y004975*
X001651Y004972*
X001651Y004968*
X001650Y004965*
X001650Y004961*
X001650Y004958*
X001651Y004954*
X001651Y004951*
X001652Y004948*
X001653Y004944*
X001655Y004941*
X001656Y004938*
X001658Y004935*
X001660Y004932*
X001662Y004930*
X001664Y004927*
X001667Y004925*
X001669Y004923*
X001672Y004921*
X001675Y004919*
X001678Y004917*
X001681Y004916*
X001684Y004915*
X001688Y004914*
X001691Y004913*
X001694Y004912*
X001698Y004912*
X001701*
X001705Y004912*
X001708Y004913*
X001711Y004914*
X001715Y004915*
X001718Y004916*
X001721Y004917*
X001724Y004919*
X001727Y004921*
X001730Y004923*
X001732Y004925*
X001735Y004927*
X001737Y004930*
X001739Y004932*
X001741Y004935*
X001743Y004938*
X001744Y004941*
X001746Y004944*
X001747Y004948*
X001748Y004951*
X001748Y004954*
X001749Y004958*
X001749Y004961*
X007227Y003837D02*
D01*
X007227Y003840*
X007226Y003843*
X007226Y003847*
X007225Y003850*
X007224Y003853*
X007222Y003857*
X007221Y003860*
X007219Y003863*
X007217Y003865*
X007215Y003868*
X007213Y003871*
X007210Y003873*
X007208Y003875*
X007205Y003877*
X007202Y003879*
X007199Y003881*
X007196Y003882*
X007193Y003883*
X007189Y003884*
X007186Y003885*
X007183Y003885*
X007179Y003886*
X007176*
X007172Y003885*
X007169Y003885*
X007166Y003884*
X007162Y003883*
X007159Y003882*
X007156Y003881*
X007153Y003879*
X007150Y003877*
X007147Y003875*
X007145Y003873*
X007142Y003871*
X007140Y003868*
X007138Y003865*
X007136Y003863*
X007134Y003860*
X007133Y003857*
X007131Y003853*
X007130Y003850*
X007129Y003847*
X007129Y003843*
X007128Y003840*
X007128Y003837*
X007128Y003833*
X007129Y003830*
X007129Y003826*
X007130Y003823*
X007131Y003820*
X007133Y003816*
X007134Y003813*
X007136Y003810*
X007138Y003808*
X007140Y003805*
X007142Y003802*
X007145Y003800*
X007147Y003798*
X007150Y003796*
X007153Y003794*
X007156Y003792*
X007159Y003791*
X007162Y003790*
X007166Y003789*
X007169Y003788*
X007172Y003788*
X007176Y003787*
X007179*
X007183Y003788*
X007186Y003788*
X007189Y003789*
X007193Y003790*
X007196Y003791*
X007199Y003792*
X007202Y003794*
X007205Y003796*
X007208Y003798*
X007210Y003800*
X007213Y003802*
X007215Y003805*
X007217Y003808*
X007219Y003810*
X007221Y003813*
X007222Y003816*
X007224Y003820*
X007225Y003823*
X007226Y003826*
X007226Y003830*
X007227Y003833*
X007227Y003837*
G54D11*
X011700Y006653D02*
D01*
X011700Y006636*
X011702Y006619*
X011705Y006601*
X011709Y006584*
X011715Y006568*
X011721Y006552*
X011729Y006536*
X011737Y006521*
X011747Y006506*
X011758Y006493*
X011770Y006480*
X011782Y006468*
X011796Y006456*
X011810Y006446*
X011825Y006437*
X011840Y006429*
X011856Y006422*
X011872Y006416*
X011889Y006411*
X011906Y006407*
X011923Y006405*
X011941Y006404*
X011958*
X011976Y006405*
X011993Y006407*
X012010Y006411*
X012027Y006416*
X012043Y006422*
X012059Y006429*
X012075Y006437*
X012089Y006446*
X012103Y006456*
X012117Y006468*
X012129Y006480*
X012141Y006493*
X012152Y006506*
X012162Y006521*
X012170Y006536*
X012178Y006552*
X012184Y006568*
X012190Y006584*
X012194Y006601*
X012197Y006619*
X012199Y006636*
X012200Y006653*
X003450Y005096D02*
D01*
X003449Y005113*
X003447Y005130*
X003444Y005148*
X003440Y005165*
X003434Y005181*
X003428Y005197*
X003420Y005213*
X003412Y005228*
X003402Y005243*
X003391Y005256*
X003379Y005269*
X003367Y005281*
X003353Y005293*
X003339Y005303*
X003325Y005312*
X003309Y005320*
X003293Y005327*
X003277Y005333*
X003260Y005338*
X003243Y005342*
X003226Y005344*
X003208Y005345*
X003191*
X003173Y005344*
X003156Y005342*
X003139Y005338*
X003122Y005333*
X003106Y005327*
X003090Y005320*
X003074Y005312*
X003060Y005303*
X003046Y005293*
X003032Y005281*
X003020Y005269*
X003008Y005256*
X002997Y005243*
X002987Y005228*
X002979Y005213*
X002971Y005197*
X002965Y005181*
X002959Y005165*
X002955Y005148*
X002952Y005130*
X002950Y005113*
X002950Y005096*
Y004953D02*
D01*
X002950Y004936*
X002952Y004919*
X002955Y004901*
X002959Y004884*
X002965Y004868*
X002971Y004852*
X002979Y004836*
X002987Y004821*
X002997Y004806*
X003008Y004793*
X003020Y004780*
X003032Y004768*
X003046Y004756*
X003060Y004746*
X003075Y004737*
X003090Y004729*
X003106Y004722*
X003122Y004716*
X003139Y004711*
X003156Y004707*
X003173Y004705*
X003191Y004704*
X003208*
X003226Y004705*
X003243Y004707*
X003260Y004711*
X003277Y004716*
X003293Y004722*
X003309Y004729*
X003325Y004737*
X003339Y004746*
X003353Y004756*
X003367Y004768*
X003379Y004780*
X003391Y004793*
X003402Y004806*
X003412Y004821*
X003420Y004836*
X003428Y004852*
X003434Y004868*
X003440Y004884*
X003444Y004901*
X003447Y004919*
X003449Y004936*
X003450Y004953*
X015690Y002284D02*
X016399D01*
X015690Y000315D02*
X016399D01*
X015690D02*
Y002284D01*
X016399Y000315D02*
Y002284D01*
X012730Y002642D02*
Y002957D01*
X010906Y004646D02*
Y006653D01*
X012993Y004646D02*
Y006653D01*
X010906D02*
X011700D01*
X012200D02*
X012993D01*
X010906Y004646D02*
X012993D01*
X004250Y000700D02*
Y002700D01*
X000250Y000700D02*
Y002700D01*
X004250*
X000250Y000700D02*
X004250D01*
X005442Y004019D02*
X005757D01*
X016847Y007507D02*
X017556D01*
X016847Y003492D02*
Y007507D01*
Y003492D02*
X017556D01*
X010988Y000844D02*
X012011D01*
X010988D02*
Y001218D01*
Y002655D02*
X012011D01*
X010988Y002281D02*
Y002655D01*
X016880Y012307D02*
X017589D01*
X016880Y008292D02*
Y012307D01*
Y008292D02*
X017589D01*
X021400Y000700D02*
Y002700D01*
X018400Y000700D02*
Y002700D01*
X021400*
X018400Y000700D02*
X021400D01*
X019483D02*
X021400D01*
X002156Y007103D02*
X004243D01*
X002156Y005096D02*
X002950D01*
X003450D02*
X004243D01*
X002156D02*
Y007103D01*
X004243Y005096D02*
Y007103D01*
X002156Y002946D02*
X004243D01*
X003450Y004953D02*
X004243D01*
X002156D02*
X002950D01*
X004243Y002946D02*
Y004953D01*
X002156Y002946D02*
Y004953D01*
X007689Y001100D02*
X008910D01*
X007689Y003699D02*
X008910D01*
Y001100D02*
Y003699D01*
X007689Y001100D02*
Y003699D01*
X014419Y009142D02*
Y009457D01*
X006750Y004900D02*
X009750D01*
X006750Y003900D02*
Y004900D01*
Y003900D02*
X009750D01*
Y004900*
X013592Y002319D02*
X013907D01*
X012794Y002398D02*
X013305D01*
X012950Y006900D02*
X013950D01*
X012950D02*
Y008900D01*
X013950*
Y006900D02*
Y008900D01*
X012769Y009042D02*
Y009357D01*
X012292Y008784D02*
X012607D01*
X011342Y004219D02*
X011657D01*
X010544Y004348D02*
X011055D01*
G54D12*
X011418Y006260D02*
D01*
X011418Y006268*
X011417Y006276*
X011415Y006284*
X011413Y006292*
X011411Y006300*
X011408Y006308*
X011404Y006315*
X011400Y006322*
X011395Y006329*
X011390Y006336*
X011385Y006342*
X011379Y006347*
X011373Y006353*
X011366Y006358*
X011359Y006362*
X011352Y006366*
X011344Y006369*
X011336Y006372*
X011328Y006374*
X011320Y006376*
X011312Y006377*
X011304Y006378*
X011296*
X011288Y006377*
X011279Y006376*
X011271Y006374*
X011263Y006372*
X011256Y006369*
X011248Y006366*
X011241Y006362*
X011234Y006358*
X011227Y006353*
X011221Y006347*
X011215Y006342*
X011209Y006336*
X011204Y006329*
X011200Y006322*
X011196Y006315*
X011192Y006308*
X011189Y006300*
X011186Y006292*
X011184Y006284*
X011183Y006276*
X011182Y006268*
X011182Y006260*
X011182Y006251*
X011183Y006243*
X011184Y006235*
X011186Y006227*
X011189Y006219*
X011192Y006212*
X011196Y006204*
X011200Y006197*
X011204Y006190*
X011209Y006184*
X011215Y006178*
X011221Y006172*
X011227Y006167*
X011234Y006162*
X011241Y006157*
X011248Y006154*
X011256Y006150*
X011263Y006147*
X011271Y006145*
X011279Y006143*
X011288Y006142*
X011296Y006142*
X011304*
X011312Y006142*
X011320Y006143*
X011328Y006145*
X011336Y006147*
X011344Y006150*
X011352Y006154*
X011359Y006157*
X011366Y006162*
X011373Y006167*
X011379Y006172*
X011385Y006178*
X011390Y006184*
X011395Y006190*
X011400Y006197*
X011404Y006204*
X011408Y006212*
X011411Y006219*
X011413Y006227*
X011415Y006235*
X011417Y006243*
X011418Y006251*
X011418Y006260*
X003967Y005489D02*
D01*
X003967Y005498*
X003966Y005506*
X003965Y005514*
X003963Y005522*
X003960Y005530*
X003957Y005537*
X003953Y005545*
X003949Y005552*
X003945Y005559*
X003940Y005565*
X003934Y005571*
X003928Y005577*
X003922Y005582*
X003915Y005587*
X003908Y005592*
X003901Y005595*
X003893Y005599*
X003886Y005602*
X003878Y005604*
X003870Y005606*
X003861Y005607*
X003853Y005607*
X003845*
X003837Y005607*
X003829Y005606*
X003821Y005604*
X003813Y005602*
X003805Y005599*
X003797Y005595*
X003790Y005592*
X003783Y005587*
X003776Y005582*
X003770Y005577*
X003764Y005571*
X003759Y005565*
X003754Y005559*
X003749Y005552*
X003745Y005545*
X003741Y005537*
X003738Y005530*
X003736Y005522*
X003734Y005514*
X003732Y005506*
X003731Y005498*
X003731Y005489*
X003731Y005481*
X003732Y005473*
X003734Y005465*
X003736Y005457*
X003738Y005449*
X003741Y005441*
X003745Y005434*
X003749Y005427*
X003754Y005420*
X003759Y005413*
X003764Y005407*
X003770Y005402*
X003776Y005396*
X003783Y005391*
X003790Y005387*
X003797Y005383*
X003805Y005380*
X003813Y005377*
X003821Y005375*
X003829Y005373*
X003837Y005372*
X003845Y005371*
X003853*
X003861Y005372*
X003870Y005373*
X003878Y005375*
X003886Y005377*
X003893Y005380*
X003901Y005383*
X003908Y005387*
X003915Y005391*
X003922Y005396*
X003928Y005402*
X003934Y005407*
X003940Y005413*
X003945Y005420*
X003949Y005427*
X003953Y005434*
X003957Y005441*
X003960Y005449*
X003963Y005457*
X003965Y005465*
X003966Y005473*
X003967Y005481*
X003967Y005489*
X002668Y004560D02*
D01*
X002668Y004568*
X002667Y004576*
X002665Y004584*
X002663Y004592*
X002661Y004600*
X002658Y004608*
X002654Y004615*
X002650Y004622*
X002645Y004629*
X002640Y004636*
X002635Y004642*
X002629Y004647*
X002623Y004653*
X002616Y004658*
X002609Y004662*
X002602Y004666*
X002594Y004669*
X002586Y004672*
X002578Y004674*
X002570Y004676*
X002562Y004677*
X002554Y004678*
X002546*
X002538Y004677*
X002529Y004676*
X002521Y004674*
X002513Y004672*
X002506Y004669*
X002498Y004666*
X002491Y004662*
X002484Y004658*
X002477Y004653*
X002471Y004647*
X002465Y004642*
X002459Y004636*
X002454Y004629*
X002450Y004622*
X002446Y004615*
X002442Y004608*
X002439Y004600*
X002436Y004592*
X002434Y004584*
X002433Y004576*
X002432Y004568*
X002432Y004560*
X002432Y004551*
X002433Y004543*
X002434Y004535*
X002436Y004527*
X002439Y004519*
X002442Y004512*
X002446Y004504*
X002450Y004497*
X002454Y004490*
X002459Y004484*
X002465Y004478*
X002471Y004472*
X002477Y004467*
X002484Y004462*
X002491Y004457*
X002498Y004454*
X002506Y004450*
X002513Y004447*
X002521Y004445*
X002529Y004443*
X002538Y004442*
X002546Y004442*
X002554*
X002562Y004442*
X002570Y004443*
X002578Y004445*
X002586Y004447*
X002594Y004450*
X002602Y004454*
X002609Y004457*
X002616Y004462*
X002623Y004467*
X002629Y004472*
X002635Y004478*
X002640Y004484*
X002645Y004490*
X002650Y004497*
X002654Y004504*
X002658Y004512*
X002661Y004519*
X002663Y004527*
X002665Y004535*
X002667Y004543*
X002668Y004551*
X002668Y004560*
X008201Y003305D02*
D01*
X008201Y003313*
X008200Y003321*
X008199Y003330*
X008197Y003338*
X008194Y003345*
X008191Y003353*
X008187Y003360*
X008183Y003368*
X008179Y003374*
X008173Y003381*
X008168Y003387*
X008162Y003393*
X008156Y003398*
X008149Y003403*
X008142Y003407*
X008135Y003411*
X008127Y003415*
X008119Y003417*
X008112Y003420*
X008104Y003421*
X008095Y003422*
X008087Y003423*
X008079*
X008071Y003422*
X008062Y003421*
X008054Y003420*
X008047Y003417*
X008039Y003415*
X008031Y003411*
X008024Y003407*
X008017Y003403*
X008010Y003398*
X008004Y003393*
X007998Y003387*
X007993Y003381*
X007987Y003374*
X007983Y003368*
X007979Y003360*
X007975Y003353*
X007972Y003345*
X007969Y003338*
X007967Y003330*
X007966Y003321*
X007965Y003313*
X007965Y003305*
X007965Y003297*
X007966Y003289*
X007967Y003280*
X007969Y003272*
X007972Y003265*
X007975Y003257*
X007979Y003250*
X007983Y003242*
X007987Y003236*
X007993Y003229*
X007998Y003223*
X008004Y003217*
X008010Y003212*
X008017Y003207*
X008024Y003203*
X008031Y003199*
X008039Y003195*
X008047Y003193*
X008054Y003190*
X008062Y003189*
X008071Y003188*
X008079Y003187*
X008087*
X008095Y003188*
X008104Y003189*
X008112Y003190*
X008119Y003193*
X008127Y003195*
X008135Y003199*
X008142Y003203*
X008149Y003207*
X008156Y003212*
X008162Y003217*
X008168Y003223*
X008173Y003229*
X008179Y003236*
X008183Y003242*
X008187Y003250*
X008191Y003257*
X008194Y003265*
X008197Y003272*
X008199Y003280*
X008200Y003289*
X008201Y003297*
X008201Y003305*
G54D13*
X007600Y006350D02*
Y008400D01*
X009850Y003225D02*
X010475D01*
X010600Y003100*
Y001400D02*
Y003100D01*
X010500Y001300D02*
X010600Y001400D01*
X009950Y001300D02*
X010500D01*
X009850Y001400D02*
X009950Y001300D01*
X009850Y001400D02*
Y005050D01*
X009800Y005100D02*
X009850Y005050D01*
X009450Y005100D02*
X009800D01*
X008350Y006200D02*
X009450Y005100D01*
X007750Y006200D02*
X008350D01*
X007600Y006350D02*
X007750Y006200D01*
X000550Y012450D02*
X008550D01*
Y009950D02*
Y012450D01*
X000550Y009950D02*
X008550D01*
X000550D02*
Y012450D01*
X013283Y010150D02*
Y010449D01*
X012766Y009750D02*
X013099D01*
X012658Y010900D02*
X013208Y010899D01*
G54D14*
X007800Y008071D02*
Y008271D01*
X007900Y008371*
X007999Y008271*
Y008071*
Y008221*
X007800*
X008099Y008321D02*
X008149Y008371D01*
X008249*
X008299Y008321*
Y008121*
X008249Y008071*
X008149*
X008099Y008121*
Y008321*
X007800Y007653D02*
Y007853D01*
X007900Y007953*
X007999Y007853*
Y007653*
Y007803*
X007800*
X008099Y007653D02*
X008199D01*
X008149*
Y007953*
X008099Y007903*
X007800Y007235D02*
Y007435D01*
X007900Y007535*
X007999Y007435*
Y007235*
Y007385*
X007800*
X008299Y007235D02*
X008099D01*
X008299Y007435*
Y007485*
X008249Y007535*
X008149*
X008099Y007485*
X007800Y006817D02*
Y007017D01*
X007900Y007117*
X007999Y007017*
Y006817*
Y006967*
X007800*
X008099Y007067D02*
X008149Y007117D01*
X008249*
X008299Y007067*
Y007017*
X008249Y006967*
X008199*
X008249*
X008299Y006917*
Y006867*
X008249Y006817*
X008149*
X008099Y006867*
X007800Y006400D02*
Y006599D01*
X007900Y006699*
X007999Y006599*
Y006400*
Y006550*
X007800*
X008249Y006400D02*
Y006699D01*
X008099Y006550*
X008299*
M02*