%FSDAX24Y24*%
%MOIN*%
%SFA1B1*%

%IPPOS*%
%ADD96C,0.003940*%
%LNde-180824-1*%
%LPD*%
G54D96*
X016674Y000670D02*
D01*
X016674Y000683*
X016672Y000697*
X016670Y000711*
X016667Y000724*
X016662Y000737*
X016657Y000750*
X016651Y000762*
X016644Y000774*
X016637Y000785*
X016628Y000796*
X016619Y000806*
X016609Y000816*
X016599Y000825*
X016588Y000833*
X016576Y000840*
X016564Y000847*
X016551Y000852*
X016538Y000857*
X016525Y000861*
X016512Y000864*
X016498Y000865*
X016484Y000866*
X016471*
X016457Y000865*
X016443Y000864*
X016430Y000861*
X016417Y000857*
X016404Y000852*
X016391Y000847*
X016379Y000840*
X016367Y000833*
X016356Y000825*
X016346Y000816*
X016336Y000806*
X016327Y000796*
X016318Y000785*
X016310Y000774*
X016304Y000762*
X016298Y000750*
X016292Y000737*
X016288Y000724*
X016285Y000711*
X016282Y000697*
X016281Y000683*
X016281Y000670*
X016281Y000656*
X016282Y000642*
X016285Y000629*
X016288Y000615*
X016292Y000602*
X016298Y000590*
X016304Y000577*
X016310Y000565*
X016318Y000554*
X016327Y000543*
X016336Y000533*
X016346Y000523*
X016356Y000514*
X016367Y000506*
X016379Y000499*
X016391Y000493*
X016404Y000487*
X016417Y000482*
X016430Y000479*
X016443Y000476*
X016457Y000474*
X016471Y000473*
X016484*
X016498Y000474*
X016512Y000476*
X016525Y000479*
X016538Y000482*
X016551Y000487*
X016564Y000493*
X016576Y000499*
X016588Y000506*
X016599Y000514*
X016609Y000523*
X016619Y000533*
X016628Y000543*
X016637Y000554*
X016644Y000565*
X016651Y000577*
X016657Y000590*
X016662Y000602*
X016667Y000615*
X016670Y000629*
X016672Y000642*
X016674Y000656*
X016674Y000670*
X011261Y006279D02*
D01*
X011260Y006293*
X011259Y006307*
X011256Y006320*
X011253Y006334*
X011249Y006347*
X011243Y006359*
X011237Y006372*
X011231Y006384*
X011223Y006395*
X011214Y006406*
X011205Y006416*
X011195Y006426*
X011185Y006435*
X011174Y006443*
X011162Y006450*
X011150Y006456*
X011137Y006462*
X011124Y006467*
X011111Y006470*
X011098Y006473*
X011084Y006475*
X011070Y006476*
X011057*
X011043Y006475*
X011029Y006473*
X011016Y006470*
X011003Y006467*
X010990Y006462*
X010977Y006456*
X010965Y006450*
X010953Y006443*
X010942Y006435*
X010932Y006426*
X010922Y006416*
X010913Y006406*
X010904Y006395*
X010897Y006384*
X010890Y006372*
X010884Y006359*
X010879Y006347*
X010874Y006334*
X010871Y006320*
X010869Y006307*
X010867Y006293*
X010867Y006279*
X010867Y006266*
X010869Y006252*
X010871Y006238*
X010874Y006225*
X010879Y006212*
X010884Y006199*
X010890Y006187*
X010897Y006175*
X010904Y006164*
X010913Y006153*
X010922Y006143*
X010932Y006133*
X010942Y006124*
X010953Y006116*
X010965Y006109*
X010977Y006102*
X010990Y006097*
X011003Y006092*
X011016Y006088*
X011029Y006085*
X011043Y006084*
X011057Y006083*
X011070*
X011084Y006084*
X011098Y006085*
X011111Y006088*
X011124Y006092*
X011137Y006097*
X011150Y006102*
X011162Y006109*
X011174Y006116*
X011185Y006124*
X011195Y006133*
X011205Y006143*
X011214Y006153*
X011223Y006164*
X011231Y006175*
X011237Y006187*
X011243Y006199*
X011249Y006212*
X011253Y006225*
X011256Y006238*
X011259Y006252*
X011260Y006266*
X011261Y006279*
X010629Y008229D02*
D01*
X010629Y008243*
X010627Y008257*
X010625Y008270*
X010622Y008284*
X010618Y008297*
X010612Y008309*
X010606Y008322*
X010599Y008334*
X010592Y008345*
X010583Y008356*
X010574Y008366*
X010564Y008376*
X010554Y008385*
X010543Y008393*
X010531Y008400*
X010519Y008406*
X010506Y008412*
X010493Y008417*
X010480Y008420*
X010467Y008423*
X010453Y008425*
X010439Y008426*
X010426*
X010412Y008425*
X010398Y008423*
X010385Y008420*
X010372Y008417*
X010359Y008412*
X010346Y008406*
X010334Y008400*
X010322Y008393*
X010311Y008385*
X010301Y008376*
X010291Y008366*
X010282Y008356*
X010273Y008345*
X010266Y008334*
X010259Y008322*
X010253Y008309*
X010247Y008297*
X010243Y008284*
X010240Y008270*
X010238Y008257*
X010236Y008243*
X010236Y008229*
X010236Y008216*
X010238Y008202*
X010240Y008188*
X010243Y008175*
X010247Y008162*
X010253Y008149*
X010259Y008137*
X010266Y008125*
X010273Y008114*
X010282Y008103*
X010291Y008093*
X010301Y008083*
X010311Y008074*
X010322Y008066*
X010334Y008059*
X010346Y008052*
X010359Y008047*
X010372Y008042*
X010385Y008038*
X010398Y008035*
X010412Y008034*
X010426Y008033*
X010439*
X010453Y008034*
X010467Y008035*
X010480Y008038*
X010493Y008042*
X010506Y008047*
X010519Y008052*
X010531Y008059*
X010543Y008066*
X010554Y008074*
X010564Y008083*
X010574Y008093*
X010583Y008103*
X010592Y008114*
X010599Y008125*
X010606Y008137*
X010612Y008149*
X010618Y008162*
X010622Y008175*
X010625Y008188*
X010627Y008202*
X010629Y008216*
X010629Y008229*
X004282Y005470D02*
D01*
X004282Y005483*
X004280Y005497*
X004278Y005511*
X004275Y005524*
X004270Y005537*
X004265Y005550*
X004259Y005562*
X004252Y005574*
X004245Y005585*
X004236Y005596*
X004227Y005606*
X004217Y005616*
X004207Y005625*
X004195Y005633*
X004184Y005640*
X004172Y005647*
X004159Y005652*
X004146Y005657*
X004133Y005661*
X004119Y005664*
X004106Y005665*
X004092Y005666*
X004078*
X004065Y005665*
X004051Y005664*
X004038Y005661*
X004024Y005657*
X004012Y005652*
X003999Y005647*
X003987Y005640*
X003975Y005633*
X003964Y005625*
X003954Y005616*
X003944Y005606*
X003934Y005596*
X003926Y005585*
X003918Y005574*
X003911Y005562*
X003905Y005550*
X003900Y005537*
X003896Y005524*
X003893Y005511*
X003890Y005497*
X003889Y005483*
X003888Y005470*
X003889Y005456*
X003890Y005442*
X003893Y005429*
X003896Y005415*
X003900Y005402*
X003905Y005390*
X003911Y005377*
X003918Y005365*
X003926Y005354*
X003934Y005343*
X003944Y005333*
X003954Y005323*
X003964Y005314*
X003975Y005306*
X003987Y005299*
X003999Y005293*
X004012Y005287*
X004024Y005282*
X004038Y005279*
X004051Y005276*
X004065Y005274*
X004078Y005273*
X004092*
X004106Y005274*
X004119Y005276*
X004133Y005279*
X004146Y005282*
X004159Y005287*
X004172Y005293*
X004184Y005299*
X004195Y005306*
X004207Y005314*
X004217Y005323*
X004227Y005333*
X004236Y005343*
X004245Y005354*
X004252Y005365*
X004259Y005377*
X004265Y005390*
X004270Y005402*
X004275Y005415*
X004278Y005429*
X004280Y005442*
X004282Y005456*
X004282Y005470*
X002511Y004579D02*
D01*
X002510Y004593*
X002509Y004607*
X002506Y004620*
X002503Y004634*
X002499Y004647*
X002493Y004659*
X002487Y004672*
X002481Y004684*
X002473Y004695*
X002464Y004706*
X002455Y004716*
X002445Y004726*
X002435Y004735*
X002424Y004743*
X002412Y004750*
X002400Y004756*
X002387Y004762*
X002374Y004767*
X002361Y004770*
X002348Y004773*
X002334Y004775*
X002320Y004776*
X002307*
X002293Y004775*
X002279Y004773*
X002266Y004770*
X002253Y004767*
X002240Y004762*
X002227Y004756*
X002215Y004750*
X002203Y004743*
X002192Y004735*
X002182Y004726*
X002172Y004716*
X002163Y004706*
X002154Y004695*
X002147Y004684*
X002140Y004672*
X002134Y004659*
X002129Y004647*
X002124Y004634*
X002121Y004620*
X002119Y004607*
X002117Y004593*
X002117Y004579*
X002117Y004566*
X002119Y004552*
X002121Y004538*
X002124Y004525*
X002129Y004512*
X002134Y004499*
X002140Y004487*
X002147Y004475*
X002154Y004464*
X002163Y004453*
X002172Y004443*
X002182Y004433*
X002192Y004424*
X002203Y004416*
X002215Y004409*
X002227Y004402*
X002240Y004397*
X002253Y004392*
X002266Y004388*
X002279Y004385*
X002293Y004384*
X002307Y004383*
X002320*
X002334Y004384*
X002348Y004385*
X002361Y004388*
X002374Y004392*
X002387Y004397*
X002400Y004402*
X002412Y004409*
X002424Y004416*
X002435Y004424*
X002445Y004433*
X002455Y004443*
X002464Y004453*
X002473Y004464*
X002481Y004475*
X002487Y004487*
X002493Y004499*
X002499Y004512*
X002503Y004525*
X002506Y004538*
X002509Y004552*
X002510Y004566*
X002511Y004579*
X007965Y003344D02*
D01*
X007964Y003358*
X007963Y003372*
X007961Y003385*
X007957Y003399*
X007953Y003412*
X007948Y003424*
X007942Y003437*
X007935Y003449*
X007927Y003460*
X007919Y003471*
X007910Y003481*
X007900Y003491*
X007889Y003500*
X007878Y003508*
X007866Y003515*
X007854Y003521*
X007842Y003527*
X007829Y003532*
X007816Y003535*
X007802Y003538*
X007789Y003540*
X007775Y003541*
X007761*
X007747Y003540*
X007734Y003538*
X007720Y003535*
X007707Y003532*
X007694Y003527*
X007682Y003521*
X007670Y003515*
X007658Y003508*
X007647Y003500*
X007636Y003491*
X007626Y003481*
X007617Y003471*
X007609Y003460*
X007601Y003449*
X007594Y003437*
X007588Y003424*
X007583Y003412*
X007579Y003399*
X007575Y003385*
X007573Y003372*
X007572Y003358*
X007571Y003344*
X007572Y003331*
X007573Y003317*
X007575Y003303*
X007579Y003290*
X007583Y003277*
X007588Y003264*
X007594Y003252*
X007601Y003240*
X007609Y003229*
X007617Y003218*
X007626Y003208*
X007636Y003198*
X007647Y003189*
X007658Y003181*
X007670Y003174*
X007682Y003167*
X007694Y003162*
X007707Y003157*
X007720Y003153*
X007734Y003150*
X007747Y003149*
X007761Y003148*
X007775*
X007789Y003149*
X007802Y003150*
X007816Y003153*
X007829Y003157*
X007842Y003162*
X007854Y003167*
X007866Y003174*
X007878Y003181*
X007889Y003189*
X007900Y003198*
X007910Y003208*
X007919Y003218*
X007927Y003229*
X007935Y003240*
X007942Y003252*
X007948Y003264*
X007953Y003277*
X007957Y003290*
X007961Y003303*
X007963Y003317*
X007964Y003331*
X007965Y003344*
X015257Y002284D02*
X016832D01*
X015257Y000315D02*
X016832D01*
X015257D02*
Y002284D01*
X016832Y000315D02*
Y002284D01*
X010709Y004665D02*
Y006634D01*
X013190Y004665D02*
Y006634D01*
X010709D02*
X013190D01*
X010709Y004665D02*
X013190D01*
X010787Y006615D02*
Y008584D01*
X009212Y006615D02*
Y008584D01*
X010787*
X009212Y006615D02*
X010787D01*
X012153Y003265D02*
Y003934D01*
X012646*
Y003265D02*
Y003934D01*
X012153Y003265D02*
X012646D01*
X016847Y003492D02*
Y007507D01*
X020568Y003492D02*
Y007507D01*
X016847D02*
X020568D01*
X016847Y003492D02*
X020568D01*
X006925Y002751D02*
Y003948D01*
X006374Y002751D02*
Y003948D01*
X006925*
X006374Y002751D02*
X006925D01*
X012011Y000844D02*
Y002655D01*
X010988Y000844D02*
Y002655D01*
Y000844D02*
X012011D01*
X010988Y002655D02*
X012011D01*
X016880Y008292D02*
Y012307D01*
X020600Y008292D02*
Y012307D01*
X016880D02*
X020600D01*
X016880Y008292D02*
X020600D01*
X001959Y007084D02*
X004440D01*
X001959Y005115D02*
X004440D01*
X001959D02*
Y007084D01*
X004440Y005115D02*
Y007084D01*
X001959Y002965D02*
X004440D01*
X001959Y004934D02*
X004440D01*
Y002965D02*
Y004934D01*
X001959Y002965D02*
Y004934D01*
X007414Y001100D02*
X009185D01*
X007414Y003699D02*
X009185D01*
Y001100D02*
Y003699D01*
X007414Y001100D02*
Y003699D01*
M02*