%FSDAX24Y24*%
%MOIN*%
%SFA1B1*%

%IPPOS*%
%AMD27*
4,1,8,0.063000,-0.018700,0.063000,0.018700,0.044300,0.037400,-0.044300,0.037400,-0.063000,0.018700,-0.063000,-0.018700,-0.044300,-0.037400,0.044300,-0.037400,0.063000,-0.018700,0.0*
%
%ADD13C,0.010000*%
%ADD18R,0.039370X0.043310*%
%ADD19R,0.330710X0.397640*%
%ADD20R,0.151580X0.037400*%
%ADD21R,0.043310X0.039370*%
%ADD22R,0.039370X0.023620*%
%ADD23O,0.070870X0.013780*%
%ADD24O,0.086610X0.023620*%
%ADD25R,0.055120X0.023620*%
%ADD26R,0.070870X0.023620*%
G04~CAMADD=27~4~0.0~0.0~748.0~1259.8~0.0~187.0~0~0.0~0.0~0.0~0.0~0~0.0~0.0~0.0~0.0~0~0.0~0.0~0.0~270.0~1260.0~748.0*
%ADD27D27*%
%ADD28R,0.059060X0.051180*%
%ADD53C,0.030000*%
%ADD54C,0.020000*%
%ADD55C,0.050000*%
%ADD56R,0.035000X0.015310*%
%ADD57R,0.024960X0.015310*%
%ADD58R,0.038900X0.015310*%
%ADD59R,0.140000X0.170000*%
%ADD60R,0.140000X0.070000*%
%ADD61R,0.145000X0.085000*%
%ADD62R,0.150000X0.115000*%
%ADD63R,0.255000X0.070000*%
%ADD64R,0.059060X0.059060*%
%ADD65C,0.059060*%
%ADD66C,0.078740*%
%ADD67R,0.059060X0.059060*%
%ADD68C,0.030000*%
%ADD69C,0.050000*%
%LNpcb_dimmerbard-1*%
%LPD*%
G54D13*
X005400Y003065D02*
X006000D01*
X005600Y002034D02*
X005607Y002042D01*
X005515Y001950D02*
X005600Y002034D01*
X005065Y003065D02*
X005400D01*
X012800Y003600D02*
Y004100D01*
X012062Y004837D02*
X012800Y004100D01*
X011600Y005700D02*
X013250Y004050D01*
Y003600D02*
Y004050D01*
X010500Y010300D02*
X012500D01*
X007882Y009900D02*
X010100D01*
X010500Y010300*
X006966Y008984D02*
X007882Y009900D01*
X006900Y007600D02*
X008450Y009150D01*
X006700Y007600D02*
X008385Y009285D01*
X010700Y010150D02*
X011600D01*
X008385Y009285D02*
X009835D01*
X011765Y008465D02*
Y009481D01*
X009835Y009285D02*
X010700Y010150D01*
X008450Y009150D02*
X009900D01*
X010650Y009900D02*
X011347D01*
X009900Y009150D02*
X010650Y009900D01*
X012500Y010300D02*
X012850D01*
X013203Y009446D02*
X013268D01*
X012950Y009700D02*
X013203Y009446D01*
X013268D02*
X013415Y009300D01*
X012950Y009700D02*
Y010200D01*
X012850Y010300D02*
X012950Y010200D01*
X009422Y002016D02*
X009983D01*
X010000Y002000*
X009422Y001504D02*
X009423Y001503D01*
X010001*
X009422Y001760D02*
X009989D01*
X010000Y001750*
X009422Y002783D02*
X010033D01*
X010050Y002800*
X009422Y003039D02*
X010039D01*
X010050Y003050*
X010280Y002623D02*
Y003003D01*
X010210Y002528D02*
X010321Y002638D01*
Y003019D02*
X010347Y003045D01*
X010321Y002638D02*
Y003019D01*
X010347Y003045D02*
X010619D01*
X010800Y003226*
X009422Y002528D02*
X010210D01*
X008791D02*
X009422D01*
X001234Y004384D02*
X001300Y004450D01*
X001700*
X000900Y004384D02*
X001234D01*
X000900D02*
X000965Y004450D01*
X000900Y005715D02*
X001184D01*
X001300Y005600D02*
X001700D01*
X001184Y005715D02*
X001300Y005600D01*
X009903Y008353D02*
X009926Y008376D01*
Y008526*
X010100Y008700*
X010450D02*
X010600Y008550D01*
X010100Y008700D02*
X010450D01*
X010600Y006900D02*
Y008550D01*
X010950Y005598D02*
Y006550D01*
X010600Y006900D02*
X010950Y006550D01*
Y005598D02*
X011200Y005348D01*
Y005050D02*
Y005348D01*
X011261Y005711D02*
X011272Y005700D01*
X011600*
X015600Y000300D02*
X015850Y000550D01*
X005600Y000700D02*
X006000Y000300D01*
X015600*
X005600Y000700D02*
Y001365D01*
X015850Y000550D02*
Y000850D01*
X015100Y001050D02*
X015650D01*
X015850Y000850*
X014550Y000550D02*
X015100D01*
X014400Y000700D02*
X014550Y000550D01*
X014400Y000700D02*
Y001050D01*
X014550Y001550D02*
X015100D01*
X014400Y001700D02*
X014550Y001550D01*
X014400Y001700D02*
Y002400D01*
X014050Y002750D02*
X014400Y002400D01*
X013747Y002750D02*
X014050D01*
X015682Y006782D02*
X016500Y007600D01*
Y010200*
X015632Y011067D02*
X016500Y010200D01*
X009422Y002272D02*
X010678D01*
X009214D02*
X009422D01*
X012966Y001159D02*
X013060Y001065D01*
X006700Y006400D02*
Y007600D01*
X006900Y006700D02*
Y007600D01*
X007250Y006900D02*
Y007200D01*
X006900Y006700D02*
X007800Y005800D01*
X011347Y009900D02*
X011765Y009481D01*
X006500Y003689D02*
X006639Y003550D01*
X006452Y003848D02*
X006500Y003800D01*
X006639Y003550D02*
X007176D01*
X006500Y003689D02*
Y003800D01*
X007176Y003550D02*
X007178Y003551D01*
X007076Y003950D02*
X007650D01*
X005450Y005385D02*
Y006200D01*
X005650Y005376D02*
Y006800D01*
X005450Y005385D02*
X007035Y003800D01*
X005650Y005376D02*
X007076Y003950D01*
X007035Y003800D02*
X007550D01*
X007178Y001248D02*
X008148D01*
X008316Y001416D02*
X008333D01*
X008148Y001248D02*
X008316Y001416D01*
X004750Y002225D02*
X005025Y001950D01*
X005515*
X004750Y002225D02*
Y002750D01*
X007954Y001504D02*
X008250Y001800D01*
X007178Y001504D02*
X007954D01*
X008250Y001800D02*
Y002947D01*
X008100Y001865D02*
Y002906D01*
X007995Y001760D02*
X008100Y001865D01*
X007178Y001760D02*
X007995D01*
X008789Y002526D02*
X008791Y002528D01*
X008602Y005123D02*
Y005168D01*
X008282Y005487D02*
X008602Y005168D01*
X007178Y002783D02*
X007798D01*
X007799Y002783*
X008400Y001800D02*
Y002988D01*
X007900Y003297D02*
Y003700D01*
X007750Y003256D02*
Y003600D01*
Y003256D02*
X008100Y002906D01*
X008050Y003338D02*
X008400Y002988D01*
X008050Y003338D02*
Y003850D01*
X007178Y002783D02*
X007178Y002783D01*
X007900Y003297D02*
X008250Y002947D01*
X008400Y001800D02*
X008951Y001248D01*
X007178Y002016D02*
X007716D01*
X007800Y002100*
X007745D02*
X007800D01*
X011824Y009926D02*
X012500D01*
X011600Y010150D02*
X011824Y009926D01*
X007250Y006900D02*
X009250Y004900D01*
X006888Y005661D02*
Y005761D01*
X006850Y005800D02*
X006888Y005761D01*
Y005661D02*
X007062Y005487D01*
X006700Y006400D02*
X007287Y005812D01*
X007062Y005487D02*
X008282D01*
X009250Y004900D02*
X009600D01*
X011130Y004314D02*
X011145Y004300D01*
X011750*
X010185Y004314D02*
X011130D01*
X009600Y004900D02*
X010185Y004314D01*
X011750Y004300D02*
X012248Y003802D01*
Y002340D02*
Y003802D01*
X012037Y004837D02*
X012062D01*
X009600Y005650D02*
X009750Y005800D01*
X010300Y007100D02*
Y008350D01*
X009950Y006750D02*
X010300Y007100D01*
X009750Y005800D02*
Y007800D01*
X009950Y005650D02*
Y006750D01*
Y005650D02*
X010450Y005150D01*
X008276Y004824D02*
X008476D01*
X008100Y005000D02*
Y005150D01*
Y005000D02*
X008276Y004824D01*
X008476D02*
X008750Y004550D01*
X007950Y005300D02*
X008100Y005150D01*
X007250D02*
X007400Y005300D01*
X007950*
X007750Y004150D02*
Y005000D01*
X008750Y003600D02*
Y004550D01*
X007750Y004150D02*
X008050Y003850D01*
X013366Y009925D02*
X014099D01*
X014150Y009976*
X005300Y007150D02*
X005650Y006800D01*
X005126Y006523D02*
X005450Y006200D01*
X004700Y004450D02*
X005050D01*
X005250Y004650D02*
Y005900D01*
X005050Y004450D02*
X005250Y004650D01*
X004300Y007150D02*
X005300D01*
X004150Y007000D02*
X004300Y007150D01*
X004150Y006250D02*
Y007000D01*
Y006250D02*
X004300Y006100D01*
X005050D02*
X005250Y005900D01*
X004300Y006100D02*
X005050D01*
X010678Y002272D02*
X010700Y002250D01*
X007250Y004400D02*
Y005150D01*
X008750Y003600D02*
X009054Y003295D01*
X009421*
X009422Y003295*
X008951Y001248D02*
X009422D01*
X007650Y003950D02*
X007900Y003700D01*
X007550Y003800D02*
X007750Y003600D01*
X004750Y002750D02*
X005065Y003065D01*
X006522Y002528D02*
X007178D01*
X006500Y002550D02*
X006522Y002528D01*
X013050Y001276D02*
X013710D01*
X013750Y001315*
X014134*
X014400Y001050*
X004776Y006523D02*
X005126D01*
X004700Y006600D02*
X004776Y006523D01*
X005607Y002042D02*
X005842D01*
X006072Y002272D02*
X007178D01*
X005842Y002042D02*
X006072Y002272D01*
X009307Y003569D02*
X009325Y003551D01*
X009250Y003723D02*
X009307Y003665D01*
Y003569D02*
Y003665D01*
X009325Y003551D02*
X009422D01*
X009250Y003723D02*
Y004400D01*
X012248Y001159D02*
X012966D01*
X015682Y006637D02*
Y006782D01*
X015450Y006500D02*
X015545D01*
X015682Y006637*
X015632Y011067D02*
Y011163D01*
X015482Y011300D02*
X015495D01*
X015632Y011163*
X014395Y010929D02*
Y010969D01*
X014150Y010724D02*
X014189D01*
X015436Y011253D02*
X015482Y011300D01*
X014679Y011253D02*
X015436D01*
X014395Y010969D02*
X014679Y011253D01*
X014189Y010724D02*
X014395Y010929D01*
X013366Y010674D02*
X014100D01*
X014150Y010724*
X011750Y008450D02*
X011765Y008465D01*
X011750Y007780D02*
X012450D01*
Y007165D02*
Y007780D01*
X012434Y007150D02*
X012450Y007165D01*
X012601Y007316D02*
X012684Y007400D01*
X013450*
X012601Y007296D02*
Y007316D01*
X012454Y007150D02*
X012601Y007296D01*
X001606Y005693D02*
X001700Y005600D01*
G54D18*
X006000Y003734D03*
Y003065D03*
X005400D03*
Y003734D03*
X005600Y001365D03*
Y002034D03*
X000900Y005715D03*
Y006384D03*
Y004384D03*
Y003715D03*
X013750Y001315D03*
Y001984D03*
X011750Y007780D03*
Y008450D03*
X012450Y007780D03*
Y008450D03*
X011500Y003215D03*
Y003884D03*
G54D19*
X019367Y005500D03*
X019400Y010300D03*
G54D20*
X015450Y004500D03*
Y006500D03*
X015482Y011300D03*
Y009300D03*
G54D21*
X013415Y009300D03*
X013734Y002800D03*
X013065D03*
X014084Y009300D03*
X011765Y007150D03*
X012434D03*
X011765Y009200D03*
X012434D03*
G54D22*
X012500Y010300D03*
X013366Y010674D03*
Y009925D03*
X012500Y010673D03*
Y009926D03*
G54D23*
X009422Y002016D03*
Y001504D03*
Y001760D03*
Y002783D03*
Y003039D03*
Y001248D03*
Y002272D03*
Y002528D03*
Y003295D03*
Y003551D03*
X007178Y001248D03*
Y001504D03*
Y001760D03*
Y002016D03*
Y002272D03*
Y002528D03*
Y002783D03*
Y003039D03*
Y003295D03*
Y003551D03*
G54D24*
X015100Y002050D03*
Y001550D03*
Y001050D03*
Y000550D03*
X016989Y002050D03*
Y001550D03*
Y001050D03*
Y000550D03*
G54D25*
X012248Y001159D03*
Y002340D03*
G54D26*
X012169Y001750D03*
G54D27*
X011185Y001750D03*
G54D28*
X014150Y010724D03*
Y009976D03*
X013050Y001276D03*
Y002024D03*
X010800Y003226D03*
Y003974D03*
G54D53*
X005400Y003684D02*
X005600D01*
X006200D02*
X006353D01*
X011171Y001636D02*
X011235Y001700D01*
X006350Y001150D02*
X006750Y000750D01*
X010185*
X010585Y001150*
X010600*
Y001165*
X011185Y001750*
X010800Y003226D02*
X011489D01*
X014300Y008750D02*
X015050D01*
X013800D02*
X014300D01*
Y005600D02*
Y008750D01*
X014750Y005150D02*
X014900D01*
X014300Y005600D02*
X014750Y005150D01*
X014900D02*
X015050Y005000D01*
X006452Y003782D02*
Y003848D01*
X005600Y003684D02*
X006200D01*
X004943D02*
X005400D01*
X006452Y003848D02*
Y003959D01*
X010800Y009600D02*
X011250Y009150D01*
X006353Y003684D02*
X006452Y003782D01*
X004742Y000892D02*
X005150Y001300D01*
Y001650*
Y002550D02*
X006500D01*
X011250Y007250D02*
X011350Y007150D01*
X011250Y007250D02*
Y009150D01*
X011350Y007150D02*
X011765D01*
X013450Y008400D02*
X013800Y008750D01*
X014423Y009300D02*
X014521Y009201D01*
Y008998D02*
X014619Y008900D01*
X014900*
X014521Y008998D02*
Y009201D01*
X014103Y009300D02*
X014423D01*
X014084D02*
X014103D01*
X014900Y008900D02*
X015050Y008750D01*
X014150Y009346D02*
Y009976D01*
X014103Y009300D02*
X014150Y009346D01*
X012434Y009200D02*
X012450Y009184D01*
Y008450D02*
Y009184D01*
Y008446D02*
Y008450D01*
X012496Y008400D02*
X013450D01*
X012450Y008446D02*
X012496Y008400D01*
X004708Y003450D02*
X004943Y003684D01*
X004700Y003450D02*
X004708D01*
X012450Y006200D02*
X013400D01*
X013450Y006150*
X011783Y006866D02*
Y007131D01*
X011765Y007150D02*
X011783Y007131D01*
Y006866D02*
X012450Y006200D01*
X000450Y006350D02*
Y010850D01*
Y003875D02*
Y006350D01*
X000484Y006384D02*
X000900D01*
X000450Y006350D02*
X000484Y006384D01*
X000853Y003715D02*
Y003777D01*
X000450Y003875D02*
X000548Y003777D01*
X000853*
X000450Y010850D02*
X001550Y011950D01*
X000800Y003200D02*
Y003715D01*
Y003200D02*
X001150Y002850D01*
X003250D02*
X003627Y002472D01*
X001150Y002850D02*
X003250D01*
X003627Y002450D02*
Y002472D01*
X003750Y002250D02*
Y002328D01*
X003627Y002450D02*
X003750Y002328D01*
Y001250D02*
Y002250D01*
G54D54*
X008350Y009600D02*
X009700D01*
X015150Y002050D02*
Y005000D01*
X006050Y007300D02*
X008350Y009600D01*
X011950Y002850D02*
Y003434D01*
X011596Y003768D02*
X011616D01*
X011950Y003434*
X012169Y001750D02*
X012187Y001768D01*
X012576*
X012688Y001879D02*
X012905D01*
X012576Y001768D02*
X012688Y001879D01*
X012905D02*
X013050Y002024D01*
X013065Y002039D02*
Y002800D01*
X013050Y002024D02*
X013065Y002039D01*
X006050Y006150D02*
Y007300D01*
X011600Y002500D02*
X011650D01*
X011750Y002600D02*
Y002650D01*
X011950Y002850*
X011500Y003865D02*
Y003884D01*
X011650Y002500D02*
X011750Y002600D01*
X011500Y003865D02*
X011596Y003768D01*
X010800Y003974D02*
X010889Y003884D01*
X011500*
X013050Y002024D02*
X013710D01*
X013750Y001984*
G54D55*
X004550Y010750D02*
X004950Y010350D01*
X007750*
X008250*
X004550Y010750D02*
Y011950D01*
X013779Y012244D02*
X013784Y012249D01*
X013779Y011749D02*
Y012244D01*
X008977Y011077D02*
X013107D01*
X008250Y010350D02*
X008977Y011077D01*
X013107D02*
X013779Y011749D01*
X018900Y001200D02*
Y002200D01*
X019900Y001200D02*
Y002200D01*
X019750Y005050D02*
Y005950D01*
Y006850*
Y004150D02*
Y005050D01*
Y004150D02*
X019900Y004000D01*
Y002200D02*
Y004000D01*
G54D56*
X010079Y002016D03*
X010073Y001504D03*
X010077Y001756D03*
X010510Y001502D03*
X010514Y001755D03*
X010516Y002013D03*
G54D57*
X010023Y002786D03*
X010025Y003044D03*
G54D58*
X010425Y003045D03*
G54D59*
X011150Y001850D03*
G54D60*
X015450Y004950D03*
G54D61*
X015475Y008875D03*
G54D62*
X017500Y002025D03*
G54D63*
X017925Y000800D03*
G54D64*
X010450Y006150D03*
X000750Y001200D03*
X018900D03*
X004700Y005600D03*
X001700Y004450D03*
X009250Y004400D03*
G54D65*
X010450Y005150D03*
X013450Y006150D03*
Y005150D03*
X000750Y002200D03*
X001750Y001200D03*
Y002200D03*
X002750Y001200D03*
Y002200D03*
X003750Y001200D03*
Y002200D03*
X018900D03*
X019900Y001200D03*
Y002200D03*
X020900Y001200D03*
Y002200D03*
X001700Y006600D03*
Y005600D03*
X004700Y006600D03*
Y003450D03*
Y004450D03*
X001700Y003450D03*
X008250Y004400D03*
X007250D03*
X013450Y007400D03*
G54D66*
X001550Y011950D03*
X002550D03*
X004550D03*
X006550D03*
G54D67*
X013450Y008400D03*
G54D68*
X012800Y003600D03*
X013250D03*
X009700Y009600D03*
X006966Y008984D03*
X007750Y010350D03*
X013784Y012249D03*
X008250Y010350D03*
X006350Y001150D03*
X009903Y008353D03*
X011200Y005050D03*
X011261Y005711D03*
X013779Y011749D03*
X006050Y006150D03*
X007250Y007200D03*
X010800Y009600D03*
X006452Y003959D03*
X008333Y001416D03*
X005150Y001650D03*
Y002550D03*
X004742Y000892D03*
X008789Y002526D03*
X008602Y005123D03*
X007799Y002783D03*
X007800Y002100D03*
X007325Y005800D03*
X007800D03*
X006850D03*
X012037Y004837D03*
X009600Y005650D03*
X010300Y008350D03*
X007750Y005000D03*
X009750Y007800D03*
G54D69*
X018000Y002350D03*
Y001750D03*
X015850Y005000D03*
X015050D03*
Y008750D03*
X015850D03*
X020600Y006850D03*
Y005950D03*
Y005050D03*
Y004150D03*
X019750D03*
Y005050D03*
Y005950D03*
Y006850D03*
X018750Y011700D03*
Y010800D03*
Y009900D03*
Y009000D03*
X019600Y011700D03*
Y010800D03*
Y009900D03*
Y009000D03*
X020450D03*
Y009900D03*
Y010800D03*
Y011700D03*
M02*