%FSDAX24Y24*%
%MOIN*%
%SFA1B1*%

%IPPOS*%
%AMD45*
4,1,8,0.067000,-0.020700,0.067000,0.020700,0.046300,0.041400,-0.046300,0.041400,-0.067000,0.020700,-0.067000,-0.020700,-0.046300,-0.041400,0.046300,-0.041400,0.067000,-0.020700,0.0*
%
%ADD29R,0.019510X0.022040*%
%ADD30R,0.019390X0.021750*%
%ADD31R,0.028420X0.021750*%
%ADD32R,0.023680X0.021750*%
%ADD33R,0.039340X0.021870*%
%ADD34R,0.039150X0.021870*%
%ADD35R,0.039270X0.021870*%
%ADD36R,0.047370X0.051310*%
%ADD37R,0.338710X0.405640*%
%ADD38R,0.159580X0.045400*%
%ADD39R,0.051310X0.047370*%
%ADD40R,0.043310X0.027560*%
%ADD41O,0.078870X0.021780*%
%ADD42O,0.094610X0.031620*%
%ADD43R,0.063120X0.031620*%
%ADD44R,0.078870X0.031620*%
G04~CAMADD=45~4~0.0~0.0~828.0~1339.8~0.0~207.0~0~0.0~0.0~0.0~0.0~0~0.0~0.0~0.0~0.0~0~0.0~0.0~0.0~270.0~1340.0~828.0*
%ADD45D45*%
%ADD46R,0.067060X0.059180*%
%ADD47R,0.067060X0.067060*%
%ADD48C,0.067060*%
%ADD49C,0.086740*%
%ADD50R,0.067060X0.067060*%
%ADD51C,0.038000*%
%ADD52C,0.058000*%
%LNpcb_dimmerbard-1*%
%LPD*%
G54D29*
X010299Y002784D03*
G54D30*
X010299Y003038D03*
G54D31*
X010028Y003038D03*
X010026Y002783D03*
G54D32*
X010427Y002013D03*
X010428Y001756D03*
Y001500D03*
G54D33*
X010082Y002015D03*
G54D34*
X010082Y001760D03*
G54D35*
X010081Y001501D03*
G54D36*
X006000Y003734D03*
Y003065D03*
X005400D03*
Y003734D03*
X005600Y001365D03*
Y002034D03*
X000900Y005715D03*
Y006384D03*
Y004384D03*
Y003715D03*
X013750Y001315D03*
Y001984D03*
X011750Y007780D03*
Y008450D03*
X012450Y007780D03*
Y008450D03*
X011500Y003215D03*
Y003884D03*
G54D37*
X019367Y005500D03*
X019400Y010300D03*
G54D38*
X015450Y004500D03*
Y006500D03*
X015482Y011300D03*
Y009300D03*
G54D39*
X013415Y009300D03*
X013734Y002800D03*
X013065D03*
X014084Y009300D03*
X011765Y007150D03*
X012434D03*
X011765Y009200D03*
X012434D03*
G54D40*
X012500Y010300D03*
X013366Y010674D03*
Y009925D03*
X012500Y010673D03*
Y009926D03*
G54D41*
X009422Y002016D03*
Y001504D03*
Y001760D03*
Y002783D03*
Y003039D03*
Y001248D03*
Y002272D03*
Y002528D03*
Y003295D03*
Y003551D03*
X007178Y001248D03*
Y001504D03*
Y001760D03*
Y002016D03*
Y002272D03*
Y002528D03*
Y002783D03*
Y003039D03*
Y003295D03*
Y003551D03*
G54D42*
X015100Y002050D03*
Y001550D03*
Y001050D03*
Y000550D03*
X016989Y002050D03*
Y001550D03*
Y001050D03*
Y000550D03*
G54D43*
X012248Y001159D03*
Y002340D03*
G54D44*
X012169Y001750D03*
G54D45*
X011185Y001750D03*
G54D46*
X014150Y010724D03*
Y009976D03*
X013050Y001276D03*
Y002024D03*
X010800Y003226D03*
Y003974D03*
G54D47*
X010450Y006150D03*
X000750Y001200D03*
X018900D03*
X004700Y005600D03*
X001700Y004450D03*
X009250Y004400D03*
G54D48*
X010450Y005150D03*
X013450Y006150D03*
Y005150D03*
X000750Y002200D03*
X001750Y001200D03*
Y002200D03*
X002750Y001200D03*
Y002200D03*
X003750Y001200D03*
Y002200D03*
X018900D03*
X019900Y001200D03*
Y002200D03*
X020900Y001200D03*
Y002200D03*
X001700Y006600D03*
Y005600D03*
X004700Y006600D03*
Y003450D03*
Y004450D03*
X001700Y003450D03*
X008250Y004400D03*
X007250D03*
X013450Y007400D03*
G54D49*
X001550Y011950D03*
X002550D03*
X004550D03*
X006550D03*
G54D50*
X013450Y008400D03*
G54D51*
X012800Y003600D03*
X013250D03*
X009700Y009600D03*
X006966Y008984D03*
X007750Y010350D03*
X013784Y012249D03*
X008250Y010350D03*
X006350Y001150D03*
X009903Y008353D03*
X011200Y005050D03*
X011261Y005711D03*
X013779Y011749D03*
X006050Y006150D03*
X007250Y007200D03*
X010800Y009600D03*
X006452Y003959D03*
X008333Y001416D03*
X005150Y001650D03*
Y002550D03*
X004742Y000892D03*
X008789Y002526D03*
X008602Y005123D03*
X007799Y002783D03*
X007800Y002100D03*
X007325Y005800D03*
X007800D03*
X006850D03*
X012037Y004837D03*
X009600Y005650D03*
X010300Y008350D03*
X007750Y005000D03*
X009750Y007800D03*
G54D52*
X018000Y002350D03*
Y001750D03*
X015850Y005000D03*
X015050D03*
Y008750D03*
X015850D03*
X020600Y006850D03*
Y005950D03*
Y005050D03*
Y004150D03*
X019750D03*
Y005050D03*
Y005950D03*
Y006850D03*
X018750Y011700D03*
Y010800D03*
Y009900D03*
Y009000D03*
X019600Y011700D03*
Y010800D03*
Y009900D03*
Y009000D03*
X020450D03*
Y009900D03*
Y010800D03*
Y011700D03*
M02*