%FSDAX24Y24*%
%MOIN*%
%SFA1B1*%

%IPPOS*%
%ADD13C,0.010000*%
%ADD14C,0.005000*%
%ADD95C,0.003940*%
%ADD96C,0.001970*%
%ADD97C,0.002000*%
%LNpcb_dimmerbard-1*%
%LPD*%
G54D95*
X017851Y005303D02*
Y005696D01*
X017654Y005500D02*
X018048D01*
X016044Y001103D02*
Y001496D01*
X015848Y001300D02*
X016241D01*
X014568Y002382D02*
X017521D01*
X014568Y000217D02*
X017521D01*
X014568D02*
Y002382D01*
X017521Y000217D02*
Y002382D01*
X011753Y005650D02*
X012146D01*
X011950Y005453D02*
Y005846D01*
X009803Y007600D02*
X010196D01*
X010000Y007403D02*
Y007796D01*
X012400Y003403D02*
Y003796D01*
X012203Y003600D02*
X012596D01*
X006453Y003350D02*
X006846D01*
X006650Y003153D02*
Y003546D01*
X011303Y001750D02*
X011696D01*
X011500Y001553D02*
Y001946D01*
X017687Y010300D02*
X018081D01*
X017884Y010103D02*
Y010496D01*
X003200Y005903D02*
Y006296D01*
X003003Y006100D02*
X003396D01*
X003200Y003753D02*
Y004146D01*
X003003Y003950D02*
X003396D01*
X008300Y002203D02*
Y002596D01*
X008103Y002400D02*
X008496D01*
G54D96*
X014603Y003393D02*
X021099D01*
X014603Y007606D02*
X021099D01*
Y003393D02*
Y007606D01*
X014603Y003393D02*
Y007606D01*
X011476Y006517D02*
Y008682D01*
X008523Y006517D02*
Y008682D01*
X011476*
X008523Y006517D02*
X011476D01*
X012094Y002997D02*
Y004202D01*
X012705*
Y002997D02*
Y004202D01*
X012094Y002997D02*
X012705D01*
X007417Y002661D02*
Y004039D01*
X005882Y002661D02*
Y004039D01*
X007417*
X005882Y002661D02*
X007417D01*
X012622Y000746D02*
Y002753D01*
X010456Y000746D02*
Y002753D01*
Y000746D02*
X012622D01*
X010456Y002753D02*
X012622D01*
X014636Y008193D02*
Y012406D01*
X021132Y008193D02*
Y012406D01*
X014636D02*
X021132D01*
X014636Y008193D02*
X021132D01*
X006735Y001002D02*
X009865D01*
X006735Y003797D02*
X009865D01*
Y001002D02*
Y003797D01*
X006735Y001002D02*
Y003797D01*
G54D97*
X012618Y009729D02*
Y010870D01*
Y009729D02*
X013248D01*
Y010870*
X012618D02*
X013248D01*
G54D14*
X012381Y010869D02*
X012380Y010870D01*
Y010870*
Y010871*
X012381Y010872*
X012382Y010872*
X012383Y010871*
Y010870*
Y010870*
X012382Y010869*
X012381*
X013459Y010727D02*
Y010620D01*
X013269*
Y010727*
X013307*
X013459*
G54D13*
X013409Y010677D02*
Y010670D01*
X013319*
Y010677*
X013307*
X013409*
G54D14*
X012597Y010620D02*
X012555D01*
X012406*
Y010727*
X012555*
X012597*
Y010620*
G54D13*
X012547Y010670D02*
X012555D01*
X012456*
Y010677*
X012555*
X012547*
Y010670*
G54D14*
X012597Y010246D02*
X012406D01*
Y010353*
X012597*
Y010246*
G54D13*
X012547Y010296D02*
X012456D01*
Y010303*
X012547*
Y010296*
G54D14*
X013459Y009872D02*
X013307D01*
X013269*
Y009979*
X013459*
Y009872*
G54D13*
X013409Y009922D02*
X013307D01*
X013319*
Y009929*
X013409*
Y009922*
G54D14*
X012559Y009979D02*
X012597D01*
Y009872*
X012555*
X012406*
Y009979*
X012559*
G54D13*
X012559Y009929D02*
X012547D01*
Y009922*
X012555*
X012456*
Y009929*
X012559*
M02*