%FSDAX24Y24*%
%MOIN*%
%SFA1B1*%

%IPPOS*%
%AMD27*
4,1,8,0.063000,-0.018700,0.063000,0.018700,0.044300,0.037400,-0.044300,0.037400,-0.063000,0.018700,-0.063000,-0.018700,-0.044300,-0.037400,0.044300,-0.037400,0.063000,-0.018700,0.0*
%
%ADD15R,0.014110X0.015330*%
%ADD16R,0.019710X0.015410*%
%ADD17R,0.019520X0.015330*%
%ADD18R,0.039370X0.043310*%
%ADD19R,0.330710X0.397640*%
%ADD20R,0.151580X0.037400*%
%ADD21R,0.043310X0.039370*%
%ADD22R,0.039370X0.023620*%
%ADD23O,0.070870X0.013780*%
%ADD24O,0.086610X0.023620*%
%ADD25R,0.055120X0.023620*%
%ADD26R,0.070870X0.023620*%
G04~CAMADD=27~4~0.0~0.0~748.0~1259.8~0.0~187.0~0~0.0~0.0~0.0~0.0~0~0.0~0.0~0.0~0.0~0~0.0~0.0~0.0~270.0~1260.0~748.0*
%ADD27D27*%
%ADD28R,0.059060X0.051180*%
%LNpcb_dimmerbard-1*%
%LPD*%
G54D15*
X010405Y001502D03*
X010409Y001756D03*
X010412Y002013D03*
X010301Y002785D03*
X010301Y003046D03*
G54D16*
X010150Y001504D03*
X010154Y001757D03*
X010156Y002016D03*
X010049Y002785D03*
G54D17*
X010052Y003044D03*
G54D18*
X006000Y003734D03*
Y003065D03*
X005400D03*
Y003734D03*
X005600Y001365D03*
Y002034D03*
X000900Y005715D03*
Y006384D03*
Y004384D03*
Y003715D03*
X013750Y001315D03*
Y001984D03*
X011750Y007780D03*
Y008450D03*
X012450Y007780D03*
Y008450D03*
X011500Y003215D03*
Y003884D03*
G54D19*
X019367Y005500D03*
X019400Y010300D03*
G54D20*
X015450Y004500D03*
Y006500D03*
X015482Y011300D03*
Y009300D03*
G54D21*
X013415Y009300D03*
X013734Y002800D03*
X013065D03*
X014084Y009300D03*
X011765Y007150D03*
X012434D03*
X011765Y009200D03*
X012434D03*
G54D22*
X012500Y010300D03*
X013366Y010674D03*
Y009925D03*
X012500Y010673D03*
Y009926D03*
G54D23*
X009422Y002016D03*
Y001504D03*
Y001760D03*
Y002783D03*
Y003039D03*
Y001248D03*
Y002272D03*
Y002528D03*
Y003295D03*
Y003551D03*
X007178Y001248D03*
Y001504D03*
Y001760D03*
Y002016D03*
Y002272D03*
Y002528D03*
Y002783D03*
Y003039D03*
Y003295D03*
Y003551D03*
G54D24*
X015100Y002050D03*
Y001550D03*
Y001050D03*
Y000550D03*
X016989Y002050D03*
Y001550D03*
Y001050D03*
Y000550D03*
G54D25*
X012248Y001159D03*
Y002340D03*
G54D26*
X012169Y001750D03*
G54D27*
X011185Y001750D03*
G54D28*
X014150Y010724D03*
Y009976D03*
X013050Y001276D03*
Y002024D03*
X010800Y003226D03*
Y003974D03*
M02*