%FSDAX24Y24*%
%MOIN*%
%SFA1B1*%

%IPPOS*%
%ADD10C,0.009840*%
%ADD11C,0.007870*%
%ADD93C,0.015750*%
%LNpcb_dimmerbard-1*%
%LPD*%
G54D10*
X010994Y008684D02*
D01*
X010993Y008688*
X010993Y008691*
X010993Y008694*
X010992Y008698*
X010991Y008701*
X010989Y008704*
X010988Y008707*
X010986Y008710*
X010984Y008713*
X010982Y008716*
X010980Y008718*
X010977Y008721*
X010975Y008723*
X010972Y008725*
X010969Y008727*
X010966Y008728*
X010963Y008730*
X010960Y008731*
X010956Y008732*
X010953Y008733*
X010950Y008733*
X010946Y008733*
X010943*
X010939Y008733*
X010936Y008733*
X010932Y008732*
X010929Y008731*
X010926Y008730*
X010923Y008728*
X010920Y008727*
X010917Y008725*
X010914Y008723*
X010911Y008721*
X010909Y008718*
X010907Y008716*
X010905Y008713*
X010903Y008710*
X010901Y008707*
X010899Y008704*
X010898Y008701*
X010897Y008698*
X010896Y008694*
X010896Y008691*
X010895Y008688*
X010895Y008684*
X010895Y008681*
X010896Y008677*
X010896Y008674*
X010897Y008671*
X010898Y008667*
X010899Y008664*
X010901Y008661*
X010903Y008658*
X010905Y008655*
X010907Y008653*
X010909Y008650*
X010911Y008648*
X010914Y008645*
X010917Y008643*
X010920Y008642*
X010923Y008640*
X010926Y008639*
X010929Y008637*
X010932Y008636*
X010936Y008636*
X010939Y008635*
X010943Y008635*
X010946*
X010950Y008635*
X010953Y008636*
X010956Y008636*
X010960Y008637*
X010963Y008639*
X010966Y008640*
X010969Y008642*
X010972Y008643*
X010975Y008645*
X010977Y008648*
X010980Y008650*
X010982Y008653*
X010984Y008655*
X010986Y008658*
X010988Y008661*
X010989Y008664*
X010991Y008667*
X010992Y008671*
X010993Y008674*
X010993Y008677*
X010993Y008681*
X010994Y008684*
X012069Y004039D02*
D01*
X012069Y004042*
X012068Y004045*
X012068Y004049*
X012067Y004052*
X012066Y004055*
X012065Y004059*
X012063Y004062*
X012061Y004065*
X012059Y004067*
X012057Y004070*
X012055Y004073*
X012053Y004075*
X012050Y004077*
X012047Y004079*
X012044Y004081*
X012041Y004083*
X012038Y004084*
X012035Y004085*
X012032Y004086*
X012028Y004087*
X012025Y004087*
X012021Y004088*
X012018*
X012014Y004087*
X012011Y004087*
X012008Y004086*
X012004Y004085*
X012001Y004084*
X011998Y004083*
X011995Y004081*
X011992Y004079*
X011989Y004077*
X011987Y004075*
X011984Y004073*
X011982Y004070*
X011980Y004067*
X011978Y004065*
X011976Y004062*
X011975Y004059*
X011973Y004055*
X011972Y004052*
X011971Y004049*
X011971Y004045*
X011971Y004042*
X011970Y004039*
X011971Y004035*
X011971Y004032*
X011971Y004028*
X011972Y004025*
X011973Y004022*
X011975Y004018*
X011976Y004015*
X011978Y004012*
X011980Y004010*
X011982Y004007*
X011984Y004004*
X011987Y004002*
X011989Y004000*
X011992Y003998*
X011995Y003996*
X011998Y003994*
X012001Y003993*
X012004Y003992*
X012008Y003991*
X012011Y003990*
X012014Y003990*
X012018Y003989*
X012021*
X012025Y003990*
X012028Y003990*
X012032Y003991*
X012035Y003992*
X012038Y003993*
X012041Y003994*
X012044Y003996*
X012047Y003998*
X012050Y004000*
X012053Y004002*
X012055Y004004*
X012057Y004007*
X012059Y004010*
X012061Y004012*
X012063Y004015*
X012065Y004018*
X012066Y004022*
X012067Y004025*
X012068Y004028*
X012068Y004032*
X012069Y004035*
X012069Y004039*
X007073Y004058D02*
D01*
X007073Y004062*
X007072Y004065*
X007072Y004068*
X007071Y004072*
X007070Y004075*
X007068Y004078*
X007067Y004081*
X007065Y004084*
X007063Y004087*
X007061Y004090*
X007059Y004092*
X007056Y004095*
X007054Y004097*
X007051Y004099*
X007048Y004101*
X007045Y004102*
X007042Y004104*
X007039Y004105*
X007035Y004106*
X007032Y004107*
X007029Y004107*
X007025Y004107*
X007022*
X007018Y004107*
X007015Y004107*
X007012Y004106*
X007008Y004105*
X007005Y004104*
X007002Y004102*
X006999Y004101*
X006996Y004099*
X006993Y004097*
X006991Y004095*
X006988Y004092*
X006986Y004090*
X006984Y004087*
X006982Y004084*
X006980Y004081*
X006979Y004078*
X006977Y004075*
X006976Y004072*
X006975Y004068*
X006975Y004065*
X006974Y004062*
X006974Y004058*
X006974Y004055*
X006975Y004051*
X006975Y004048*
X006976Y004045*
X006977Y004041*
X006979Y004038*
X006980Y004035*
X006982Y004032*
X006984Y004029*
X006986Y004027*
X006988Y004024*
X006991Y004022*
X006993Y004019*
X006996Y004017*
X006999Y004016*
X007002Y004014*
X007005Y004013*
X007008Y004011*
X007012Y004010*
X007015Y004010*
X007018Y004009*
X007022Y004009*
X007025*
X007029Y004009*
X007032Y004010*
X007035Y004010*
X007039Y004011*
X007042Y004013*
X007045Y004014*
X007048Y004016*
X007051Y004017*
X007054Y004019*
X007056Y004022*
X007059Y004024*
X007061Y004027*
X007063Y004029*
X007065Y004032*
X007067Y004035*
X007068Y004038*
X007070Y004041*
X007071Y004045*
X007072Y004048*
X007072Y004051*
X007073Y004055*
X007073Y004058*
X008448Y010094D02*
D01*
X008448Y010097*
X008448Y010101*
X008447Y010104*
X008446Y010108*
X008445Y010111*
X008444Y010114*
X008443Y010117*
X008441Y010120*
X008439Y010123*
X008437Y010126*
X008434Y010128*
X008432Y010131*
X008429Y010133*
X008427Y010135*
X008424Y010137*
X008421Y010138*
X008418Y010140*
X008414Y010141*
X008411Y010142*
X008408Y010142*
X008404Y010143*
X008401Y010143*
X008397*
X008394Y010143*
X008391Y010142*
X008387Y010142*
X008384Y010141*
X008381Y010140*
X008378Y010138*
X008375Y010137*
X008372Y010135*
X008369Y010133*
X008366Y010131*
X008364Y010128*
X008361Y010126*
X008359Y010123*
X008357Y010120*
X008356Y010117*
X008354Y010114*
X008353Y010111*
X008352Y010108*
X008351Y010104*
X008350Y010101*
X008350Y010097*
X008350Y010094*
X008350Y010091*
X008350Y010087*
X008351Y010084*
X008352Y010080*
X008353Y010077*
X008354Y010074*
X008356Y010071*
X008357Y010068*
X008359Y010065*
X008361Y010062*
X008364Y010060*
X008366Y010057*
X008369Y010055*
X008372Y010053*
X008375Y010051*
X008378Y010050*
X008381Y010048*
X008384Y010047*
X008387Y010046*
X008391Y010046*
X008394Y010045*
X008397Y010045*
X008401*
X008404Y010045*
X008408Y010046*
X008411Y010046*
X008414Y010047*
X008418Y010048*
X008421Y010050*
X008424Y010051*
X008427Y010053*
X008429Y010055*
X008432Y010057*
X008434Y010060*
X008437Y010062*
X008439Y010065*
X008441Y010068*
X008443Y010071*
X008444Y010074*
X008445Y010077*
X008446Y010080*
X008447Y010084*
X008448Y010087*
X008448Y010091*
X008448Y010094*
G54D11*
X010354Y006615D02*
Y008584D01*
X009645Y006615D02*
Y008584D01*
X010354*
X009645Y006615D02*
X010354D01*
X004880Y011142D02*
Y011457D01*
X007319Y001592D02*
Y001907D01*
X012748Y001644D02*
Y002155D01*
X012324Y001316D02*
Y001395D01*
X011576Y001316D02*
Y001395D01*
X012324Y000804D02*
Y000883D01*
X011576Y000804D02*
Y000883D01*
Y001395D02*
X012324D01*
X011576Y000804D02*
X012324D01*
X012166Y000883D02*
X012324D01*
X012166Y000804D02*
Y000883D01*
Y001316D02*
Y001395D01*
Y001316D02*
X012324D01*
X011216Y003276D02*
X011295D01*
X011216Y004024D02*
X011295D01*
X010704Y003276D02*
X010783D01*
X010704Y004024D02*
X010783D01*
X011295Y003276D02*
Y004024D01*
X010704Y003276D02*
Y004024D01*
X010783Y003276D02*
Y003433D01*
X010704D02*
X010783D01*
X011216D02*
X011295D01*
X011216Y003276D02*
Y003433D01*
X014074Y001816D02*
Y001895D01*
X013326Y001816D02*
Y001895D01*
X014074Y001304D02*
Y001383D01*
X013326Y001304D02*
Y001383D01*
Y001895D02*
X014074D01*
X013326Y001304D02*
X014074D01*
X013916Y001383D02*
X014074D01*
X013916Y001304D02*
Y001383D01*
Y001816D02*
Y001895D01*
Y001816D02*
X014074D01*
Y003416D02*
Y003495D01*
X013326Y003416D02*
Y003495D01*
X014074Y002904D02*
Y002983D01*
X013326Y002904D02*
Y002983D01*
Y003495D02*
X014074D01*
X013326Y002904D02*
X014074D01*
X013916Y002983D02*
X014074D01*
X013916Y002904D02*
Y002983D01*
Y003416D02*
Y003495D01*
Y003416D02*
X014074D01*
X013326Y003704D02*
Y003783D01*
X014074Y003704D02*
Y003783D01*
X013326Y004216D02*
Y004295D01*
X014074Y004216D02*
Y004295D01*
X013326Y003704D02*
X014074D01*
X013326Y004295D02*
X014074D01*
X013326Y004216D02*
X013483D01*
Y004295*
Y003704D02*
Y003783D01*
X013326D02*
X013483D01*
X013313Y002104D02*
Y002183D01*
X014061Y002104D02*
Y002183D01*
X013313Y002616D02*
Y002695D01*
X014061Y002616D02*
Y002695D01*
X013313Y002104D02*
X014061D01*
X013313Y002695D02*
X014061D01*
X013313Y002616D02*
X013470D01*
Y002695*
Y002104D02*
Y002183D01*
X013313D02*
X013470D01*
X012134Y003442D02*
X012665D01*
X012134Y003757D02*
X012665D01*
Y003442D02*
Y003757D01*
X012134Y003442D02*
Y003757D01*
X006374Y003940D02*
X006571D01*
X006374Y003625D02*
Y003940D01*
Y002759D02*
X006571D01*
X006374D02*
Y003074D01*
X002798Y010094D02*
Y010605D01*
X002719Y010942D02*
Y011257D01*
X013619Y010392D02*
Y010707D01*
X013698Y010994D02*
Y011505D01*
Y011794D02*
Y012305D01*
X009521Y009681D02*
X010978D01*
X009521D02*
Y012318D01*
X010978*
Y009681D02*
Y012318D01*
X005100Y010817D02*
X006399D01*
X005100Y009282D02*
X006399D01*
Y010817*
X006324Y009282D02*
Y010817D01*
G54D93*
X010118Y008269D02*
D01*
X010117Y008274*
X010117Y008280*
X010116Y008285*
X010115Y008290*
X010113Y008296*
X010111Y008301*
X010108Y008306*
X010106Y008311*
X010103Y008315*
X010099Y008319*
X010096Y008323*
X010092Y008327*
X010087Y008331*
X010083Y008334*
X010078Y008337*
X010073Y008340*
X010068Y008342*
X010063Y008344*
X010058Y008345*
X010053Y008346*
X010047Y008347*
X010042Y008347*
X010036*
X010031Y008347*
X010025Y008346*
X010020Y008345*
X010015Y008344*
X010009Y008342*
X010004Y008340*
X010000Y008337*
X009995Y008334*
X009990Y008331*
X009986Y008327*
X009982Y008323*
X009979Y008319*
X009975Y008315*
X009972Y008311*
X009969Y008306*
X009967Y008301*
X009965Y008296*
X009963Y008290*
X009962Y008285*
X009961Y008280*
X009960Y008274*
X009960Y008269*
X009960Y008263*
X009961Y008258*
X009962Y008252*
X009963Y008247*
X009965Y008242*
X009967Y008237*
X009969Y008232*
X009972Y008227*
X009975Y008223*
X009979Y008218*
X009982Y008214*
X009986Y008210*
X009990Y008207*
X009995Y008204*
X010000Y008201*
X010004Y008198*
X010009Y008196*
X010015Y008194*
X010020Y008192*
X010025Y008191*
X010031Y008191*
X010036Y008190*
X010042*
X010047Y008191*
X010053Y008191*
X010058Y008192*
X010063Y008194*
X010068Y008196*
X010073Y008198*
X010078Y008201*
X010083Y008204*
X010087Y008207*
X010092Y008210*
X010096Y008214*
X010099Y008218*
X010103Y008223*
X010106Y008227*
X010108Y008232*
X010111Y008237*
X010113Y008242*
X010115Y008247*
X010116Y008252*
X010117Y008258*
X010117Y008263*
X010118Y008269*
M02*