%FSDAX24Y24*%
%MOIN*%
%SFA1B1*%

%IPPOS*%
%ADD10C,0.010000*%
%ADD22C,0.060000*%
%ADD23R,0.059060X0.059060*%
%ADD24C,0.059060*%
%ADD25R,0.059060X0.059060*%
%ADD26C,0.059060*%
%LNpcb_controlboard-1*%
%LPD*%
G54D10*
X005114Y006642D02*
X005642D01*
X009400Y010400D02*
X011800D01*
X005642Y006642D02*
X009400Y010400D01*
X011800D02*
X012000Y010200D01*
Y009400D02*
X012500Y008900D01*
X012000Y009400D02*
Y010200D01*
X006885Y006642D02*
Y007385D01*
X009400Y009900*
X011500*
X013300Y003800D02*
Y004800D01*
X013500Y005000*
Y008900*
X012500D02*
X013500D01*
X018300Y000800D02*
X019000Y001500D01*
Y009400*
X018500Y009900D02*
X019000Y009400D01*
X017300Y000800D02*
Y001800D01*
X017800Y002300*
Y004600*
X018000Y004800*
Y009400*
X017500Y009900D02*
X018000Y009400D01*
X016600Y009900D02*
X017000Y009500D01*
X016500Y009900D02*
X016600D01*
X017000Y004800D02*
Y009500D01*
X016800Y004600D02*
X017000Y004800D01*
X016800Y002300D02*
Y004600D01*
X016300Y001800D02*
X016800Y002300D01*
X016300Y000800D02*
Y001800D01*
X015300Y000800D02*
Y001700D01*
X015800Y002200*
Y004600*
X016000Y004800*
Y009400*
X015500Y009900D02*
X016000Y009400D01*
X014500Y009900D02*
X015000Y009400D01*
Y004800D02*
Y009400D01*
X014800Y004600D02*
X015000Y004800D01*
X014800Y002300D02*
Y004600D01*
X014300Y001800D02*
X014800Y002300D01*
X014300Y000800D02*
Y001800D01*
X013856Y009543D02*
X014000Y009400D01*
X013800Y002400D02*
Y004600D01*
X013300Y001900D02*
X013800Y002400D01*
X014000Y004800D02*
Y009400D01*
X013800Y004600D02*
X014000Y004800D01*
X013500Y009900D02*
X013856Y009543D01*
X013300Y000800D02*
Y001900D01*
G54D22*
X005114Y010685D03*
X006885D03*
X005114Y008914D03*
X006885D03*
X005114Y006642D03*
X006885D03*
X005114Y004871D03*
X006885D03*
X005114Y002600D03*
X006885D03*
X005114Y000828D03*
X006885D03*
G54D23*
X011500Y008900D03*
G54D24*
X011500Y009900D03*
X012500Y008900D03*
Y009900D03*
X013500Y008900D03*
Y009900D03*
X014500Y008900D03*
Y009900D03*
X015500Y008900D03*
Y009900D03*
X016500Y008900D03*
Y009900D03*
X017500Y008900D03*
Y009900D03*
X018500Y008900D03*
Y009900D03*
X018300Y000800D03*
X013300Y003800D03*
X014300D03*
X015300D03*
X016300D03*
X017300D03*
X018300D03*
G54D25*
X013300Y000800D03*
G54D26*
X014300Y000800D03*
X015300D03*
X016300D03*
X017300D03*
M02*