%FSDAX24Y24*%
%MOIN*%
%SFA1B1*%

%IPPOS*%
%ADD10C,0.010000*%
%ADD11C,0.007870*%
%ADD12C,0.005000*%
%LNpcb_controlboard-1*%
%LPD*%
G54D10*
X006531Y009800D02*
D01*
X006530Y009837*
X006526Y009873*
X006519Y009910*
X006510Y009946*
X006499Y009981*
X006485Y010016*
X006469Y010049*
X006450Y010081*
X006429Y010112*
X006407Y010141*
X006382Y010169*
X006355Y010194*
X006327Y010218*
X006297Y010240*
X006265Y010260*
X006232Y010277*
X006199Y010292*
X006164Y010305*
X006128Y010315*
X006092Y010323*
X006055Y010328*
X006018Y010331*
X005981*
X005944Y010328*
X005907Y010323*
X005871Y010315*
X005835Y010305*
X005800Y010292*
X005767Y010277*
X005734Y010260*
X005702Y010240*
X005672Y010218*
X005644Y010194*
X005617Y010169*
X005592Y010141*
X005570Y010112*
X005549Y010081*
X005530Y010049*
X005514Y010016*
X005500Y009981*
X005489Y009946*
X005480Y009910*
X005473Y009873*
X005469Y009837*
X005468Y009800*
X005469Y009762*
X005473Y009726*
X005480Y009689*
X005489Y009653*
X005500Y009618*
X005514Y009583*
X005530Y009550*
X005549Y009518*
X005570Y009487*
X005592Y009458*
X005617Y009430*
X005644Y009405*
X005672Y009381*
X005702Y009359*
X005734Y009339*
X005767Y009322*
X005800Y009307*
X005835Y009294*
X005871Y009284*
X005907Y009276*
X005944Y009271*
X005981Y009268*
X006018*
X006055Y009271*
X006092Y009276*
X006128Y009284*
X006164Y009294*
X006199Y009307*
X006232Y009322*
X006265Y009339*
X006297Y009359*
X006327Y009381*
X006355Y009405*
X006382Y009430*
X006407Y009458*
X006429Y009487*
X006450Y009518*
X006469Y009550*
X006485Y009583*
X006499Y009618*
X006510Y009653*
X006519Y009689*
X006526Y009726*
X006530Y009762*
X006531Y009800*
Y005757D02*
D01*
X006530Y005794*
X006526Y005831*
X006519Y005867*
X006510Y005903*
X006499Y005938*
X006485Y005973*
X006469Y006006*
X006450Y006038*
X006429Y006069*
X006407Y006098*
X006382Y006126*
X006355Y006152*
X006327Y006175*
X006297Y006197*
X006265Y006217*
X006232Y006234*
X006199Y006249*
X006164Y006262*
X006128Y006272*
X006092Y006280*
X006055Y006285*
X006018Y006288*
X005981*
X005944Y006285*
X005907Y006280*
X005871Y006272*
X005835Y006262*
X005800Y006249*
X005767Y006234*
X005734Y006217*
X005702Y006197*
X005672Y006175*
X005644Y006152*
X005617Y006126*
X005592Y006098*
X005570Y006069*
X005549Y006038*
X005530Y006006*
X005514Y005973*
X005500Y005938*
X005489Y005903*
X005480Y005867*
X005473Y005831*
X005469Y005794*
X005468Y005757*
X005469Y005720*
X005473Y005683*
X005480Y005646*
X005489Y005610*
X005500Y005575*
X005514Y005540*
X005530Y005507*
X005549Y005475*
X005570Y005444*
X005592Y005415*
X005617Y005387*
X005644Y005362*
X005672Y005338*
X005702Y005316*
X005734Y005296*
X005767Y005279*
X005800Y005264*
X005835Y005251*
X005871Y005241*
X005907Y005233*
X005944Y005228*
X005981Y005225*
X006018*
X006055Y005228*
X006092Y005233*
X006128Y005241*
X006164Y005251*
X006199Y005264*
X006232Y005279*
X006265Y005296*
X006297Y005316*
X006327Y005338*
X006355Y005362*
X006382Y005387*
X006407Y005415*
X006429Y005444*
X006450Y005475*
X006469Y005507*
X006485Y005540*
X006499Y005575*
X006510Y005610*
X006519Y005646*
X006526Y005683*
X006530Y005720*
X006531Y005757*
Y001714D02*
D01*
X006530Y001751*
X006526Y001788*
X006519Y001824*
X006510Y001860*
X006499Y001895*
X006485Y001930*
X006469Y001963*
X006450Y001995*
X006429Y002026*
X006407Y002055*
X006382Y002083*
X006355Y002109*
X006327Y002133*
X006297Y002154*
X006265Y002174*
X006232Y002191*
X006199Y002206*
X006164Y002219*
X006128Y002229*
X006092Y002237*
X006055Y002242*
X006018Y002245*
X005981*
X005944Y002242*
X005907Y002237*
X005871Y002229*
X005835Y002219*
X005800Y002206*
X005767Y002191*
X005734Y002174*
X005702Y002154*
X005672Y002133*
X005644Y002109*
X005617Y002083*
X005592Y002055*
X005570Y002026*
X005549Y001995*
X005530Y001963*
X005514Y001930*
X005500Y001895*
X005489Y001860*
X005480Y001824*
X005473Y001788*
X005469Y001751*
X005468Y001714*
X005469Y001677*
X005473Y001640*
X005480Y001603*
X005489Y001567*
X005500Y001532*
X005514Y001498*
X005530Y001464*
X005549Y001432*
X005570Y001401*
X005592Y001372*
X005617Y001344*
X005644Y001319*
X005672Y001295*
X005702Y001273*
X005734Y001253*
X005767Y001236*
X005800Y001221*
X005835Y001208*
X005871Y001198*
X005907Y001190*
X005944Y001185*
X005981Y001183*
X006018*
X006055Y001185*
X006092Y001190*
X006128Y001198*
X006164Y001208*
X006199Y001221*
X006232Y001236*
X006265Y001253*
X006297Y001273*
X006327Y001295*
X006355Y001319*
X006382Y001344*
X006407Y001372*
X006429Y001401*
X006450Y001432*
X006469Y001464*
X006485Y001498*
X006499Y001532*
X006510Y001567*
X006519Y001603*
X006526Y001640*
X006530Y001677*
X006531Y001714*
X007100Y008750D02*
Y010900D01*
X004850D02*
X007100D01*
X004850Y008750D02*
Y010900D01*
Y008750D02*
X007100D01*
Y004707D02*
Y006857D01*
X004850D02*
X007100D01*
X004850Y004707D02*
Y006857D01*
Y004707D02*
X007100D01*
Y000664D02*
Y002814D01*
X004850D02*
X007100D01*
X004850Y000664D02*
Y002814D01*
Y000664D02*
X007100D01*
G54D11*
X012481Y002050D02*
D01*
X012498Y002050*
X012515Y002052*
X012533Y002055*
X012550Y002059*
X012566Y002065*
X012582Y002071*
X012598Y002079*
X012613Y002087*
X012628Y002097*
X012641Y002108*
X012654Y002120*
X012666Y002132*
X012678Y002146*
X012688Y002160*
X012697Y002175*
X012705Y002190*
X012712Y002206*
X012718Y002222*
X012723Y002239*
X012727Y002256*
X012729Y002273*
X012730Y002291*
Y002308*
X012729Y002326*
X012727Y002343*
X012723Y002360*
X012718Y002377*
X012712Y002393*
X012705Y002409*
X012697Y002425*
X012688Y002439*
X012678Y002453*
X012666Y002467*
X012654Y002479*
X012641Y002491*
X012628Y002502*
X012613Y002512*
X012598Y002520*
X012582Y002528*
X012566Y002534*
X012550Y002540*
X012533Y002544*
X012515Y002547*
X012498Y002549*
X012481Y002550*
X015642Y005837D02*
Y006310D01*
X016272Y005837D02*
Y006310D01*
X015642D02*
X016272D01*
X015799Y004971D02*
X016114D01*
X015642Y005168D02*
Y005562D01*
X016114Y004971D02*
X016272Y005168D01*
X015642D02*
X015799Y004971D01*
X016272Y005168D02*
Y005562D01*
X018759Y005837D02*
Y006310D01*
X019389Y005837D02*
Y006310D01*
X018759D02*
X019389D01*
X018917Y004971D02*
X019232D01*
X018759Y005168D02*
Y005562D01*
X019232Y004971D02*
X019389Y005168D01*
X018759D02*
X018917Y004971D01*
X019389Y005168D02*
Y005562D01*
X009406Y005837D02*
Y006310D01*
X010036Y005837D02*
Y006310D01*
X009406D02*
X010036D01*
X009563Y004971D02*
X009878D01*
X009406Y005168D02*
Y005562D01*
X009878Y004971D02*
X010036Y005168D01*
X009406D02*
X009563Y004971D01*
X010036Y005168D02*
Y005562D01*
X012524Y005837D02*
Y006310D01*
X013154Y005837D02*
Y006310D01*
X012524D02*
X013154D01*
X012681Y004971D02*
X012996D01*
X012524Y005168D02*
Y005562D01*
X012996Y004971D02*
X013154Y005168D01*
X012524D02*
X012681Y004971D01*
X013154Y005168D02*
Y005562D01*
X006669Y008042D02*
Y008357D01*
Y003942D02*
Y004257D01*
Y003242D02*
Y003557D01*
X019000Y008400D02*
Y010400D01*
X011000Y008400D02*
Y010400D01*
Y008400D02*
X019000D01*
X011000Y010400D02*
X019000D01*
X012481Y001256D02*
Y002050D01*
Y002550D02*
Y003343D01*
X019111Y001256D02*
Y003343D01*
X012481Y001256D02*
X019111D01*
X012481Y003343D02*
X019111D01*
X001385Y005837D02*
Y006310D01*
X002015Y005837D02*
Y006310D01*
X001385D02*
X002015D01*
X001542Y004971D02*
X001857D01*
X001385Y005168D02*
Y005562D01*
X001857Y004971D02*
X002015Y005168D01*
X001385D02*
X001542Y004971D01*
X002015Y005168D02*
Y005562D01*
G54D12*
X010633Y009700D02*
X010500D01*
X010633Y009833*
Y009866*
X010600Y009899*
X010533*
X010500Y009866*
Y008700D02*
X010566D01*
X010533*
Y008899*
X010500Y008866*
X019100Y008700D02*
X019166D01*
X019133*
Y008899*
X019100Y008866*
X019399Y008899D02*
X019266D01*
Y008800*
X019333Y008833*
X019366*
X019399Y008800*
Y008733*
X019366Y008700*
X019299*
X019266Y008733*
X019100Y009700D02*
X019166D01*
X019133*
Y009899*
X019100Y009866*
X019399Y009899D02*
X019333Y009866D01*
X019266Y009800*
Y009733*
X019299Y009700*
X019366*
X019399Y009733*
Y009766*
X019366Y009800*
X019266*
X012623Y004556D02*
X012590Y004589D01*
X012523*
X012490Y004556*
Y004523*
X012523Y004490*
X012590*
X012623Y004456*
Y004423*
X012590Y004390*
X012523*
X012490Y004423*
X012789Y004390D02*
Y004589D01*
X012689Y004490*
X012823*
X004953Y003356D02*
X004920Y003389D01*
X004853*
X004820Y003356*
Y003323*
X004853Y003290*
X004920*
X004953Y003256*
Y003223*
X004920Y003190*
X004853*
X004820Y003223*
X005019Y003356D02*
X005053Y003389D01*
X005119*
X005153Y003356*
Y003323*
X005119Y003290*
X005086*
X005119*
X005153Y003256*
Y003223*
X005119Y003190*
X005053*
X005019Y003223*
X004953Y007396D02*
X004920Y007429D01*
X004853*
X004820Y007396*
Y007363*
X004853Y007330*
X004920*
X004953Y007296*
Y007263*
X004920Y007230*
X004853*
X004820Y007263*
X005153Y007230D02*
X005019D01*
X005153Y007363*
Y007396*
X005119Y007429*
X005053*
X005019Y007396*
X004953Y011446D02*
X004920Y011479D01*
X004853*
X004820Y011446*
Y011413*
X004853Y011380*
X004920*
X004953Y011346*
Y011313*
X004920Y011280*
X004853*
X004820Y011313*
X005019Y011280D02*
X005086D01*
X005053*
Y011479*
X005019Y011446*
X002260Y006490D02*
Y006689D01*
X002360*
X002393Y006656*
Y006590*
X002360Y006556*
X002260*
X002326D02*
X002393Y006490D01*
X002459Y006656D02*
X002493Y006689D01*
X002559*
X002593Y006656*
Y006623*
X002559Y006590*
X002526*
X002559*
X002593Y006556*
Y006523*
X002559Y006490*
X002493*
X002459Y006523*
X002793Y006490D02*
X002659D01*
X002793Y006623*
Y006656*
X002759Y006689*
X002693*
X002659Y006656*
X017390Y006490D02*
Y006689D01*
X017490*
X017523Y006656*
Y006590*
X017490Y006556*
X017390*
X017456D02*
X017523Y006490D01*
X017589Y006656D02*
X017623Y006689D01*
X017689*
X017723Y006656*
Y006623*
X017689Y006590*
X017656*
X017689*
X017723Y006556*
Y006523*
X017689Y006490*
X017623*
X017589Y006523*
X017789Y006490D02*
X017856D01*
X017823*
Y006689*
X017789Y006656*
X014260Y006490D02*
Y006689D01*
X014360*
X014393Y006656*
Y006590*
X014360Y006556*
X014260*
X014326D02*
X014393Y006490D01*
X014593D02*
X014459D01*
X014593Y006623*
Y006656*
X014559Y006689*
X014493*
X014459Y006656*
X014793Y006689D02*
X014726Y006656D01*
X014659Y006590*
Y006523*
X014693Y006490*
X014759*
X014793Y006523*
Y006556*
X014759Y006590*
X014659*
X011160Y006490D02*
Y006689D01*
X011260*
X011293Y006656*
Y006590*
X011260Y006556*
X011160*
X011226D02*
X011293Y006490D01*
X011493D02*
X011359D01*
X011493Y006623*
Y006656*
X011459Y006689*
X011393*
X011359Y006656*
X011659Y006490D02*
Y006689D01*
X011559Y006590*
X011693*
X007300Y005566D02*
X007500D01*
Y005466*
X007466Y005433*
X007400*
X007366Y005466*
Y005566*
Y005499D02*
X007300Y005433D01*
Y005233D02*
Y005366D01*
X007433Y005233*
X007466*
X007500Y005266*
Y005333*
X007466Y005366*
Y005166D02*
X007500Y005133D01*
Y005066*
X007466Y005033*
X007433*
X007400Y005066*
Y005100*
Y005066*
X007366Y005033*
X007333*
X007300Y005066*
Y005133*
X007333Y005166*
X010500Y010690D02*
Y010889D01*
X010600*
X010633Y010856*
Y010790*
X010600Y010756*
X010500*
X010699Y010690D02*
X010766D01*
X010733*
Y010889*
X010699Y010856*
X010866Y010889D02*
X010999D01*
Y010856*
X010866Y010723*
Y010690*
X001400Y006799D02*
Y006600D01*
X001500*
X001533Y006633*
Y006766*
X001500Y006799*
X001400*
X001599Y006600D02*
X001666D01*
X001633*
Y006799*
X001599Y006766*
X001899Y006600D02*
X001766D01*
X001899Y006733*
Y006766*
X001866Y006799*
X001799*
X001766Y006766*
X018770Y006799D02*
Y006600D01*
X018870*
X018903Y006633*
Y006766*
X018870Y006799*
X018770*
X018969Y006600D02*
X019036D01*
X019003*
Y006799*
X018969Y006766*
X019136Y006600D02*
X019203D01*
X019169*
Y006799*
X019136Y006766*
X015650Y006799D02*
Y006600D01*
X015750*
X015783Y006633*
Y006766*
X015750Y006799*
X015650*
X015849Y006600D02*
X015916D01*
X015883*
Y006799*
X015849Y006766*
X016016D02*
X016049Y006799D01*
X016116*
X016149Y006766*
Y006633*
X016116Y006600*
X016049*
X016016Y006633*
Y006766*
X012530Y006799D02*
Y006600D01*
X012630*
X012663Y006633*
Y006766*
X012630Y006799*
X012530*
X012729Y006633D02*
X012763Y006600D01*
X012829*
X012863Y006633*
Y006766*
X012829Y006799*
X012763*
X012729Y006766*
Y006733*
X012763Y006700*
X012863*
X009420Y006799D02*
Y006600D01*
X009520*
X009553Y006633*
Y006766*
X009520Y006799*
X009420*
X009619Y006766D02*
X009653Y006799D01*
X009719*
X009753Y006766*
Y006733*
X009719Y006700*
X009753Y006666*
Y006633*
X009719Y006600*
X009653*
X009619Y006633*
Y006666*
X009653Y006700*
X009619Y006733*
Y006766*
X009653Y006700D02*
X009719D01*
X005593Y004056D02*
X005560Y004089D01*
X005493*
X005460Y004056*
Y003923*
X005493Y003890*
X005560*
X005593Y003923*
X005793Y003890D02*
X005659D01*
X005793Y004023*
Y004056*
X005759Y004089*
X005693*
X005659Y004056*
X005859Y003890D02*
X005926D01*
X005893*
Y004089*
X005859Y004056*
X005593Y004756D02*
X005560Y004789D01*
X005493*
X005460Y004756*
Y004623*
X005493Y004590*
X005560*
X005593Y004623*
X005793Y004590D02*
X005659D01*
X005793Y004723*
Y004756*
X005759Y004789*
X005693*
X005659Y004756*
X005859D02*
X005893Y004789D01*
X005959*
X005993Y004756*
Y004623*
X005959Y004590*
X005893*
X005859Y004623*
Y004756*
X005593Y008856D02*
X005560Y008889D01*
X005493*
X005460Y008856*
Y008723*
X005493Y008690*
X005560*
X005593Y008723*
X005659Y008690D02*
X005726D01*
X005693*
Y008889*
X005659Y008856*
X005959Y008690D02*
X005826D01*
X005959Y008823*
Y008856*
X005926Y008889*
X005859*
X005826Y008856*
M02*