%FSDAX24Y24*%
%MOIN*%
%SFA1B1*%

%IPPOS*%
%ADD10C,0.010000*%
%ADD12C,0.005000*%
%ADD13R,0.043310X0.039370*%
%ADD14R,0.031500X0.031500*%
%ADD22C,0.060000*%
%ADD23R,0.059060X0.059060*%
%ADD24C,0.059060*%
%ADD25R,0.059060X0.059060*%
%ADD26C,0.059060*%
%ADD29C,0.020000*%
%ADD30C,0.040000*%
%ADD31C,0.080000*%
%ADD32C,0.160000*%
%ADD33C,0.320000*%
%ADD34C,0.640000*%
%LNpcb_controlboard-1*%
%LPD*%
G54D12*
X021500Y000148D02*
X000156D01*
Y012043*
X021500*
Y000148*
G54D10*
X021450Y000198D02*
X000206D01*
Y011993*
X021450*
Y000198*
G54D29*
X021350Y000298D02*
X000306D01*
Y011893*
X021350*
Y000298*
G54D30*
X021150Y000498D02*
X000506D01*
Y011693*
X021150*
Y000498*
G54D31*
X020750Y000898D02*
X000906D01*
Y011293*
X020750*
Y000898*
G54D32*
X019950Y001698D02*
X001706D01*
Y010493*
X019950*
Y001698*
G54D33*
X018350Y003298D02*
X003306D01*
Y008893*
X018350*
Y003298*
G54D34*
X015150Y006498D02*
X006506D01*
Y005693*
X015150*
Y006498*
%LNpcb_controlboard-2*%
%LPC*%
G36*
X005214Y011073D02*
Y010785D01*
X005501*
X005486Y010840*
X005434Y010931*
X005359Y011005*
X005268Y011058*
X005214Y011073*
G37*
G36*
X005014D02*
X004959Y011058D01*
X004868Y011005*
X004794Y010931*
X004741Y010840*
X004726Y010785*
X005014*
Y011073*
G37*
G36*
X018549Y010274D02*
X018450D01*
X018355Y010248*
X018270Y010199*
X018200Y010129*
X018151Y010044*
X018126Y009949*
Y009850*
X018151Y009755*
X018200Y009670*
X018270Y009600*
X018355Y009551*
X018450Y009526*
X018549*
X018644Y009551*
X018729Y009600*
X018799Y009670*
X018848Y009755*
X018874Y009850*
Y009949*
X018848Y010044*
X018799Y010129*
X018729Y010199*
X018644Y010248*
X018549Y010274*
G37*
G36*
X008100Y011431D02*
X004300D01*
X004249Y011421*
X004207Y011392*
X003041Y010227*
X003013Y010184*
X003003Y010134*
Y006275*
X002839*
Y005724*
X003429*
Y006275*
X003265*
Y010080*
X004354Y011168*
X008045*
X008907Y010307*
X008949Y010278*
X009000Y010268*
X011290*
X011304Y010218*
X011270Y010199*
X011200Y010129*
X011151Y010044*
X011126Y009949*
Y009850*
X011151Y009755*
X011200Y009670*
X011270Y009600*
X011355Y009551*
X011450Y009526*
X011549*
X011644Y009551*
X011729Y009600*
X011799Y009670*
X011848Y009755*
X011874Y009850*
Y009949*
X011848Y010044*
X011799Y010129*
X011729Y010199*
X011696Y010218*
X011709Y010268*
X012290*
X012304Y010218*
X012270Y010199*
X012200Y010129*
X012151Y010044*
X012126Y009949*
Y009850*
X012151Y009755*
X012200Y009670*
X012270Y009600*
X012355Y009551*
X012450Y009526*
X012549*
X012644Y009551*
X012656Y009558*
X012868Y009345*
Y009151*
X012818Y009138*
X012816Y009142*
X012742Y009216*
X012652Y009268*
X012600Y009282*
Y008900*
Y008517*
X012652Y008531*
X012742Y008583*
X012816Y008657*
X012818Y008661*
X012868Y008648*
Y008554*
X012345Y008031*
X007800*
X007749Y008021*
X007707Y007992*
X007407Y007692*
X007378Y007650*
X007368Y007600*
Y004254*
X006679Y003565*
X006629Y003586*
Y003675*
X006039*
Y003124*
X006208*
X006213Y003101*
X006241Y003058*
X006540Y002759*
X006532Y002746*
X006507Y002649*
Y002550*
X006532Y002453*
X006582Y002367*
X006653Y002296*
X006739Y002247*
X006754Y002243*
Y001185*
X006739Y001181*
X006653Y001131*
X006582Y001060*
X006532Y000974*
X006507Y000878*
Y000778*
X006532Y000682*
X006582Y000595*
X006653Y000525*
X006739Y000475*
X006836Y000449*
X006935*
X007032Y000475*
X007118Y000525*
X007188Y000595*
X007238Y000682*
X007264Y000778*
Y000878*
X007238Y000974*
X007188Y001060*
X007118Y001131*
X007032Y001181*
X007017Y001185*
Y002243*
X007032Y002247*
X007118Y002296*
X007188Y002367*
X007238Y002453*
X007264Y002550*
Y002649*
X007238Y002746*
X007188Y002832*
X007118Y002903*
X007032Y002952*
X006935Y002978*
X006836*
X006739Y002952*
X006726Y002945*
X006593Y003078*
X006612Y003124*
X006629*
Y003268*
X006700*
X006750Y003278*
X006792Y003307*
X007592Y004107*
X007621Y004149*
X007631Y004200*
Y007545*
X007854Y007768*
X012400*
X012450Y007778*
X012492Y007807*
X013092Y008407*
X013121Y008449*
X013131Y008500*
Y008648*
X013181Y008661*
X013183Y008657*
X013257Y008583*
X013347Y008531*
X013400Y008517*
Y008900*
Y009282*
X013347Y009268*
X013257Y009216*
X013183Y009142*
X013181Y009138*
X013131Y009151*
Y009400*
X013121Y009450*
X013092Y009492*
X012841Y009743*
X012848Y009755*
X012874Y009850*
Y009949*
X012848Y010044*
X012799Y010129*
X012729Y010199*
X012696Y010218*
X012709Y010268*
X013290*
X013304Y010218*
X013270Y010199*
X013200Y010129*
X013151Y010044*
X013126Y009949*
Y009850*
X013151Y009755*
X013200Y009670*
X013270Y009600*
X013355Y009551*
X013450Y009526*
X013549*
X013644Y009551*
X013729Y009600*
X013799Y009670*
X013818Y009704*
X013868Y009690*
Y009400*
X013878Y009349*
X013907Y009307*
X014158Y009056*
X014151Y009044*
X014126Y008949*
Y008850*
X014151Y008755*
X014200Y008670*
X014270Y008600*
X014355Y008551*
X014450Y008526*
X014549*
X014644Y008551*
X014729Y008600*
X014799Y008670*
X014818Y008704*
X014868Y008690*
Y008454*
X013345Y006931*
X011700*
X011649Y006921*
X011607Y006892*
X011272Y006558*
X011244Y006515*
X011234Y006465*
Y006275*
X011070*
Y005724*
X011660*
Y006275*
X011496*
Y006411*
X011754Y006668*
X013400*
X013450Y006678*
X013492Y006707*
X015092Y008307*
X015121Y008349*
X015131Y008400*
Y008690*
X015181Y008704*
X015200Y008670*
X015270Y008600*
X015355Y008551*
X015450Y008526*
X015549*
X015644Y008551*
X015729Y008600*
X015799Y008670*
X015848Y008755*
X015874Y008850*
Y008949*
X015848Y009044*
X015841Y009056*
X016026Y009240*
X016249*
X016261Y009190*
X016200Y009129*
X016151Y009044*
X016126Y008949*
Y008850*
X016151Y008755*
X016200Y008670*
X016270Y008600*
X016355Y008551*
X016368Y008548*
Y008254*
X014449Y006335*
X014421Y006292*
X014417Y006275*
X014170*
Y005724*
X014760*
Y006275*
X016592Y008107*
X016621Y008149*
X016631Y008200*
Y008548*
X016644Y008551*
X016729Y008600*
X016799Y008670*
X016818Y008704*
X016868Y008690*
Y007700*
X016878Y007649*
X016907Y007607*
X017468Y007045*
Y006275*
X017304*
Y005724*
X017895*
Y006275*
X017731*
Y007100*
X017721Y007150*
X017692Y007192*
X017131Y007754*
Y008690*
X017181Y008704*
X017200Y008670*
X017270Y008600*
X017355Y008551*
X017450Y008526*
X017549*
X017644Y008551*
X017729Y008600*
X017799Y008670*
X017848Y008755*
X017874Y008850*
Y008949*
X017848Y009044*
X017799Y009129*
X017729Y009199*
X017644Y009248*
X017549Y009274*
X017450*
X017355Y009248*
X017343Y009241*
X017131Y009454*
Y009690*
X017181Y009704*
X017200Y009670*
X017270Y009600*
X017355Y009551*
X017450Y009526*
X017549*
X017644Y009551*
X017729Y009600*
X017799Y009670*
X017848Y009755*
X017874Y009850*
Y009949*
X017848Y010044*
X017799Y010129*
X017729Y010199*
X017644Y010248*
X017549Y010274*
X017450*
X017355Y010248*
X017270Y010199*
X017200Y010129*
X017181Y010096*
X017148Y010098*
X017129Y010107*
X017121Y010150*
X017092Y010192*
X016792Y010492*
X016750Y010521*
X016700Y010531*
X015200*
X015149Y010521*
X015107Y010492*
X014907Y010292*
X014878Y010250*
X014868Y010200*
Y010109*
X014818Y010096*
X014799Y010129*
X014729Y010199*
X014644Y010248*
X014549Y010274*
X014450*
X014355Y010248*
X014270Y010199*
X014200Y010129*
X014181Y010096*
X014131Y010109*
Y010200*
X014121Y010250*
X014092Y010292*
X013892Y010492*
X013850Y010521*
X013800Y010531*
X009054*
X008192Y011392*
X008150Y011421*
X008100Y011431*
G37*
G36*
X005501Y010585D02*
X005114D01*
X004726*
X004741Y010531*
X004794Y010440*
X004868Y010365*
X004959Y010313*
X004982Y010306*
Y009293*
X004959Y009286*
X004868Y009234*
X004794Y009159*
X004741Y009068*
X004726Y009014*
X005114*
X005501*
X005486Y009068*
X005434Y009159*
X005359Y009234*
X005268Y009286*
X005245Y009293*
Y010306*
X005268Y010313*
X005359Y010365*
X005434Y010440*
X005486Y010531*
X005501Y010585*
G37*
G36*
X013600Y009282D02*
Y009000D01*
X013882*
X013868Y009052*
X013816Y009142*
X013742Y009216*
X013652Y009268*
X013600Y009282*
G37*
G36*
X012400D02*
X012347Y009268D01*
X012257Y009216*
X012183Y009142*
X012131Y009052*
X012117Y009000*
X012400*
Y009282*
G37*
G36*
X006935Y011064D02*
X006836D01*
X006739Y011038*
X006653Y010988*
X006582Y010918*
X006532Y010832*
X006507Y010735*
Y010636*
X006532Y010539*
X006582Y010453*
X006653Y010382*
X006739Y010332*
X006754Y010328*
Y009271*
X006739Y009267*
X006653Y009217*
X006582Y009146*
X006532Y009060*
X006507Y008964*
Y008864*
X006532Y008768*
X006540Y008754*
X006321Y008535*
X006292Y008492*
X006289Y008475*
X006039*
Y007924*
X006629*
Y008472*
X006726Y008569*
X006739Y008561*
X006836Y008535*
X006935*
X007032Y008561*
X007118Y008611*
X007188Y008681*
X007238Y008768*
X007239Y008768*
X011126*
Y008526*
X011874*
Y009274*
X011126*
Y009031*
X007246*
X007238Y009060*
X007188Y009146*
X007118Y009217*
X007032Y009267*
X007017Y009271*
Y010328*
X007032Y010332*
X007118Y010382*
X007188Y010453*
X007238Y010539*
X007264Y010636*
Y010735*
X007238Y010832*
X007188Y010918*
X007118Y010988*
X007032Y011038*
X006935Y011064*
G37*
G36*
X013882Y008800D02*
X013600D01*
Y008517*
X013652Y008531*
X013742Y008583*
X013816Y008657*
X013868Y008747*
X013882Y008800*
G37*
G36*
X012400D02*
X012117D01*
X012131Y008747*
X012183Y008657*
X012257Y008583*
X012347Y008531*
X012400Y008517*
Y008800*
G37*
G36*
X005981Y008496D02*
X005765D01*
Y008300*
X005981*
Y008496*
G37*
G36*
Y008100D02*
X005765D01*
Y007903*
X005981*
Y008100*
G37*
G36*
X005501Y008814D02*
X005114D01*
X004726*
X004741Y008759*
X004794Y008668*
X004868Y008594*
X004959Y008541*
X004982Y008535*
Y008200*
Y007021*
X004959Y007015*
X004868Y006963*
X004794Y006888*
X004741Y006797*
X004726Y006742*
X005114*
X005501*
X005486Y006797*
X005434Y006888*
X005359Y006963*
X005268Y007015*
X005245Y007021*
Y008068*
X005348*
Y007903*
X005565*
Y008200*
Y008496*
X005348*
Y008331*
X005245*
Y008535*
X005268Y008541*
X005359Y008594*
X005434Y008668*
X005486Y008759*
X005501Y008814*
G37*
G36*
X002760Y006275D02*
X002170D01*
Y006126*
X001936*
Y006231*
X001463*
Y005759*
X001936*
Y005864*
X002170*
Y005724*
X002760*
Y006275*
G37*
G36*
X018564D02*
X017974D01*
Y005724*
X018564*
Y005868*
X018838*
Y005759*
X019311*
Y006231*
X018838*
Y006131*
X018564*
Y006275*
G37*
G36*
X015429D02*
X014839D01*
Y005724*
X015429*
Y005868*
X015720*
Y005759*
X016193*
Y006231*
X015720*
Y006131*
X015429*
Y006275*
G37*
G36*
X012329D02*
X011739D01*
Y005724*
X012329*
Y005868*
X012602*
Y005759*
X013075*
Y006231*
X012602*
Y006131*
X012329*
Y006275*
G37*
G36*
X009229D02*
X008639D01*
Y005724*
X009229*
Y005868*
X009485*
Y005759*
X009957*
Y006231*
X009485*
Y006131*
X009229*
Y006275*
G37*
G36*
X018974Y005662D02*
X018817D01*
Y005536*
X016214*
Y005662*
X016057*
Y005404*
Y005147*
X016214*
Y005273*
X018817*
Y005147*
X018943*
Y004629*
X018471Y004157*
X018452Y004168*
X018400Y004182*
Y003900*
X018682*
X018668Y003952*
X018657Y003971*
X019167Y004482*
X019196Y004524*
X019206Y004574*
Y005147*
X019332*
Y005304*
X019074*
Y005404*
X018974*
Y005662*
G37*
G36*
X015857D02*
X015699D01*
Y005536*
X013096*
Y005662*
X012939*
Y005404*
Y005147*
X013096*
Y005273*
X015699*
Y005147*
X015857*
Y005404*
Y005662*
G37*
G36*
X012739D02*
X012581D01*
Y005536*
X009978*
Y005662*
X009821*
Y005404*
Y005147*
X009978*
Y005273*
X012581*
Y005147*
X012739*
Y005404*
Y005662*
G37*
G36*
X019332D02*
X019174D01*
Y005504*
X019332*
Y005662*
G37*
G36*
X001957D02*
X001800D01*
Y005504*
X001957*
Y005662*
G37*
G36*
X009621D02*
X009463D01*
Y005504*
X009621*
Y005662*
G37*
G36*
X001600D02*
X001442D01*
Y005504*
X001600*
Y005662*
G37*
G36*
X009621Y005304D02*
X009463D01*
Y005147*
X009621*
Y005304*
G37*
G36*
X001600D02*
X001442D01*
Y005147*
X001600*
Y005304*
G37*
G36*
X005501Y006542D02*
X005114D01*
X004726*
X004741Y006488*
X004794Y006397*
X004868Y006322*
X004959Y006270*
X004982Y006264*
Y005250*
X004959Y005244*
X004868Y005191*
X004794Y005116*
X004741Y005025*
X004735Y005002*
X002287*
X001985Y005304*
X001800*
Y005119*
X002140Y004778*
X002183Y004750*
X002233Y004740*
X004735*
X004741Y004716*
X004794Y004625*
X004868Y004551*
X004959Y004498*
X004982Y004492*
Y004100*
Y003350*
Y002978*
X004959Y002972*
X004868Y002920*
X004794Y002845*
X004741Y002754*
X004726Y002700*
X005114*
X005501*
X005486Y002754*
X005434Y002845*
X005359Y002920*
X005268Y002972*
X005245Y002978*
Y003268*
X005348*
Y003103*
X005565*
Y003400*
Y003696*
X005348*
Y003531*
X005245*
Y003968*
X005348*
Y003803*
X005565*
Y004100*
Y004396*
X005348*
Y004231*
X005245*
Y004492*
X005268Y004498*
X005359Y004551*
X005434Y004625*
X005486Y004716*
X005501Y004771*
X005114*
Y004971*
X005501*
X005486Y005025*
X005434Y005116*
X005359Y005191*
X005268Y005244*
X005245Y005250*
Y006264*
X005268Y006270*
X005359Y006322*
X005434Y006397*
X005486Y006488*
X005501Y006542*
G37*
G36*
X006935Y007021D02*
X006836D01*
X006739Y006995*
X006653Y006946*
X006582Y006875*
X006532Y006789*
X006507Y006692*
Y006593*
X006532Y006496*
X006582Y006410*
X006653Y006339*
X006739Y006290*
X006754Y006286*
Y005228*
X006739Y005224*
X006653Y005174*
X006582Y005103*
X006532Y005017*
X006507Y004921*
Y004821*
X006532Y004725*
X006540Y004711*
X006264Y004435*
X006235Y004392*
X006232Y004375*
X006039*
Y003824*
X006629*
Y004375*
X006614Y004413*
X006726Y004526*
X006739Y004518*
X006836Y004492*
X006935*
X007032Y004518*
X007118Y004568*
X007188Y004638*
X007238Y004725*
X007264Y004821*
Y004921*
X007238Y005017*
X007188Y005103*
X007118Y005174*
X007032Y005224*
X007017Y005228*
Y006286*
X007032Y006290*
X007118Y006339*
X007188Y006410*
X007238Y006496*
X007264Y006593*
Y006692*
X007238Y006789*
X007188Y006875*
X007118Y006946*
X007032Y006995*
X006935Y007021*
G37*
G36*
X005981Y004396D02*
X005765D01*
Y004200*
X005981*
Y004396*
G37*
G36*
X013200Y004182D02*
X013147Y004168D01*
X013057Y004116*
X012983Y004042*
X012931Y003952*
X012917Y003900*
X013200*
Y004182*
G37*
G36*
X005981Y004000D02*
X005765D01*
Y003803*
X005981*
Y004000*
G37*
G36*
Y003696D02*
X005765D01*
Y003500*
X005981*
Y003696*
G37*
G36*
X018549Y009274D02*
X018450D01*
X018355Y009248*
X018270Y009199*
X018200Y009129*
X018151Y009044*
X018126Y008949*
Y008850*
X018151Y008755*
X018200Y008670*
X018270Y008600*
X018355Y008551*
X018450Y008526*
X018549*
X018644Y008551*
X018656Y008558*
X019468Y007745*
Y004154*
X018745Y003431*
X018551*
X018538Y003481*
X018542Y003483*
X018616Y003557*
X018668Y003647*
X018682Y003700*
X018300*
Y003800*
X018200*
Y004182*
X018147Y004168*
X018057Y004116*
X017983Y004042*
X017931Y003952*
X017926Y003931*
X017674*
X017668Y003952*
X017616Y004042*
X017542Y004116*
X017452Y004168*
X017400Y004182*
Y003800*
X017200*
Y004182*
X017147Y004168*
X017057Y004116*
X016983Y004042*
X016931Y003952*
X016926Y003931*
X016674*
X016668Y003952*
X016616Y004042*
X016542Y004116*
X016452Y004168*
X016400Y004182*
Y003800*
X016200*
Y004182*
X016147Y004168*
X016057Y004116*
X015983Y004042*
X015931Y003952*
X015925Y003931*
X015674*
X015668Y003952*
X015616Y004042*
X015542Y004116*
X015452Y004168*
X015400Y004182*
Y003800*
X015200*
Y004182*
X015147Y004168*
X015057Y004116*
X014983Y004042*
X014931Y003952*
X014925Y003931*
X014674*
X014668Y003952*
X014616Y004042*
X014542Y004116*
X014452Y004168*
X014400Y004182*
Y003800*
X014200*
Y004182*
X014147Y004168*
X014057Y004116*
X013983Y004042*
X013931Y003952*
X013926Y003931*
X013674*
X013668Y003952*
X013616Y004042*
X013542Y004116*
X013452Y004168*
X013400Y004182*
Y003800*
X013300*
Y003700*
X012917*
X012931Y003647*
X012983Y003557*
X013057Y003483*
X013061Y003481*
X013048Y003431*
X009354*
X008396Y004389*
Y005724*
X008560*
Y006275*
X007970*
Y005724*
X008134*
Y004334*
X008144Y004284*
X008172Y004241*
X009207Y003207*
X009249Y003178*
X009300Y003168*
X018800*
X018850Y003178*
X018892Y003207*
X019692Y004007*
X019721Y004049*
X019731Y004100*
Y007800*
X019721Y007850*
X019692Y007892*
X018841Y008743*
X018848Y008755*
X018874Y008850*
Y008949*
X018848Y009044*
X018799Y009129*
X018729Y009199*
X018644Y009248*
X018549Y009274*
G37*
G36*
X005981Y003300D02*
X005765D01*
Y003103*
X005981*
Y003300*
G37*
G36*
X005501Y002500D02*
X005114D01*
X004726*
X004741Y002445*
X004794Y002354*
X004868Y002279*
X004959Y002227*
X004982Y002221*
Y001207*
X004959Y001201*
X004868Y001148*
X004794Y001074*
X004741Y000982*
X004726Y000928*
X005114*
X005501*
X005486Y000982*
X005434Y001074*
X005359Y001148*
X005268Y001201*
X005245Y001207*
Y002221*
X005268Y002227*
X005359Y002279*
X005434Y002354*
X005486Y002445*
X005501Y002500*
G37*
G36*
Y000728D02*
X005214D01*
Y000441*
X005268Y000455*
X005359Y000508*
X005434Y000582*
X005486Y000674*
X005501Y000728*
G37*
G36*
X005014D02*
X004726D01*
X004741Y000674*
X004794Y000582*
X004868Y000508*
X004959Y000455*
X005014Y000441*
Y000728*
G37*
G36*
X018349Y001174D02*
X018250D01*
X018155Y001148*
X018070Y001099*
X018000Y001029*
X017951Y000944*
X017926Y000849*
Y000750*
X017951Y000655*
X018000Y000570*
X018070Y000500*
X018155Y000451*
X018250Y000426*
X018349*
X018444Y000451*
X018529Y000500*
X018599Y000570*
X018648Y000655*
X018674Y000750*
Y000849*
X018648Y000944*
X018599Y001029*
X018529Y001099*
X018444Y001148*
X018349Y001174*
G37*
G36*
X017349D02*
X017250D01*
X017155Y001148*
X017070Y001099*
X017000Y001029*
X016951Y000944*
X016926Y000849*
Y000750*
X016951Y000655*
X017000Y000570*
X017070Y000500*
X017155Y000451*
X017250Y000426*
X017349*
X017444Y000451*
X017529Y000500*
X017599Y000570*
X017648Y000655*
X017674Y000750*
Y000849*
X017648Y000944*
X017599Y001029*
X017529Y001099*
X017444Y001148*
X017349Y001174*
G37*
G36*
X016349D02*
X016250D01*
X016155Y001148*
X016070Y001099*
X016000Y001029*
X015951Y000944*
X015926Y000849*
Y000750*
X015951Y000655*
X016000Y000570*
X016070Y000500*
X016155Y000451*
X016250Y000426*
X016349*
X016444Y000451*
X016529Y000500*
X016599Y000570*
X016648Y000655*
X016674Y000750*
Y000849*
X016648Y000944*
X016599Y001029*
X016529Y001099*
X016444Y001148*
X016349Y001174*
G37*
G36*
X015349D02*
X015250D01*
X015155Y001148*
X015070Y001099*
X015000Y001029*
X014951Y000944*
X014926Y000849*
Y000750*
X014951Y000655*
X015000Y000570*
X015070Y000500*
X015155Y000451*
X015250Y000426*
X015349*
X015444Y000451*
X015529Y000500*
X015599Y000570*
X015648Y000655*
X015674Y000750*
Y000849*
X015648Y000944*
X015599Y001029*
X015529Y001099*
X015444Y001148*
X015349Y001174*
G37*
G36*
X014349D02*
X014250D01*
X014155Y001148*
X014070Y001099*
X014000Y001029*
X013951Y000944*
X013926Y000849*
Y000750*
X013951Y000655*
X014000Y000570*
X014070Y000500*
X014155Y000451*
X014250Y000426*
X014349*
X014444Y000451*
X014529Y000500*
X014599Y000570*
X014648Y000655*
X014674Y000750*
Y000849*
X014648Y000944*
X014599Y001029*
X014529Y001099*
X014444Y001148*
X014349Y001174*
G37*
G36*
X013674D02*
X012926D01*
Y000426*
X013674*
Y001174*
G37*
%LNpcb_controlboard-3*%
%LPD*%
G54D10*
X001700Y005404D02*
X002233Y004871D01*
X005114*
X003134Y006000D02*
Y010134D01*
X004300Y011300D02*
X008100D01*
X003134Y010134D02*
X004300Y011300D01*
X008100D02*
X009000Y010400D01*
X013800*
X014000Y010200*
Y009400D02*
Y010200D01*
Y009400D02*
X014500Y008900D01*
X015200Y010400D02*
X016700D01*
X015000Y010200D02*
X015200Y010400D01*
X016700D02*
X017000Y010100D01*
X013400Y006800D02*
X015000Y008400D01*
Y010200*
X011700Y006800D02*
X013400D01*
X016500Y008200D02*
Y008900D01*
X014542Y006242D02*
X016500Y008200D01*
X014542Y006077D02*
Y006242D01*
X014465Y006000D02*
X014542Y006077D01*
X017000Y009400D02*
X017500Y008900D01*
X017000Y009400D02*
Y010100D01*
X015972Y009372D02*
X016728D01*
X017000Y009100*
X015500Y008900D02*
X015972Y009372D01*
X017000Y007700D02*
Y009100D01*
Y007700D02*
X017600Y007100D01*
X008265Y004334D02*
Y006000D01*
Y004334D02*
X009300Y003300D01*
X018800*
X019600Y004100*
X018500Y008900D02*
X019600Y007800D01*
Y004100D02*
Y007800D01*
X015957Y005404D02*
X019074D01*
X012839D02*
X015957D01*
X009721D02*
X012839D01*
X011365Y006000D02*
Y006465D01*
X011700Y006800*
X005114Y003350D02*
Y004100D01*
Y002600D02*
Y003350D01*
X005164Y003400D02*
X005665D01*
X005114Y003350D02*
X005164Y003400D01*
X005114Y004100D02*
Y004871D01*
Y004100D02*
X005665D01*
X005114Y008200D02*
Y008914D01*
Y006642D02*
Y008200D01*
X005665*
X005114Y004871D02*
Y006642D01*
Y008914D02*
Y010685D01*
Y000828D02*
Y002600D01*
X006334Y003400D02*
X006700D01*
X007500Y004200D02*
Y007600D01*
X006700Y003400D02*
X007500Y004200D01*
Y007600D02*
X007800Y007900D01*
X012400*
X013000Y008500*
Y009400*
X012500Y009900D02*
X013000Y009400D01*
X006334Y003151D02*
X006885Y002600D01*
X006334Y003151D02*
Y003400D01*
X006885Y000828D02*
Y002600D01*
X006356Y004122D02*
Y004342D01*
X006885Y004871*
X006334Y004100D02*
X006356Y004122D01*
X006885Y004871D02*
Y006642D01*
X006900Y006657*
Y008900D02*
X011500D01*
X006885Y008914D02*
X006900Y008900D01*
X006885Y008914D02*
Y010685D01*
X006414Y008442D02*
X006885Y008914D01*
X006334Y008200D02*
X006414Y008279D01*
Y008442*
X001700Y005995D02*
X002460D01*
X002465Y006000*
X019070D02*
X019074Y005995D01*
X018269Y006000D02*
X019070D01*
X015134D02*
X015952D01*
X015957Y005995*
X012834Y006000D02*
X012839Y005995D01*
X012034Y006000D02*
X012834D01*
X009716D02*
X009721Y005995D01*
X008934Y006000D02*
X009716D01*
X017300Y003800D02*
X018300D01*
X016300D02*
X017300D01*
X015300D02*
X016300D01*
X014300D02*
X015300D01*
X013300D02*
X014300D01*
X019074Y004574D02*
Y005404D01*
X018300Y003800D02*
X019074Y004574D01*
X017600Y006000D02*
Y007100D01*
G54D13*
X008934Y006000D03*
X008265D03*
X005665Y008200D03*
X006334D03*
X005665Y004100D03*
X006334D03*
X005665Y003400D03*
X006334D03*
X012034Y006000D03*
X011365D03*
X015134D03*
X014465D03*
X018269D03*
X017600D03*
X002465D03*
X003134D03*
G54D14*
X015957Y005404D03*
Y005995D03*
X019074Y005404D03*
Y005995D03*
X009721Y005404D03*
Y005995D03*
X012839Y005404D03*
Y005995D03*
X001700Y005404D03*
Y005995D03*
G54D22*
X005114Y010685D03*
X006885D03*
X005114Y008914D03*
X006885D03*
X005114Y006642D03*
X006885D03*
X005114Y004871D03*
X006885D03*
X005114Y002600D03*
X006885D03*
X005114Y000828D03*
X006885D03*
G54D23*
X011500Y008900D03*
G54D24*
X011500Y009900D03*
X012500Y008900D03*
Y009900D03*
X013500Y008900D03*
Y009900D03*
X014500Y008900D03*
Y009900D03*
X015500Y008900D03*
Y009900D03*
X016500Y008900D03*
Y009900D03*
X017500Y008900D03*
Y009900D03*
X018500Y008900D03*
Y009900D03*
X018300Y000800D03*
X013300Y003800D03*
X014300D03*
X015300D03*
X016300D03*
X017300D03*
X018300D03*
G54D25*
X013300Y000800D03*
G54D26*
X014300Y000800D03*
X015300D03*
X016300D03*
X017300D03*
M02*